<?xml version="1.0" encoding="UTF-8"?><svg xmlns="http://www.w3.org/2000/svg" xmlns:xlink="http://www.w3.org/1999/xlink" fill-opacity="1" color-rendering="auto" color-interpolation="auto" text-rendering="auto" stroke="black" stroke-linecap="square" width="1356" stroke-miterlimit="10" shape-rendering="auto" stroke-opacity="1" fill="black" stroke-dasharray="none" font-weight="normal" stroke-width="1" height="1002" font-family="'Dialog'" font-style="normal" stroke-linejoin="miter" font-size="12px" stroke-dashoffset="0" image-rendering="auto">
  <!--Generated by ySVG 2.6-->
  <defs id="genericDefs"/>
  <g>
    <defs id="defs1">
      <clipPath clipPathUnits="userSpaceOnUse" id="clipPath1">
        <path d="M0 0 L1356 0 L1356 1002 L0 1002 L0 0 Z"/>
      </clipPath>
      <clipPath clipPathUnits="userSpaceOnUse" id="clipPath2">
        <path d="M247 -515 L925 -515 L925 -14 L247 -14 L247 -515 Z"/>
      </clipPath>
    </defs>
    <g fill="white" text-rendering="geometricPrecision" shape-rendering="geometricPrecision" transform="scale(2,2) translate(-247,515)" stroke="white">
      <rect x="247" width="678" height="501" y="-515" clip-path="url(#clipPath2)" stroke="none"/>
    </g>
    <g text-rendering="geometricPrecision" stroke-miterlimit="1.45" shape-rendering="geometricPrecision" transform="matrix(2,0,0,2,-494,1030)" stroke-linecap="butt">
      <path fill="none" d="M315.3342 -471.7408 L349.5261 -471.7408" clip-path="url(#clipPath2)"/>
      <path fill="white" d="M364.5261 -471.7408 L348.5261 -477.7408 L348.5261 -465.7408 Z" clip-path="url(#clipPath2)" stroke="none"/>
      <path fill="none" d="M364.5261 -471.7408 L348.5261 -477.7408 L348.5261 -465.7408 Z" clip-path="url(#clipPath2)"/>
      <path fill="none" d="M455.7169 -471.7408 L421.5449 -471.7408" clip-path="url(#clipPath2)"/>
      <path fill="white" d="M406.5449 -471.7408 L422.5449 -465.7408 L422.5449 -477.7408 Z" clip-path="url(#clipPath2)" stroke="none"/>
      <path fill="none" d="M406.5449 -471.7408 L422.5449 -465.7408 L422.5449 -477.7408 Z" clip-path="url(#clipPath2)"/>
      <path fill="none" d="M275.344 -461.7072 L275.344 -444.7421 L385.5398 -444.7421 L385.5398 -453.7481" clip-path="url(#clipPath2)"/>
      <path d="M385.5398 -461.7481 L380.5398 -449.7481 L385.5398 -452.7481 L390.5398 -449.7481 Z" clip-path="url(#clipPath2)" stroke="none"/>
      <text x="292.7514" xml:space="preserve" y="-449.3788" clip-path="url(#clipPath2)" font-family="sans-serif" stroke="none">instantiatedBy</text>
      <path fill="none" d="M285.344 -357.36 L285.344 -404 L414.7358 -404" clip-path="url(#clipPath2)"/>
      <path fill="white" d="M429.7358 -404 L413.7358 -410 L413.7358 -398 Z" clip-path="url(#clipPath2)" stroke="none"/>
      <path fill="none" d="M429.7358 -404 L413.7358 -410 L413.7358 -398 Z" clip-path="url(#clipPath2)"/>
      <path fill="none" d="M488.2355 -357.36 L488.2355 -379.0252" clip-path="url(#clipPath2)"/>
      <path fill="white" d="M488.2355 -394.0252 L482.2355 -378.0252 L494.2355 -378.0252 Z" clip-path="url(#clipPath2)" stroke="none"/>
      <path fill="none" d="M488.2355 -394.0252 L482.2355 -378.0252 L494.2355 -378.0252 Z" clip-path="url(#clipPath2)"/>
      <path fill="none" d="M709.067 -357.386 L709.067 -399 L561.7591 -399" clip-path="url(#clipPath2)"/>
      <path fill="white" d="M546.7591 -399 L562.7591 -393 L562.7591 -405 Z" clip-path="url(#clipPath2)" stroke="none"/>
      <path fill="none" d="M546.7591 -399 L562.7591 -393 L562.7591 -405 Z" clip-path="url(#clipPath2)"/>
      <path fill="none" d="M546.7582 -409 L858.4422 -409 L858.4422 -365.3989" clip-path="url(#clipPath2)"/>
      <path d="M858.4422 -357.3989 L863.4422 -369.3989 L858.4422 -366.3989 L853.4422 -369.3989 Z" clip-path="url(#clipPath2)" stroke="none"/>
      <rect x="682.1445" y="-418.3506" clip-path="url(#clipPath2)" fill="white" width="50.0137" height="18.7012" stroke="none"/>
      <text x="684.1445" xml:space="preserve" y="-404.2861" clip-path="url(#clipPath2)" font-family="sans-serif" stroke="none">hasTime</text>
      <path fill="none" d="M829.9395 -307.3795 L822.4422 -307.3795 L822.4422 -322.4186" clip-path="url(#clipPath2)"/>
      <path fill="white" d="M822.4422 -337.4186 L816.4422 -321.4186 L828.4422 -321.4186 Z" clip-path="url(#clipPath2)" stroke="none"/>
      <path fill="none" d="M822.4422 -337.4186 L816.4422 -321.4186 L828.4422 -321.4186 Z" clip-path="url(#clipPath2)"/>
      <path fill="none" d="M829.9395 -267.3795 L822.4422 -267.3795 L822.4422 -322.4186" clip-path="url(#clipPath2)"/>
      <path fill="white" d="M822.4422 -337.4186 L816.4422 -321.4186 L828.4422 -321.4186 Z" clip-path="url(#clipPath2)" stroke="none"/>
      <path fill="none" d="M822.4422 -337.4186 L816.4422 -321.4186 L828.4422 -321.4186 Z" clip-path="url(#clipPath2)"/>
      <path fill="none" d="M488.2355 -414.0222 L488.2355 -446.7359" clip-path="url(#clipPath2)"/>
      <path fill="white" d="M488.2355 -461.7359 L482.2355 -445.7359 L494.2355 -445.7359 Z" clip-path="url(#clipPath2)" stroke="none"/>
      <path fill="none" d="M488.2355 -461.7359 L482.2355 -445.7359 L494.2355 -445.7359 Z" clip-path="url(#clipPath2)"/>
      <path fill="none" d="M868.4422 -357.3766 L868.4422 -430.9471 L488.4855 -430.9471 L488.3887 -446.7419" clip-path="url(#clipPath2)"/>
      <path fill="white" d="M488.2968 -461.7416 L482.3949 -445.7051 L494.3947 -445.7787 Z" clip-path="url(#clipPath2)" stroke="none"/>
      <path fill="none" d="M488.2968 -461.7416 L482.3949 -445.7051 L494.3947 -445.7787 Z" clip-path="url(#clipPath2)"/>
      <path fill="none" d="M275.344 -357.3489 L275.344 -420.6205 L473.4855 -420.6205 L473.3237 -453.7065" clip-path="url(#clipPath2)"/>
      <path d="M473.2846 -461.7065 L468.3433 -449.6821 L473.3286 -452.7066 L478.3432 -449.731 Z" clip-path="url(#clipPath2)" stroke="none"/>
      <text x="261.7434" xml:space="preserve" y="-427.2572" clip-path="url(#clipPath2)" font-family="sans-serif" stroke="none">attributiveOf:qualityOf/relates/playedBy</text>
      <path fill="none" d="M488.2355 -481.7303 L488.2355 -491.0413 L578.9105 -491.0413 L578.9105 -471.7408 L528.7776 -471.7408" clip-path="url(#clipPath2)"/>
      <path d="M520.7776 -471.7408 L532.7776 -466.7408 L529.7776 -471.7408 L532.7776 -476.7408 Z" clip-path="url(#clipPath2)" stroke="none"/>
      <text x="473.2156" xml:space="preserve" y="-497.678" clip-path="url(#clipPath2)" font-family="sans-serif" stroke="none">temporallyRelatedWith</text>
      <text x="582.9105" xml:space="preserve" y="-476.6772" clip-path="url(#clipPath2)" font-family="sans-serif" stroke="none">hasPart</text>
      <path fill="none" d="M638.0893 -352.3795 L568.7112 -352.3795" clip-path="url(#clipPath2)"/>
      <path d="M560.7112 -352.3795 L572.7112 -347.3795 L569.7112 -352.3795 L572.7112 -357.3795 Z" clip-path="url(#clipPath2)" stroke="none"/>
      <text x="563.7147" xml:space="preserve" y="-359.0163" clip-path="url(#clipPath2)" font-family="sans-serif" stroke="none">participatesIn</text>
      <path fill="none" d="M430.705 -307.3795 L423.2355 -307.3795 L423.2355 -322.4186" clip-path="url(#clipPath2)"/>
      <path fill="white" d="M423.2355 -337.4186 L417.2355 -321.4186 L429.2355 -321.4186 Z" clip-path="url(#clipPath2)" stroke="none"/>
      <path fill="none" d="M423.2355 -337.4186 L417.2355 -321.4186 L429.2355 -321.4186 Z" clip-path="url(#clipPath2)"/>
      <path fill="none" d="M430.705 -187.3795 L423.2355 -187.3795 L423.2355 -322.4186" clip-path="url(#clipPath2)"/>
      <path fill="white" d="M423.2355 -337.4186 L417.2355 -321.4186 L429.2355 -321.4186 Z" clip-path="url(#clipPath2)" stroke="none"/>
      <path fill="none" d="M423.2355 -337.4186 L417.2355 -321.4186 L429.2355 -321.4186 Z" clip-path="url(#clipPath2)"/>
      <path fill="none" d="M478.2355 -357.3882 L478.2355 -374 L420.2355 -374 L420.2355 -365.3882" clip-path="url(#clipPath2)"/>
      <path d="M420.2355 -357.3882 L425.2355 -369.3882 L420.2355 -366.3882 L415.2355 -369.3882 Z" clip-path="url(#clipPath2)" stroke="none"/>
      <text x="303.5657" xml:space="preserve" y="-377.8367" clip-path="url(#clipPath2)" font-family="sans-serif" stroke="none">leadsTo/causes/hasSituationPart</text>
      <path fill="none" d="M319.8142 -227.3795 L367.7898 -227.3795 L367.7898 -342.3795 L407.7505 -342.3795" clip-path="url(#clipPath2)"/>
      <path d="M415.7505 -342.3795 L403.7505 -347.3795 L406.7505 -342.3795 L403.7505 -337.3795 Z" clip-path="url(#clipPath2)" stroke="none"/>
      <rect x="350.781" y="-294.2301" clip-path="url(#clipPath2)" fill="white" width="34.0176" height="18.7012" stroke="none"/>
      <text x="352.781" xml:space="preserve" y="-280.1657" clip-path="url(#clipPath2)" font-family="sans-serif" stroke="none">roleIn</text>
      <path fill="none" d="M724.067 -89.4186 L724.067 -77.3828" clip-path="url(#clipPath2)"/>
      <path d="M724.067 -97.4186 L719.067 -85.4186 L724.067 -88.4186 L729.067 -85.4186 Z" clip-path="url(#clipPath2)" stroke="none"/>
      <text x="730.067" xml:space="preserve" y="-82.6657" clip-path="url(#clipPath2)" font-family="sans-serif" stroke="none">boundaryOf</text>
      <path fill="none" d="M653.09 -307.3795 L645.567 -307.3795 L645.567 -322.4186" clip-path="url(#clipPath2)"/>
      <path fill="white" d="M645.567 -337.4186 L639.567 -321.4186 L651.567 -321.4186 Z" clip-path="url(#clipPath2)" stroke="none"/>
      <path fill="none" d="M645.567 -337.4186 L639.567 -321.4186 L651.567 -321.4186 Z" clip-path="url(#clipPath2)"/>
      <path fill="none" d="M653.09 -227.3795 L645.567 -227.3795 L645.567 -322.3893" clip-path="url(#clipPath2)"/>
      <path fill="white" d="M645.567 -337.3893 L639.567 -321.3893 L651.567 -321.3893 Z" clip-path="url(#clipPath2)" stroke="none"/>
      <path fill="none" d="M645.567 -337.3893 L639.567 -321.3893 L651.567 -321.3893 Z" clip-path="url(#clipPath2)"/>
      <path fill="none" d="M653.09 -147.3795 L645.567 -147.3795 L645.567 -322.3698" clip-path="url(#clipPath2)"/>
      <path fill="white" d="M645.567 -337.3698 L639.567 -321.3698 L651.567 -321.3698 Z" clip-path="url(#clipPath2)" stroke="none"/>
      <path fill="none" d="M645.567 -337.3698 L639.567 -321.3698 L651.567 -321.3698 Z" clip-path="url(#clipPath2)"/>
      <path fill="none" d="M653.09 -267.3795 L645.567 -267.3795 L645.567 -322.4186" clip-path="url(#clipPath2)"/>
      <path fill="white" d="M645.567 -337.4186 L639.567 -321.4186 L651.567 -321.4186 Z" clip-path="url(#clipPath2)" stroke="none"/>
      <path fill="none" d="M645.567 -337.4186 L639.567 -321.4186 L651.567 -321.4186 Z" clip-path="url(#clipPath2)"/>
      <path fill="none" d="M292.844 -217.4127 L292.844 -80 L605.536 -80 L605.536 -342.3795 L630.0664 -342.3795" clip-path="url(#clipPath2)"/>
      <path d="M638.0664 -342.3795 L626.0664 -347.3795 L629.0664 -342.3795 L626.0664 -337.3795 Z" clip-path="url(#clipPath2)" stroke="none"/>
      <rect x="432.1812" y="-89.3506" clip-path="url(#clipPath2)" fill="white" width="34.0176" height="18.7012" stroke="none"/>
      <text x="434.1812" xml:space="preserve" y="-75.2861" clip-path="url(#clipPath2)" font-family="sans-serif" stroke="none">roleIn</text>
      <path fill="none" d="M668.0394 -107.3795 L660.567 -107.3795 L660.567 -122.4186" clip-path="url(#clipPath2)"/>
      <path fill="white" d="M660.567 -137.4186 L654.567 -121.4186 L666.567 -121.4186 Z" clip-path="url(#clipPath2)" stroke="none"/>
      <path fill="none" d="M660.567 -137.4186 L654.567 -121.4186 L666.567 -121.4186 Z" clip-path="url(#clipPath2)"/>
      <path fill="none" d="M668.0394 -67.3795 L660.567 -67.3795 L660.567 -122.4186" clip-path="url(#clipPath2)"/>
      <path fill="white" d="M660.567 -137.4186 L654.567 -121.4186 L666.567 -121.4186 Z" clip-path="url(#clipPath2)" stroke="none"/>
      <path fill="none" d="M660.567 -137.4186 L654.567 -121.4186 L666.567 -121.4186 Z" clip-path="url(#clipPath2)"/>
      <path fill="none" d="M668.0394 -27.3795 L660.567 -27.3795 L660.567 -122.3893" clip-path="url(#clipPath2)"/>
      <path fill="white" d="M660.567 -137.3893 L654.567 -121.3893 L666.567 -121.3893 Z" clip-path="url(#clipPath2)" stroke="none"/>
      <path fill="none" d="M660.567 -137.3893 L654.567 -121.3893 L666.567 -121.3893 Z" clip-path="url(#clipPath2)"/>
      <path fill="none" d="M701.567 -317.3864 L701.567 -328.464 L797.4422 -328.464 L797.4422 -312.3795 L788.1062 -312.3795" clip-path="url(#clipPath2)"/>
      <path d="M780.1062 -312.3795 L792.1062 -307.3795 L789.1062 -312.3795 L792.1062 -317.3795 Z" clip-path="url(#clipPath2)" stroke="none"/>
      <rect x="715.8259" y="-337.8146" clip-path="url(#clipPath2)" fill="white" width="67.3574" height="18.7012" stroke="none"/>
      <text x="717.8259" xml:space="preserve" y="-323.7501" clip-path="url(#clipPath2)" font-family="sans-serif" stroke="none">hasMember</text>
      <path fill="none" d="M724.067 -49.4186 L724.067 -37.3828" clip-path="url(#clipPath2)"/>
      <path d="M724.067 -57.4186 L719.067 -45.4186 L724.067 -48.4186 L729.067 -45.4186 Z" clip-path="url(#clipPath2)" stroke="none"/>
      <text x="730.067" xml:space="preserve" y="-42.6657" clip-path="url(#clipPath2)" font-family="sans-serif" stroke="none">boundaryOf</text>
      <path fill="none" d="M780.0555 -147.3795 L794.9422 -147.3795 L794.9422 -220.3795 L787.9025 -220.3795" clip-path="url(#clipPath2)"/>
      <path d="M779.9025 -220.3795 L791.9025 -215.3795 L788.9025 -220.3795 L791.9025 -225.3795 Z" clip-path="url(#clipPath2)" stroke="none"/>
      <text x="735.1183" xml:space="preserve" y="-162.8333" clip-path="url(#clipPath2)" font-family="sans-serif" stroke="none">hasOwner</text>
      <path fill="none" d="M780.0982 -107.3795 L806.0912 -107.3795 L806.0912 -227.3795 L788.082 -227.3795" clip-path="url(#clipPath2)"/>
      <path d="M780.082 -227.3795 L792.082 -222.3795 L789.082 -227.3795 L792.082 -232.3795 Z" clip-path="url(#clipPath2)" stroke="none"/>
      <rect x="772.7377" y="-137.3207" clip-path="url(#clipPath2)" fill="white" width="66.707" height="18.7012" stroke="none"/>
      <text x="774.7377" xml:space="preserve" y="-123.2563" clip-path="url(#clipPath2)" font-family="sans-serif" stroke="none">boundaryOf</text>
      <path fill="none" d="M716.567 -257.4186 L716.567 -245.3828" clip-path="url(#clipPath2)"/>
      <path d="M716.567 -237.3828 L721.567 -249.3828 L716.567 -246.3828 L711.567 -249.3828 Z" clip-path="url(#clipPath2)" stroke="none"/>
      <text x="722.567" xml:space="preserve" y="-242.6657" clip-path="url(#clipPath2)" font-family="sans-serif" stroke="none">partOf</text>
      <path fill="none" d="M780.0555 -302.3795 L794.9422 -302.3795 L794.9422 -234.3795 L787.9025 -234.3795" clip-path="url(#clipPath2)"/>
      <path d="M779.9025 -234.3795 L791.9025 -229.3795 L788.9025 -234.3795 L791.9025 -239.3795 Z" clip-path="url(#clipPath2)" stroke="none"/>
      <text x="728.6603" xml:space="preserve" y="-285.0809" clip-path="url(#clipPath2)" font-family="sans-serif" stroke="none">hasMember</text>
      <path fill="none" d="M668.0394 -187.3795 L660.567 -187.3795 L660.567 -202.4186" clip-path="url(#clipPath2)"/>
      <path fill="white" d="M660.567 -217.4186 L654.567 -201.4186 L666.567 -201.4186 Z" clip-path="url(#clipPath2)" stroke="none"/>
      <path fill="none" d="M660.567 -217.4186 L654.567 -201.4186 L666.567 -201.4186 Z" clip-path="url(#clipPath2)"/>
      <path fill="none" d="M292.844 -237.4186 L292.844 -249.4023" clip-path="url(#clipPath2)"/>
      <path d="M292.844 -257.4023 L287.844 -245.4023 L292.844 -248.4023 L297.844 -245.4023 Z" clip-path="url(#clipPath2)" stroke="none"/>
      <text x="298.844" xml:space="preserve" y="-242.6657" clip-path="url(#clipPath2)" font-family="sans-serif" stroke="none">roleIn</text>
      <path fill="none" d="M415.7672 -352.3795 L327.8285 -352.3795" clip-path="url(#clipPath2)"/>
      <path d="M319.8285 -352.3795 L331.8285 -347.3795 L328.8285 -352.3795 L331.8285 -357.3795 Z" clip-path="url(#clipPath2)" stroke="none"/>
      <text x="323.7624" xml:space="preserve" y="-357.0163" clip-path="url(#clipPath2)" font-family="sans-serif" stroke="none">hasSituationPart</text>
      <path fill="none" d="M265.8572 -227.3795 L258.344 -227.3795 L258.344 -322.3893" clip-path="url(#clipPath2)"/>
      <path fill="white" d="M258.344 -337.3893 L252.344 -321.3893 L264.344 -321.3893 Z" clip-path="url(#clipPath2)" stroke="none"/>
      <path fill="none" d="M258.344 -337.3893 L252.344 -321.3893 L264.344 -321.3893 Z" clip-path="url(#clipPath2)"/>
      <path fill="none" d="M265.8572 -307.3795 L258.344 -307.3795 L258.344 -322.4186" clip-path="url(#clipPath2)"/>
      <path fill="white" d="M258.344 -337.4186 L252.344 -321.4186 L264.344 -321.4186 Z" clip-path="url(#clipPath2)" stroke="none"/>
      <path fill="none" d="M258.344 -337.4186 L252.344 -321.4186 L264.344 -321.4186 Z" clip-path="url(#clipPath2)"/>
      <path fill="none" d="M265.8572 -267.3795 L258.344 -267.3795 L258.344 -322.4186" clip-path="url(#clipPath2)"/>
      <path fill="white" d="M258.344 -337.4186 L252.344 -321.4186 L264.344 -321.4186 Z" clip-path="url(#clipPath2)" stroke="none"/>
      <path fill="none" d="M258.344 -337.4186 L252.344 -321.4186 L264.344 -321.4186 Z" clip-path="url(#clipPath2)"/>
      <path fill="none" d="M445.7575 -267.3795 L438.2355 -267.3795 L438.2355 -282.4186" clip-path="url(#clipPath2)"/>
      <path fill="white" d="M438.2355 -297.4186 L432.2355 -281.4186 L444.2355 -281.4186 Z" clip-path="url(#clipPath2)" stroke="none"/>
      <path fill="none" d="M438.2355 -297.4186 L432.2355 -281.4186 L444.2355 -281.4186 Z" clip-path="url(#clipPath2)"/>
      <path fill="none" d="M445.7575 -227.3795 L438.2355 -227.3795 L438.2355 -282.4186" clip-path="url(#clipPath2)"/>
      <path fill="white" d="M438.2355 -297.4186 L432.2355 -281.4186 L444.2355 -281.4186 Z" clip-path="url(#clipPath2)" stroke="none"/>
      <path fill="none" d="M438.2355 -297.4186 L432.2355 -281.4186 L444.2355 -281.4186 Z" clip-path="url(#clipPath2)"/>
      <path fill="none" d="M503.2355 -277.4186 L503.2355 -289.4023" clip-path="url(#clipPath2)"/>
      <path d="M503.2355 -297.4023 L498.2355 -285.4023 L503.2355 -288.4023 L508.2355 -285.4023 Z" clip-path="url(#clipPath2)" stroke="none"/>
      <text x="509.2355" xml:space="preserve" y="-282.6657" clip-path="url(#clipPath2)" font-family="sans-serif" stroke="none">hasMember</text>
      <path fill="none" d="M445.7575 -147.3795 L438.2355 -147.3795 L438.2355 -162.4186" clip-path="url(#clipPath2)"/>
      <path fill="white" d="M438.2355 -177.4186 L432.2355 -161.4186 L444.2355 -161.4186 Z" clip-path="url(#clipPath2)" stroke="none"/>
      <path fill="none" d="M438.2355 -177.4186 L432.2355 -161.4186 L444.2355 -161.4186 Z" clip-path="url(#clipPath2)"/>
      <path fill="none" d="M445.7575 -107.3795 L438.2355 -107.3795 L438.2355 -162.4186" clip-path="url(#clipPath2)"/>
      <path fill="white" d="M438.2355 -177.4186 L432.2355 -161.4186 L444.2355 -161.4186 Z" clip-path="url(#clipPath2)" stroke="none"/>
      <path fill="none" d="M438.2355 -177.4186 L432.2355 -161.4186 L444.2355 -161.4186 Z" clip-path="url(#clipPath2)"/>
      <path fill="none" d="M503.2355 -157.4186 L503.2355 -169.4023" clip-path="url(#clipPath2)"/>
      <path d="M503.2355 -177.4023 L498.2355 -165.4023 L503.2355 -168.4023 L508.2355 -165.4023 Z" clip-path="url(#clipPath2)" stroke="none"/>
      <text x="509.2355" xml:space="preserve" y="-162.6657" clip-path="url(#clipPath2)" font-family="sans-serif" stroke="none">hasMember</text>
    </g>
    <g fill="rgb(150,150,150)" text-rendering="geometricPrecision" shape-rendering="geometricPrecision" transform="matrix(2,0,0,2,-494,1030)" stroke="rgb(150,150,150)">
      <rect x="255.344" y="-481.7408" clip-path="url(#clipPath2)" width="60" rx="4" ry="4" height="20" stroke="none"/>
    </g>
    <g stroke-linecap="butt" transform="matrix(2,0,0,2,-494,1030)" fill="white" text-rendering="geometricPrecision" font-family="sans-serif" shape-rendering="geometricPrecision" stroke="white" font-weight="bold" stroke-miterlimit="1.45">
      <text x="259.3372" xml:space="preserve" y="-467.0269" clip-path="url(#clipPath2)" stroke="none">Category</text>
    </g>
    <g stroke-linecap="butt" transform="matrix(2,0,0,2,-494,1030)" fill="rgb(150,150,150)" text-rendering="geometricPrecision" shape-rendering="geometricPrecision" stroke="rgb(150,150,150)" stroke-miterlimit="1.45">
      <rect x="255.344" y="-481.7408" clip-path="url(#clipPath2)" fill="none" width="60" rx="4" ry="4" height="20"/>
      <rect stroke-linecap="square" x="364.5398" y="-481.7408" clip-path="url(#clipPath2)" width="42" rx="4" ry="4" height="20" stroke="none" stroke-miterlimit="10"/>
    </g>
    <g stroke-linecap="butt" transform="matrix(2,0,0,2,-494,1030)" fill="white" text-rendering="geometricPrecision" font-family="sans-serif" shape-rendering="geometricPrecision" stroke="white" font-weight="bold" stroke-miterlimit="1.45">
      <text x="368.8728" xml:space="preserve" y="-467.0269" clip-path="url(#clipPath2)" stroke="none">Entity</text>
    </g>
    <g stroke-linecap="butt" transform="matrix(2,0,0,2,-494,1030)" fill="rgb(150,150,150)" text-rendering="geometricPrecision" shape-rendering="geometricPrecision" stroke="rgb(150,150,150)" stroke-miterlimit="1.45">
      <rect x="364.5398" y="-481.7408" clip-path="url(#clipPath2)" fill="none" width="42" rx="4" ry="4" height="20"/>
      <rect stroke-linecap="square" x="429.7355" y="-414" clip-path="url(#clipPath2)" width="117" rx="4" ry="4" height="20" stroke="none" stroke-miterlimit="10"/>
    </g>
    <g stroke-linecap="butt" transform="matrix(2,0,0,2,-494,1030)" fill="white" text-rendering="geometricPrecision" font-family="sans-serif" shape-rendering="geometricPrecision" stroke="white" font-weight="bold" stroke-miterlimit="1.45">
      <text x="434.2267" xml:space="preserve" y="-399.2861" clip-path="url(#clipPath2)" stroke="none">ConcreteIndividual</text>
    </g>
    <g stroke-linecap="butt" transform="matrix(2,0,0,2,-494,1030)" fill="rgb(150,150,150)" text-rendering="geometricPrecision" shape-rendering="geometricPrecision" stroke="rgb(150,150,150)" stroke-miterlimit="1.45">
      <rect x="429.7355" y="-414" clip-path="url(#clipPath2)" fill="none" width="117" rx="4" ry="4" height="20"/>
    </g>
    <g fill="rgb(43,138,132)" text-rendering="geometricPrecision" shape-rendering="geometricPrecision" transform="matrix(2,0,0,2,-494,1030)" stroke="rgb(43,138,132)">
      <rect x="814.9422" y="-357.3795" clip-path="url(#clipPath2)" width="107" rx="4" ry="4" height="20" stroke="none"/>
    </g>
    <g stroke-linecap="butt" transform="matrix(2,0,0,2,-494,1030)" fill="white" text-rendering="geometricPrecision" font-family="sans-serif" shape-rendering="geometricPrecision" stroke="white" font-weight="bold" stroke-miterlimit="1.45">
      <text x="837.7713" xml:space="preserve" y="-342.6657" clip-path="url(#clipPath2)" stroke="none">TimeEntity</text>
    </g>
    <g stroke-linecap="butt" transform="matrix(2,0,0,2,-494,1030)" fill="rgb(43,138,132)" text-rendering="geometricPrecision" shape-rendering="geometricPrecision" stroke="rgb(43,138,132)" stroke-miterlimit="1.45">
      <rect x="814.9422" y="-357.3795" clip-path="url(#clipPath2)" fill="none" width="107" rx="4" ry="4" height="20"/>
    </g>
    <g fill="rgb(150,150,150)" text-rendering="geometricPrecision" shape-rendering="geometricPrecision" transform="matrix(2,0,0,2,-494,1030)" stroke="rgb(150,150,150)">
      <rect x="455.7355" y="-481.7408" clip-path="url(#clipPath2)" width="65" rx="4" ry="4" height="20" stroke="none"/>
    </g>
    <g stroke-linecap="butt" transform="matrix(2,0,0,2,-494,1030)" fill="white" text-rendering="geometricPrecision" font-family="sans-serif" shape-rendering="geometricPrecision" stroke="white" font-weight="bold" stroke-miterlimit="1.45">
      <text x="460.2336" xml:space="preserve" y="-467.0269" clip-path="url(#clipPath2)" stroke="none">Individual</text>
    </g>
    <g stroke-linecap="butt" transform="matrix(2,0,0,2,-494,1030)" fill="rgb(150,150,150)" text-rendering="geometricPrecision" shape-rendering="geometricPrecision" stroke="rgb(150,150,150)" stroke-miterlimit="1.45">
      <rect x="455.7355" y="-481.7408" clip-path="url(#clipPath2)" fill="none" width="65" rx="4" ry="4" height="20"/>
    </g>
    <g fill="rgb(43,138,132)" text-rendering="geometricPrecision" shape-rendering="geometricPrecision" transform="matrix(2,0,0,2,-494,1030)" stroke="rgb(43,138,132)">
      <rect x="829.9422" y="-317.3795" clip-path="url(#clipPath2)" width="92" rx="4" ry="4" height="20" stroke="none"/>
    </g>
    <g stroke-linecap="butt" transform="matrix(2,0,0,2,-494,1030)" fill="white" text-rendering="geometricPrecision" font-family="sans-serif" shape-rendering="geometricPrecision" stroke="white" font-weight="bold" stroke-miterlimit="1.45">
      <text x="833.9363" xml:space="preserve" y="-302.6657" clip-path="url(#clipPath2)" stroke="none">TimeBoundary</text>
    </g>
    <g stroke-linecap="butt" transform="matrix(2,0,0,2,-494,1030)" fill="rgb(43,138,132)" text-rendering="geometricPrecision" shape-rendering="geometricPrecision" stroke="rgb(43,138,132)" stroke-miterlimit="1.45">
      <rect x="829.9422" y="-317.3795" clip-path="url(#clipPath2)" fill="none" width="92" rx="4" ry="4" height="20"/>
      <rect stroke-linecap="square" x="829.9422" y="-277.3795" clip-path="url(#clipPath2)" width="92" rx="4" ry="4" height="20" stroke="none" stroke-miterlimit="10"/>
    </g>
    <g stroke-linecap="butt" transform="matrix(2,0,0,2,-494,1030)" fill="white" text-rendering="geometricPrecision" font-family="sans-serif" shape-rendering="geometricPrecision" stroke="white" font-weight="bold" stroke-miterlimit="1.45">
      <text x="849.282" xml:space="preserve" y="-262.6657" clip-path="url(#clipPath2)" stroke="none">Chronoid</text>
    </g>
    <g stroke-linecap="butt" transform="matrix(2,0,0,2,-494,1030)" fill="rgb(43,138,132)" text-rendering="geometricPrecision" shape-rendering="geometricPrecision" stroke="rgb(43,138,132)" stroke-miterlimit="1.45">
      <rect x="829.9422" y="-277.3795" clip-path="url(#clipPath2)" fill="none" width="92" rx="4" ry="4" height="20"/>
    </g>
    <g fill="rgb(157,64,95)" text-rendering="geometricPrecision" shape-rendering="geometricPrecision" transform="matrix(2,0,0,2,-494,1030)" stroke="rgb(157,64,95)">
      <rect x="415.7355" y="-357.3795" clip-path="url(#clipPath2)" width="145" rx="4" ry="4" height="20" stroke="none"/>
    </g>
    <g stroke-linecap="butt" transform="matrix(2,0,0,2,-494,1030)" fill="white" text-rendering="geometricPrecision" font-family="sans-serif" shape-rendering="geometricPrecision" stroke="white" font-weight="bold" stroke-miterlimit="1.45">
      <text x="462.5714" xml:space="preserve" y="-342.6657" clip-path="url(#clipPath2)" stroke="none">Situation</text>
    </g>
    <g stroke-linecap="butt" transform="matrix(2,0,0,2,-494,1030)" fill="rgb(157,64,95)" text-rendering="geometricPrecision" shape-rendering="geometricPrecision" stroke="rgb(157,64,95)" stroke-miterlimit="1.45">
      <rect x="415.7355" y="-357.3795" clip-path="url(#clipPath2)" fill="none" width="145" rx="4" ry="4" height="20"/>
    </g>
    <g stroke-linecap="butt" transform="matrix(2,0,0,2,-494,1030)" text-rendering="geometricPrecision" font-family="sans-serif" shape-rendering="geometricPrecision" font-weight="bold" stroke-miterlimit="1.45">
      <text x="711.733" xml:space="preserve" y="-62.6657" clip-path="url(#clipPath2)" stroke="none">Line</text>
    </g>
    <g stroke-linecap="butt" transform="matrix(2,0,0,2,-494,1030)" fill="rgb(243,101,35)" text-rendering="geometricPrecision" shape-rendering="geometricPrecision" stroke="rgb(243,101,35)" stroke-miterlimit="1.45">
      <rect x="668.067" y="-77.3795" clip-path="url(#clipPath2)" fill="none" width="112" rx="4" ry="4" height="20"/>
      <rect stroke-linecap="square" x="638.067" y="-357.3795" clip-path="url(#clipPath2)" width="142" rx="4" ry="4" height="20" stroke="none" stroke-miterlimit="10"/>
    </g>
    <g stroke-linecap="butt" transform="matrix(2,0,0,2,-494,1030)" fill="white" text-rendering="geometricPrecision" font-family="sans-serif" shape-rendering="geometricPrecision" stroke="white" font-weight="bold" stroke-miterlimit="1.45">
      <text x="677.4088" xml:space="preserve" y="-342.6657" clip-path="url(#clipPath2)" stroke="none">Continuant</text>
    </g>
    <g stroke-linecap="butt" transform="matrix(2,0,0,2,-494,1030)" fill="rgb(243,101,35)" text-rendering="geometricPrecision" shape-rendering="geometricPrecision" stroke="rgb(243,101,35)" stroke-miterlimit="1.45">
      <rect x="638.067" y="-357.3795" clip-path="url(#clipPath2)" fill="none" width="142" rx="4" ry="4" height="20"/>
    </g>
    <g stroke-linecap="butt" transform="matrix(2,0,0,2,-494,1030)" text-rendering="geometricPrecision" font-family="sans-serif" shape-rendering="geometricPrecision" font-weight="bold" stroke-miterlimit="1.45">
      <text x="669.8942" xml:space="preserve" y="-142.6657" clip-path="url(#clipPath2)" stroke="none">ObjectBoundary</text>
    </g>
    <g stroke-linecap="butt" transform="matrix(2,0,0,2,-494,1030)" fill="rgb(243,101,35)" text-rendering="geometricPrecision" shape-rendering="geometricPrecision" stroke="rgb(243,101,35)" stroke-miterlimit="1.45">
      <rect x="653.067" y="-157.3795" clip-path="url(#clipPath2)" fill="none" width="127" rx="4" ry="4" height="20"/>
    </g>
    <g stroke-linecap="butt" transform="matrix(2,0,0,2,-494,1030)" text-rendering="geometricPrecision" font-family="sans-serif" shape-rendering="geometricPrecision" font-weight="bold" stroke-miterlimit="1.45">
      <text x="668.2242" xml:space="preserve" y="-302.6657" clip-path="url(#clipPath2)" stroke="none">ObjectAggregate</text>
    </g>
    <g stroke-linecap="butt" transform="matrix(2,0,0,2,-494,1030)" fill="rgb(243,101,35)" text-rendering="geometricPrecision" shape-rendering="geometricPrecision" stroke="rgb(243,101,35)" stroke-miterlimit="1.45">
      <rect x="653.067" y="-317.3795" clip-path="url(#clipPath2)" fill="none" width="127" rx="4" ry="4" height="20"/>
    </g>
    <g stroke-linecap="butt" transform="matrix(2,0,0,2,-494,1030)" text-rendering="geometricPrecision" font-family="sans-serif" shape-rendering="geometricPrecision" font-weight="bold" stroke-miterlimit="1.45">
      <text x="709.0699" xml:space="preserve" y="-22.6657" clip-path="url(#clipPath2)" stroke="none">Point</text>
    </g>
    <g stroke-linecap="butt" transform="matrix(2,0,0,2,-494,1030)" fill="rgb(243,101,35)" text-rendering="geometricPrecision" shape-rendering="geometricPrecision" stroke="rgb(243,101,35)" stroke-miterlimit="1.45">
      <rect x="668.067" y="-37.3795" clip-path="url(#clipPath2)" fill="none" width="112" rx="4" ry="4" height="20"/>
    </g>
    <g stroke-linecap="butt" transform="matrix(2,0,0,2,-494,1030)" text-rendering="geometricPrecision" font-family="sans-serif" shape-rendering="geometricPrecision" font-weight="bold" stroke-miterlimit="1.45">
      <text x="697.8961" xml:space="preserve" y="-222.6657" clip-path="url(#clipPath2)" stroke="none">Object</text>
    </g>
    <g stroke-linecap="butt" transform="matrix(2,0,0,2,-494,1030)" fill="rgb(243,101,35)" text-rendering="geometricPrecision" shape-rendering="geometricPrecision" stroke="rgb(243,101,35)" stroke-miterlimit="1.45">
      <rect x="653.067" y="-237.3795" clip-path="url(#clipPath2)" fill="none" width="127" rx="4" ry="4" height="20"/>
    </g>
    <g stroke-linecap="butt" transform="matrix(2,0,0,2,-494,1030)" text-rendering="geometricPrecision" font-family="sans-serif" shape-rendering="geometricPrecision" font-weight="bold" stroke-miterlimit="1.45">
      <text x="702.0563" xml:space="preserve" y="-102.6657" clip-path="url(#clipPath2)" stroke="none">Surface</text>
    </g>
    <g stroke-linecap="butt" transform="matrix(2,0,0,2,-494,1030)" fill="rgb(243,101,35)" text-rendering="geometricPrecision" shape-rendering="geometricPrecision" stroke="rgb(243,101,35)" stroke-miterlimit="1.45">
      <rect x="668.067" y="-117.3795" clip-path="url(#clipPath2)" fill="none" width="112" rx="4" ry="4" height="20"/>
    </g>
    <g stroke-linecap="butt" transform="matrix(2,0,0,2,-494,1030)" text-rendering="geometricPrecision" font-family="sans-serif" shape-rendering="geometricPrecision" font-weight="bold" stroke-miterlimit="1.45">
      <text x="686.2242" xml:space="preserve" y="-262.6657" clip-path="url(#clipPath2)" stroke="none">ObjectPart</text>
    </g>
    <g stroke-linecap="butt" transform="matrix(2,0,0,2,-494,1030)" fill="rgb(243,101,35)" text-rendering="geometricPrecision" shape-rendering="geometricPrecision" stroke="rgb(243,101,35)" stroke-miterlimit="1.45">
      <rect x="653.067" y="-277.3795" clip-path="url(#clipPath2)" fill="none" width="127" rx="4" ry="4" height="20"/>
    </g>
    <g stroke-linecap="butt" transform="matrix(2,0,0,2,-494,1030)" text-rendering="geometricPrecision" font-family="sans-serif" shape-rendering="geometricPrecision" font-weight="bold" stroke-miterlimit="1.45">
      <text x="672.399" xml:space="preserve" y="-182.6657" clip-path="url(#clipPath2)" stroke="none">InformationObject</text>
    </g>
    <g stroke-linecap="butt" transform="matrix(2,0,0,2,-494,1030)" fill="rgb(243,101,35)" text-rendering="geometricPrecision" shape-rendering="geometricPrecision" stroke="rgb(243,101,35)" stroke-miterlimit="1.45">
      <rect x="668.067" y="-197.3795" clip-path="url(#clipPath2)" fill="none" width="112" rx="4" ry="4" height="20"/>
    </g>
    <g stroke-linecap="butt" transform="matrix(2,0,0,2,-494,1030)" text-rendering="geometricPrecision" font-family="sans-serif" shape-rendering="geometricPrecision" font-weight="bold" stroke-miterlimit="1.45">
      <text x="272.1721" xml:space="preserve" y="-262.6657" clip-path="url(#clipPath2)" stroke="none">Relator</text>
    </g>
    <g stroke-linecap="butt" transform="matrix(2,0,0,2,-494,1030)" fill="rgb(73,114,136)" text-rendering="geometricPrecision" shape-rendering="geometricPrecision" stroke="rgb(73,114,136)" stroke-miterlimit="1.45">
      <rect x="265.844" y="-277.3795" clip-path="url(#clipPath2)" fill="none" width="54" rx="4" ry="4" height="20"/>
    </g>
    <g stroke-linecap="butt" transform="matrix(2,0,0,2,-494,1030)" text-rendering="geometricPrecision" font-family="sans-serif" shape-rendering="geometricPrecision" font-weight="bold" stroke-miterlimit="1.45">
      <text x="279.842" xml:space="preserve" y="-222.6657" clip-path="url(#clipPath2)" stroke="none">Role</text>
    </g>
    <g stroke-linecap="butt" transform="matrix(2,0,0,2,-494,1030)" fill="rgb(73,114,136)" text-rendering="geometricPrecision" shape-rendering="geometricPrecision" stroke="rgb(73,114,136)" stroke-miterlimit="1.45">
      <rect x="265.844" y="-237.3795" clip-path="url(#clipPath2)" fill="none" width="54" rx="4" ry="4" height="20"/>
    </g>
    <g stroke-linecap="butt" transform="matrix(2,0,0,2,-494,1030)" text-rendering="geometricPrecision" font-family="sans-serif" shape-rendering="geometricPrecision" font-weight="bold" stroke-miterlimit="1.45">
      <text x="272.5061" xml:space="preserve" y="-302.6657" clip-path="url(#clipPath2)" stroke="none">Quality</text>
    </g>
    <g stroke-linecap="butt" transform="matrix(2,0,0,2,-494,1030)" fill="rgb(73,114,136)" text-rendering="geometricPrecision" shape-rendering="geometricPrecision" stroke="rgb(73,114,136)" stroke-miterlimit="1.45">
      <rect x="265.844" y="-317.3795" clip-path="url(#clipPath2)" fill="none" width="54" rx="4" ry="4" height="20"/>
      <rect stroke-linecap="square" x="250.844" y="-357.3795" clip-path="url(#clipPath2)" width="69" rx="4" ry="4" height="20" stroke="none" stroke-miterlimit="10"/>
    </g>
    <g stroke-linecap="butt" transform="matrix(2,0,0,2,-494,1030)" fill="white" text-rendering="geometricPrecision" font-family="sans-serif" shape-rendering="geometricPrecision" stroke="white" font-weight="bold" stroke-miterlimit="1.45">
      <text x="255.344" xml:space="preserve" y="-342.6657" clip-path="url(#clipPath2)" stroke="none">Attributive</text>
    </g>
    <g stroke-linecap="butt" transform="matrix(2,0,0,2,-494,1030)" fill="rgb(73,114,136)" text-rendering="geometricPrecision" shape-rendering="geometricPrecision" stroke="rgb(73,114,136)" stroke-miterlimit="1.45">
      <rect x="250.844" y="-357.3795" clip-path="url(#clipPath2)" fill="none" width="69" rx="4" ry="4" height="20"/>
    </g>
    <g stroke-linecap="butt" transform="matrix(2,0,0,2,-494,1030)" text-rendering="geometricPrecision" font-family="sans-serif" shape-rendering="geometricPrecision" font-weight="bold" stroke-miterlimit="1.45">
      <text x="461.8859" xml:space="preserve" y="-222.6657" clip-path="url(#clipPath2)" stroke="none">CohesiveState</text>
    </g>
    <g stroke-linecap="butt" transform="matrix(2,0,0,2,-494,1030)" fill="rgb(157,64,95)" text-rendering="geometricPrecision" shape-rendering="geometricPrecision" stroke="rgb(157,64,95)" stroke-miterlimit="1.45">
      <rect x="445.7355" y="-237.3795" clip-path="url(#clipPath2)" fill="none" width="115" rx="4" ry="4" height="20"/>
    </g>
    <g stroke-linecap="butt" transform="matrix(2,0,0,2,-494,1030)" text-rendering="geometricPrecision" font-family="sans-serif" shape-rendering="geometricPrecision" font-weight="bold" stroke-miterlimit="1.45">
      <text x="458.8918" xml:space="preserve" y="-262.6657" clip-path="url(#clipPath2)" stroke="none">StateAggregate</text>
    </g>
    <g stroke-linecap="butt" transform="matrix(2,0,0,2,-494,1030)" fill="rgb(157,64,95)" text-rendering="geometricPrecision" shape-rendering="geometricPrecision" stroke="rgb(157,64,95)" stroke-miterlimit="1.45">
      <rect x="445.7355" y="-277.3795" clip-path="url(#clipPath2)" fill="none" width="115" rx="4" ry="4" height="20"/>
      <rect stroke-linecap="square" x="430.7355" y="-317.3795" clip-path="url(#clipPath2)" width="130" rx="4" ry="4" height="20" stroke="none" stroke-miterlimit="10"/>
    </g>
    <g stroke-linecap="butt" transform="matrix(2,0,0,2,-494,1030)" fill="white" text-rendering="geometricPrecision" font-family="sans-serif" shape-rendering="geometricPrecision" stroke="white" font-weight="bold" stroke-miterlimit="1.45">
      <text x="481.0636" xml:space="preserve" y="-302.6657" clip-path="url(#clipPath2)" stroke="none">State</text>
    </g>
    <g stroke-linecap="butt" transform="matrix(2,0,0,2,-494,1030)" fill="rgb(157,64,95)" text-rendering="geometricPrecision" shape-rendering="geometricPrecision" stroke="rgb(157,64,95)" stroke-miterlimit="1.45">
      <rect x="430.7355" y="-317.3795" clip-path="url(#clipPath2)" fill="none" width="130" rx="4" ry="4" height="20"/>
    </g>
    <g stroke-linecap="butt" transform="matrix(2,0,0,2,-494,1030)" text-rendering="geometricPrecision" font-family="sans-serif" shape-rendering="geometricPrecision" font-weight="bold" stroke-miterlimit="1.45">
      <text x="453.2082" xml:space="preserve" y="-102.6657" clip-path="url(#clipPath2)" stroke="none">CohesiveProcess</text>
    </g>
    <g stroke-linecap="butt" transform="matrix(2,0,0,2,-494,1030)" fill="rgb(157,64,95)" text-rendering="geometricPrecision" shape-rendering="geometricPrecision" stroke="rgb(157,64,95)" stroke-miterlimit="1.45">
      <rect x="445.7355" y="-117.3795" clip-path="url(#clipPath2)" fill="none" width="115" rx="4" ry="4" height="20"/>
    </g>
    <g stroke-linecap="butt" transform="matrix(2,0,0,2,-494,1030)" text-rendering="geometricPrecision" font-family="sans-serif" shape-rendering="geometricPrecision" font-weight="bold" stroke-miterlimit="1.45">
      <text x="450.214" xml:space="preserve" y="-142.6657" clip-path="url(#clipPath2)" stroke="none">ProcessAggregate</text>
    </g>
    <g stroke-linecap="butt" transform="matrix(2,0,0,2,-494,1030)" fill="rgb(157,64,95)" text-rendering="geometricPrecision" shape-rendering="geometricPrecision" stroke="rgb(157,64,95)" stroke-miterlimit="1.45">
      <rect x="445.7355" y="-157.3795" clip-path="url(#clipPath2)" fill="none" width="115" rx="4" ry="4" height="20"/>
      <rect stroke-linecap="square" x="430.7355" y="-197.3795" clip-path="url(#clipPath2)" width="130" rx="4" ry="4" height="20" stroke="none" stroke-miterlimit="10"/>
    </g>
    <g stroke-linecap="butt" transform="matrix(2,0,0,2,-494,1030)" fill="white" text-rendering="geometricPrecision" font-family="sans-serif" shape-rendering="geometricPrecision" stroke="white" font-weight="bold" stroke-miterlimit="1.45">
      <text x="472.3859" xml:space="preserve" y="-182.6657" clip-path="url(#clipPath2)" stroke="none">Process</text>
    </g>
    <g stroke-linecap="butt" transform="matrix(2,0,0,2,-494,1030)" fill="rgb(157,64,95)" text-rendering="geometricPrecision" shape-rendering="geometricPrecision" stroke="rgb(157,64,95)" stroke-miterlimit="1.45">
      <rect x="430.7355" y="-197.3795" clip-path="url(#clipPath2)" fill="none" width="130" rx="4" ry="4" height="20"/>
    </g>
  </g>
</svg>
