<?xml version="1.0" encoding="UTF-8"?><svg xmlns="http://www.w3.org/2000/svg" xmlns:xlink="http://www.w3.org/1999/xlink" fill-opacity="1" color-rendering="auto" color-interpolation="auto" text-rendering="auto" stroke="black" stroke-linecap="square" width="466" stroke-miterlimit="10" shape-rendering="auto" stroke-opacity="1" fill="black" stroke-dasharray="none" font-weight="normal" stroke-width="1" height="534" font-family="'Dialog'" font-style="normal" stroke-linejoin="miter" font-size="12px" stroke-dashoffset="0" image-rendering="auto">
  <!--Generated by ySVG 2.6-->
  <defs id="genericDefs"/>
  <g>
    <defs id="defs1">
      <clipPath clipPathUnits="userSpaceOnUse" id="clipPath1">
        <path d="M0 0 L466 0 L466 534 L0 534 L0 0 Z"/>
      </clipPath>
      <clipPath clipPathUnits="userSpaceOnUse" id="clipPath2">
        <path d="M643 490 L876 490 L876 757 L643 757 L643 490 Z"/>
      </clipPath>
    </defs>
    <g fill="white" text-rendering="geometricPrecision" shape-rendering="geometricPrecision" transform="scale(2,2) translate(-643,-490)" stroke="white">
      <rect x="643" width="233" height="267" y="490" clip-path="url(#clipPath2)" stroke="none"/>
    </g>
    <g text-rendering="geometricPrecision" stroke-miterlimit="1.45" shape-rendering="geometricPrecision" transform="matrix(2,0,0,2,-1286,-980)" stroke-linecap="butt">
      <path fill="none" d="M687.904 633.0219 L687.904 743.1551 L759.4556 743.1551" clip-path="url(#clipPath2)"/>
      <path d="M767.4556 743.1551 L755.4556 738.1551 L758.4556 743.1551 L755.4556 748.1551 Z" clip-path="url(#clipPath2)" stroke="none"/>
      <text x="653.8864" xml:space="preserve" y="657.2099" clip-path="url(#clipPath2)" font-family="sans-serif" stroke="none">roleIn</text>
      <path fill="none" d="M687.904 633.011 L687.904 713.1551 L759.4556 713.1551" clip-path="url(#clipPath2)"/>
      <path d="M767.4556 713.1551 L755.4556 708.1551 L758.4556 713.1551 L755.4556 718.1551 Z" clip-path="url(#clipPath2)" stroke="none"/>
      <path fill="none" d="M687.904 632.9967 L687.904 653.1551 L759.4556 653.1551" clip-path="url(#clipPath2)"/>
      <path d="M767.4556 653.1551 L755.4556 648.1551 L758.4556 653.1551 L755.4556 658.1551 Z" clip-path="url(#clipPath2)" stroke="none"/>
      <path fill="none" d="M687.904 633.0331 L687.904 683.1551 L759.4556 683.1551" clip-path="url(#clipPath2)"/>
      <path d="M767.4556 683.1551 L755.4556 678.1551 L758.4556 683.1551 L755.4556 688.1551 Z" clip-path="url(#clipPath2)" stroke="none"/>
      <path fill="none" d="M809.9848 560.9814 L809.9848 583.0204 L714.4005 583.0204" clip-path="url(#clipPath2)"/>
      <path d="M809.9848 552.9814 L804.9848 564.9814 L809.9848 561.9814 L814.9848 564.9814 Z" clip-path="url(#clipPath2)" stroke="none"/>
      <rect x="746.7481" y="573.6699" clip-path="url(#clipPath2)" fill="white" width="40.0176" height="18.7012" stroke="none"/>
      <text x="748.7481" xml:space="preserve" y="587.7343" clip-path="url(#clipPath2)" font-family="sans-serif" stroke="none">relates</text>
      <path fill="none" d="M687.904 612.9814 L687.904 600.9977" clip-path="url(#clipPath2)"/>
      <path d="M687.904 592.9977 L682.904 604.9977 L687.904 601.9977 L692.904 604.9977 Z" clip-path="url(#clipPath2)" stroke="none"/>
      <text x="693.904" xml:space="preserve" y="607.7343" clip-path="url(#clipPath2)" font-family="sans-serif" stroke="none">roleIn</text>
      <path fill="none" d="M661.3747 623.0204 L653.904 623.0204 L653.904 528.0107" clip-path="url(#clipPath2)"/>
      <path fill="white" d="M653.904 513.0107 L647.904 529.0107 L659.904 529.0107 Z" clip-path="url(#clipPath2)" stroke="none"/>
      <path fill="none" d="M653.904 513.0107 L647.904 529.0107 L659.904 529.0107 Z" clip-path="url(#clipPath2)"/>
      <path fill="none" d="M661.3747 543.0204 L653.904 543.0204 L653.904 527.9814" clip-path="url(#clipPath2)"/>
      <path fill="white" d="M653.904 512.9814 L647.904 528.9814 L659.904 528.9814 Z" clip-path="url(#clipPath2)" stroke="none"/>
      <path fill="none" d="M653.904 512.9814 L647.904 528.9814 L659.904 528.9814 Z" clip-path="url(#clipPath2)"/>
      <path fill="none" d="M661.3747 583.0204 L653.904 583.0204 L653.904 527.9814" clip-path="url(#clipPath2)"/>
      <path fill="white" d="M653.904 512.9814 L647.904 528.9814 L659.904 528.9814 Z" clip-path="url(#clipPath2)" stroke="none"/>
      <path fill="none" d="M653.904 512.9814 L647.904 528.9814 L659.904 528.9814 Z" clip-path="url(#clipPath2)"/>
      <path fill="none" d="M714.3707 623.0204 L829.9848 623.0204 L829.9848 560.9814" clip-path="url(#clipPath2)"/>
      <path d="M829.9848 552.9814 L824.9848 564.9814 L829.9848 561.9814 L834.9848 564.9814 Z" clip-path="url(#clipPath2)" stroke="none"/>
      <rect x="750.0743" y="613.6699" clip-path="url(#clipPath2)" fill="white" width="53.3652" height="18.7012" stroke="none"/>
      <text x="752.0743" xml:space="preserve" y="627.7343" clip-path="url(#clipPath2)" font-family="sans-serif" stroke="none">playedBy</text>
      <path fill="none" d="M714.3782 543.0204 L759.4651 543.0204" clip-path="url(#clipPath2)"/>
      <path d="M767.4651 543.0204 L755.4651 538.0204 L758.4651 543.0204 L755.4651 548.0204 Z" clip-path="url(#clipPath2)" stroke="none"/>
      <text x="717.2667" xml:space="preserve" y="536.3837" clip-path="url(#clipPath2)" font-family="sans-serif" stroke="none">qualityOf</text>
    </g>
    <g fill="rgb(247,149,29)" text-rendering="geometricPrecision" shape-rendering="geometricPrecision" transform="matrix(2,0,0,2,-1286,-980)" stroke="rgb(247,149,29)">
      <rect x="767.4848" y="733.1551" clip-path="url(#clipPath2)" width="105" rx="4" ry="4" height="20" stroke="none"/>
    </g>
    <g stroke-linecap="butt" transform="matrix(2,0,0,2,-1286,-980)" fill="white" text-rendering="geometricPrecision" font-family="sans-serif" shape-rendering="geometricPrecision" stroke="white" font-weight="bold" stroke-miterlimit="1.45">
      <text x="796.6352" xml:space="preserve" y="747.869" clip-path="url(#clipPath2)" stroke="none">Process</text>
    </g>
    <g stroke-linecap="butt" transform="matrix(2,0,0,2,-1286,-980)" fill="rgb(247,149,29)" text-rendering="geometricPrecision" shape-rendering="geometricPrecision" stroke="rgb(247,149,29)" stroke-miterlimit="1.45">
      <rect x="767.4848" y="733.1551" clip-path="url(#clipPath2)" fill="none" width="105" rx="4" ry="4" height="20"/>
    </g>
    <g fill="rgb(157,64,95)" text-rendering="geometricPrecision" shape-rendering="geometricPrecision" transform="matrix(2,0,0,2,-1286,-980)" stroke="rgb(157,64,95)">
      <rect x="767.4848" y="703.1551" clip-path="url(#clipPath2)" width="105" rx="4" ry="4" height="20" stroke="none"/>
    </g>
    <g stroke-linecap="butt" transform="matrix(2,0,0,2,-1286,-980)" fill="white" text-rendering="geometricPrecision" font-family="sans-serif" shape-rendering="geometricPrecision" stroke="white" font-weight="bold" stroke-miterlimit="1.45">
      <text x="794.3207" xml:space="preserve" y="717.869" clip-path="url(#clipPath2)" stroke="none">Situation</text>
    </g>
    <g stroke-linecap="butt" transform="matrix(2,0,0,2,-1286,-980)" fill="rgb(157,64,95)" text-rendering="geometricPrecision" shape-rendering="geometricPrecision" stroke="rgb(157,64,95)" stroke-miterlimit="1.45">
      <rect x="767.4848" y="703.1551" clip-path="url(#clipPath2)" fill="none" width="105" rx="4" ry="4" height="20"/>
    </g>
    <g stroke-linecap="butt" transform="matrix(2,0,0,2,-1286,-980)" text-rendering="geometricPrecision" font-family="sans-serif" shape-rendering="geometricPrecision" font-weight="bold" stroke-miterlimit="1.45">
      <text x="674.902" xml:space="preserve" y="627.7343" clip-path="url(#clipPath2)" stroke="none">Role</text>
    </g>
    <g stroke-linecap="butt" transform="matrix(2,0,0,2,-1286,-980)" fill="rgb(73,114,136)" text-rendering="geometricPrecision" shape-rendering="geometricPrecision" stroke="rgb(73,114,136)" stroke-miterlimit="1.45">
      <rect x="661.404" y="613.0205" clip-path="url(#clipPath2)" fill="none" width="53" rx="4" ry="4" height="20"/>
    </g>
    <g stroke-linecap="butt" transform="matrix(2,0,0,2,-1286,-980)" text-rendering="geometricPrecision" font-family="sans-serif" shape-rendering="geometricPrecision" font-weight="bold" stroke-miterlimit="1.45">
      <text x="801.3139" xml:space="preserve" y="657.869" clip-path="url(#clipPath2)" stroke="none">Object</text>
    </g>
    <g stroke-linecap="butt" transform="matrix(2,0,0,2,-1286,-980)" fill="rgb(243,101,35)" text-rendering="geometricPrecision" shape-rendering="geometricPrecision" stroke="rgb(243,101,35)" stroke-miterlimit="1.45">
      <rect x="767.4848" y="643.1551" clip-path="url(#clipPath2)" fill="none" width="105" rx="4" ry="4" height="20"/>
    </g>
    <g stroke-linecap="butt" transform="matrix(2,0,0,2,-1286,-980)" text-rendering="geometricPrecision" font-family="sans-serif" shape-rendering="geometricPrecision" font-weight="bold" stroke-miterlimit="1.45">
      <text x="771.642" xml:space="preserve" y="687.869" clip-path="url(#clipPath2)" stroke="none">ObjectAggregate</text>
    </g>
    <g stroke-linecap="butt" transform="matrix(2,0,0,2,-1286,-980)" fill="rgb(243,101,35)" text-rendering="geometricPrecision" shape-rendering="geometricPrecision" stroke="rgb(243,101,35)" stroke-miterlimit="1.45">
      <rect x="767.4848" y="673.1551" clip-path="url(#clipPath2)" fill="none" width="105" rx="4" ry="4" height="20"/>
    </g>
    <g stroke-linecap="butt" transform="matrix(2,0,0,2,-1286,-980)" text-rendering="geometricPrecision" font-family="sans-serif" shape-rendering="geometricPrecision" font-weight="bold" stroke-miterlimit="1.45">
      <text x="667.2321" xml:space="preserve" y="587.7343" clip-path="url(#clipPath2)" stroke="none">Relator</text>
    </g>
    <g stroke-linecap="butt" transform="matrix(2,0,0,2,-1286,-980)" fill="rgb(73,114,136)" text-rendering="geometricPrecision" shape-rendering="geometricPrecision" stroke="rgb(73,114,136)" stroke-miterlimit="1.45">
      <rect x="661.404" y="573.0205" clip-path="url(#clipPath2)" fill="none" width="53" rx="4" ry="4" height="20"/>
    </g>
    <g stroke-linecap="butt" transform="matrix(2,0,0,2,-1286,-980)" text-rendering="geometricPrecision" font-family="sans-serif" shape-rendering="geometricPrecision" font-weight="bold" stroke-miterlimit="1.45">
      <text x="667.5661" xml:space="preserve" y="547.7343" clip-path="url(#clipPath2)" stroke="none">Quality</text>
    </g>
    <g stroke-linecap="butt" transform="matrix(2,0,0,2,-1286,-980)" fill="rgb(73,114,136)" text-rendering="geometricPrecision" shape-rendering="geometricPrecision" stroke="rgb(73,114,136)" stroke-miterlimit="1.45">
      <rect x="661.404" y="533.0205" clip-path="url(#clipPath2)" fill="none" width="53" rx="4" ry="4" height="20"/>
      <rect stroke-linecap="square" x="646.404" y="493.0205" clip-path="url(#clipPath2)" width="68" rx="4" ry="4" height="20" stroke="none" stroke-miterlimit="10"/>
    </g>
    <g stroke-linecap="butt" transform="matrix(2,0,0,2,-1286,-980)" fill="white" text-rendering="geometricPrecision" font-family="sans-serif" shape-rendering="geometricPrecision" stroke="white" font-weight="bold" stroke-miterlimit="1.45">
      <text x="650.404" xml:space="preserve" y="507.7343" clip-path="url(#clipPath2)" stroke="none">Attributive</text>
    </g>
    <g stroke-linecap="butt" transform="matrix(2,0,0,2,-1286,-980)" fill="rgb(73,114,136)" text-rendering="geometricPrecision" shape-rendering="geometricPrecision" stroke="rgb(73,114,136)" stroke-miterlimit="1.45">
      <rect x="646.404" y="493.0205" clip-path="url(#clipPath2)" fill="none" width="68" rx="4" ry="4" height="20"/>
    </g>
    <g fill="rgb(150,150,150)" text-rendering="geometricPrecision" shape-rendering="geometricPrecision" transform="matrix(2,0,0,2,-1286,-980)" stroke="rgb(150,150,150)">
      <rect x="767.4848" y="533.0205" clip-path="url(#clipPath2)" width="105" rx="4" ry="4" height="20" stroke="none"/>
    </g>
    <g stroke-linecap="butt" transform="matrix(2,0,0,2,-1286,-980)" fill="white" text-rendering="geometricPrecision" font-family="sans-serif" shape-rendering="geometricPrecision" stroke="white" font-weight="bold" stroke-miterlimit="1.45">
      <text x="791.9828" xml:space="preserve" y="547.7343" clip-path="url(#clipPath2)" stroke="none">Individual</text>
    </g>
    <g stroke-linecap="butt" transform="matrix(2,0,0,2,-1286,-980)" fill="rgb(150,150,150)" text-rendering="geometricPrecision" shape-rendering="geometricPrecision" stroke="rgb(150,150,150)" stroke-miterlimit="1.45">
      <rect x="767.4848" y="533.0205" clip-path="url(#clipPath2)" fill="none" width="105" rx="4" ry="4" height="20"/>
    </g>
  </g>
</svg>
