<?xml version="1.0" encoding="UTF-8"?><svg xmlns="http://www.w3.org/2000/svg" xmlns:xlink="http://www.w3.org/1999/xlink" fill-opacity="1" color-rendering="auto" color-interpolation="auto" text-rendering="auto" stroke="black" stroke-linecap="square" width="858" stroke-miterlimit="10" shape-rendering="auto" stroke-opacity="1" fill="black" stroke-dasharray="none" font-weight="normal" stroke-width="1" height="660" font-family="'Dialog'" font-style="normal" stroke-linejoin="miter" font-size="12px" stroke-dashoffset="0" image-rendering="auto">
  <!--Generated by ySVG 2.6-->
  <defs id="genericDefs"/>
  <g>
    <defs id="defs1">
      <clipPath clipPathUnits="userSpaceOnUse" id="clipPath1">
        <path d="M0 0 L858 0 L858 660 L0 660 L0 0 Z"/>
      </clipPath>
      <clipPath clipPathUnits="userSpaceOnUse" id="clipPath2">
        <path d="M-488 64 L-59 64 L-59 394 L-488 394 L-488 64 Z"/>
      </clipPath>
    </defs>
    <g fill="white" text-rendering="geometricPrecision" shape-rendering="geometricPrecision" transform="scale(2,2) translate(488,-64)" stroke="white">
      <rect x="-488" width="429" height="330" y="64" clip-path="url(#clipPath2)" stroke="none"/>
    </g>
    <g text-rendering="geometricPrecision" stroke-miterlimit="1.45" shape-rendering="geometricPrecision" transform="matrix(2,0,0,2,976,-128)" stroke-linecap="butt">
      <path fill="none" d="M-254.5936 275.6685 L-254.5936 287.7043" clip-path="url(#clipPath2)"/>
      <path d="M-254.5936 267.6685 L-259.5936 279.6685 L-254.5936 276.6685 L-249.5936 279.6685 Z" clip-path="url(#clipPath2)" stroke="none"/>
      <text x="-323.3006" xml:space="preserve" y="282.4215" clip-path="url(#clipPath2)" font-family="sans-serif" stroke="none">boundaryOf</text>
      <path fill="none" d="M-310.6246 262.7076 L-383.7456 262.7076 L-383.7456 272.693" clip-path="url(#clipPath2)"/>
      <path fill="white" d="M-383.7456 287.693 L-377.7456 271.693 L-389.7456 271.693 Z" clip-path="url(#clipPath2)" stroke="none"/>
      <path fill="none" d="M-383.7456 287.693 L-377.7456 271.693 L-389.7456 271.693 Z" clip-path="url(#clipPath2)"/>
      <path fill="none" d="M-310.5965 297.7076 L-317.2336 297.7076 L-317.7354 297.7076" clip-path="url(#clipPath2)"/>
      <path fill="white" d="M-332.7354 297.7076 L-316.7354 303.7076 L-316.7354 291.7076 Z" clip-path="url(#clipPath2)" stroke="none"/>
      <path fill="none" d="M-332.7354 297.7076 L-316.7354 303.7076 L-316.7354 291.7076 Z" clip-path="url(#clipPath2)"/>
      <path fill="none" d="M-310.6246 337.7076 L-383.7456 337.7076 L-383.7456 322.6685" clip-path="url(#clipPath2)"/>
      <path fill="white" d="M-383.7456 307.6685 L-389.7456 323.6685 L-377.7456 323.6685 Z" clip-path="url(#clipPath2)" stroke="none"/>
      <path fill="none" d="M-383.7456 307.6685 L-389.7456 323.6685 L-377.7456 323.6685 Z" clip-path="url(#clipPath2)"/>
      <path fill="none" d="M-254.5936 315.6685 L-254.5936 327.7043" clip-path="url(#clipPath2)"/>
      <path d="M-254.5936 307.6685 L-259.5936 319.6685 L-254.5936 316.6685 L-249.5936 319.6685 Z" clip-path="url(#clipPath2)" stroke="none"/>
      <text x="-323.3006" xml:space="preserve" y="322.4215" clip-path="url(#clipPath2)" font-family="sans-serif" stroke="none">boundaryOf</text>
      <path fill="none" d="M-310.6061 97.7076 L-350.268 97.7076 L-350.268 137.7076 L-396.253 137.7076" clip-path="url(#clipPath2)"/>
      <path fill="white" d="M-411.253 137.7076 L-395.253 143.7076 L-395.253 131.7076 Z" clip-path="url(#clipPath2)" stroke="none"/>
      <path fill="none" d="M-411.253 137.7076 L-395.253 143.7076 L-395.253 131.7076 Z" clip-path="url(#clipPath2)"/>
      <path fill="none" d="M-310.5127 170.7076 L-350.268 170.7076 L-350.268 137.7076 L-396.253 137.7076" clip-path="url(#clipPath2)"/>
      <path fill="white" d="M-411.253 137.7076 L-395.253 143.7076 L-395.253 131.7076 Z" clip-path="url(#clipPath2)" stroke="none"/>
      <path fill="none" d="M-411.253 137.7076 L-395.253 143.7076 L-395.253 131.7076 Z" clip-path="url(#clipPath2)"/>
      <path fill="none" d="M-310.5745 137.7076 L-396.2254 137.7076" clip-path="url(#clipPath2)"/>
      <path fill="white" d="M-411.2254 137.7076 L-395.2254 143.7076 L-395.2254 131.7076 Z" clip-path="url(#clipPath2)" stroke="none"/>
      <path fill="none" d="M-411.2254 137.7076 L-395.2254 143.7076 L-395.2254 131.7076 Z" clip-path="url(#clipPath2)"/>
      <path fill="none" d="M-434.7946 297.7076 L-447.7679 297.7076 L-447.7679 162.6685" clip-path="url(#clipPath2)"/>
      <path fill="white" d="M-447.7679 147.6685 L-453.7679 163.6685 L-441.7679 163.6685 Z" clip-path="url(#clipPath2)" stroke="none"/>
      <path fill="none" d="M-447.7679 147.6685 L-453.7679 163.6685 L-441.7679 163.6685 Z" clip-path="url(#clipPath2)"/>
      <path fill="none" d="M-198.6242 257.7076 L-182 257.7076 L-182 381.112 L-467.0716 381.112 L-467.0716 155.7082" clip-path="url(#clipPath2)"/>
      <path d="M-467.0716 147.7082 L-472.0716 159.7082 L-467.0716 156.7082 L-462.0716 159.7082 Z" clip-path="url(#clipPath2)" stroke="none"/>
      <path fill="none" d="M-198.6242 292.7076 L-182 292.7076 L-182 381.112 L-467.0716 381.112 L-467.0716 155.6802" clip-path="url(#clipPath2)"/>
      <path d="M-467.0716 147.6802 L-472.0716 159.6802 L-467.0716 156.6802 L-462.0716 159.6802 Z" clip-path="url(#clipPath2)" stroke="none"/>
      <rect x="-390.236" y="371.7614" clip-path="url(#clipPath2)" fill="white" width="131.4004" height="18.7012" stroke="none"/>
      <text x="-388.236" xml:space="preserve" y="385.8259" clip-path="url(#clipPath2)" font-family="sans-serif" stroke="none">spatiallyPassesThrough</text>
      <path fill="none" d="M-198.5711 302.7076 L-192 302.7076 L-192 364.2 L-467.0716 364.2 L-467.0716 155.7327" clip-path="url(#clipPath2)"/>
      <path d="M-467.0716 147.7327 L-472.0716 159.7327 L-467.0716 156.7327 L-462.0716 159.7327 Z" clip-path="url(#clipPath2)" stroke="none"/>
      <rect x="-421.9108" y="354.8494" clip-path="url(#clipPath2)" fill="white" width="184.75" height="18.7012" stroke="none"/>
      <text x="-419.9108" xml:space="preserve" y="368.9139" clip-path="url(#clipPath2)" font-family="sans-serif" stroke="none">spatiallyStartsOn/spatiallyEndsOn</text>
      <path fill="none" d="M-284.5936 87.6735 L-284.5936 76.6231 L-182 76.6231 L-182 92.7076 L-190.5542 92.7076" clip-path="url(#clipPath2)"/>
      <path d="M-198.5542 92.7076 L-186.5542 97.7076 L-189.5542 92.7076 L-186.5542 87.7076 Z" clip-path="url(#clipPath2)" stroke="none"/>
      <rect x="-266.9755" y="67.2725" clip-path="url(#clipPath2)" fill="white" width="67.3574" height="18.7012" stroke="none"/>
      <text x="-264.9755" xml:space="preserve" y="81.337" clip-path="url(#clipPath2)" font-family="sans-serif" stroke="none">hasMember</text>
      <path fill="none" d="M-398.7456 287.7174 L-398.7456 177.7076 L-318.5862 177.7076" clip-path="url(#clipPath2)"/>
      <path d="M-310.5862 177.7076 L-322.5862 172.7076 L-319.5862 177.7076 L-322.5862 182.7076 Z" clip-path="url(#clipPath2)" stroke="none"/>
      <rect x="-428.0913" y="238.838" clip-path="url(#clipPath2)" fill="white" width="58.6914" height="18.7012" stroke="none"/>
      <text x="-426.0913" xml:space="preserve" y="252.9024" clip-path="url(#clipPath2)" font-family="sans-serif" stroke="none">hasOwner</text>
      <path fill="none" d="M-310.6061 252.7076 L-350.268 252.7076 L-350.268 184.7076 L-318.5127 184.7076" clip-path="url(#clipPath2)"/>
      <path d="M-310.5127 184.7076 L-322.5127 179.7076 L-319.5127 184.7076 L-322.5127 189.7076 Z" clip-path="url(#clipPath2)" stroke="none"/>
      <rect x="-383.6215" y="209.357" clip-path="url(#clipPath2)" fill="white" width="66.707" height="18.7012" stroke="none"/>
      <text x="-381.6215" xml:space="preserve" y="223.4215" clip-path="url(#clipPath2)" font-family="sans-serif" stroke="none">boundaryOf</text>
      <path fill="none" d="M-244.5936 187.7349 L-244.5936 198 L-182 198 L-182 184.7076 L-190.6951 184.7076" clip-path="url(#clipPath2)"/>
      <path d="M-198.6951 184.7076 L-186.6951 189.7076 L-189.6951 184.7076 L-186.6951 179.7076 Z" clip-path="url(#clipPath2)" stroke="none"/>
      <rect x="-239.6484" y="188.6494" clip-path="url(#clipPath2)" fill="white" width="52.7031" height="18.7012" stroke="none"/>
      <text x="-237.6484" xml:space="preserve" y="202.7139" clip-path="url(#clipPath2)" font-family="sans-serif" stroke="none">locatedIn</text>
      <path fill="none" d="M-254.5936 147.6685 L-254.5936 159.7044" clip-path="url(#clipPath2)"/>
      <path d="M-254.5936 167.7044 L-249.5936 155.7044 L-254.5936 158.7044 L-259.5936 155.7044 Z" clip-path="url(#clipPath2)" stroke="none"/>
      <text x="-293.9393" xml:space="preserve" y="162.4215" clip-path="url(#clipPath2)" font-family="sans-serif" stroke="none">partOf</text>
      <path fill="none" d="M-198.6242 102.7076 L-182 102.7076 L-182 170.7076 L-190.6951 170.7076" clip-path="url(#clipPath2)"/>
      <path d="M-198.6951 170.7076 L-186.6951 175.7076 L-189.6951 170.7076 L-186.6951 165.7076 Z" clip-path="url(#clipPath2)" stroke="none"/>
      <text x="-248.9043" xml:space="preserve" y="122.1405" clip-path="url(#clipPath2)" font-family="sans-serif" stroke="none">hasMember</text>
      <path fill="none" d="M-122.9407 177.7076 L-190.5747 177.7076" clip-path="url(#clipPath2)"/>
      <path d="M-198.5747 177.7076 L-186.5747 182.7076 L-189.5747 177.7076 L-186.5747 172.7076 Z" clip-path="url(#clipPath2)" stroke="none"/>
      <rect x="-180.6369" y="168.357" clip-path="url(#clipPath2)" fill="white" width="52.7031" height="18.7012" stroke="none"/>
      <text x="-178.6369" xml:space="preserve" y="182.4215" clip-path="url(#clipPath2)" font-family="sans-serif" stroke="none">locatedIn</text>
      <path fill="none" d="M-254.5936 207.6685 L-254.5936 202.6848" clip-path="url(#clipPath2)"/>
      <path fill="white" d="M-254.5936 187.6848 L-260.5936 203.6848 L-248.5936 203.6848 Z" clip-path="url(#clipPath2)" stroke="none"/>
      <path fill="none" d="M-254.5936 187.6848 L-260.5936 203.6848 L-248.5936 203.6848 Z" clip-path="url(#clipPath2)"/>
      <path fill="none" d="M-198.5889 217.7076 L-130.933 217.7076" clip-path="url(#clipPath2)"/>
      <path d="M-122.933 217.7076 L-134.933 212.7076 L-131.933 217.7076 L-134.933 222.7076 Z" clip-path="url(#clipPath2)" stroke="none"/>
      <text x="-189.1113" xml:space="preserve" y="231.772" clip-path="url(#clipPath2)" font-family="sans-serif" stroke="none">represents</text>
      <text x="-266.9276" y="302.4215" clip-path="url(#clipPath2)" font-family="sans-serif" stroke="none" font-weight="bold" xml:space="preserve">Line</text>
      <rect x="-310.5936" y="287.7076" clip-path="url(#clipPath2)" fill="none" width="112" rx="4" ry="4" height="20" stroke="rgb(243,101,35)"/>
      <text x="-430.4185" y="302.4215" clip-path="url(#clipPath2)" font-family="sans-serif" stroke="none" font-weight="bold" xml:space="preserve">ObjectBoundary</text>
      <rect x="-434.7744" y="287.7076" clip-path="url(#clipPath2)" fill="none" width="102.0576" rx="4" ry="4" height="20" stroke="rgb(243,101,35)"/>
      <text x="-269.5907" y="342.4215" clip-path="url(#clipPath2)" font-family="sans-serif" stroke="none" font-weight="bold" xml:space="preserve">Point</text>
      <rect x="-310.5936" y="327.7076" clip-path="url(#clipPath2)" fill="none" width="112" rx="4" ry="4" height="20" stroke="rgb(243,101,35)"/>
      <text x="-276.6043" y="262.4215" clip-path="url(#clipPath2)" font-family="sans-serif" stroke="none" font-weight="bold" xml:space="preserve">Surface</text>
      <rect x="-310.5936" y="247.7076" clip-path="url(#clipPath2)" fill="none" width="112" rx="4" ry="4" height="20" stroke="rgb(243,101,35)"/>
    </g>
    <g fill="rgb(243,101,35)" text-rendering="geometricPrecision" shape-rendering="geometricPrecision" transform="matrix(2,0,0,2,976,-128)" stroke="rgb(243,101,35)">
      <rect x="-484.2847" y="127.7076" clip-path="url(#clipPath2)" width="73.0336" rx="4" ry="4" height="20" stroke="none"/>
    </g>
    <g stroke-linecap="butt" transform="matrix(2,0,0,2,976,-128)" fill="white" text-rendering="geometricPrecision" font-family="sans-serif" shape-rendering="geometricPrecision" stroke="white" font-weight="bold" stroke-miterlimit="1.45">
      <text x="-479.4261" xml:space="preserve" y="142.4215" clip-path="url(#clipPath2)" stroke="none">Continuant</text>
    </g>
    <g stroke-linecap="butt" transform="matrix(2,0,0,2,976,-128)" fill="rgb(243,101,35)" text-rendering="geometricPrecision" shape-rendering="geometricPrecision" stroke="rgb(243,101,35)" stroke-miterlimit="1.45">
      <rect x="-484.2847" y="127.7076" clip-path="url(#clipPath2)" fill="none" width="73.0336" rx="4" ry="4" height="20"/>
    </g>
    <g stroke-linecap="butt" transform="matrix(2,0,0,2,976,-128)" text-rendering="geometricPrecision" font-family="sans-serif" shape-rendering="geometricPrecision" font-weight="bold" stroke-miterlimit="1.45">
      <text x="-302.9364" xml:space="preserve" y="102.4215" clip-path="url(#clipPath2)" stroke="none">ObjectAggregate</text>
    </g>
    <g stroke-linecap="butt" transform="matrix(2,0,0,2,976,-128)" fill="rgb(243,101,35)" text-rendering="geometricPrecision" shape-rendering="geometricPrecision" stroke="rgb(243,101,35)" stroke-miterlimit="1.45">
      <rect x="-310.5936" y="87.7076" clip-path="url(#clipPath2)" fill="none" width="112" rx="4" ry="4" height="20"/>
    </g>
    <g stroke-linecap="butt" transform="matrix(2,0,0,2,976,-128)" text-rendering="geometricPrecision" font-family="sans-serif" shape-rendering="geometricPrecision" font-weight="bold" stroke-miterlimit="1.45">
      <text x="-273.2645" xml:space="preserve" y="182.4215" clip-path="url(#clipPath2)" stroke="none">Object</text>
    </g>
    <g stroke-linecap="butt" transform="matrix(2,0,0,2,976,-128)" fill="rgb(243,101,35)" text-rendering="geometricPrecision" shape-rendering="geometricPrecision" stroke="rgb(243,101,35)" stroke-miterlimit="1.45">
      <rect x="-310.5936" y="167.7076" clip-path="url(#clipPath2)" fill="none" width="112" rx="4" ry="4" height="20"/>
    </g>
    <g stroke-linecap="butt" transform="matrix(2,0,0,2,976,-128)" text-rendering="geometricPrecision" font-family="sans-serif" shape-rendering="geometricPrecision" font-weight="bold" stroke-miterlimit="1.45">
      <text x="-284.9364" xml:space="preserve" y="142.4215" clip-path="url(#clipPath2)" stroke="none">ObjectPart</text>
    </g>
    <g stroke-linecap="butt" transform="matrix(2,0,0,2,976,-128)" fill="rgb(243,101,35)" text-rendering="geometricPrecision" shape-rendering="geometricPrecision" stroke="rgb(243,101,35)" stroke-miterlimit="1.45">
      <rect x="-310.5936" y="127.7076" clip-path="url(#clipPath2)" fill="none" width="112" rx="4" ry="4" height="20"/>
    </g>
    <g fill="rgb(157,64,95)" text-rendering="geometricPrecision" shape-rendering="geometricPrecision" transform="matrix(2,0,0,2,976,-128)" stroke="rgb(157,64,95)">
      <rect x="-122.9338" y="167.7076" clip-path="url(#clipPath2)" width="60" rx="4" ry="4" height="20" stroke="none"/>
    </g>
    <g stroke-linecap="butt" transform="matrix(2,0,0,2,976,-128)" fill="white" text-rendering="geometricPrecision" font-family="sans-serif" shape-rendering="geometricPrecision" stroke="white" font-weight="bold" stroke-miterlimit="1.45">
      <text x="-118.5978" xml:space="preserve" y="182.4215" clip-path="url(#clipPath2)" stroke="none">Situation</text>
    </g>
    <g stroke-linecap="butt" transform="matrix(2,0,0,2,976,-128)" fill="rgb(157,64,95)" text-rendering="geometricPrecision" shape-rendering="geometricPrecision" stroke="rgb(157,64,95)" stroke-miterlimit="1.45">
      <rect x="-122.9338" y="167.7076" clip-path="url(#clipPath2)" fill="none" width="60" rx="4" ry="4" height="20"/>
    </g>
    <g stroke-linecap="butt" transform="matrix(2,0,0,2,976,-128)" text-rendering="geometricPrecision" font-family="sans-serif" shape-rendering="geometricPrecision" font-weight="bold" stroke-miterlimit="1.45">
      <text x="-306.2616" xml:space="preserve" y="222.4215" clip-path="url(#clipPath2)" stroke="none">InformationObject</text>
    </g>
    <g stroke-linecap="butt" transform="matrix(2,0,0,2,976,-128)" fill="rgb(243,101,35)" text-rendering="geometricPrecision" shape-rendering="geometricPrecision" stroke="rgb(243,101,35)" stroke-miterlimit="1.45">
      <rect x="-310.5936" y="207.7076" clip-path="url(#clipPath2)" fill="none" width="112" rx="4" ry="4" height="20"/>
    </g>
    <g fill="rgb(150,150,150)" text-rendering="geometricPrecision" shape-rendering="geometricPrecision" transform="matrix(2,0,0,2,976,-128)" stroke="rgb(150,150,150)">
      <rect x="-122.9338" y="207.7076" clip-path="url(#clipPath2)" width="60" rx="4" ry="4" height="20" stroke="none"/>
    </g>
    <g stroke-linecap="butt" transform="matrix(2,0,0,2,976,-128)" fill="white" text-rendering="geometricPrecision" font-family="sans-serif" shape-rendering="geometricPrecision" stroke="white" font-weight="bold" stroke-miterlimit="1.45">
      <text x="-109.6008" xml:space="preserve" y="222.4215" clip-path="url(#clipPath2)" stroke="none">Entity</text>
    </g>
    <g stroke-linecap="butt" transform="matrix(2,0,0,2,976,-128)" fill="rgb(150,150,150)" text-rendering="geometricPrecision" shape-rendering="geometricPrecision" stroke="rgb(150,150,150)" stroke-miterlimit="1.45">
      <rect x="-122.9338" y="207.7076" clip-path="url(#clipPath2)" fill="none" width="60" rx="4" ry="4" height="20"/>
    </g>
  </g>
</svg>
