<?xml version="1.0" encoding="UTF-8"?><svg xmlns="http://www.w3.org/2000/svg" xmlns:xlink="http://www.w3.org/1999/xlink" fill-opacity="1" color-rendering="auto" color-interpolation="auto" text-rendering="auto" stroke="black" stroke-linecap="square" width="536" stroke-miterlimit="10" shape-rendering="auto" stroke-opacity="1" fill="black" stroke-dasharray="none" font-weight="normal" stroke-width="1" height="326" font-family="'Dialog'" font-style="normal" stroke-linejoin="miter" font-size="12px" stroke-dashoffset="0" image-rendering="auto">
  <!--Generated by ySVG 2.6-->
  <defs id="genericDefs"/>
  <g>
    <defs id="defs1">
      <clipPath clipPathUnits="userSpaceOnUse" id="clipPath1">
        <path d="M0 0 L536 0 L536 326 L0 326 L0 0 Z"/>
      </clipPath>
      <clipPath clipPathUnits="userSpaceOnUse" id="clipPath2">
        <path d="M737 494 L1005 494 L1005 657 L737 657 L737 494 Z"/>
      </clipPath>
    </defs>
    <g fill="white" text-rendering="geometricPrecision" shape-rendering="geometricPrecision" transform="scale(2,2) translate(-737,-494)" stroke="white">
      <rect x="737" width="268" height="163" y="494" clip-path="url(#clipPath2)" stroke="none"/>
    </g>
    <g text-rendering="geometricPrecision" stroke-miterlimit="1.45" shape-rendering="geometricPrecision" transform="matrix(2,0,0,2,-1474,-988)" stroke-linecap="butt">
      <path fill="none" d="M810.881 634.0159 L810.881 623.1497" clip-path="url(#clipPath2)"/>
      <path fill="white" d="M810.881 608.1497 L804.881 624.1497 L816.881 624.1497 Z" clip-path="url(#clipPath2)" stroke="none"/>
      <path fill="none" d="M810.881 608.1497 L804.881 624.1497 L816.881 624.1497 Z" clip-path="url(#clipPath2)"/>
      <path fill="none" d="M871.1202 598.1743 L918.0897 598.1743" clip-path="url(#clipPath2)"/>
      <path d="M926.0897 598.1743 L914.0897 593.1743 L917.0897 598.1743 L914.0897 603.1743 Z" clip-path="url(#clipPath2)" stroke="none"/>
      <text x="875.6141" xml:space="preserve" y="591.5375" clip-path="url(#clipPath2)" font-family="sans-serif" stroke="none">hasTime</text>
      <path fill="none" d="M810.881 588.2003 L810.881 575.0671 L898.621 575.0671 L898.621 564.861" clip-path="url(#clipPath2)"/>
      <path fill="white" d="M898.621 549.861 L892.621 565.861 L904.621 565.861 Z" clip-path="url(#clipPath2)" stroke="none"/>
      <path fill="none" d="M898.621 549.861 L892.621 565.861 L904.621 565.861 Z" clip-path="url(#clipPath2)"/>
      <path fill="none" d="M962.721 588.2003 L962.721 575.0671 L898.621 575.0671 L898.621 564.861" clip-path="url(#clipPath2)"/>
      <path fill="white" d="M898.621 549.861 L892.621 565.861 L904.621 565.861 Z" clip-path="url(#clipPath2)" stroke="none"/>
      <path fill="none" d="M898.621 549.861 L892.621 565.861 L904.621 565.861 Z" clip-path="url(#clipPath2)"/>
      <path fill="none" d="M750.6411 643.9943 L740.1 643.9943 L740.1 539.8542 L855.5962 539.8542" clip-path="url(#clipPath2)"/>
      <path d="M863.5962 539.8542 L851.5962 534.8542 L854.5962 539.8542 L851.5962 544.8542 Z" clip-path="url(#clipPath2)" stroke="none"/>
      <text x="786.8026" xml:space="preserve" y="533.2175" clip-path="url(#clipPath2)" font-family="sans-serif" stroke="none">attributiveOf</text>
      <path fill="none" d="M898.621 529.8235 L898.621 518 L954.26 518 L954.26 539.8542 L941.6399 539.8542" clip-path="url(#clipPath2)"/>
      <path d="M933.6399 539.8542 L945.6399 544.8542 L942.6399 539.8542 L945.6399 534.8542 Z" clip-path="url(#clipPath2)" stroke="none"/>
      <text x="866.0831" xml:space="preserve" y="511.3633" clip-path="url(#clipPath2)" font-family="sans-serif" stroke="none">temporallyRelatedWith</text>
      <text x="958.26" xml:space="preserve" y="533.0645" clip-path="url(#clipPath2)" font-family="sans-serif" stroke="none">hasPart</text>
    </g>
    <g fill="rgb(150,150,150)" text-rendering="geometricPrecision" shape-rendering="geometricPrecision" transform="matrix(2,0,0,2,-1474,-988)" stroke="rgb(150,150,150)">
      <rect x="750.641" y="588.1743" clip-path="url(#clipPath2)" width="120.48" rx="4" ry="4" height="20" stroke="none"/>
    </g>
    <g stroke-linecap="butt" transform="matrix(2,0,0,2,-1474,-988)" fill="white" text-rendering="geometricPrecision" font-family="sans-serif" shape-rendering="geometricPrecision" stroke="white" font-weight="bold" stroke-miterlimit="1.45">
      <text x="756.8722" xml:space="preserve" y="602.8881" clip-path="url(#clipPath2)" stroke="none">ConcreteIndividual</text>
    </g>
    <g stroke-linecap="butt" transform="matrix(2,0,0,2,-1474,-988)" fill="rgb(150,150,150)" text-rendering="geometricPrecision" shape-rendering="geometricPrecision" stroke="rgb(150,150,150)" stroke-miterlimit="1.45">
      <rect x="750.641" y="588.1743" clip-path="url(#clipPath2)" fill="none" width="120.48" rx="4" ry="4" height="20"/>
    </g>
    <g fill="rgb(43,138,132)" text-rendering="geometricPrecision" shape-rendering="geometricPrecision" transform="matrix(2,0,0,2,-1474,-988)" stroke="rgb(43,138,132)">
      <rect x="926.121" y="588.1743" clip-path="url(#clipPath2)" width="73.2" rx="4" ry="4" height="20" stroke="none"/>
    </g>
    <g stroke-linecap="butt" transform="matrix(2,0,0,2,-1474,-988)" fill="white" text-rendering="geometricPrecision" font-family="sans-serif" shape-rendering="geometricPrecision" stroke="white" font-weight="bold" stroke-miterlimit="1.45">
      <text x="932.0501" xml:space="preserve" y="602.8881" clip-path="url(#clipPath2)" stroke="none">TimeEntity</text>
    </g>
    <g stroke-linecap="butt" transform="matrix(2,0,0,2,-1474,-988)" fill="rgb(43,138,132)" text-rendering="geometricPrecision" shape-rendering="geometricPrecision" stroke="rgb(43,138,132)" stroke-miterlimit="1.45">
      <rect x="926.121" y="588.1743" clip-path="url(#clipPath2)" fill="none" width="73.2" rx="4" ry="4" height="20"/>
    </g>
    <g fill="rgb(150,150,150)" text-rendering="geometricPrecision" shape-rendering="geometricPrecision" transform="matrix(2,0,0,2,-1474,-988)" stroke="rgb(150,150,150)">
      <rect x="863.621" y="529.8543" clip-path="url(#clipPath2)" width="70" rx="4" ry="4" height="20" stroke="none"/>
    </g>
    <g stroke-linecap="butt" transform="matrix(2,0,0,2,-1474,-988)" fill="white" text-rendering="geometricPrecision" font-family="sans-serif" shape-rendering="geometricPrecision" stroke="white" font-weight="bold" stroke-miterlimit="1.45">
      <text x="870.619" xml:space="preserve" y="544.5681" clip-path="url(#clipPath2)" stroke="none">Individual</text>
    </g>
    <g stroke-linecap="butt" transform="matrix(2,0,0,2,-1474,-988)" fill="rgb(150,150,150)" text-rendering="geometricPrecision" shape-rendering="geometricPrecision" stroke="rgb(150,150,150)" stroke-miterlimit="1.45">
      <rect x="863.621" y="529.8543" clip-path="url(#clipPath2)" fill="none" width="70" rx="4" ry="4" height="20"/>
    </g>
    <g fill="rgb(73,114,136)" text-rendering="geometricPrecision" shape-rendering="geometricPrecision" transform="matrix(2,0,0,2,-1474,-988)" stroke="rgb(73,114,136)">
      <rect x="750.641" y="633.9943" clip-path="url(#clipPath2)" width="120.48" rx="4" ry="4" height="20" stroke="none"/>
    </g>
    <g stroke-linecap="butt" transform="matrix(2,0,0,2,-1474,-988)" fill="white" text-rendering="geometricPrecision" font-family="sans-serif" shape-rendering="geometricPrecision" stroke="white" font-weight="bold" stroke-miterlimit="1.45">
      <text x="780.881" xml:space="preserve" y="648.7081" clip-path="url(#clipPath2)" stroke="none">Attributive</text>
    </g>
    <g stroke-linecap="butt" transform="matrix(2,0,0,2,-1474,-988)" fill="rgb(73,114,136)" text-rendering="geometricPrecision" shape-rendering="geometricPrecision" stroke="rgb(73,114,136)" stroke-miterlimit="1.45">
      <rect x="750.641" y="633.9943" clip-path="url(#clipPath2)" fill="none" width="120.48" rx="4" ry="4" height="20"/>
    </g>
  </g>
</svg>
