<?xml version="1.0" encoding="UTF-8"?><svg xmlns="http://www.w3.org/2000/svg" xmlns:xlink="http://www.w3.org/1999/xlink" fill-opacity="1" color-rendering="auto" color-interpolation="auto" text-rendering="auto" stroke="black" stroke-linecap="square" width="1654" stroke-miterlimit="10" shape-rendering="auto" stroke-opacity="1" fill="black" stroke-dasharray="none" font-weight="normal" stroke-width="1" height="968" font-family="'Dialog'" font-style="normal" stroke-linejoin="miter" font-size="12px" stroke-dashoffset="0" image-rendering="auto">
  <!--Generated by ySVG 2.6-->
  <defs id="genericDefs"/>
  <g>
    <defs id="defs1">
      <clipPath clipPathUnits="userSpaceOnUse" id="clipPath1">
        <path d="M0 0 L1654 0 L1654 968 L0 968 L0 0 Z"/>
      </clipPath>
      <clipPath clipPathUnits="userSpaceOnUse" id="clipPath2">
        <path d="M29 -498 L856 -498 L856 -14 L29 -14 L29 -498 Z"/>
      </clipPath>
    </defs>
    <g fill="white" text-rendering="geometricPrecision" shape-rendering="geometricPrecision" transform="scale(2,2) translate(-29,498)" stroke="white">
      <rect x="29" width="827" height="484" y="-498" clip-path="url(#clipPath2)" stroke="none"/>
    </g>
    <g text-rendering="geometricPrecision" stroke-miterlimit="1.45" shape-rendering="geometricPrecision" transform="matrix(2,0,0,2,-58,996)" stroke-linecap="butt">
      <path fill="none" d="M688.572 -347.3795 L732.9641 -347.3795" clip-path="url(#clipPath2)"/>
      <path d="M740.9641 -347.3795 L728.9641 -352.3795 L731.9641 -347.3795 L728.9641 -342.3795 Z" clip-path="url(#clipPath2)" stroke="none"/>
      <text x="691.7942" xml:space="preserve" y="-354.0163" clip-path="url(#clipPath2)" font-family="sans-serif" stroke="none">hasTime</text>
      <path fill="none" d="M108.4048 -465.6966 L108.4048 -484.6995 L238.28 -484.6995" clip-path="url(#clipPath2)"/>
      <path fill="white" d="M253.28 -484.6995 L237.28 -490.6995 L237.28 -478.6995 Z" clip-path="url(#clipPath2)" stroke="none"/>
      <path fill="none" d="M253.28 -484.6995 L237.28 -490.6995 L237.28 -478.6995 Z" clip-path="url(#clipPath2)"/>
      <path fill="none" d="M442.688 -465.6966 L442.688 -484.6995 L336.3322 -484.6995" clip-path="url(#clipPath2)"/>
      <path fill="white" d="M321.3322 -484.6995 L337.3322 -478.6995 L337.3322 -490.6995 Z" clip-path="url(#clipPath2)" stroke="none"/>
      <path fill="none" d="M321.3322 -484.6995 L337.3322 -478.6995 L337.3322 -490.6995 Z" clip-path="url(#clipPath2)"/>
      <path fill="none" d="M142.4288 -455.6995 L287.304 -455.6995 L287.304 -466.7025" clip-path="url(#clipPath2)"/>
      <path d="M287.304 -474.7025 L282.304 -462.7025 L287.304 -465.7025 L292.304 -462.7025 Z" clip-path="url(#clipPath2)" stroke="none"/>
      <rect x="179.7265" y="-465.0501" clip-path="url(#clipPath2)" fill="white" width="79.3809" height="18.7012" stroke="none"/>
      <text x="181.7265" xml:space="preserve" y="-450.9857" clip-path="url(#clipPath2)" font-family="sans-serif" stroke="none">instantiatedBy</text>
      <path fill="none" d="M287.304 -357.3893 L287.304 -397.3795 L367.7119 -397.3795" clip-path="url(#clipPath2)"/>
      <path fill="white" d="M382.7119 -397.3795 L366.7119 -403.3795 L366.7119 -391.3795 Z" clip-path="url(#clipPath2)" stroke="none"/>
      <path fill="none" d="M382.7119 -397.3795 L366.7119 -403.3795 L366.7119 -391.3795 Z" clip-path="url(#clipPath2)"/>
      <path fill="none" d="M442.688 -357.3893 L442.688 -372.3429" clip-path="url(#clipPath2)"/>
      <path fill="white" d="M442.688 -387.3429 L436.688 -371.3429 L448.688 -371.3429 Z" clip-path="url(#clipPath2)" stroke="none"/>
      <path fill="none" d="M442.688 -387.3429 L436.688 -371.3429 L448.688 -371.3429 Z" clip-path="url(#clipPath2)"/>
      <path fill="none" d="M108.4048 -357.3893 L108.4048 -397.3795 L367.6623 -397.3795" clip-path="url(#clipPath2)"/>
      <path fill="white" d="M382.6623 -397.3795 L366.6623 -403.3795 L366.6623 -391.3795 Z" clip-path="url(#clipPath2)" stroke="none"/>
      <path fill="none" d="M382.6623 -397.3795 L366.6623 -403.3795 L366.6623 -391.3795 Z" clip-path="url(#clipPath2)"/>
      <path fill="none" d="M619.256 -357.3551 L619.256 -392.3795 L517.6505 -392.3795" clip-path="url(#clipPath2)"/>
      <path fill="white" d="M502.6505 -392.3795 L518.6505 -386.3795 L518.6505 -398.3795 Z" clip-path="url(#clipPath2)" stroke="none"/>
      <path fill="none" d="M502.6505 -392.3795 L518.6505 -386.3795 L518.6505 -398.3795 Z" clip-path="url(#clipPath2)"/>
      <path fill="none" d="M832.1138 -307.3795 L841.562 -307.3795 L841.562 -372.404" clip-path="url(#clipPath2)"/>
      <path fill="white" d="M841.562 -387.404 L835.562 -371.404 L847.562 -371.404 Z" clip-path="url(#clipPath2)" stroke="none"/>
      <path fill="none" d="M841.562 -387.404 L835.562 -371.404 L847.562 -371.404 Z" clip-path="url(#clipPath2)"/>
      <path fill="none" d="M832.1138 -347.3795 L841.562 -347.3795 L841.562 -372.3698" clip-path="url(#clipPath2)"/>
      <path fill="white" d="M841.562 -387.3698 L835.562 -371.3698 L847.562 -371.3698 Z" clip-path="url(#clipPath2)" stroke="none"/>
      <path fill="none" d="M841.562 -387.3698 L835.562 -371.3698 L847.562 -371.3698 Z" clip-path="url(#clipPath2)"/>
      <path fill="none" d="M502.6893 -402.3795 L732.9945 -402.3795" clip-path="url(#clipPath2)"/>
      <path d="M740.9945 -402.3795 L728.9945 -407.3795 L731.9945 -402.3795 L728.9945 -397.3795 Z" clip-path="url(#clipPath2)" stroke="none"/>
      <rect x="596.8382" y="-411.7301" clip-path="url(#clipPath2)" fill="white" width="50.0137" height="18.7012" stroke="none"/>
      <text x="598.8381" xml:space="preserve" y="-397.6657" clip-path="url(#clipPath2)" font-family="sans-serif" stroke="none">hasTime</text>
      <path fill="none" d="M297.304 -237.4186 L297.304 -249.4023" clip-path="url(#clipPath2)"/>
      <path d="M297.304 -257.4023 L292.304 -245.4023 L297.304 -248.4023 L302.304 -245.4023 Z" clip-path="url(#clipPath2)" stroke="none"/>
      <text x="303.304" xml:space="preserve" y="-242.6657" clip-path="url(#clipPath2)" font-family="sans-serif" stroke="none">roleIn</text>
      <path fill="none" d="M273.3104 -232.3795 L263.601 -232.3795 L263.601 -322.37" clip-path="url(#clipPath2)"/>
      <path fill="white" d="M263.601 -337.37 L257.601 -321.37 L269.601 -321.37 Z" clip-path="url(#clipPath2)" stroke="none"/>
      <path fill="none" d="M263.601 -337.37 L257.601 -321.37 L269.601 -321.37 Z" clip-path="url(#clipPath2)"/>
      <path fill="none" d="M273.3104 -307.3795 L263.601 -307.3795 L263.601 -322.3607" clip-path="url(#clipPath2)"/>
      <path fill="white" d="M263.601 -337.3607 L257.601 -321.3607 L269.601 -321.3607 Z" clip-path="url(#clipPath2)" stroke="none"/>
      <path fill="none" d="M263.601 -337.3607 L257.601 -321.3607 L269.601 -321.3607 Z" clip-path="url(#clipPath2)"/>
      <path fill="none" d="M273.3104 -267.3795 L263.601 -267.3795 L263.601 -322.37" clip-path="url(#clipPath2)"/>
      <path fill="white" d="M263.601 -337.37 L257.601 -321.37 L269.601 -321.37 Z" clip-path="url(#clipPath2)" stroke="none"/>
      <path fill="none" d="M263.601 -337.37 L257.601 -321.37 L269.601 -321.37 Z" clip-path="url(#clipPath2)"/>
      <path fill="none" d="M427.0655 -357.403 L427.0655 -375.5 L302.304 -375.5 L302.304 -365.403" clip-path="url(#clipPath2)"/>
      <path d="M302.304 -357.403 L307.304 -369.403 L302.304 -366.403 L297.304 -369.403 Z" clip-path="url(#clipPath2)" stroke="none"/>
      <rect x="318.6574" y="-384.8506" clip-path="url(#clipPath2)" fill="white" width="92.0547" height="18.7012" stroke="none"/>
      <text x="320.6574" xml:space="preserve" y="-370.7861" clip-path="url(#clipPath2)" font-family="sans-serif" stroke="none">hasSituationPart</text>
      <path fill="none" d="M128.4048 -89.4186 L128.4048 -77.3828" clip-path="url(#clipPath2)"/>
      <path d="M128.4048 -97.4186 L123.4048 -85.4186 L128.4048 -88.4186 L133.4048 -85.4186 Z" clip-path="url(#clipPath2)" stroke="none"/>
      <text x="134.4048" xml:space="preserve" y="-82.6657" clip-path="url(#clipPath2)" font-family="sans-serif" stroke="none">boundaryOf</text>
      <path fill="none" d="M52.9473 -307.3795 L42.9648 -307.3795 L42.9648 -322.33" clip-path="url(#clipPath2)"/>
      <path fill="white" d="M42.9648 -337.33 L36.9648 -321.33 L48.9648 -321.33 Z" clip-path="url(#clipPath2)" stroke="none"/>
      <path fill="none" d="M42.9648 -337.33 L36.9648 -321.33 L48.9648 -321.33 Z" clip-path="url(#clipPath2)"/>
      <path fill="none" d="M52.9473 -227.3795 L42.9648 -227.3795 L42.9648 -322.37" clip-path="url(#clipPath2)"/>
      <path fill="white" d="M42.9648 -337.37 L36.9648 -321.37 L48.9648 -321.37 Z" clip-path="url(#clipPath2)" stroke="none"/>
      <path fill="none" d="M42.9648 -337.37 L36.9648 -321.37 L48.9648 -321.37 Z" clip-path="url(#clipPath2)"/>
      <path fill="none" d="M52.9473 -147.3795 L42.9648 -147.3795 L42.9648 -322.3436" clip-path="url(#clipPath2)"/>
      <path fill="white" d="M42.9648 -337.3436 L36.9648 -321.3436 L48.9648 -321.3436 Z" clip-path="url(#clipPath2)" stroke="none"/>
      <path fill="none" d="M42.9648 -337.3436 L36.9648 -321.3436 L48.9648 -321.3436 Z" clip-path="url(#clipPath2)"/>
      <path fill="none" d="M52.9473 -267.3795 L42.9648 -267.3795 L42.9648 -322.35" clip-path="url(#clipPath2)"/>
      <path fill="white" d="M42.9648 -337.35 L36.9648 -321.35 L48.9648 -321.35 Z" clip-path="url(#clipPath2)" stroke="none"/>
      <path fill="none" d="M42.9648 -337.35 L36.9648 -321.35 L48.9648 -321.35 Z" clip-path="url(#clipPath2)"/>
      <path fill="none" d="M72.9661 -107.3795 L62.9648 -107.3795 L62.9648 -122.355" clip-path="url(#clipPath2)"/>
      <path fill="white" d="M62.9648 -137.355 L56.9648 -121.355 L68.9648 -121.355 Z" clip-path="url(#clipPath2)" stroke="none"/>
      <path fill="none" d="M62.9648 -137.355 L56.9648 -121.355 L68.9648 -121.355 Z" clip-path="url(#clipPath2)"/>
      <path fill="none" d="M72.9661 -67.3795 L62.9648 -67.3795 L62.9648 -122.365" clip-path="url(#clipPath2)"/>
      <path fill="white" d="M62.9648 -137.365 L56.9648 -121.365 L68.9648 -121.365 Z" clip-path="url(#clipPath2)" stroke="none"/>
      <path fill="none" d="M62.9648 -137.365 L56.9648 -121.365 L68.9648 -121.365 Z" clip-path="url(#clipPath2)"/>
      <path fill="none" d="M72.9661 -27.3795 L62.9648 -27.3795 L62.9648 -122.375" clip-path="url(#clipPath2)"/>
      <path fill="white" d="M62.9648 -137.375 L56.9648 -121.375 L68.9648 -121.375 Z" clip-path="url(#clipPath2)" stroke="none"/>
      <path fill="none" d="M62.9648 -137.375 L56.9648 -121.375 L68.9648 -121.375 Z" clip-path="url(#clipPath2)"/>
      <path fill="none" d="M81.1084 -317.4137 L81.1084 -328.464 L199.28 -328.464 L199.28 -315.3795 L191.2924 -315.3795" clip-path="url(#clipPath2)"/>
      <path d="M183.2924 -315.3795 L195.2924 -310.3795 L192.2924 -315.3795 L195.2924 -320.3795 Z" clip-path="url(#clipPath2)" stroke="none"/>
      <rect x="106.5155" y="-337.8146" clip-path="url(#clipPath2)" fill="white" width="67.3574" height="18.7012" stroke="none"/>
      <text x="108.5155" xml:space="preserve" y="-323.7501" clip-path="url(#clipPath2)" font-family="sans-serif" stroke="none">hasMember</text>
      <path fill="none" d="M273.3382 -227.3795 L212.24 -227.3795 L212.24 -307.3795 L191.8787 -307.3795" clip-path="url(#clipPath2)"/>
      <path d="M183.8787 -307.3795 L195.8787 -302.3795 L192.8787 -307.3795 L195.8787 -312.3795 Z" clip-path="url(#clipPath2)" stroke="none"/>
      <path fill="none" d="M128.4048 -49.4186 L128.4048 -37.3828" clip-path="url(#clipPath2)"/>
      <path d="M128.4048 -57.4186 L123.4048 -45.4186 L128.4048 -48.4186 L133.4048 -45.4186 Z" clip-path="url(#clipPath2)" stroke="none"/>
      <text x="134.4048" xml:space="preserve" y="-42.6657" clip-path="url(#clipPath2)" font-family="sans-serif" stroke="none">boundaryOf</text>
      <path fill="none" d="M273.3382 -227.3795 L212.24 -227.3795 L191.8787 -227.3795" clip-path="url(#clipPath2)"/>
      <path d="M183.8787 -227.3795 L195.8787 -222.3795 L192.8787 -227.3795 L195.8787 -232.3795 Z" clip-path="url(#clipPath2)" stroke="none"/>
      <rect x="221.2007" y="-236.7301" clip-path="url(#clipPath2)" fill="white" width="34.0176" height="18.7012" stroke="none"/>
      <text x="223.2007" xml:space="preserve" y="-222.6657" clip-path="url(#clipPath2)" font-family="sans-serif" stroke="none">roleIn</text>
      <path fill="none" d="M65.5662 -157.3843 L65.5662 -209.3571" clip-path="url(#clipPath2)"/>
      <path d="M65.5662 -217.3571 L60.5662 -205.3571 L65.5662 -208.3571 L70.5662 -205.3571 Z" clip-path="url(#clipPath2)" stroke="none"/>
      <text x="68.2543" xml:space="preserve" y="-163.1901" clip-path="url(#clipPath2)" font-family="sans-serif" stroke="none">hasOwner</text>
      <path fill="none" d="M183.8651 -107.3795 L199.28 -107.3795 L199.28 -219.3795 L191.2924 -219.3795" clip-path="url(#clipPath2)"/>
      <path d="M183.2924 -219.3795 L195.2924 -214.3795 L192.2924 -219.3795 L195.2924 -224.3795 Z" clip-path="url(#clipPath2)" stroke="none"/>
      <rect x="163.6446" y="-136.7047" clip-path="url(#clipPath2)" fill="white" width="66.707" height="18.7012" stroke="none"/>
      <text x="165.6446" xml:space="preserve" y="-122.6402" clip-path="url(#clipPath2)" font-family="sans-serif" stroke="none">boundaryOf</text>
      <path fill="none" d="M118.4048 -257.4186 L118.4048 -245.3828" clip-path="url(#clipPath2)"/>
      <path d="M118.4048 -237.3828 L123.4048 -249.3828 L118.4048 -246.3828 L113.4048 -249.3828 Z" clip-path="url(#clipPath2)" stroke="none"/>
      <text x="124.4048" xml:space="preserve" y="-242.6657" clip-path="url(#clipPath2)" font-family="sans-serif" stroke="none">partOf</text>
      <path fill="none" d="M183.2924 -299.3795 L199.28 -299.3795 L199.28 -235.3795 L191.2924 -235.3795" clip-path="url(#clipPath2)"/>
      <path d="M183.2924 -235.3795 L195.2924 -230.3795 L192.2924 -235.3795 L195.2924 -240.3795 Z" clip-path="url(#clipPath2)" stroke="none"/>
      <text x="132.9981" xml:space="preserve" y="-282.8212" clip-path="url(#clipPath2)" font-family="sans-serif" stroke="none">hasMember</text>
      <path fill="none" d="M128.3728 -197.3663 L128.3728 -202.369" clip-path="url(#clipPath2)"/>
      <path fill="white" d="M128.3728 -217.369 L122.3728 -201.369 L134.3728 -201.369 Z" clip-path="url(#clipPath2)" stroke="none"/>
      <path fill="none" d="M128.3728 -217.369 L122.3728 -201.369 L134.3728 -201.369 Z" clip-path="url(#clipPath2)"/>
      <path fill="none" d="M442.688 -407.3748 L442.688 -430.742" clip-path="url(#clipPath2)"/>
      <path fill="white" d="M442.688 -445.742 L436.688 -429.742 L448.688 -429.742 Z" clip-path="url(#clipPath2)" stroke="none"/>
      <path fill="none" d="M442.688 -445.742 L436.688 -429.742 L448.688 -429.742 Z" clip-path="url(#clipPath2)"/>
      <path fill="none" d="M796.562 -407.3535 L796.562 -420.4867 L442.688 -420.4867 L442.688 -430.6927" clip-path="url(#clipPath2)"/>
      <path fill="white" d="M442.688 -445.6927 L436.688 -429.6927 L448.688 -429.6927 Z" clip-path="url(#clipPath2)" stroke="none"/>
      <path fill="none" d="M442.688 -445.6927 L436.688 -429.6927 L448.688 -429.6927 Z" clip-path="url(#clipPath2)"/>
      <path fill="none" d="M321.3057 -227.3795 L354 -227.3795 L354 -349.7776 L362.4154 -349.55" clip-path="url(#clipPath2)"/>
      <path d="M370.4125 -349.3338 L358.552 -354.6563 L361.4158 -349.5771 L358.2817 -344.66 Z" clip-path="url(#clipPath2)" stroke="none"/>
      <rect x="336.9912" y="-261.5911" clip-path="url(#clipPath2)" fill="white" width="34.0176" height="18.7012" stroke="none"/>
      <text x="338.9912" xml:space="preserve" y="-247.5267" clip-path="url(#clipPath2)" font-family="sans-serif" stroke="none">roleIn</text>
      <path fill="none" d="M603.7995 -357.4035 L603.7995 -376.9605 L458.3105 -376.9605 L458.3105 -365.4035" clip-path="url(#clipPath2)"/>
      <path d="M458.3105 -357.4035 L463.3105 -369.4035 L458.3105 -366.4035 L453.3105 -369.4035 Z" clip-path="url(#clipPath2)" stroke="none"/>
      <rect x="486.7034" y="-386.3111" clip-path="url(#clipPath2)" fill="white" width="88.7031" height="18.7012" stroke="none"/>
      <text x="488.7034" xml:space="preserve" y="-372.2466" clip-path="url(#clipPath2)" font-family="sans-serif" stroke="none">hasProcessPart</text>
      <path fill="none" d="M390.4087 -307.3795 L379.8451 -307.3795 L379.8451 -322.3752" clip-path="url(#clipPath2)"/>
      <path fill="white" d="M379.8451 -337.3752 L373.8451 -321.3752 L385.8451 -321.3752 Z" clip-path="url(#clipPath2)" stroke="none"/>
      <path fill="none" d="M379.8451 -337.3752 L373.8451 -321.3752 L385.8451 -321.3752 Z" clip-path="url(#clipPath2)"/>
      <path fill="none" d="M390.4087 -267.3795 L379.8451 -267.3795 L379.8451 -322.3533" clip-path="url(#clipPath2)"/>
      <path fill="white" d="M379.8451 -337.3533 L373.8451 -321.3533 L385.8451 -321.3533 Z" clip-path="url(#clipPath2)" stroke="none"/>
      <path fill="none" d="M379.8451 -337.3533 L373.8451 -321.3533 L385.8451 -321.3533 Z" clip-path="url(#clipPath2)"/>
      <path fill="none" d="M452.688 -317.3695 L452.688 -329.3789" clip-path="url(#clipPath2)"/>
      <path d="M452.688 -337.3789 L447.688 -325.3789 L452.688 -328.3789 L457.688 -325.3789 Z" clip-path="url(#clipPath2)" stroke="none"/>
      <text x="458.688" xml:space="preserve" y="-322.6657" clip-path="url(#clipPath2)" font-family="sans-serif" stroke="none">hasMember</text>
      <path fill="none" d="M321.3085 -227.3795 L533.94 -227.3795 L533.94 -347.3795 L541.8951 -347.3795" clip-path="url(#clipPath2)"/>
      <path d="M549.8951 -347.3795 L537.8951 -352.3795 L540.8951 -347.3795 L537.8951 -342.3795 Z" clip-path="url(#clipPath2)" stroke="none"/>
      <rect x="516.9312" y="-261.0568" clip-path="url(#clipPath2)" fill="white" width="34.0176" height="18.7012" stroke="none"/>
      <text x="518.9312" xml:space="preserve" y="-246.9923" clip-path="url(#clipPath2)" font-family="sans-serif" stroke="none">roleIn</text>
      <path fill="none" d="M569.9327 -307.3795 L559.552 -307.3795 L559.6986 -322.3665" clip-path="url(#clipPath2)"/>
      <path fill="white" d="M559.8454 -337.3658 L553.6891 -321.4252 L565.6885 -321.3078 Z" clip-path="url(#clipPath2)" stroke="none"/>
      <path fill="none" d="M559.8454 -337.3658 L553.6891 -321.4252 L565.6885 -321.3078 Z" clip-path="url(#clipPath2)"/>
      <path fill="none" d="M569.9327 -267.3795 L559.552 -267.3795 L559.7824 -322.3637" clip-path="url(#clipPath2)"/>
      <path fill="white" d="M559.8452 -337.3636 L553.7783 -321.3889 L565.7782 -321.3386 Z" clip-path="url(#clipPath2)" stroke="none"/>
      <path fill="none" d="M559.8452 -337.3636 L553.7783 -321.3889 L565.7782 -321.3386 Z" clip-path="url(#clipPath2)"/>
      <path fill="none" d="M629.256 -317.3781 L629.256 -329.3654" clip-path="url(#clipPath2)"/>
      <path d="M629.256 -337.3654 L624.256 -325.3654 L629.256 -328.3654 L634.256 -325.3654 Z" clip-path="url(#clipPath2)" stroke="none"/>
      <text x="635.256" xml:space="preserve" y="-322.6657" clip-path="url(#clipPath2)" font-family="sans-serif" stroke="none">hasMember</text>
    </g>
    <g fill="rgb(150,150,150)" text-rendering="geometricPrecision" shape-rendering="geometricPrecision" transform="matrix(2,0,0,2,-58,996)" stroke="rgb(150,150,150)">
      <rect x="74.4048" y="-465.6995" clip-path="url(#clipPath2)" width="68" rx="4" ry="4" height="20" stroke="none"/>
    </g>
    <g stroke-linecap="butt" transform="matrix(2,0,0,2,-58,996)" fill="white" text-rendering="geometricPrecision" font-family="sans-serif" shape-rendering="geometricPrecision" stroke="white" font-weight="bold" stroke-miterlimit="1.45">
      <text x="82.398" xml:space="preserve" y="-450.9857" clip-path="url(#clipPath2)" stroke="none">Category</text>
    </g>
    <g stroke-linecap="butt" transform="matrix(2,0,0,2,-58,996)" fill="rgb(150,150,150)" text-rendering="geometricPrecision" shape-rendering="geometricPrecision" stroke="rgb(150,150,150)" stroke-miterlimit="1.45">
      <rect x="74.4048" y="-465.6995" clip-path="url(#clipPath2)" fill="none" width="68" rx="4" ry="4" height="20"/>
    </g>
    <g fill="rgb(43,138,132)" text-rendering="geometricPrecision" shape-rendering="geometricPrecision" transform="matrix(2,0,0,2,-58,996)" stroke="rgb(43,138,132)">
      <rect x="741.002" y="-357.3795" clip-path="url(#clipPath2)" width="91.12" rx="4" ry="4" height="20" stroke="none"/>
    </g>
    <g stroke-linecap="butt" transform="matrix(2,0,0,2,-58,996)" fill="white" text-rendering="geometricPrecision" font-family="sans-serif" shape-rendering="geometricPrecision" stroke="white" font-weight="bold" stroke-miterlimit="1.45">
      <text x="759.9019" xml:space="preserve" y="-342.6657" clip-path="url(#clipPath2)" stroke="none">Chronoid</text>
    </g>
    <g stroke-linecap="butt" transform="matrix(2,0,0,2,-58,996)" fill="rgb(43,138,132)" text-rendering="geometricPrecision" shape-rendering="geometricPrecision" stroke="rgb(43,138,132)" stroke-miterlimit="1.45">
      <rect x="741.002" y="-357.3795" clip-path="url(#clipPath2)" fill="none" width="91.12" rx="4" ry="4" height="20"/>
    </g>
    <g fill="rgb(150,150,150)" text-rendering="geometricPrecision" shape-rendering="geometricPrecision" transform="matrix(2,0,0,2,-58,996)" stroke="rgb(150,150,150)">
      <rect x="253.304" y="-494.6995" clip-path="url(#clipPath2)" width="68" rx="4" ry="4" height="20" stroke="none"/>
    </g>
    <g stroke-linecap="butt" transform="matrix(2,0,0,2,-58,996)" fill="white" text-rendering="geometricPrecision" font-family="sans-serif" shape-rendering="geometricPrecision" stroke="white" font-weight="bold" stroke-miterlimit="1.45">
      <text x="270.637" xml:space="preserve" y="-479.9857" clip-path="url(#clipPath2)" stroke="none">Entity</text>
    </g>
    <g stroke-linecap="butt" transform="matrix(2,0,0,2,-58,996)" fill="rgb(150,150,150)" text-rendering="geometricPrecision" shape-rendering="geometricPrecision" stroke="rgb(150,150,150)" stroke-miterlimit="1.45">
      <rect x="253.304" y="-494.6995" clip-path="url(#clipPath2)" fill="none" width="68" rx="4" ry="4" height="20"/>
      <rect stroke-linecap="square" x="382.688" y="-407.3795" clip-path="url(#clipPath2)" width="120" rx="4" ry="4" height="20" stroke="none" stroke-miterlimit="10"/>
    </g>
    <g stroke-linecap="butt" transform="matrix(2,0,0,2,-58,996)" fill="white" text-rendering="geometricPrecision" font-family="sans-serif" shape-rendering="geometricPrecision" stroke="white" font-weight="bold" stroke-miterlimit="1.45">
      <text x="388.6792" xml:space="preserve" y="-392.6657" clip-path="url(#clipPath2)" stroke="none">ConcreteIndividual</text>
    </g>
    <g stroke-linecap="butt" transform="matrix(2,0,0,2,-58,996)" fill="rgb(150,150,150)" text-rendering="geometricPrecision" shape-rendering="geometricPrecision" stroke="rgb(150,150,150)" stroke-miterlimit="1.45">
      <rect x="382.688" y="-407.3795" clip-path="url(#clipPath2)" fill="none" width="120" rx="4" ry="4" height="20"/>
    </g>
    <g fill="rgb(43,138,132)" text-rendering="geometricPrecision" shape-rendering="geometricPrecision" transform="matrix(2,0,0,2,-58,996)" stroke="rgb(43,138,132)">
      <rect x="741.002" y="-407.3795" clip-path="url(#clipPath2)" width="111.12" rx="4" ry="4" height="20" stroke="none"/>
    </g>
    <g stroke-linecap="butt" transform="matrix(2,0,0,2,-58,996)" fill="white" text-rendering="geometricPrecision" font-family="sans-serif" shape-rendering="geometricPrecision" stroke="white" font-weight="bold" stroke-miterlimit="1.45">
      <text x="765.8911" xml:space="preserve" y="-392.6657" clip-path="url(#clipPath2)" stroke="none">TimeEntity</text>
    </g>
    <g stroke-linecap="butt" transform="matrix(2,0,0,2,-58,996)" fill="rgb(43,138,132)" text-rendering="geometricPrecision" shape-rendering="geometricPrecision" stroke="rgb(43,138,132)" stroke-miterlimit="1.45">
      <rect x="741.002" y="-407.3795" clip-path="url(#clipPath2)" fill="none" width="111.12" rx="4" ry="4" height="20"/>
      <rect stroke-linecap="square" x="741.002" y="-317.3795" clip-path="url(#clipPath2)" width="91.12" rx="4" ry="4" height="20" stroke="none" stroke-miterlimit="10"/>
    </g>
    <g stroke-linecap="butt" transform="matrix(2,0,0,2,-58,996)" fill="white" text-rendering="geometricPrecision" font-family="sans-serif" shape-rendering="geometricPrecision" stroke="white" font-weight="bold" stroke-miterlimit="1.45">
      <text x="744.5562" xml:space="preserve" y="-302.6657" clip-path="url(#clipPath2)" stroke="none">TimeBoundary</text>
    </g>
    <g stroke-linecap="butt" transform="matrix(2,0,0,2,-58,996)" fill="rgb(43,138,132)" text-rendering="geometricPrecision" shape-rendering="geometricPrecision" stroke="rgb(43,138,132)" stroke-miterlimit="1.45">
      <rect x="741.002" y="-317.3795" clip-path="url(#clipPath2)" fill="none" width="91.12" rx="4" ry="4" height="20"/>
    </g>
    <g stroke-linecap="butt" transform="matrix(2,0,0,2,-58,996)" text-rendering="geometricPrecision" font-family="sans-serif" shape-rendering="geometricPrecision" font-weight="bold" stroke-miterlimit="1.45">
      <text x="276.6321" xml:space="preserve" y="-262.6657" clip-path="url(#clipPath2)" stroke="none">Relator</text>
    </g>
    <g stroke-linecap="butt" transform="matrix(2,0,0,2,-58,996)" fill="rgb(73,114,136)" text-rendering="geometricPrecision" shape-rendering="geometricPrecision" stroke="rgb(73,114,136)" stroke-miterlimit="1.45">
      <rect x="273.304" y="-277.3795" clip-path="url(#clipPath2)" fill="none" width="48" rx="4" ry="4" height="20"/>
    </g>
    <g stroke-linecap="butt" transform="matrix(2,0,0,2,-58,996)" text-rendering="geometricPrecision" font-family="sans-serif" shape-rendering="geometricPrecision" font-weight="bold" stroke-miterlimit="1.45">
      <text x="284.302" xml:space="preserve" y="-222.6657" clip-path="url(#clipPath2)" stroke="none">Role</text>
    </g>
    <g stroke-linecap="butt" transform="matrix(2,0,0,2,-58,996)" fill="rgb(73,114,136)" text-rendering="geometricPrecision" shape-rendering="geometricPrecision" stroke="rgb(73,114,136)" stroke-miterlimit="1.45">
      <rect x="273.304" y="-237.3795" clip-path="url(#clipPath2)" fill="none" width="48" rx="4" ry="4" height="20"/>
    </g>
    <g stroke-linecap="butt" transform="matrix(2,0,0,2,-58,996)" text-rendering="geometricPrecision" font-family="sans-serif" shape-rendering="geometricPrecision" font-weight="bold" stroke-miterlimit="1.45">
      <text x="276.9661" xml:space="preserve" y="-302.6657" clip-path="url(#clipPath2)" stroke="none">Quality</text>
    </g>
    <g stroke-linecap="butt" transform="matrix(2,0,0,2,-58,996)" fill="rgb(73,114,136)" text-rendering="geometricPrecision" shape-rendering="geometricPrecision" stroke="rgb(73,114,136)" stroke-miterlimit="1.45">
      <rect x="273.304" y="-317.3795" clip-path="url(#clipPath2)" fill="none" width="48" rx="4" ry="4" height="20"/>
      <rect stroke-linecap="square" x="253.304" y="-357.3795" clip-path="url(#clipPath2)" width="68" rx="4" ry="4" height="20" stroke="none" stroke-miterlimit="10"/>
    </g>
    <g stroke-linecap="butt" transform="matrix(2,0,0,2,-58,996)" fill="white" text-rendering="geometricPrecision" font-family="sans-serif" shape-rendering="geometricPrecision" stroke="white" font-weight="bold" stroke-miterlimit="1.45">
      <text x="257.304" xml:space="preserve" y="-342.6657" clip-path="url(#clipPath2)" stroke="none">Attributive</text>
    </g>
    <g stroke-linecap="butt" transform="matrix(2,0,0,2,-58,996)" fill="rgb(73,114,136)" text-rendering="geometricPrecision" shape-rendering="geometricPrecision" stroke="rgb(73,114,136)" stroke-miterlimit="1.45">
      <rect x="253.304" y="-357.3795" clip-path="url(#clipPath2)" fill="none" width="68" rx="4" ry="4" height="20"/>
    </g>
    <g stroke-linecap="butt" transform="matrix(2,0,0,2,-58,996)" text-rendering="geometricPrecision" font-family="sans-serif" shape-rendering="geometricPrecision" font-weight="bold" stroke-miterlimit="1.45">
      <text x="116.0708" xml:space="preserve" y="-62.6657" clip-path="url(#clipPath2)" stroke="none">Line</text>
    </g>
    <g stroke-linecap="butt" transform="matrix(2,0,0,2,-58,996)" fill="rgb(243,101,35)" text-rendering="geometricPrecision" shape-rendering="geometricPrecision" stroke="rgb(243,101,35)" stroke-miterlimit="1.45">
      <rect x="72.976" y="-77.3795" clip-path="url(#clipPath2)" fill="none" width="110.8576" rx="4" ry="4" height="20"/>
      <rect stroke-linecap="square" x="32.976" y="-357.3795" clip-path="url(#clipPath2)" width="150.8576" rx="4" ry="4" height="20" stroke="none" stroke-miterlimit="10"/>
    </g>
    <g stroke-linecap="butt" transform="matrix(2,0,0,2,-58,996)" fill="white" text-rendering="geometricPrecision" font-family="sans-serif" shape-rendering="geometricPrecision" stroke="white" font-weight="bold" stroke-miterlimit="1.45">
      <text x="76.7466" xml:space="preserve" y="-342.6657" clip-path="url(#clipPath2)" stroke="none">Continuant</text>
    </g>
    <g stroke-linecap="butt" transform="matrix(2,0,0,2,-58,996)" fill="rgb(243,101,35)" text-rendering="geometricPrecision" shape-rendering="geometricPrecision" stroke="rgb(243,101,35)" stroke-miterlimit="1.45">
      <rect x="32.976" y="-357.3795" clip-path="url(#clipPath2)" fill="none" width="150.8576" rx="4" ry="4" height="20"/>
    </g>
    <g stroke-linecap="butt" transform="matrix(2,0,0,2,-58,996)" text-rendering="geometricPrecision" font-family="sans-serif" shape-rendering="geometricPrecision" font-weight="bold" stroke-miterlimit="1.45">
      <text x="71.7319" xml:space="preserve" y="-142.6657" clip-path="url(#clipPath2)" stroke="none">ObjectBoundary</text>
    </g>
    <g stroke-linecap="butt" transform="matrix(2,0,0,2,-58,996)" fill="rgb(243,101,35)" text-rendering="geometricPrecision" shape-rendering="geometricPrecision" stroke="rgb(243,101,35)" stroke-miterlimit="1.45">
      <rect x="52.976" y="-157.3795" clip-path="url(#clipPath2)" fill="none" width="130.8576" rx="4" ry="4" height="20"/>
    </g>
    <g stroke-linecap="butt" transform="matrix(2,0,0,2,-58,996)" text-rendering="geometricPrecision" font-family="sans-serif" shape-rendering="geometricPrecision" font-weight="bold" stroke-miterlimit="1.45">
      <text x="70.062" xml:space="preserve" y="-302.6657" clip-path="url(#clipPath2)" stroke="none">ObjectAggregate</text>
    </g>
    <g stroke-linecap="butt" transform="matrix(2,0,0,2,-58,996)" fill="rgb(243,101,35)" text-rendering="geometricPrecision" shape-rendering="geometricPrecision" stroke="rgb(243,101,35)" stroke-miterlimit="1.45">
      <rect x="52.976" y="-317.3795" clip-path="url(#clipPath2)" fill="none" width="130.8576" rx="4" ry="4" height="20"/>
    </g>
    <g stroke-linecap="butt" transform="matrix(2,0,0,2,-58,996)" text-rendering="geometricPrecision" font-family="sans-serif" shape-rendering="geometricPrecision" font-weight="bold" stroke-miterlimit="1.45">
      <text x="113.4077" xml:space="preserve" y="-22.6657" clip-path="url(#clipPath2)" stroke="none">Point</text>
    </g>
    <g stroke-linecap="butt" transform="matrix(2,0,0,2,-58,996)" fill="rgb(243,101,35)" text-rendering="geometricPrecision" shape-rendering="geometricPrecision" stroke="rgb(243,101,35)" stroke-miterlimit="1.45">
      <rect x="72.976" y="-37.3795" clip-path="url(#clipPath2)" fill="none" width="110.8576" rx="4" ry="4" height="20"/>
    </g>
    <g stroke-linecap="butt" transform="matrix(2,0,0,2,-58,996)" text-rendering="geometricPrecision" font-family="sans-serif" shape-rendering="geometricPrecision" font-weight="bold" stroke-miterlimit="1.45">
      <text x="99.7339" xml:space="preserve" y="-222.6657" clip-path="url(#clipPath2)" stroke="none">Object</text>
    </g>
    <g stroke-linecap="butt" transform="matrix(2,0,0,2,-58,996)" fill="rgb(243,101,35)" text-rendering="geometricPrecision" shape-rendering="geometricPrecision" stroke="rgb(243,101,35)" stroke-miterlimit="1.45">
      <rect x="52.976" y="-237.3795" clip-path="url(#clipPath2)" fill="none" width="130.8576" rx="4" ry="4" height="20"/>
    </g>
    <g stroke-linecap="butt" transform="matrix(2,0,0,2,-58,996)" text-rendering="geometricPrecision" font-family="sans-serif" shape-rendering="geometricPrecision" font-weight="bold" stroke-miterlimit="1.45">
      <text x="106.3941" xml:space="preserve" y="-102.6657" clip-path="url(#clipPath2)" stroke="none">Surface</text>
    </g>
    <g stroke-linecap="butt" transform="matrix(2,0,0,2,-58,996)" fill="rgb(243,101,35)" text-rendering="geometricPrecision" shape-rendering="geometricPrecision" stroke="rgb(243,101,35)" stroke-miterlimit="1.45">
      <rect x="72.976" y="-117.3795" clip-path="url(#clipPath2)" fill="none" width="110.8576" rx="4" ry="4" height="20"/>
    </g>
    <g fill="rgb(150,150,150)" text-rendering="geometricPrecision" shape-rendering="geometricPrecision" transform="matrix(2,0,0,2,-58,996)" stroke="rgb(150,150,150)">
      <rect x="408.688" y="-465.6995" clip-path="url(#clipPath2)" width="68" rx="4" ry="4" height="20" stroke="none"/>
    </g>
    <g stroke-linecap="butt" transform="matrix(2,0,0,2,-58,996)" fill="white" text-rendering="geometricPrecision" font-family="sans-serif" shape-rendering="geometricPrecision" stroke="white" font-weight="bold" stroke-miterlimit="1.45">
      <text x="414.686" xml:space="preserve" y="-450.9857" clip-path="url(#clipPath2)" stroke="none">Individual</text>
    </g>
    <g stroke-linecap="butt" transform="matrix(2,0,0,2,-58,996)" fill="rgb(150,150,150)" text-rendering="geometricPrecision" shape-rendering="geometricPrecision" stroke="rgb(150,150,150)" stroke-miterlimit="1.45">
      <rect x="408.688" y="-465.6995" clip-path="url(#clipPath2)" fill="none" width="68" rx="4" ry="4" height="20"/>
    </g>
    <g stroke-linecap="butt" transform="matrix(2,0,0,2,-58,996)" text-rendering="geometricPrecision" font-family="sans-serif" shape-rendering="geometricPrecision" font-weight="bold" stroke-miterlimit="1.45">
      <text x="88.062" xml:space="preserve" y="-262.6657" clip-path="url(#clipPath2)" stroke="none">ObjectPart</text>
    </g>
    <g stroke-linecap="butt" transform="matrix(2,0,0,2,-58,996)" fill="rgb(243,101,35)" text-rendering="geometricPrecision" shape-rendering="geometricPrecision" stroke="rgb(243,101,35)" stroke-miterlimit="1.45">
      <rect x="52.976" y="-277.3795" clip-path="url(#clipPath2)" fill="none" width="130.8576" rx="4" ry="4" height="20"/>
    </g>
    <g stroke-linecap="butt" transform="matrix(2,0,0,2,-58,996)" text-rendering="geometricPrecision" font-family="sans-serif" shape-rendering="geometricPrecision" font-weight="bold" stroke-miterlimit="1.45">
      <text x="393.6987" xml:space="preserve" y="-262.6657" clip-path="url(#clipPath2)" stroke="none">ContinuousSituation</text>
    </g>
    <g stroke-linecap="butt" transform="matrix(2,0,0,2,-58,996)" fill="rgb(157,64,95)" text-rendering="geometricPrecision" shape-rendering="geometricPrecision" stroke="rgb(157,64,95)" stroke-miterlimit="1.45">
      <rect x="390.408" y="-277.3795" clip-path="url(#clipPath2)" fill="none" width="124.56" rx="4" ry="4" height="20"/>
    </g>
    <g stroke-linecap="butt" transform="matrix(2,0,0,2,-58,996)" text-rendering="geometricPrecision" font-family="sans-serif" shape-rendering="geometricPrecision" font-weight="bold" stroke-miterlimit="1.45">
      <text x="397.3521" xml:space="preserve" y="-302.6657" clip-path="url(#clipPath2)" stroke="none">SituationAggregate</text>
    </g>
    <g stroke-linecap="butt" transform="matrix(2,0,0,2,-58,996)" fill="rgb(157,64,95)" text-rendering="geometricPrecision" shape-rendering="geometricPrecision" stroke="rgb(157,64,95)" stroke-miterlimit="1.45">
      <rect x="390.408" y="-317.3795" clip-path="url(#clipPath2)" fill="none" width="124.56" rx="4" ry="4" height="20"/>
      <rect stroke-linecap="square" x="370.408" y="-357.3795" clip-path="url(#clipPath2)" width="144.56" rx="4" ry="4" height="20" stroke="none" stroke-miterlimit="10"/>
    </g>
    <g stroke-linecap="butt" transform="matrix(2,0,0,2,-58,996)" fill="white" text-rendering="geometricPrecision" font-family="sans-serif" shape-rendering="geometricPrecision" stroke="white" font-weight="bold" stroke-miterlimit="1.45">
      <text x="417.0239" xml:space="preserve" y="-342.6657" clip-path="url(#clipPath2)" stroke="none">Situation</text>
    </g>
    <g stroke-linecap="butt" transform="matrix(2,0,0,2,-58,996)" fill="rgb(157,64,95)" text-rendering="geometricPrecision" shape-rendering="geometricPrecision" stroke="rgb(157,64,95)" stroke-miterlimit="1.45">
      <rect x="370.408" y="-357.3795" clip-path="url(#clipPath2)" fill="none" width="144.56" rx="4" ry="4" height="20"/>
    </g>
    <g stroke-linecap="butt" transform="matrix(2,0,0,2,-58,996)" text-rendering="geometricPrecision" font-family="sans-serif" shape-rendering="geometricPrecision" font-weight="bold" stroke-miterlimit="1.45">
      <text x="572.5812" xml:space="preserve" y="-262.6657" clip-path="url(#clipPath2)" stroke="none">ContinuousProcess</text>
    </g>
    <g stroke-linecap="butt" transform="matrix(2,0,0,2,-58,996)" fill="rgb(247,149,29)" text-rendering="geometricPrecision" shape-rendering="geometricPrecision" stroke="rgb(247,149,29)" stroke-miterlimit="1.45">
      <rect x="569.912" y="-277.3795" clip-path="url(#clipPath2)" fill="none" width="118.688" rx="4" ry="4" height="20"/>
    </g>
    <g stroke-linecap="butt" transform="matrix(2,0,0,2,-58,996)" text-rendering="geometricPrecision" font-family="sans-serif" shape-rendering="geometricPrecision" font-weight="bold" stroke-miterlimit="1.45">
      <text x="576.2345" xml:space="preserve" y="-302.6657" clip-path="url(#clipPath2)" stroke="none">ProcessAggregate</text>
    </g>
    <g stroke-linecap="butt" transform="matrix(2,0,0,2,-58,996)" fill="rgb(247,149,29)" text-rendering="geometricPrecision" shape-rendering="geometricPrecision" stroke="rgb(247,149,29)" stroke-miterlimit="1.45">
      <rect x="569.912" y="-317.3795" clip-path="url(#clipPath2)" fill="none" width="118.688" rx="4" ry="4" height="20"/>
      <rect stroke-linecap="square" x="549.912" y="-357.3795" clip-path="url(#clipPath2)" width="138.688" rx="4" ry="4" height="20" stroke="none" stroke-miterlimit="10"/>
    </g>
    <g stroke-linecap="butt" transform="matrix(2,0,0,2,-58,996)" fill="white" text-rendering="geometricPrecision" font-family="sans-serif" shape-rendering="geometricPrecision" stroke="white" font-weight="bold" stroke-miterlimit="1.45">
      <text x="595.9064" xml:space="preserve" y="-342.6657" clip-path="url(#clipPath2)" stroke="none">Process</text>
    </g>
    <g stroke-linecap="butt" transform="matrix(2,0,0,2,-58,996)" fill="rgb(247,149,29)" text-rendering="geometricPrecision" shape-rendering="geometricPrecision" stroke="rgb(247,149,29)" stroke-miterlimit="1.45">
      <rect x="549.912" y="-357.3795" clip-path="url(#clipPath2)" fill="none" width="138.688" rx="4" ry="4" height="20"/>
    </g>
    <g stroke-linecap="butt" transform="matrix(2,0,0,2,-58,996)" text-rendering="geometricPrecision" font-family="sans-serif" shape-rendering="geometricPrecision" font-weight="bold" stroke-miterlimit="1.45">
      <text x="76.7048" xml:space="preserve" y="-182.6657" clip-path="url(#clipPath2)" stroke="none">InformationObject</text>
    </g>
    <g stroke-linecap="butt" transform="matrix(2,0,0,2,-58,996)" fill="rgb(243,101,35)" text-rendering="geometricPrecision" shape-rendering="geometricPrecision" stroke="rgb(243,101,35)" stroke-miterlimit="1.45">
      <rect x="72.912" y="-197.3795" clip-path="url(#clipPath2)" fill="none" width="110.9216" rx="4" ry="4" height="20"/>
    </g>
  </g>
</svg>
