<?xml version="1.0" encoding="UTF-8"?><svg xmlns="http://www.w3.org/2000/svg" xmlns:xlink="http://www.w3.org/1999/xlink" fill-opacity="1" color-rendering="auto" color-interpolation="auto" text-rendering="auto" stroke="black" stroke-linecap="square" width="558" stroke-miterlimit="10" shape-rendering="auto" stroke-opacity="1" fill="black" stroke-dasharray="none" font-weight="normal" stroke-width="1" height="480" font-family="'Dialog'" font-style="normal" stroke-linejoin="miter" font-size="12px" stroke-dashoffset="0" image-rendering="auto">
  <!--Generated by ySVG 2.6-->
  <defs id="genericDefs"/>
  <g>
    <defs id="defs1">
      <clipPath clipPathUnits="userSpaceOnUse" id="clipPath1">
        <path d="M0 0 L558 0 L558 480 L0 480 L0 0 Z"/>
      </clipPath>
      <clipPath clipPathUnits="userSpaceOnUse" id="clipPath2">
        <path d="M813 456 L1092 456 L1092 696 L813 696 L813 456 Z"/>
      </clipPath>
    </defs>
    <g fill="white" text-rendering="geometricPrecision" shape-rendering="geometricPrecision" transform="scale(2,2) translate(-813,-456)" stroke="white">
      <rect x="813" width="279" height="240" y="456" clip-path="url(#clipPath2)" stroke="none"/>
    </g>
    <g text-rendering="geometricPrecision" stroke-miterlimit="1.45" shape-rendering="geometricPrecision" transform="matrix(2,0,0,2,-1626,-912)" stroke-linecap="butt">
      <path fill="none" d="M852.779 492.5816 L852.779 642.8206 L924.7308 642.8206" clip-path="url(#clipPath2)"/>
      <path d="M932.7308 642.8206 L920.7308 637.8206 L923.7308 642.8206 L920.7308 647.8206 Z" clip-path="url(#clipPath2)" stroke="none"/>
      <path fill="none" d="M852.779 492.6126 L852.779 602.7869 L924.7308 602.7869" clip-path="url(#clipPath2)"/>
      <path d="M932.7308 602.7869 L920.7308 597.7869 L923.7308 602.7869 L920.7308 607.7869 Z" clip-path="url(#clipPath2)" stroke="none"/>
      <path fill="none" d="M852.779 492.6295 L852.779 682.8542 L924.7308 682.8542" clip-path="url(#clipPath2)"/>
      <path d="M932.7308 682.8542 L920.7308 677.8542 L923.7308 682.8542 L920.7308 687.8542 Z" clip-path="url(#clipPath2)" stroke="none"/>
      <text x="818.3312" xml:space="preserve" y="506.447" clip-path="url(#clipPath2)" font-family="sans-serif" stroke="none">roleIn</text>
      <path fill="none" d="M1071.7589 482.6074 L1088.1619 482.6074 L1088.1619 682.8542 L1046.7762 682.8542" clip-path="url(#clipPath2)"/>
      <path d="M1038.7762 682.8542 L1050.7762 687.8542 L1047.7762 682.8542 L1050.7762 677.8542 Z" clip-path="url(#clipPath2)" stroke="none"/>
      <text x="1034.7323" xml:space="preserve" y="669.1539" clip-path="url(#clipPath2)" font-family="sans-serif" stroke="none">relatedBy</text>
      <path fill="none" d="M852.779 492.5851 L852.779 522.6747 L924.7308 522.6747" clip-path="url(#clipPath2)"/>
      <path d="M932.7308 522.6747 L920.7308 517.6747 L923.7308 522.6747 L920.7308 527.6747 Z" clip-path="url(#clipPath2)" stroke="none"/>
      <path fill="none" d="M870.696 482.6074 L924.7131 482.6074" clip-path="url(#clipPath2)"/>
      <path d="M932.7131 482.6074 L920.7131 477.6074 L923.7131 482.6074 L920.7131 487.6074 Z" clip-path="url(#clipPath2)" stroke="none"/>
      <text x="877.0284" xml:space="preserve" y="473.9707" clip-path="url(#clipPath2)" font-family="sans-serif" stroke="none">playedBy</text>
      <path fill="none" d="M1038.7943 562.7421 L1058.5637 562.7421 L1058.5637 507.5851" clip-path="url(#clipPath2)"/>
      <path fill="white" d="M1058.5637 492.5851 L1052.5637 508.5851 L1064.5637 508.5851 Z" clip-path="url(#clipPath2)" stroke="none"/>
      <path fill="none" d="M1058.5637 492.5851 L1052.5637 508.5851 L1064.5637 508.5851 Z" clip-path="url(#clipPath2)"/>
      <path fill="none" d="M1038.7943 522.6747 L1058.5637 522.6747 L1058.5637 507.5851" clip-path="url(#clipPath2)"/>
      <path fill="white" d="M1058.5637 492.5851 L1052.5637 508.5851 L1064.5637 508.5851 Z" clip-path="url(#clipPath2)" stroke="none"/>
      <path fill="none" d="M1058.5637 492.5851 L1052.5637 508.5851 L1064.5637 508.5851 Z" clip-path="url(#clipPath2)"/>
      <path fill="none" d="M852.779 492.5851 L852.779 562.7421 L924.7308 562.7421" clip-path="url(#clipPath2)"/>
      <path d="M932.7308 562.7421 L920.7308 557.7421 L923.7308 562.7421 L920.7308 567.7421 Z" clip-path="url(#clipPath2)" stroke="none"/>
    </g>
    <g fill="rgb(247,149,29)" text-rendering="geometricPrecision" shape-rendering="geometricPrecision" transform="matrix(2,0,0,2,-1626,-912)" stroke="rgb(247,149,29)">
      <rect x="932.711" y="632.8206" clip-path="url(#clipPath2)" width="106.0576" rx="4" ry="4" height="20" stroke="none"/>
    </g>
    <g stroke-linecap="butt" transform="matrix(2,0,0,2,-1626,-912)" fill="white" text-rendering="geometricPrecision" font-family="sans-serif" shape-rendering="geometricPrecision" stroke="white" font-weight="bold" stroke-miterlimit="1.45">
      <text x="937.0543" xml:space="preserve" y="647.5345" clip-path="url(#clipPath2)" stroke="none">ProcessualEntity</text>
    </g>
    <g stroke-linecap="butt" transform="matrix(2,0,0,2,-1626,-912)" fill="rgb(247,149,29)" text-rendering="geometricPrecision" shape-rendering="geometricPrecision" stroke="rgb(247,149,29)" stroke-miterlimit="1.45">
      <rect x="932.711" y="632.8206" clip-path="url(#clipPath2)" fill="none" width="106.0576" rx="4" ry="4" height="20"/>
    </g>
    <g fill="rgb(157,64,95)" text-rendering="geometricPrecision" shape-rendering="geometricPrecision" transform="matrix(2,0,0,2,-1626,-912)" stroke="rgb(157,64,95)">
      <rect x="932.711" y="592.7869" clip-path="url(#clipPath2)" width="106.0576" rx="4" ry="4" height="20" stroke="none"/>
    </g>
    <g stroke-linecap="butt" transform="matrix(2,0,0,2,-1626,-912)" fill="white" text-rendering="geometricPrecision" font-family="sans-serif" shape-rendering="geometricPrecision" stroke="white" font-weight="bold" stroke-miterlimit="1.45">
      <text x="938.4048" xml:space="preserve" y="607.5008" clip-path="url(#clipPath2)" stroke="none">SituationalEntity</text>
    </g>
    <g stroke-linecap="butt" transform="matrix(2,0,0,2,-1626,-912)" fill="rgb(157,64,95)" text-rendering="geometricPrecision" shape-rendering="geometricPrecision" stroke="rgb(157,64,95)" stroke-miterlimit="1.45">
      <rect x="932.711" y="592.7869" clip-path="url(#clipPath2)" fill="none" width="106.0576" rx="4" ry="4" height="20"/>
    </g>
    <g stroke-linecap="butt" transform="matrix(2,0,0,2,-1626,-912)" text-rendering="geometricPrecision" font-family="sans-serif" shape-rendering="geometricPrecision" font-weight="bold" stroke-miterlimit="1.45">
      <text x="965.0679" xml:space="preserve" y="687.5681" clip-path="url(#clipPath2)" stroke="none">Relator</text>
    </g>
    <g stroke-linecap="butt" transform="matrix(2,0,0,2,-1626,-912)" fill="rgb(73,114,136)" text-rendering="geometricPrecision" shape-rendering="geometricPrecision" stroke="rgb(73,114,136)" stroke-miterlimit="1.45">
      <rect x="932.711" y="672.8543" clip-path="url(#clipPath2)" fill="none" width="106.0576" rx="4" ry="4" height="20"/>
    </g>
    <g stroke-linecap="butt" transform="matrix(2,0,0,2,-1626,-912)" text-rendering="geometricPrecision" font-family="sans-serif" shape-rendering="geometricPrecision" font-weight="bold" stroke-miterlimit="1.45">
      <text x="839.777" xml:space="preserve" y="487.3213" clip-path="url(#clipPath2)" stroke="none">Role</text>
    </g>
    <g stroke-linecap="butt" transform="matrix(2,0,0,2,-1626,-912)" fill="rgb(73,114,136)" text-rendering="geometricPrecision" shape-rendering="geometricPrecision" stroke="rgb(73,114,136)" stroke-miterlimit="1.45">
      <rect x="834.847" y="472.6074" clip-path="url(#clipPath2)" fill="none" width="35.864" rx="4" ry="4" height="20"/>
    </g>
    <g stroke-linecap="butt" transform="matrix(2,0,0,2,-1626,-912)" text-rendering="geometricPrecision" font-family="sans-serif" shape-rendering="geometricPrecision" font-weight="bold" stroke-miterlimit="1.45">
      <text x="967.0689" xml:space="preserve" y="527.3886" clip-path="url(#clipPath2)" stroke="none">Object</text>
    </g>
    <g stroke-linecap="butt" transform="matrix(2,0,0,2,-1626,-912)" fill="rgb(243,101,35)" text-rendering="geometricPrecision" shape-rendering="geometricPrecision" stroke="rgb(243,101,35)" stroke-miterlimit="1.45">
      <rect x="932.711" y="512.6747" clip-path="url(#clipPath2)" fill="none" width="106.0576" rx="4" ry="4" height="20"/>
      <rect stroke-linecap="square" x="932.711" y="472.6074" clip-path="url(#clipPath2)" width="139.0688" rx="4" ry="4" height="20" stroke="none" stroke-miterlimit="10"/>
    </g>
    <g stroke-linecap="butt" transform="matrix(2,0,0,2,-1626,-912)" fill="white" text-rendering="geometricPrecision" font-family="sans-serif" shape-rendering="geometricPrecision" stroke="white" font-weight="bold" stroke-miterlimit="1.45">
      <text x="970.5872" xml:space="preserve" y="487.3213" clip-path="url(#clipPath2)" stroke="none">Continuant</text>
    </g>
    <g stroke-linecap="butt" transform="matrix(2,0,0,2,-1626,-912)" fill="rgb(243,101,35)" text-rendering="geometricPrecision" shape-rendering="geometricPrecision" stroke="rgb(243,101,35)" stroke-miterlimit="1.45">
      <rect x="932.711" y="472.6074" clip-path="url(#clipPath2)" fill="none" width="139.0688" rx="4" ry="4" height="20"/>
    </g>
    <g stroke-linecap="butt" transform="matrix(2,0,0,2,-1626,-912)" text-rendering="geometricPrecision" font-family="sans-serif" shape-rendering="geometricPrecision" font-weight="bold" stroke-miterlimit="1.45">
      <text x="937.397" xml:space="preserve" y="567.4559" clip-path="url(#clipPath2)" stroke="none">ObjectAggregate</text>
    </g>
    <g stroke-linecap="butt" transform="matrix(2,0,0,2,-1626,-912)" fill="rgb(243,101,35)" text-rendering="geometricPrecision" shape-rendering="geometricPrecision" stroke="rgb(243,101,35)" stroke-miterlimit="1.45">
      <rect x="932.711" y="552.7421" clip-path="url(#clipPath2)" fill="none" width="106.0576" rx="4" ry="4" height="20"/>
    </g>
  </g>
</svg>
