<?xml version="1.0" encoding="UTF-8"?><svg xmlns="http://www.w3.org/2000/svg" xmlns:xlink="http://www.w3.org/1999/xlink" fill-opacity="1" color-rendering="auto" color-interpolation="auto" text-rendering="auto" stroke="black" stroke-linecap="square" width="1130" stroke-miterlimit="10" shape-rendering="auto" stroke-opacity="1" fill="black" stroke-dasharray="none" font-weight="normal" stroke-width="1" height="462" font-family="'Dialog'" font-style="normal" stroke-linejoin="miter" font-size="12px" stroke-dashoffset="0" image-rendering="auto">
  <!--Generated by ySVG 2.6-->
  <defs id="genericDefs"/>
  <g>
    <defs id="defs1">
      <clipPath clipPathUnits="userSpaceOnUse" id="clipPath1">
        <path d="M0 0 L1130 0 L1130 462 L0 462 L0 0 Z"/>
      </clipPath>
      <clipPath clipPathUnits="userSpaceOnUse" id="clipPath2">
        <path d="M175 -498 L740 -498 L740 -267 L175 -267 L175 -498 Z"/>
      </clipPath>
    </defs>
    <g fill="white" text-rendering="geometricPrecision" shape-rendering="geometricPrecision" transform="scale(2,2) translate(-175,498)" stroke="white">
      <rect x="175" width="565" height="231" y="-498" clip-path="url(#clipPath2)" stroke="none"/>
    </g>
    <g text-rendering="geometricPrecision" stroke-miterlimit="1.45" shape-rendering="geometricPrecision" transform="matrix(2,0,0,2,-350,996)" stroke-linecap="butt">
      <path fill="none" d="M415.7089 -455.6995 L328.9898 -455.6995" clip-path="url(#clipPath2)"/>
      <path d="M320.9898 -455.6995 L332.9898 -450.6995 L329.9898 -455.6995 L332.9898 -460.6995 Z" clip-path="url(#clipPath2)" stroke="none"/>
      <rect x="337.6784" y="-465.0501" clip-path="url(#clipPath2)" fill="white" width="61.3633" height="18.7012" stroke="none"/>
      <text x="339.6783" xml:space="preserve" y="-450.9857" clip-path="url(#clipPath2)" font-family="sans-serif" stroke="none">instanceOf</text>
      <path fill="none" d="M291 -465.6966 L291 -484.6995 L332.3958 -484.6995" clip-path="url(#clipPath2)"/>
      <path fill="white" d="M347.3958 -484.6995 L331.3958 -490.6995 L331.3958 -478.6995 Z" clip-path="url(#clipPath2)" stroke="none"/>
      <path fill="none" d="M347.3958 -484.6995 L331.3958 -490.6995 L331.3958 -478.6995 Z" clip-path="url(#clipPath2)"/>
      <path fill="none" d="M448.22 -465.6966 L448.22 -484.6995 L404.3778 -484.6995" clip-path="url(#clipPath2)"/>
      <path fill="white" d="M389.3778 -484.6995 L405.3778 -478.6995 L405.3778 -490.6995 Z" clip-path="url(#clipPath2)" stroke="none"/>
      <path fill="none" d="M389.3778 -484.6995 L405.3778 -478.6995 L405.3778 -490.6995 Z" clip-path="url(#clipPath2)"/>
      <path fill="none" d="M291 -357.3966 L291 -402.3795 L374.6847 -402.3795" clip-path="url(#clipPath2)"/>
      <path fill="white" d="M389.6847 -402.3795 L373.6847 -408.3795 L373.6847 -396.3795 Z" clip-path="url(#clipPath2)" stroke="none"/>
      <path fill="none" d="M389.6847 -402.3795 L373.6847 -408.3795 L373.6847 -396.3795 Z" clip-path="url(#clipPath2)"/>
      <path fill="none" d="M448.22 -357.3893 L448.22 -372.3429" clip-path="url(#clipPath2)"/>
      <path fill="white" d="M448.22 -387.3429 L442.22 -371.3429 L454.22 -371.3429 Z" clip-path="url(#clipPath2)" stroke="none"/>
      <path fill="none" d="M448.22 -387.3429 L442.22 -371.3429 L454.22 -371.3429 Z" clip-path="url(#clipPath2)"/>
      <path fill="none" d="M213.5 -357.3966 L213.5 -402.3795 L374.7406 -402.3795" clip-path="url(#clipPath2)"/>
      <path fill="white" d="M389.7406 -402.3795 L373.7406 -408.3795 L373.7406 -396.3795 Z" clip-path="url(#clipPath2)" stroke="none"/>
      <path fill="none" d="M389.7406 -402.3795 L373.7406 -408.3795 L373.7406 -396.3795 Z" clip-path="url(#clipPath2)"/>
      <path fill="none" d="M594.55 -357.3551 L594.55 -392.3795 L521.702 -392.3795" clip-path="url(#clipPath2)"/>
      <path fill="white" d="M506.702 -392.3795 L522.702 -386.3795 L522.702 -398.3795 Z" clip-path="url(#clipPath2)" stroke="none"/>
      <path fill="none" d="M506.702 -392.3795 L522.702 -386.3795 L522.702 -398.3795 Z" clip-path="url(#clipPath2)"/>
      <path fill="none" d="M506.7332 -402.3795 L668 -402.3795 L668 -365.3966" clip-path="url(#clipPath2)"/>
      <path d="M668 -357.3966 L673 -369.3966 L668 -366.3966 L663 -369.3966 Z" clip-path="url(#clipPath2)" stroke="none"/>
      <rect x="566.9157" y="-411.7301" clip-path="url(#clipPath2)" fill="white" width="50.0137" height="18.7012" stroke="none"/>
      <text x="568.9156" xml:space="preserve" y="-397.6657" clip-path="url(#clipPath2)" font-family="sans-serif" stroke="none">hasTime</text>
      <path fill="none" d="M721.5027 -310.8791 L729 -310.8791 L729 -322.3633" clip-path="url(#clipPath2)"/>
      <path fill="white" d="M729 -337.3633 L723 -321.3633 L735 -321.3633 Z" clip-path="url(#clipPath2)" stroke="none"/>
      <path fill="none" d="M729 -337.3633 L723 -321.3633 L735 -321.3633 Z" clip-path="url(#clipPath2)"/>
      <path fill="none" d="M721.5027 -280.8791 L729 -280.8791 L729 -322.4109" clip-path="url(#clipPath2)"/>
      <path fill="white" d="M729 -337.4109 L723 -321.4109 L735 -321.4109 Z" clip-path="url(#clipPath2)" stroke="none"/>
      <path fill="none" d="M729 -337.4109 L723 -321.4109 L735 -321.4109 Z" clip-path="url(#clipPath2)"/>
      <path fill="none" d="M418.2422 -347.3795 L334.0103 -347.3795" clip-path="url(#clipPath2)"/>
      <path d="M326.0103 -347.3795 L338.0103 -342.3795 L335.0103 -347.3795 L338.0103 -352.3795 Z" clip-path="url(#clipPath2)" stroke="none"/>
      <text x="328.0826" xml:space="preserve" y="-354.0163" clip-path="url(#clipPath2)" font-family="sans-serif" stroke="none">hasSituationPart</text>
      <path fill="none" d="M389.714 -392.3795 L306 -392.3795 L306 -365.3551" clip-path="url(#clipPath2)"/>
      <path d="M306 -357.3551 L311 -369.3551 L306 -366.3551 L301 -369.3551 Z" clip-path="url(#clipPath2)" stroke="none"/>
      <text x="310.2444" xml:space="preserve" y="-379.9221" clip-path="url(#clipPath2)" font-family="sans-serif" stroke="none">hasAttributive</text>
      <path fill="none" d="M448.22 -407.3748 L448.22 -430.742" clip-path="url(#clipPath2)"/>
      <path fill="white" d="M448.22 -445.742 L442.22 -429.742 L454.22 -429.742 Z" clip-path="url(#clipPath2)" stroke="none"/>
      <path fill="none" d="M448.22 -445.742 L442.22 -429.742 L454.22 -429.742 Z" clip-path="url(#clipPath2)"/>
      <path fill="none" d="M683 -357.4103 L683 -420.4867 L448.22 -420.4867 L448.22 -430.6927" clip-path="url(#clipPath2)"/>
      <path fill="white" d="M448.22 -445.6927 L442.22 -429.6927 L454.22 -429.6927 Z" clip-path="url(#clipPath2)" stroke="none"/>
      <path fill="none" d="M448.22 -445.6927 L442.22 -429.6927 L454.22 -429.6927 Z" clip-path="url(#clipPath2)"/>
      <path fill="none" d="M567.0774 -347.3795 L486.1955 -347.3795" clip-path="url(#clipPath2)"/>
      <path d="M478.1955 -347.3795 L490.1955 -342.3795 L487.1955 -347.3795 L490.1955 -352.3795 Z" clip-path="url(#clipPath2)" stroke="none"/>
      <text x="480.2834" xml:space="preserve" y="-354.0163" clip-path="url(#clipPath2)" font-family="sans-serif" stroke="none">hasProcessPart</text>
      <path fill="none" d="M213.5 -337.3664 L213.5 -318 L448.22 -318 L448.22 -329.3664" clip-path="url(#clipPath2)"/>
      <path d="M448.22 -337.3664 L443.22 -325.3664 L448.22 -328.3664 L453.22 -325.3664 Z" clip-path="url(#clipPath2)" stroke="none"/>
      <path fill="none" d="M213.5 -337.3664 L213.5 -318 L594.55 -318 L594.55 -329.3664" clip-path="url(#clipPath2)"/>
      <path d="M594.55 -337.3664 L589.55 -325.3664 L594.55 -328.3664 L599.55 -325.3664 Z" clip-path="url(#clipPath2)" stroke="none"/>
      <rect x="366.3385" y="-327.3506" clip-path="url(#clipPath2)" fill="white" width="75.373" height="18.7012" stroke="none"/>
      <text x="368.3385" xml:space="preserve" y="-313.2861" clip-path="url(#clipPath2)" font-family="sans-serif" stroke="none">participatesIn</text>
    </g>
    <g fill="rgb(150,150,150)" text-rendering="geometricPrecision" shape-rendering="geometricPrecision" transform="matrix(2,0,0,2,-350,996)" stroke="rgb(150,150,150)">
      <rect x="261" y="-465.6995" clip-path="url(#clipPath2)" width="60" rx="4" ry="4" height="20" stroke="none"/>
    </g>
    <g stroke-linecap="butt" transform="matrix(2,0,0,2,-350,996)" fill="white" text-rendering="geometricPrecision" font-family="sans-serif" shape-rendering="geometricPrecision" stroke="white" font-weight="bold" stroke-miterlimit="1.45">
      <text x="264.9932" xml:space="preserve" y="-450.9857" clip-path="url(#clipPath2)" stroke="none">Category</text>
    </g>
    <g stroke-linecap="butt" transform="matrix(2,0,0,2,-350,996)" fill="rgb(150,150,150)" text-rendering="geometricPrecision" shape-rendering="geometricPrecision" stroke="rgb(150,150,150)" stroke-miterlimit="1.45">
      <rect x="261" y="-465.6995" clip-path="url(#clipPath2)" fill="none" width="60" rx="4" ry="4" height="20"/>
      <rect stroke-linecap="square" x="347.36" y="-494.6995" clip-path="url(#clipPath2)" width="42" rx="4" ry="4" height="20" stroke="none" stroke-miterlimit="10"/>
    </g>
    <g stroke-linecap="butt" transform="matrix(2,0,0,2,-350,996)" fill="white" text-rendering="geometricPrecision" font-family="sans-serif" shape-rendering="geometricPrecision" stroke="white" font-weight="bold" stroke-miterlimit="1.45">
      <text x="351.693" xml:space="preserve" y="-479.9857" clip-path="url(#clipPath2)" stroke="none">Entity</text>
    </g>
    <g stroke-linecap="butt" transform="matrix(2,0,0,2,-350,996)" fill="rgb(150,150,150)" text-rendering="geometricPrecision" shape-rendering="geometricPrecision" stroke="rgb(150,150,150)" stroke-miterlimit="1.45">
      <rect x="347.36" y="-494.6995" clip-path="url(#clipPath2)" fill="none" width="42" rx="4" ry="4" height="20"/>
      <rect stroke-linecap="square" x="389.72" y="-407.3795" clip-path="url(#clipPath2)" width="117" rx="4" ry="4" height="20" stroke="none" stroke-miterlimit="10"/>
    </g>
    <g stroke-linecap="butt" transform="matrix(2,0,0,2,-350,996)" fill="white" text-rendering="geometricPrecision" font-family="sans-serif" shape-rendering="geometricPrecision" stroke="white" font-weight="bold" stroke-miterlimit="1.45">
      <text x="394.2112" xml:space="preserve" y="-392.6657" clip-path="url(#clipPath2)" stroke="none">ConcreteIndividual</text>
    </g>
    <g stroke-linecap="butt" transform="matrix(2,0,0,2,-350,996)" fill="rgb(150,150,150)" text-rendering="geometricPrecision" shape-rendering="geometricPrecision" stroke="rgb(150,150,150)" stroke-miterlimit="1.45">
      <rect x="389.72" y="-407.3795" clip-path="url(#clipPath2)" fill="none" width="117" rx="4" ry="4" height="20"/>
    </g>
    <g fill="rgb(43,138,132)" text-rendering="geometricPrecision" shape-rendering="geometricPrecision" transform="matrix(2,0,0,2,-350,996)" stroke="rgb(43,138,132)">
      <rect x="629.5" y="-357.3795" clip-path="url(#clipPath2)" width="107" rx="4" ry="4" height="20" stroke="none"/>
    </g>
    <g stroke-linecap="butt" transform="matrix(2,0,0,2,-350,996)" fill="white" text-rendering="geometricPrecision" font-family="sans-serif" shape-rendering="geometricPrecision" stroke="white" font-weight="bold" stroke-miterlimit="1.45">
      <text x="652.3291" xml:space="preserve" y="-342.6657" clip-path="url(#clipPath2)" stroke="none">TimeEntity</text>
    </g>
    <g stroke-linecap="butt" transform="matrix(2,0,0,2,-350,996)" fill="rgb(43,138,132)" text-rendering="geometricPrecision" shape-rendering="geometricPrecision" stroke="rgb(43,138,132)" stroke-miterlimit="1.45">
      <rect x="629.5" y="-357.3795" clip-path="url(#clipPath2)" fill="none" width="107" rx="4" ry="4" height="20"/>
    </g>
    <g fill="rgb(73,114,136)" text-rendering="geometricPrecision" shape-rendering="geometricPrecision" transform="matrix(2,0,0,2,-350,996)" stroke="rgb(73,114,136)">
      <rect x="256" y="-357.3795" clip-path="url(#clipPath2)" width="70" rx="4" ry="4" height="20" stroke="none"/>
    </g>
    <g stroke-linecap="butt" transform="matrix(2,0,0,2,-350,996)" fill="white" text-rendering="geometricPrecision" font-family="sans-serif" shape-rendering="geometricPrecision" stroke="white" font-weight="bold" stroke-miterlimit="1.45">
      <text x="261" xml:space="preserve" y="-342.6657" clip-path="url(#clipPath2)" stroke="none">Attributive</text>
    </g>
    <g stroke-linecap="butt" transform="matrix(2,0,0,2,-350,996)" fill="rgb(73,114,136)" text-rendering="geometricPrecision" shape-rendering="geometricPrecision" stroke="rgb(73,114,136)" stroke-miterlimit="1.45">
      <rect x="256" y="-357.3795" clip-path="url(#clipPath2)" fill="none" width="70" rx="4" ry="4" height="20"/>
    </g>
    <g fill="rgb(243,101,35)" text-rendering="geometricPrecision" shape-rendering="geometricPrecision" transform="matrix(2,0,0,2,-350,996)" stroke="rgb(243,101,35)">
      <rect x="178" y="-357.3795" clip-path="url(#clipPath2)" width="71" rx="4" ry="4" height="20" stroke="none"/>
    </g>
    <g stroke-linecap="butt" transform="matrix(2,0,0,2,-350,996)" fill="white" text-rendering="geometricPrecision" font-family="sans-serif" shape-rendering="geometricPrecision" stroke="white" font-weight="bold" stroke-miterlimit="1.45">
      <text x="181.8418" xml:space="preserve" y="-342.6657" clip-path="url(#clipPath2)" stroke="none">Continuant</text>
    </g>
    <g stroke-linecap="butt" transform="matrix(2,0,0,2,-350,996)" fill="rgb(243,101,35)" text-rendering="geometricPrecision" shape-rendering="geometricPrecision" stroke="rgb(243,101,35)" stroke-miterlimit="1.45">
      <rect x="178" y="-357.3795" clip-path="url(#clipPath2)" fill="none" width="71" rx="4" ry="4" height="20"/>
    </g>
    <g fill="rgb(150,150,150)" text-rendering="geometricPrecision" shape-rendering="geometricPrecision" transform="matrix(2,0,0,2,-350,996)" stroke="rgb(150,150,150)">
      <rect x="415.72" y="-465.6995" clip-path="url(#clipPath2)" width="65" rx="4" ry="4" height="20" stroke="none"/>
    </g>
    <g stroke-linecap="butt" transform="matrix(2,0,0,2,-350,996)" fill="white" text-rendering="geometricPrecision" font-family="sans-serif" shape-rendering="geometricPrecision" stroke="white" font-weight="bold" stroke-miterlimit="1.45">
      <text x="420.218" xml:space="preserve" y="-450.9857" clip-path="url(#clipPath2)" stroke="none">Individual</text>
    </g>
    <g stroke-linecap="butt" transform="matrix(2,0,0,2,-350,996)" fill="rgb(150,150,150)" text-rendering="geometricPrecision" shape-rendering="geometricPrecision" stroke="rgb(150,150,150)" stroke-miterlimit="1.45">
      <rect x="415.72" y="-465.6995" clip-path="url(#clipPath2)" fill="none" width="65" rx="4" ry="4" height="20"/>
    </g>
    <g fill="rgb(157,64,95)" text-rendering="geometricPrecision" shape-rendering="geometricPrecision" transform="matrix(2,0,0,2,-350,996)" stroke="rgb(157,64,95)">
      <rect x="418.22" y="-357.3795" clip-path="url(#clipPath2)" width="60" rx="4" ry="4" height="20" stroke="none"/>
    </g>
    <g stroke-linecap="butt" transform="matrix(2,0,0,2,-350,996)" fill="white" text-rendering="geometricPrecision" font-family="sans-serif" shape-rendering="geometricPrecision" stroke="white" font-weight="bold" stroke-miterlimit="1.45">
      <text x="422.5559" xml:space="preserve" y="-342.6657" clip-path="url(#clipPath2)" stroke="none">Situation</text>
    </g>
    <g stroke-linecap="butt" transform="matrix(2,0,0,2,-350,996)" fill="rgb(157,64,95)" text-rendering="geometricPrecision" shape-rendering="geometricPrecision" stroke="rgb(157,64,95)" stroke-miterlimit="1.45">
      <rect x="418.22" y="-357.3795" clip-path="url(#clipPath2)" fill="none" width="60" rx="4" ry="4" height="20"/>
    </g>
    <g fill="rgb(247,149,29)" text-rendering="geometricPrecision" shape-rendering="geometricPrecision" transform="matrix(2,0,0,2,-350,996)" stroke="rgb(247,149,29)">
      <rect x="567.05" y="-357.3795" clip-path="url(#clipPath2)" width="55" rx="4" ry="4" height="20" stroke="none"/>
    </g>
    <g stroke-linecap="butt" transform="matrix(2,0,0,2,-350,996)" fill="white" text-rendering="geometricPrecision" font-family="sans-serif" shape-rendering="geometricPrecision" stroke="white" font-weight="bold" stroke-miterlimit="1.45">
      <text x="571.2004" xml:space="preserve" y="-342.6657" clip-path="url(#clipPath2)" stroke="none">Process</text>
    </g>
    <g stroke-linecap="butt" transform="matrix(2,0,0,2,-350,996)" fill="rgb(247,149,29)" text-rendering="geometricPrecision" shape-rendering="geometricPrecision" stroke="rgb(247,149,29)" stroke-miterlimit="1.45">
      <rect x="567.05" y="-357.3795" clip-path="url(#clipPath2)" fill="none" width="55" rx="4" ry="4" height="20"/>
    </g>
    <g stroke-linecap="butt" transform="matrix(2,0,0,2,-350,996)" text-rendering="geometricPrecision" font-family="sans-serif" shape-rendering="geometricPrecision" font-weight="bold" stroke-miterlimit="1.45">
      <text x="648.8398" xml:space="preserve" y="-306.1652" clip-path="url(#clipPath2)" stroke="none">Chronoid</text>
    </g>
    <g stroke-linecap="butt" transform="matrix(2,0,0,2,-350,996)" fill="rgb(43,138,132)" text-rendering="geometricPrecision" shape-rendering="geometricPrecision" stroke="rgb(43,138,132)" stroke-miterlimit="1.45">
      <rect x="629.5" y="-320.8791" clip-path="url(#clipPath2)" fill="none" width="92" rx="4" ry="4" height="20"/>
    </g>
    <g stroke-linecap="butt" transform="matrix(2,0,0,2,-350,996)" text-rendering="geometricPrecision" font-family="sans-serif" shape-rendering="geometricPrecision" font-weight="bold" stroke-miterlimit="1.45">
      <text x="633.4941" xml:space="preserve" y="-276.1652" clip-path="url(#clipPath2)" stroke="none">TimeBoundary</text>
    </g>
    <g stroke-linecap="butt" transform="matrix(2,0,0,2,-350,996)" fill="rgb(43,138,132)" text-rendering="geometricPrecision" shape-rendering="geometricPrecision" stroke="rgb(43,138,132)" stroke-miterlimit="1.45">
      <rect x="629.5" y="-290.8791" clip-path="url(#clipPath2)" fill="none" width="92" rx="4" ry="4" height="20"/>
    </g>
  </g>
</svg>
