<?xml version="1.0" encoding="UTF-8"?><svg xmlns="http://www.w3.org/2000/svg" xmlns:xlink="http://www.w3.org/1999/xlink" fill-opacity="1" color-rendering="auto" color-interpolation="auto" text-rendering="auto" stroke="black" stroke-linecap="square" width="620" stroke-miterlimit="10" shape-rendering="auto" stroke-opacity="1" fill="black" stroke-dasharray="none" font-weight="normal" stroke-width="1" height="394" font-family="'Dialog'" font-style="normal" stroke-linejoin="miter" font-size="12px" stroke-dashoffset="0" image-rendering="auto">
  <!--Generated by ySVG 2.6-->
  <defs id="genericDefs"/>
  <g>
    <defs id="defs1">
      <clipPath clipPathUnits="userSpaceOnUse" id="clipPath1">
        <path d="M0 0 L620 0 L620 394 L0 394 L0 0 Z"/>
      </clipPath>
      <clipPath clipPathUnits="userSpaceOnUse" id="clipPath2">
        <path d="M761 499 L1071 499 L1071 696 L761 696 L761 499 Z"/>
      </clipPath>
    </defs>
    <g fill="white" text-rendering="geometricPrecision" shape-rendering="geometricPrecision" transform="scale(2,2) translate(-761,-499)" stroke="white">
      <rect x="761" width="310" height="197" y="499" clip-path="url(#clipPath2)" stroke="none"/>
    </g>
    <g text-rendering="geometricPrecision" stroke-miterlimit="1.45" shape-rendering="geometricPrecision" transform="matrix(2,0,0,2,-1522,-998)" stroke-linecap="butt">
      <path fill="none" d="M894.0073 642.8542 L924.7517 642.8542" clip-path="url(#clipPath2)"/>
      <path d="M932.7517 642.8542 L920.7517 637.8542 L923.7517 642.8542 L920.7517 647.8542 Z" clip-path="url(#clipPath2)" stroke="none"/>
      <text x="898.3567" xml:space="preserve" y="636.2175" clip-path="url(#clipPath2)" font-family="sans-serif" stroke="none">roleIn</text>
      <path fill="none" d="M1038.764 567.8542 L1057.136 567.8542 L1057.136 642.8542 L1046.764 642.8542" clip-path="url(#clipPath2)"/>
      <path d="M1038.764 642.8542 L1050.764 647.8542 L1047.764 642.8542 L1050.764 637.8542 Z" clip-path="url(#clipPath2)" stroke="none"/>
      <text x="979.5815" xml:space="preserve" y="627.4539" clip-path="url(#clipPath2)" font-family="sans-serif" stroke="none">participatesIn</text>
      <path fill="none" d="M894.0073 602.8542 L924.7517 602.8542" clip-path="url(#clipPath2)"/>
      <path d="M932.7517 602.8542 L920.7517 597.8542 L923.7517 602.8542 L920.7517 607.8542 Z" clip-path="url(#clipPath2)" stroke="none"/>
      <text x="898.3567" xml:space="preserve" y="596.2175" clip-path="url(#clipPath2)" font-family="sans-serif" stroke="none">roleIn</text>
      <path fill="none" d="M1038.764 567.8542 L1057.136 567.8542 L1057.136 602.8542 L1046.764 602.8542" clip-path="url(#clipPath2)"/>
      <path d="M1038.764 602.8542 L1050.764 607.8542 L1047.764 602.8542 L1050.764 597.8542 Z" clip-path="url(#clipPath2)" stroke="none"/>
      <text x="979.5815" xml:space="preserve" y="586.4939" clip-path="url(#clipPath2)" font-family="sans-serif" stroke="none">participatesIn</text>
      <path fill="none" d="M894.0073 682.8542 L924.7517 682.8542" clip-path="url(#clipPath2)"/>
      <path d="M932.7517 682.8542 L920.7517 677.8542 L923.7517 682.8542 L920.7517 687.8542 Z" clip-path="url(#clipPath2)" stroke="none"/>
      <text x="898.3567" xml:space="preserve" y="676.2175" clip-path="url(#clipPath2)" font-family="sans-serif" stroke="none">roleIn</text>
      <path fill="none" d="M1038.795 557.8542 L1067.2532 557.8542 L1067.2532 682.8542 L1046.795 682.8542" clip-path="url(#clipPath2)"/>
      <path d="M1038.795 682.8542 L1050.795 687.8542 L1047.795 682.8542 L1050.795 677.8542 Z" clip-path="url(#clipPath2)" stroke="none"/>
      <text x="1010.4003" xml:space="preserve" y="667.1339" clip-path="url(#clipPath2)" font-family="sans-serif" stroke="none">relatedBy</text>
      <path fill="none" d="M784.7072 642.8542 L775.216 642.8542 L775.216 547.8627" clip-path="url(#clipPath2)"/>
      <path fill="white" d="M775.216 532.8627 L769.216 548.8627 L781.216 548.8627 Z" clip-path="url(#clipPath2)" stroke="none"/>
      <path fill="none" d="M775.216 532.8627 L769.216 548.8627 L781.216 548.8627 Z" clip-path="url(#clipPath2)"/>
      <path fill="none" d="M784.7072 562.8542 L775.216 562.8542 L775.216 547.8756" clip-path="url(#clipPath2)"/>
      <path fill="white" d="M775.216 532.8756 L769.216 548.8756 L781.216 548.8756 Z" clip-path="url(#clipPath2)" stroke="none"/>
      <path fill="none" d="M775.216 532.8756 L769.216 548.8756 L781.216 548.8756 Z" clip-path="url(#clipPath2)"/>
      <path fill="none" d="M784.7072 602.8542 L775.216 602.8542 L775.216 547.8805" clip-path="url(#clipPath2)"/>
      <path fill="white" d="M775.216 532.8805 L769.216 548.8805 L781.216 548.8805 Z" clip-path="url(#clipPath2)" stroke="none"/>
      <path fill="none" d="M775.216 532.8805 L769.216 548.8805 L781.216 548.8805 Z" clip-path="url(#clipPath2)"/>
      <path fill="none" d="M784.7072 677.8542 L775.216 677.8542 L775.216 547.9037" clip-path="url(#clipPath2)"/>
      <path fill="white" d="M775.216 532.9037 L769.216 548.9037 L781.216 548.9037 Z" clip-path="url(#clipPath2)" stroke="none"/>
      <path fill="none" d="M775.216 532.9037 L769.216 548.9037 L781.216 548.9037 Z" clip-path="url(#clipPath2)"/>
      <path fill="none" d="M894.0012 522.8542 L985.7398 522.8542 L985.7398 544.8152" clip-path="url(#clipPath2)"/>
      <path d="M985.7398 552.8152 L990.7398 540.8152 L985.7398 543.8152 L980.7398 540.8152 Z" clip-path="url(#clipPath2)" stroke="none"/>
      <text x="919.7598" xml:space="preserve" y="516.2175" clip-path="url(#clipPath2)" font-family="sans-serif" stroke="none">playedBy</text>
      <path fill="none" d="M894.0073 562.8542 L924.7517 562.8542" clip-path="url(#clipPath2)"/>
      <path d="M932.7517 562.8542 L920.7517 557.8542 L923.7517 562.8542 L920.7517 567.8542 Z" clip-path="url(#clipPath2)" stroke="none"/>
      <text x="898.3567" xml:space="preserve" y="556.2175" clip-path="url(#clipPath2)" font-family="sans-serif" stroke="none">roleIn</text>
    </g>
    <g fill="rgb(247,149,29)" text-rendering="geometricPrecision" shape-rendering="geometricPrecision" transform="matrix(2,0,0,2,-1522,-998)" stroke="rgb(247,149,29)">
      <rect x="932.711" y="632.8543" clip-path="url(#clipPath2)" width="106.0576" rx="4" ry="4" height="20" stroke="none"/>
    </g>
    <g stroke-linecap="butt" transform="matrix(2,0,0,2,-1522,-998)" fill="white" text-rendering="geometricPrecision" font-family="sans-serif" shape-rendering="geometricPrecision" stroke="white" font-weight="bold" stroke-miterlimit="1.45">
      <text x="937.0543" xml:space="preserve" y="647.5681" clip-path="url(#clipPath2)" stroke="none">ProcessualEntity</text>
    </g>
    <g stroke-linecap="butt" transform="matrix(2,0,0,2,-1522,-998)" fill="rgb(247,149,29)" text-rendering="geometricPrecision" shape-rendering="geometricPrecision" stroke="rgb(247,149,29)" stroke-miterlimit="1.45">
      <rect x="932.711" y="632.8543" clip-path="url(#clipPath2)" fill="none" width="106.0576" rx="4" ry="4" height="20"/>
    </g>
    <g fill="rgb(157,64,95)" text-rendering="geometricPrecision" shape-rendering="geometricPrecision" transform="matrix(2,0,0,2,-1522,-998)" stroke="rgb(157,64,95)">
      <rect x="932.711" y="592.8543" clip-path="url(#clipPath2)" width="106.0576" rx="4" ry="4" height="20" stroke="none"/>
    </g>
    <g stroke-linecap="butt" transform="matrix(2,0,0,2,-1522,-998)" fill="white" text-rendering="geometricPrecision" font-family="sans-serif" shape-rendering="geometricPrecision" stroke="white" font-weight="bold" stroke-miterlimit="1.45">
      <text x="938.4048" xml:space="preserve" y="607.5681" clip-path="url(#clipPath2)" stroke="none">SituationalEntity</text>
    </g>
    <g stroke-linecap="butt" transform="matrix(2,0,0,2,-1522,-998)" fill="rgb(157,64,95)" text-rendering="geometricPrecision" shape-rendering="geometricPrecision" stroke="rgb(157,64,95)" stroke-miterlimit="1.45">
      <rect x="932.711" y="592.8543" clip-path="url(#clipPath2)" fill="none" width="106.0576" rx="4" ry="4" height="20"/>
    </g>
    <g stroke-linecap="butt" transform="matrix(2,0,0,2,-1522,-998)" text-rendering="geometricPrecision" font-family="sans-serif" shape-rendering="geometricPrecision" font-weight="bold" stroke-miterlimit="1.45">
      <text x="797.6932" xml:space="preserve" y="687.5681" clip-path="url(#clipPath2)" stroke="none">RelationalRole</text>
    </g>
    <g stroke-linecap="butt" transform="matrix(2,0,0,2,-1522,-998)" fill="rgb(73,114,136)" text-rendering="geometricPrecision" shape-rendering="geometricPrecision" stroke="rgb(73,114,136)" stroke-miterlimit="1.45">
      <rect x="784.716" y="672.8543" clip-path="url(#clipPath2)" fill="none" width="109.304" rx="4" ry="4" height="20"/>
    </g>
    <g stroke-linecap="butt" transform="matrix(2,0,0,2,-1522,-998)" text-rendering="geometricPrecision" font-family="sans-serif" shape-rendering="geometricPrecision" font-weight="bold" stroke-miterlimit="1.45">
      <text x="965.0679" xml:space="preserve" y="687.5681" clip-path="url(#clipPath2)" stroke="none">Relator</text>
    </g>
    <g stroke-linecap="butt" transform="matrix(2,0,0,2,-1522,-998)" fill="rgb(73,114,136)" text-rendering="geometricPrecision" shape-rendering="geometricPrecision" stroke="rgb(73,114,136)" stroke-miterlimit="1.45">
      <rect x="932.711" y="672.8543" clip-path="url(#clipPath2)" fill="none" width="106.0576" rx="4" ry="4" height="20"/>
    </g>
    <g stroke-linecap="butt" transform="matrix(2,0,0,2,-1522,-998)" text-rendering="geometricPrecision" font-family="sans-serif" shape-rendering="geometricPrecision" font-weight="bold" stroke-miterlimit="1.45">
      <text x="816.366" xml:space="preserve" y="527.5681" clip-path="url(#clipPath2)" stroke="none">Role</text>
    </g>
    <g stroke-linecap="butt" transform="matrix(2,0,0,2,-1522,-998)" fill="rgb(73,114,136)" text-rendering="geometricPrecision" shape-rendering="geometricPrecision" stroke="rgb(73,114,136)" stroke-miterlimit="1.45">
      <rect x="764.716" y="512.8543" clip-path="url(#clipPath2)" fill="none" width="129.304" rx="4" ry="4" height="20"/>
    </g>
    <g stroke-linecap="butt" transform="matrix(2,0,0,2,-1522,-998)" text-rendering="geometricPrecision" font-family="sans-serif" shape-rendering="geometricPrecision" font-weight="bold" stroke-miterlimit="1.45">
      <text x="794.3475" xml:space="preserve" y="647.5681" clip-path="url(#clipPath2)" stroke="none">ProcessualRole</text>
    </g>
    <g stroke-linecap="butt" transform="matrix(2,0,0,2,-1522,-998)" fill="rgb(73,114,136)" text-rendering="geometricPrecision" shape-rendering="geometricPrecision" stroke="rgb(73,114,136)" stroke-miterlimit="1.45">
      <rect x="784.716" y="632.8543" clip-path="url(#clipPath2)" fill="none" width="109.304" rx="4" ry="4" height="20"/>
    </g>
    <g stroke-linecap="butt" transform="matrix(2,0,0,2,-1522,-998)" text-rendering="geometricPrecision" font-family="sans-serif" shape-rendering="geometricPrecision" font-weight="bold" stroke-miterlimit="1.45">
      <text x="789.3758" xml:space="preserve" y="567.5681" clip-path="url(#clipPath2)" stroke="none">RoleInContinuant</text>
    </g>
    <g stroke-linecap="butt" transform="matrix(2,0,0,2,-1522,-998)" fill="rgb(73,114,136)" text-rendering="geometricPrecision" shape-rendering="geometricPrecision" stroke="rgb(73,114,136)" stroke-miterlimit="1.45">
      <rect x="784.716" y="552.8543" clip-path="url(#clipPath2)" fill="none" width="109.304" rx="4" ry="4" height="20"/>
    </g>
    <g fill="rgb(243,101,35)" text-rendering="geometricPrecision" shape-rendering="geometricPrecision" transform="matrix(2,0,0,2,-1522,-998)" stroke="rgb(243,101,35)">
      <rect x="932.711" y="552.8543" clip-path="url(#clipPath2)" width="106.0576" rx="4" ry="4" height="20" stroke="none"/>
    </g>
    <g stroke-linecap="butt" transform="matrix(2,0,0,2,-1522,-998)" fill="white" text-rendering="geometricPrecision" font-family="sans-serif" shape-rendering="geometricPrecision" stroke="white" font-weight="bold" stroke-miterlimit="1.45">
      <text x="954.0816" xml:space="preserve" y="567.5681" clip-path="url(#clipPath2)" stroke="none">Continuant</text>
    </g>
    <g stroke-linecap="butt" transform="matrix(2,0,0,2,-1522,-998)" fill="rgb(243,101,35)" text-rendering="geometricPrecision" shape-rendering="geometricPrecision" stroke="rgb(243,101,35)" stroke-miterlimit="1.45">
      <rect x="932.711" y="552.8543" clip-path="url(#clipPath2)" fill="none" width="106.0576" rx="4" ry="4" height="20"/>
    </g>
    <g stroke-linecap="butt" transform="matrix(2,0,0,2,-1522,-998)" text-rendering="geometricPrecision" font-family="sans-serif" shape-rendering="geometricPrecision" font-weight="bold" stroke-miterlimit="1.45">
      <text x="795.6981" xml:space="preserve" y="607.5681" clip-path="url(#clipPath2)" stroke="none">SituationalRole</text>
    </g>
    <g stroke-linecap="butt" transform="matrix(2,0,0,2,-1522,-998)" fill="rgb(73,114,136)" text-rendering="geometricPrecision" shape-rendering="geometricPrecision" stroke="rgb(73,114,136)" stroke-miterlimit="1.45">
      <rect x="784.716" y="592.8543" clip-path="url(#clipPath2)" fill="none" width="109.304" rx="4" ry="4" height="20"/>
    </g>
  </g>
</svg>
