<?xml version="1.0" encoding="UTF-8"?><svg xmlns="http://www.w3.org/2000/svg" xmlns:xlink="http://www.w3.org/1999/xlink" fill-opacity="1" color-rendering="auto" color-interpolation="auto" text-rendering="auto" stroke="black" stroke-linecap="square" width="1840" stroke-miterlimit="10" shape-rendering="auto" stroke-opacity="1" fill="black" stroke-dasharray="none" font-weight="normal" stroke-width="1" height="968" font-family="'Dialog'" font-style="normal" stroke-linejoin="miter" font-size="12px" stroke-dashoffset="0" image-rendering="auto">
  <!--Generated by ySVG 2.6-->
  <defs id="genericDefs"/>
  <g>
    <defs id="defs1">
      <clipPath clipPathUnits="userSpaceOnUse" id="clipPath1">
        <path d="M0 0 L1840 0 L1840 968 L0 968 L0 0 Z"/>
      </clipPath>
      <clipPath clipPathUnits="userSpaceOnUse" id="clipPath2">
        <path d="M-64 -498 L856 -498 L856 -14 L-64 -14 L-64 -498 Z"/>
      </clipPath>
    </defs>
    <g fill="white" text-rendering="geometricPrecision" shape-rendering="geometricPrecision" transform="scale(2,2) translate(64,498)" stroke="white">
      <rect x="-64" width="920" height="484" y="-498" clip-path="url(#clipPath2)" stroke="none"/>
    </g>
    <g text-rendering="geometricPrecision" stroke-miterlimit="1.45" shape-rendering="geometricPrecision" transform="matrix(2,0,0,2,128,996)" stroke-linecap="butt">
      <path fill="none" d="M405.8106 -455.6995 L285.3809 -455.6995" clip-path="url(#clipPath2)"/>
      <path d="M277.3809 -455.6995 L289.3809 -450.6995 L286.3809 -455.6995 L289.3809 -460.6995 Z" clip-path="url(#clipPath2)" stroke="none"/>
      <rect x="310.9224" y="-465.0501" clip-path="url(#clipPath2)" fill="white" width="61.3633" height="18.7012" stroke="none"/>
      <text x="312.9224" xml:space="preserve" y="-450.9857" clip-path="url(#clipPath2)" font-family="sans-serif" stroke="none">instanceOf</text>
      <path fill="none" d="M684.4783 -347.3795 L732.9533 -347.3795" clip-path="url(#clipPath2)"/>
      <path d="M740.9533 -347.3795 L728.9533 -352.3795 L731.9533 -347.3795 L728.9533 -342.3795 Z" clip-path="url(#clipPath2)" stroke="none"/>
      <text x="689.7462" xml:space="preserve" y="-354.0163" clip-path="url(#clipPath2)" font-family="sans-serif" stroke="none">hasTime</text>
      <path fill="none" d="M243.4 -465.6966 L243.4 -484.6995 L295.1262 -484.6995" clip-path="url(#clipPath2)"/>
      <path fill="white" d="M310.1262 -484.6995 L294.1262 -490.6995 L294.1262 -478.6995 Z" clip-path="url(#clipPath2)" stroke="none"/>
      <path fill="none" d="M310.1262 -484.6995 L294.1262 -490.6995 L294.1262 -478.6995 Z" clip-path="url(#clipPath2)"/>
      <path fill="none" d="M439.808 -465.6966 L439.808 -484.6995 L393.0771 -484.6995" clip-path="url(#clipPath2)"/>
      <path fill="white" d="M378.0771 -484.6995 L394.0771 -478.6995 L394.0771 -490.6995 Z" clip-path="url(#clipPath2)" stroke="none"/>
      <path fill="none" d="M378.0771 -484.6995 L394.0771 -478.6995 L394.0771 -490.6995 Z" clip-path="url(#clipPath2)"/>
      <path fill="none" d="M243.4 -357.3893 L243.4 -397.3795 L364.8211 -397.3795" clip-path="url(#clipPath2)"/>
      <path fill="white" d="M379.8211 -397.3795 L363.8211 -403.3795 L363.8211 -391.3795 Z" clip-path="url(#clipPath2)" stroke="none"/>
      <path fill="none" d="M379.8211 -397.3795 L363.8211 -403.3795 L363.8211 -391.3795 Z" clip-path="url(#clipPath2)"/>
      <path fill="none" d="M439.808 -357.3893 L439.808 -372.3429" clip-path="url(#clipPath2)"/>
      <path fill="white" d="M439.808 -387.3429 L433.808 -371.3429 L445.808 -371.3429 Z" clip-path="url(#clipPath2)" stroke="none"/>
      <path fill="none" d="M439.808 -387.3429 L433.808 -371.3429 L445.808 -371.3429 Z" clip-path="url(#clipPath2)"/>
      <path fill="none" d="M1.6848 -357.3893 L1.6848 -397.3795 L364.8281 -397.3795" clip-path="url(#clipPath2)"/>
      <path fill="white" d="M379.8281 -397.3795 L363.8281 -403.3795 L363.8281 -391.3795 Z" clip-path="url(#clipPath2)" stroke="none"/>
      <path fill="none" d="M379.8281 -397.3795 L363.8281 -403.3795 L363.8281 -391.3795 Z" clip-path="url(#clipPath2)"/>
      <path fill="none" d="M617.208 -357.3551 L617.208 -392.3795 L514.7931 -392.3795" clip-path="url(#clipPath2)"/>
      <path fill="white" d="M499.7931 -392.3795 L515.7931 -386.3795 L515.7931 -398.3795 Z" clip-path="url(#clipPath2)" stroke="none"/>
      <path fill="none" d="M499.7931 -392.3795 L515.7931 -386.3795 L515.7931 -398.3795 Z" clip-path="url(#clipPath2)"/>
      <path fill="none" d="M832.1138 -307.3795 L841.562 -307.3795 L841.562 -372.404" clip-path="url(#clipPath2)"/>
      <path fill="white" d="M841.562 -387.404 L835.562 -371.404 L847.562 -371.404 Z" clip-path="url(#clipPath2)" stroke="none"/>
      <path fill="none" d="M841.562 -387.404 L835.562 -371.404 L847.562 -371.404 Z" clip-path="url(#clipPath2)"/>
      <path fill="none" d="M832.1138 -347.3795 L841.562 -347.3795 L841.562 -372.3698" clip-path="url(#clipPath2)"/>
      <path fill="white" d="M841.562 -387.3698 L835.562 -371.3698 L847.562 -371.3698 Z" clip-path="url(#clipPath2)" stroke="none"/>
      <path fill="none" d="M841.562 -387.3698 L835.562 -371.3698 L847.562 -371.3698 Z" clip-path="url(#clipPath2)"/>
      <path fill="none" d="M499.7751 -402.3795 L733.0231 -402.3795" clip-path="url(#clipPath2)"/>
      <path d="M741.0231 -402.3795 L729.0231 -407.3795 L732.0231 -402.3795 L729.0231 -397.3795 Z" clip-path="url(#clipPath2)" stroke="none"/>
      <rect x="595.3982" y="-411.7301" clip-path="url(#clipPath2)" fill="white" width="50.0137" height="18.7012" stroke="none"/>
      <text x="597.3982" xml:space="preserve" y="-397.6657" clip-path="url(#clipPath2)" font-family="sans-serif" stroke="none">hasTime</text>
      <path fill="none" d="M317.8323 -187.3795 L334 -187.3795 L334 -267.3795 L325.8249 -267.3795" clip-path="url(#clipPath2)"/>
      <path d="M317.8249 -267.3795 L329.8249 -262.3795 L326.8249 -267.3795 L329.8249 -272.3795 Z" clip-path="url(#clipPath2)" stroke="none"/>
      <rect x="316.9912" y="-217.2741" clip-path="url(#clipPath2)" fill="white" width="34.0176" height="18.7012" stroke="none"/>
      <text x="318.9912" xml:space="preserve" y="-203.2097" clip-path="url(#clipPath2)" font-family="sans-serif" stroke="none">roleIn</text>
      <path fill="none" d="M209.0164 -107.3795 L199.5 -107.3795 L199.5 -202.3757" clip-path="url(#clipPath2)"/>
      <path fill="white" d="M199.5 -217.3757 L193.5 -201.3757 L205.5 -201.3757 Z" clip-path="url(#clipPath2)" stroke="none"/>
      <path fill="none" d="M199.5 -217.3757 L193.5 -201.3757 L205.5 -201.3757 Z" clip-path="url(#clipPath2)"/>
      <path fill="none" d="M209.0164 -72.3795 L199.5 -72.3795 L199.5 -202.3654" clip-path="url(#clipPath2)"/>
      <path fill="white" d="M199.5 -217.3654 L193.5 -201.3654 L205.5 -201.3654 Z" clip-path="url(#clipPath2)" stroke="none"/>
      <path fill="none" d="M199.5 -217.3654 L193.5 -201.3654 L205.5 -201.3654 Z" clip-path="url(#clipPath2)"/>
      <path fill="none" d="M209.0164 -187.3795 L199.5 -187.3795 L199.5 -202.3566" clip-path="url(#clipPath2)"/>
      <path fill="white" d="M199.5 -217.3566 L193.5 -201.3566 L205.5 -201.3566 Z" clip-path="url(#clipPath2)" stroke="none"/>
      <path fill="none" d="M199.5 -217.3566 L193.5 -201.3566 L205.5 -201.3566 Z" clip-path="url(#clipPath2)"/>
      <path fill="none" d="M209.0164 -147.3795 L199.5 -147.3795 L199.5 -202.3757" clip-path="url(#clipPath2)"/>
      <path fill="white" d="M199.5 -217.3757 L193.5 -201.3757 L205.5 -201.3757 Z" clip-path="url(#clipPath2)" stroke="none"/>
      <path fill="none" d="M199.5 -217.3757 L193.5 -201.3757 L205.5 -201.3757 Z" clip-path="url(#clipPath2)"/>
      <path fill="none" d="M189.0187 -232.3795 L179.2971 -232.3795 L179.2971 -322.3616" clip-path="url(#clipPath2)"/>
      <path fill="white" d="M179.2971 -337.3616 L173.2971 -321.3616 L185.2971 -321.3616 Z" clip-path="url(#clipPath2)" stroke="none"/>
      <path fill="none" d="M179.2971 -337.3616 L173.2971 -321.3616 L185.2971 -321.3616 Z" clip-path="url(#clipPath2)"/>
      <path fill="none" d="M189.0303 -307.3795 L179.2971 -307.3795 L179.2971 -322.3616" clip-path="url(#clipPath2)"/>
      <path fill="white" d="M179.2971 -337.3616 L173.2971 -321.3616 L185.2971 -321.3616 Z" clip-path="url(#clipPath2)" stroke="none"/>
      <path fill="none" d="M179.2971 -337.3616 L173.2971 -321.3616 L185.2971 -321.3616 Z" clip-path="url(#clipPath2)"/>
      <path fill="none" d="M189.0303 -267.3795 L179.2971 -267.3795 L179.2971 -322.3616" clip-path="url(#clipPath2)"/>
      <path fill="white" d="M179.2971 -337.3616 L173.2971 -321.3616 L185.2971 -321.3616 Z" clip-path="url(#clipPath2)" stroke="none"/>
      <path fill="none" d="M179.2971 -337.3616 L173.2971 -321.3616 L185.2971 -321.3616 Z" clip-path="url(#clipPath2)"/>
      <path fill="none" d="M425.8161 -357.403 L425.8161 -375.5 L257.1472 -375.5 L257.1472 -365.403" clip-path="url(#clipPath2)"/>
      <path d="M257.1472 -357.403 L262.1472 -369.403 L257.1472 -366.403 L252.1472 -369.403 Z" clip-path="url(#clipPath2)" stroke="none"/>
      <rect x="295.4543" y="-384.8506" clip-path="url(#clipPath2)" fill="white" width="92.0547" height="18.7012" stroke="none"/>
      <text x="297.4543" xml:space="preserve" y="-370.7861" clip-path="url(#clipPath2)" font-family="sans-serif" stroke="none">hasSituationPart</text>
      <path fill="none" d="M21.6848 -89.4186 L21.6848 -77.3828" clip-path="url(#clipPath2)"/>
      <path d="M21.6848 -97.4186 L16.6848 -85.4186 L21.6848 -88.4186 L26.6848 -85.4186 Z" clip-path="url(#clipPath2)" stroke="none"/>
      <text x="27.6848" xml:space="preserve" y="-82.6657" clip-path="url(#clipPath2)" font-family="sans-serif" stroke="none">boundaryOf</text>
      <path fill="none" d="M-40.9536 -307.3795 L-50.9552 -307.3795 L-50.9552 -322.3547" clip-path="url(#clipPath2)"/>
      <path fill="white" d="M-50.9552 -337.3547 L-56.9552 -321.3547 L-44.9552 -321.3547 Z" clip-path="url(#clipPath2)" stroke="none"/>
      <path fill="none" d="M-50.9552 -337.3547 L-56.9552 -321.3547 L-44.9552 -321.3547 Z" clip-path="url(#clipPath2)"/>
      <path fill="none" d="M-40.9536 -227.3795 L-50.9552 -227.3795 L-50.9552 -322.352" clip-path="url(#clipPath2)"/>
      <path fill="white" d="M-50.9552 -337.352 L-56.9552 -321.352 L-44.9552 -321.352 Z" clip-path="url(#clipPath2)" stroke="none"/>
      <path fill="none" d="M-50.9552 -337.352 L-56.9552 -321.352 L-44.9552 -321.352 Z" clip-path="url(#clipPath2)"/>
      <path fill="none" d="M-40.9536 -147.3795 L-50.9552 -147.3795 L-50.9552 -322.4271" clip-path="url(#clipPath2)"/>
      <path fill="white" d="M-50.9552 -337.4271 L-56.9552 -321.4271 L-44.9552 -321.4271 Z" clip-path="url(#clipPath2)" stroke="none"/>
      <path fill="none" d="M-50.9552 -337.4271 L-56.9552 -321.4271 L-44.9552 -321.4271 Z" clip-path="url(#clipPath2)"/>
      <path fill="none" d="M189.0155 -222.3795 L150.688 -222.3795 L150.688 -352.3795 L72.2909 -352.3795" clip-path="url(#clipPath2)"/>
      <path d="M64.2909 -352.3795 L76.2909 -347.3795 L73.2909 -352.3795 L76.2909 -357.3795 Z" clip-path="url(#clipPath2)" stroke="none"/>
      <rect x="124.0054" y="-296.7301" clip-path="url(#clipPath2)" fill="white" width="53.3652" height="18.7012" stroke="none"/>
      <text x="126.0054" xml:space="preserve" y="-282.6657" clip-path="url(#clipPath2)" font-family="sans-serif" stroke="none">playedBy</text>
      <path fill="none" d="M209.0344 -62.3795 L119.456 -62.3795 L119.456 -342.3795 L72.2886 -342.3795" clip-path="url(#clipPath2)"/>
      <path d="M64.2886 -342.3795 L76.2886 -337.3795 L73.2886 -342.3795 L76.2886 -347.3795 Z" clip-path="url(#clipPath2)" stroke="none"/>
      <rect x="102.4472" y="-211.7301" clip-path="url(#clipPath2)" fill="white" width="34.0176" height="18.7012" stroke="none"/>
      <text x="104.4472" xml:space="preserve" y="-197.6657" clip-path="url(#clipPath2)" font-family="sans-serif" stroke="none">roleIn</text>
      <path fill="none" d="M-40.9536 -267.3795 L-50.9552 -267.3795 L-50.9552 -322.3658" clip-path="url(#clipPath2)"/>
      <path fill="white" d="M-50.9552 -337.3658 L-56.9552 -321.3658 L-44.9552 -321.3658 Z" clip-path="url(#clipPath2)" stroke="none"/>
      <path fill="none" d="M-50.9552 -337.3658 L-56.9552 -321.3658 L-44.9552 -321.3658 Z" clip-path="url(#clipPath2)"/>
      <path fill="none" d="M-20.9567 -107.3795 L-30.9552 -107.3795 L-30.9552 -122.3603" clip-path="url(#clipPath2)"/>
      <path fill="white" d="M-30.9552 -137.3603 L-36.9552 -121.3603 L-24.9552 -121.3603 Z" clip-path="url(#clipPath2)" stroke="none"/>
      <path fill="none" d="M-30.9552 -137.3603 L-36.9552 -121.3603 L-24.9552 -121.3603 Z" clip-path="url(#clipPath2)"/>
      <path fill="none" d="M-20.9567 -67.3795 L-30.9552 -67.3795 L-30.9552 -122.3498" clip-path="url(#clipPath2)"/>
      <path fill="white" d="M-30.9552 -137.3498 L-36.9552 -121.3498 L-24.9552 -121.3498 Z" clip-path="url(#clipPath2)" stroke="none"/>
      <path fill="none" d="M-30.9552 -137.3498 L-36.9552 -121.3498 L-24.9552 -121.3498 Z" clip-path="url(#clipPath2)"/>
      <path fill="none" d="M-20.9567 -27.3795 L-30.9552 -27.3795 L-30.9552 -122.368" clip-path="url(#clipPath2)"/>
      <path fill="white" d="M-30.9552 -137.368 L-36.9552 -121.368 L-24.9552 -121.368 Z" clip-path="url(#clipPath2)" stroke="none"/>
      <path fill="none" d="M-30.9552 -137.368 L-36.9552 -121.368 L-24.9552 -121.368 Z" clip-path="url(#clipPath2)"/>
      <path fill="none" d="M-18.3152 -317.4137 L-18.3152 -328.464 L80.9253 -328.464 L80.9253 -312.3795 L72.2771 -312.3795" clip-path="url(#clipPath2)"/>
      <path d="M64.2771 -312.3795 L76.2771 -307.3795 L73.2771 -312.3795 L76.2771 -317.3795 Z" clip-path="url(#clipPath2)" stroke="none"/>
      <rect x="-2.3737" y="-337.8146" clip-path="url(#clipPath2)" fill="white" width="67.3574" height="18.7012" stroke="none"/>
      <text x="-0.3737" xml:space="preserve" y="-323.7501" clip-path="url(#clipPath2)" font-family="sans-serif" stroke="none">hasMember</text>
      <path fill="none" d="M21.6848 -49.4186 L21.6848 -37.3828" clip-path="url(#clipPath2)"/>
      <path d="M21.6848 -57.4186 L16.6848 -45.4186 L21.6848 -48.4186 L26.6848 -45.4186 Z" clip-path="url(#clipPath2)" stroke="none"/>
      <text x="27.6848" xml:space="preserve" y="-42.6657" clip-path="url(#clipPath2)" font-family="sans-serif" stroke="none">boundaryOf</text>
      <path fill="none" d="M49.7764 -157.3834 L49.7764 -209.3711" clip-path="url(#clipPath2)"/>
      <path d="M49.7764 -217.3711 L44.7764 -205.3711 L49.7764 -208.3711 L54.7764 -205.3711 Z" clip-path="url(#clipPath2)" stroke="none"/>
      <rect x="20.4307" y="-181.0807" clip-path="url(#clipPath2)" fill="white" width="58.6914" height="18.7012" stroke="none"/>
      <text x="22.4307" xml:space="preserve" y="-167.0163" clip-path="url(#clipPath2)" font-family="sans-serif" stroke="none">hasOwner</text>
      <path fill="none" d="M64.2928 -107.3795 L80.9253 -107.3795 L80.9253 -222.3795 L72.3251 -222.3795" clip-path="url(#clipPath2)"/>
      <path d="M64.3251 -222.3795 L76.3251 -217.3795 L73.3251 -222.3795 L76.3251 -227.3795 Z" clip-path="url(#clipPath2)" stroke="none"/>
      <rect x="47.5718" y="-137.0446" clip-path="url(#clipPath2)" fill="white" width="66.707" height="18.7012" stroke="none"/>
      <text x="49.5718" xml:space="preserve" y="-122.9802" clip-path="url(#clipPath2)" font-family="sans-serif" stroke="none">boundaryOf</text>
      <path fill="none" d="M11.6848 -257.4186 L11.6848 -245.3828" clip-path="url(#clipPath2)"/>
      <path d="M11.6848 -237.3828 L16.6848 -249.3828 L11.6848 -246.3828 L6.6848 -249.3828 Z" clip-path="url(#clipPath2)" stroke="none"/>
      <text x="17.6848" xml:space="preserve" y="-242.6657" clip-path="url(#clipPath2)" font-family="sans-serif" stroke="none">partOf</text>
      <path fill="none" d="M64.3251 -302.3795 L80.9253 -302.3795 L80.9253 -232.3795 L72.3251 -232.3795" clip-path="url(#clipPath2)"/>
      <path d="M64.3251 -232.3795 L76.3251 -227.3795 L73.3251 -232.3795 L76.3251 -237.3795 Z" clip-path="url(#clipPath2)" stroke="none"/>
      <rect x="47.2466" y="-296.5781" clip-path="url(#clipPath2)" fill="white" width="67.3574" height="18.7012" stroke="none"/>
      <text x="49.2466" xml:space="preserve" y="-282.5137" clip-path="url(#clipPath2)" font-family="sans-serif" stroke="none">hasMember</text>
      <path fill="none" d="M-20.9806 -187.3795 L-30.9552 -187.3795 L-30.9552 -202.4186" clip-path="url(#clipPath2)"/>
      <path fill="white" d="M-30.9552 -217.4186 L-36.9552 -201.4186 L-24.9552 -201.4186 Z" clip-path="url(#clipPath2)" stroke="none"/>
      <path fill="none" d="M-30.9552 -217.4186 L-36.9552 -201.4186 L-24.9552 -201.4186 Z" clip-path="url(#clipPath2)"/>
      <path fill="none" d="M439.808 -407.3748 L439.808 -430.742" clip-path="url(#clipPath2)"/>
      <path fill="white" d="M439.808 -445.742 L433.808 -429.742 L445.808 -429.742 Z" clip-path="url(#clipPath2)" stroke="none"/>
      <path fill="none" d="M439.808 -445.742 L433.808 -429.742 L445.808 -429.742 Z" clip-path="url(#clipPath2)"/>
      <path fill="none" d="M796.562 -407.3535 L796.562 -420.4867 L439.808 -420.4867 L439.808 -430.6927" clip-path="url(#clipPath2)"/>
      <path fill="white" d="M439.808 -445.6927 L433.808 -429.6927 L445.808 -429.6927 Z" clip-path="url(#clipPath2)" stroke="none"/>
      <path fill="none" d="M439.808 -445.6927 L433.808 -429.6927 L445.808 -429.6927 Z" clip-path="url(#clipPath2)"/>
      <path fill="none" d="M317.7689 -147.3795 L354 -147.3795 L354 -349.7776 L362.3854 -349.5432" clip-path="url(#clipPath2)"/>
      <path d="M370.3823 -349.3198 L358.5266 -354.653 L361.3858 -349.5712 L358.2473 -344.6569 Z" clip-path="url(#clipPath2)" stroke="none"/>
      <rect x="336.9912" y="-179.8492" clip-path="url(#clipPath2)" fill="white" width="34.0176" height="18.7012" stroke="none"/>
      <text x="338.9912" xml:space="preserve" y="-165.7847" clip-path="url(#clipPath2)" font-family="sans-serif" stroke="none">roleIn</text>
      <path fill="none" d="M603.9259 -357.4035 L603.9259 -376.9605 L453.7999 -376.9605 L453.7999 -365.4035" clip-path="url(#clipPath2)"/>
      <path d="M453.7999 -357.4035 L458.7999 -369.4035 L453.7999 -366.4035 L448.7999 -369.4035 Z" clip-path="url(#clipPath2)" stroke="none"/>
      <rect x="484.5114" y="-386.3111" clip-path="url(#clipPath2)" fill="white" width="88.7031" height="18.7012" stroke="none"/>
      <text x="486.5114" xml:space="preserve" y="-372.2466" clip-path="url(#clipPath2)" font-family="sans-serif" stroke="none">hasProcessPart</text>
      <path fill="none" d="M390.401 -307.3795 L379.8451 -307.3795 L379.8451 -322.3844" clip-path="url(#clipPath2)"/>
      <path fill="white" d="M379.8451 -337.3844 L373.8451 -321.3844 L385.8451 -321.3844 Z" clip-path="url(#clipPath2)" stroke="none"/>
      <path fill="none" d="M379.8451 -337.3844 L373.8451 -321.3844 L385.8451 -321.3844 Z" clip-path="url(#clipPath2)"/>
      <path fill="none" d="M390.401 -267.3795 L379.8451 -267.3795 L379.8451 -322.3476" clip-path="url(#clipPath2)"/>
      <path fill="white" d="M379.8451 -337.3476 L373.8451 -321.3476 L385.8451 -321.3476 Z" clip-path="url(#clipPath2)" stroke="none"/>
      <path fill="none" d="M379.8451 -337.3476 L373.8451 -321.3476 L385.8451 -321.3476 Z" clip-path="url(#clipPath2)"/>
      <path fill="none" d="M449.808 -317.4186 L449.808 -329.4023" clip-path="url(#clipPath2)"/>
      <path d="M449.808 -337.4023 L444.808 -325.4023 L449.808 -328.4023 L454.808 -325.4023 Z" clip-path="url(#clipPath2)" stroke="none"/>
      <text x="455.808" xml:space="preserve" y="-322.6657" clip-path="url(#clipPath2)" font-family="sans-serif" stroke="none">hasMember</text>
      <path fill="none" d="M317.792 -107.3795 L533.94 -107.3795 L533.94 -347.3795 L541.9187 -347.3795" clip-path="url(#clipPath2)"/>
      <path d="M549.9187 -347.3795 L537.9187 -352.3795 L540.9187 -347.3795 L537.9187 -342.3795 Z" clip-path="url(#clipPath2)" stroke="none"/>
      <rect x="516.9312" y="-179.4635" clip-path="url(#clipPath2)" fill="white" width="34.0176" height="18.7012" stroke="none"/>
      <text x="518.9312" xml:space="preserve" y="-165.399" clip-path="url(#clipPath2)" font-family="sans-serif" stroke="none">roleIn</text>
      <path fill="none" d="M569.892 -307.3795 L559.552 -307.3795 L559.552 -322.3658" clip-path="url(#clipPath2)"/>
      <path fill="white" d="M559.552 -337.3658 L553.552 -321.3658 L565.552 -321.3658 Z" clip-path="url(#clipPath2)" stroke="none"/>
      <path fill="none" d="M559.552 -337.3658 L553.552 -321.3658 L565.552 -321.3658 Z" clip-path="url(#clipPath2)"/>
      <path fill="none" d="M569.892 -267.3795 L559.552 -267.3795 L559.552 -322.3636" clip-path="url(#clipPath2)"/>
      <path fill="white" d="M559.552 -337.3636 L553.552 -321.3636 L565.552 -321.3636 Z" clip-path="url(#clipPath2)" stroke="none"/>
      <path fill="none" d="M559.552 -337.3636 L553.552 -321.3636 L565.552 -321.3636 Z" clip-path="url(#clipPath2)"/>
      <path fill="none" d="M627.208 -317.4186 L627.208 -329.4023" clip-path="url(#clipPath2)"/>
      <path d="M627.208 -337.4023 L622.208 -325.4023 L627.208 -328.4023 L632.208 -325.4023 Z" clip-path="url(#clipPath2)" stroke="none"/>
      <text x="633.208" xml:space="preserve" y="-322.6657" clip-path="url(#clipPath2)" font-family="sans-serif" stroke="none">hasMember</text>
    </g>
    <g fill="rgb(150,150,150)" text-rendering="geometricPrecision" shape-rendering="geometricPrecision" transform="matrix(2,0,0,2,128,996)" stroke="rgb(150,150,150)">
      <rect x="209.4" y="-465.6995" clip-path="url(#clipPath2)" width="68" rx="4" ry="4" height="20" stroke="none"/>
    </g>
    <g stroke-linecap="butt" transform="matrix(2,0,0,2,128,996)" fill="white" text-rendering="geometricPrecision" font-family="sans-serif" shape-rendering="geometricPrecision" stroke="white" font-weight="bold" stroke-miterlimit="1.45">
      <text x="217.3932" xml:space="preserve" y="-450.9857" clip-path="url(#clipPath2)" stroke="none">Category</text>
    </g>
    <g stroke-linecap="butt" transform="matrix(2,0,0,2,128,996)" fill="rgb(150,150,150)" text-rendering="geometricPrecision" shape-rendering="geometricPrecision" stroke="rgb(150,150,150)" stroke-miterlimit="1.45">
      <rect x="209.4" y="-465.6995" clip-path="url(#clipPath2)" fill="none" width="68" rx="4" ry="4" height="20"/>
    </g>
    <g stroke-linecap="butt" transform="matrix(2,0,0,2,128,996)" text-rendering="geometricPrecision" font-family="sans-serif" shape-rendering="geometricPrecision" font-weight="bold" stroke-miterlimit="1.45">
      <text x="759.9019" xml:space="preserve" y="-342.6657" clip-path="url(#clipPath2)" stroke="none">Chronoid</text>
    </g>
    <g stroke-linecap="butt" transform="matrix(2,0,0,2,128,996)" fill="rgb(43,138,132)" text-rendering="geometricPrecision" shape-rendering="geometricPrecision" stroke="rgb(43,138,132)" stroke-miterlimit="1.45">
      <rect x="741.002" y="-357.3795" clip-path="url(#clipPath2)" fill="none" width="91.12" rx="4" ry="4" height="20"/>
    </g>
    <g fill="rgb(150,150,150)" text-rendering="geometricPrecision" shape-rendering="geometricPrecision" transform="matrix(2,0,0,2,128,996)" stroke="rgb(150,150,150)">
      <rect x="310.104" y="-494.6995" clip-path="url(#clipPath2)" width="68" rx="4" ry="4" height="20" stroke="none"/>
    </g>
    <g stroke-linecap="butt" transform="matrix(2,0,0,2,128,996)" fill="white" text-rendering="geometricPrecision" font-family="sans-serif" shape-rendering="geometricPrecision" stroke="white" font-weight="bold" stroke-miterlimit="1.45">
      <text x="327.437" xml:space="preserve" y="-479.9857" clip-path="url(#clipPath2)" stroke="none">Entity</text>
    </g>
    <g stroke-linecap="butt" transform="matrix(2,0,0,2,128,996)" fill="rgb(150,150,150)" text-rendering="geometricPrecision" shape-rendering="geometricPrecision" stroke="rgb(150,150,150)" stroke-miterlimit="1.45">
      <rect x="310.104" y="-494.6995" clip-path="url(#clipPath2)" fill="none" width="68" rx="4" ry="4" height="20"/>
      <rect stroke-linecap="square" x="379.808" y="-407.3795" clip-path="url(#clipPath2)" width="120" rx="4" ry="4" height="20" stroke="none" stroke-miterlimit="10"/>
    </g>
    <g stroke-linecap="butt" transform="matrix(2,0,0,2,128,996)" fill="white" text-rendering="geometricPrecision" font-family="sans-serif" shape-rendering="geometricPrecision" stroke="white" font-weight="bold" stroke-miterlimit="1.45">
      <text x="385.7992" xml:space="preserve" y="-392.6657" clip-path="url(#clipPath2)" stroke="none">ConcreteIndividual</text>
    </g>
    <g stroke-linecap="butt" transform="matrix(2,0,0,2,128,996)" fill="rgb(150,150,150)" text-rendering="geometricPrecision" shape-rendering="geometricPrecision" stroke="rgb(150,150,150)" stroke-miterlimit="1.45">
      <rect x="379.808" y="-407.3795" clip-path="url(#clipPath2)" fill="none" width="120" rx="4" ry="4" height="20"/>
    </g>
    <g fill="rgb(43,138,132)" text-rendering="geometricPrecision" shape-rendering="geometricPrecision" transform="matrix(2,0,0,2,128,996)" stroke="rgb(43,138,132)">
      <rect x="741.002" y="-407.3795" clip-path="url(#clipPath2)" width="111.12" rx="4" ry="4" height="20" stroke="none"/>
    </g>
    <g stroke-linecap="butt" transform="matrix(2,0,0,2,128,996)" fill="white" text-rendering="geometricPrecision" font-family="sans-serif" shape-rendering="geometricPrecision" stroke="white" font-weight="bold" stroke-miterlimit="1.45">
      <text x="765.8911" xml:space="preserve" y="-392.6657" clip-path="url(#clipPath2)" stroke="none">TimeEntity</text>
    </g>
    <g stroke-linecap="butt" transform="matrix(2,0,0,2,128,996)" fill="rgb(43,138,132)" text-rendering="geometricPrecision" shape-rendering="geometricPrecision" stroke="rgb(43,138,132)" stroke-miterlimit="1.45">
      <rect x="741.002" y="-407.3795" clip-path="url(#clipPath2)" fill="none" width="111.12" rx="4" ry="4" height="20"/>
    </g>
    <g stroke-linecap="butt" transform="matrix(2,0,0,2,128,996)" text-rendering="geometricPrecision" font-family="sans-serif" shape-rendering="geometricPrecision" font-weight="bold" stroke-miterlimit="1.45">
      <text x="744.5562" xml:space="preserve" y="-302.6657" clip-path="url(#clipPath2)" stroke="none">TimeBoundary</text>
    </g>
    <g stroke-linecap="butt" transform="matrix(2,0,0,2,128,996)" fill="rgb(43,138,132)" text-rendering="geometricPrecision" shape-rendering="geometricPrecision" stroke="rgb(43,138,132)" stroke-miterlimit="1.45">
      <rect x="741.002" y="-317.3795" clip-path="url(#clipPath2)" fill="none" width="91.12" rx="4" ry="4" height="20"/>
    </g>
    <g stroke-linecap="butt" transform="matrix(2,0,0,2,128,996)" text-rendering="geometricPrecision" font-family="sans-serif" shape-rendering="geometricPrecision" font-weight="bold" stroke-miterlimit="1.45">
      <text x="213.4078" xml:space="preserve" y="-62.6657" clip-path="url(#clipPath2)" stroke="none">RoleInContinuant</text>
    </g>
    <g stroke-linecap="butt" transform="matrix(2,0,0,2,128,996)" fill="rgb(73,114,136)" text-rendering="geometricPrecision" shape-rendering="geometricPrecision" stroke="rgb(73,114,136)" stroke-miterlimit="1.45">
      <rect x="209" y="-77.3795" clip-path="url(#clipPath2)" fill="none" width="108.8" rx="4" ry="4" height="20"/>
    </g>
    <g stroke-linecap="butt" transform="matrix(2,0,0,2,128,996)" text-rendering="geometricPrecision" font-family="sans-serif" shape-rendering="geometricPrecision" font-weight="bold" stroke-miterlimit="1.45">
      <text x="232.7281" xml:space="preserve" y="-262.6657" clip-path="url(#clipPath2)" stroke="none">Relator</text>
    </g>
    <g stroke-linecap="butt" transform="matrix(2,0,0,2,128,996)" fill="rgb(73,114,136)" text-rendering="geometricPrecision" shape-rendering="geometricPrecision" stroke="rgb(73,114,136)" stroke-miterlimit="1.45">
      <rect x="189" y="-277.3795" clip-path="url(#clipPath2)" fill="none" width="128.8" rx="4" ry="4" height="20"/>
    </g>
    <g stroke-linecap="butt" transform="matrix(2,0,0,2,128,996)" text-rendering="geometricPrecision" font-family="sans-serif" shape-rendering="geometricPrecision" font-weight="bold" stroke-miterlimit="1.45">
      <text x="241.998" xml:space="preserve" y="-222.6657" clip-path="url(#clipPath2)" stroke="none">Role</text>
    </g>
    <g stroke-linecap="butt" transform="matrix(2,0,0,2,128,996)" fill="rgb(73,114,136)" text-rendering="geometricPrecision" shape-rendering="geometricPrecision" stroke="rgb(73,114,136)" stroke-miterlimit="1.45">
      <rect x="189" y="-237.3795" clip-path="url(#clipPath2)" fill="none" width="132" rx="4" ry="4" height="20"/>
    </g>
    <g stroke-linecap="butt" transform="matrix(2,0,0,2,128,996)" text-rendering="geometricPrecision" font-family="sans-serif" shape-rendering="geometricPrecision" font-weight="bold" stroke-miterlimit="1.45">
      <text x="218.3795" xml:space="preserve" y="-102.6657" clip-path="url(#clipPath2)" stroke="none">ProcessualRole</text>
    </g>
    <g stroke-linecap="butt" transform="matrix(2,0,0,2,128,996)" fill="rgb(73,114,136)" text-rendering="geometricPrecision" shape-rendering="geometricPrecision" stroke="rgb(73,114,136)" stroke-miterlimit="1.45">
      <rect x="209" y="-117.3795" clip-path="url(#clipPath2)" fill="none" width="108.8" rx="4" ry="4" height="20"/>
    </g>
    <g stroke-linecap="butt" transform="matrix(2,0,0,2,128,996)" text-rendering="geometricPrecision" font-family="sans-serif" shape-rendering="geometricPrecision" font-weight="bold" stroke-miterlimit="1.45">
      <text x="221.7252" xml:space="preserve" y="-182.6657" clip-path="url(#clipPath2)" stroke="none">RelationalRole</text>
    </g>
    <g stroke-linecap="butt" transform="matrix(2,0,0,2,128,996)" fill="rgb(73,114,136)" text-rendering="geometricPrecision" shape-rendering="geometricPrecision" stroke="rgb(73,114,136)" stroke-miterlimit="1.45">
      <rect x="209" y="-197.3795" clip-path="url(#clipPath2)" fill="none" width="108.8" rx="4" ry="4" height="20"/>
    </g>
    <g stroke-linecap="butt" transform="matrix(2,0,0,2,128,996)" text-rendering="geometricPrecision" font-family="sans-serif" shape-rendering="geometricPrecision" font-weight="bold" stroke-miterlimit="1.45">
      <text x="233.0621" xml:space="preserve" y="-302.6657" clip-path="url(#clipPath2)" stroke="none">Quality</text>
    </g>
    <g stroke-linecap="butt" transform="matrix(2,0,0,2,128,996)" fill="rgb(73,114,136)" text-rendering="geometricPrecision" shape-rendering="geometricPrecision" stroke="rgb(73,114,136)" stroke-miterlimit="1.45">
      <rect x="189" y="-317.3795" clip-path="url(#clipPath2)" fill="none" width="128.8" rx="4" ry="4" height="20"/>
      <rect stroke-linecap="square" x="169" y="-357.3795" clip-path="url(#clipPath2)" width="148.8" rx="4" ry="4" height="20" stroke="none" stroke-miterlimit="10"/>
    </g>
    <g stroke-linecap="butt" transform="matrix(2,0,0,2,128,996)" fill="white" text-rendering="geometricPrecision" font-family="sans-serif" shape-rendering="geometricPrecision" stroke="white" font-weight="bold" stroke-miterlimit="1.45">
      <text x="213.4" xml:space="preserve" y="-342.6657" clip-path="url(#clipPath2)" stroke="none">Attributive</text>
    </g>
    <g stroke-linecap="butt" transform="matrix(2,0,0,2,128,996)" fill="rgb(73,114,136)" text-rendering="geometricPrecision" shape-rendering="geometricPrecision" stroke="rgb(73,114,136)" stroke-miterlimit="1.45">
      <rect x="169" y="-357.3795" clip-path="url(#clipPath2)" fill="none" width="148.8" rx="4" ry="4" height="20"/>
    </g>
    <g stroke-linecap="butt" transform="matrix(2,0,0,2,128,996)" text-rendering="geometricPrecision" font-family="sans-serif" shape-rendering="geometricPrecision" font-weight="bold" stroke-miterlimit="1.45">
      <text x="9.3508" xml:space="preserve" y="-62.6657" clip-path="url(#clipPath2)" stroke="none">Line</text>
    </g>
    <g stroke-linecap="butt" transform="matrix(2,0,0,2,128,996)" fill="rgb(243,101,35)" text-rendering="geometricPrecision" shape-rendering="geometricPrecision" stroke="rgb(243,101,35)" stroke-miterlimit="1.45">
      <rect x="-20.944" y="-77.3795" clip-path="url(#clipPath2)" fill="none" width="85.2576" rx="4" ry="4" height="20"/>
      <rect stroke-linecap="square" x="-60.944" y="-357.3795" clip-path="url(#clipPath2)" width="125.2576" rx="4" ry="4" height="20" stroke="none" stroke-miterlimit="10"/>
    </g>
    <g stroke-linecap="butt" transform="matrix(2,0,0,2,128,996)" fill="white" text-rendering="geometricPrecision" font-family="sans-serif" shape-rendering="geometricPrecision" stroke="white" font-weight="bold" stroke-miterlimit="1.45">
      <text x="-29.9734" xml:space="preserve" y="-342.6657" clip-path="url(#clipPath2)" stroke="none">Continuant</text>
    </g>
    <g stroke-linecap="butt" transform="matrix(2,0,0,2,128,996)" fill="rgb(243,101,35)" text-rendering="geometricPrecision" shape-rendering="geometricPrecision" stroke="rgb(243,101,35)" stroke-miterlimit="1.45">
      <rect x="-60.944" y="-357.3795" clip-path="url(#clipPath2)" fill="none" width="125.2576" rx="4" ry="4" height="20"/>
    </g>
    <g stroke-linecap="butt" transform="matrix(2,0,0,2,128,996)" text-rendering="geometricPrecision" font-family="sans-serif" shape-rendering="geometricPrecision" font-weight="bold" stroke-miterlimit="1.45">
      <text x="-34.9881" xml:space="preserve" y="-142.6657" clip-path="url(#clipPath2)" stroke="none">ObjectBoundary</text>
    </g>
    <g stroke-linecap="butt" transform="matrix(2,0,0,2,128,996)" fill="rgb(243,101,35)" text-rendering="geometricPrecision" shape-rendering="geometricPrecision" stroke="rgb(243,101,35)" stroke-miterlimit="1.45">
      <rect x="-40.944" y="-157.3795" clip-path="url(#clipPath2)" fill="none" width="105.2576" rx="4" ry="4" height="20"/>
    </g>
    <g stroke-linecap="butt" transform="matrix(2,0,0,2,128,996)" text-rendering="geometricPrecision" font-family="sans-serif" shape-rendering="geometricPrecision" font-weight="bold" stroke-miterlimit="1.45">
      <text x="-36.658" xml:space="preserve" y="-302.6657" clip-path="url(#clipPath2)" stroke="none">ObjectAggregate</text>
    </g>
    <g stroke-linecap="butt" transform="matrix(2,0,0,2,128,996)" fill="rgb(243,101,35)" text-rendering="geometricPrecision" shape-rendering="geometricPrecision" stroke="rgb(243,101,35)" stroke-miterlimit="1.45">
      <rect x="-40.944" y="-317.3795" clip-path="url(#clipPath2)" fill="none" width="105.2576" rx="4" ry="4" height="20"/>
    </g>
    <g stroke-linecap="butt" transform="matrix(2,0,0,2,128,996)" text-rendering="geometricPrecision" font-family="sans-serif" shape-rendering="geometricPrecision" font-weight="bold" stroke-miterlimit="1.45">
      <text x="6.6877" xml:space="preserve" y="-22.6657" clip-path="url(#clipPath2)" stroke="none">Point</text>
    </g>
    <g stroke-linecap="butt" transform="matrix(2,0,0,2,128,996)" fill="rgb(243,101,35)" text-rendering="geometricPrecision" shape-rendering="geometricPrecision" stroke="rgb(243,101,35)" stroke-miterlimit="1.45">
      <rect x="-20.944" y="-37.3795" clip-path="url(#clipPath2)" fill="none" width="85.2576" rx="4" ry="4" height="20"/>
    </g>
    <g stroke-linecap="butt" transform="matrix(2,0,0,2,128,996)" text-rendering="geometricPrecision" font-family="sans-serif" shape-rendering="geometricPrecision" font-weight="bold" stroke-miterlimit="1.45">
      <text x="-6.9861" xml:space="preserve" y="-222.6657" clip-path="url(#clipPath2)" stroke="none">Object</text>
    </g>
    <g stroke-linecap="butt" transform="matrix(2,0,0,2,128,996)" fill="rgb(243,101,35)" text-rendering="geometricPrecision" shape-rendering="geometricPrecision" stroke="rgb(243,101,35)" stroke-miterlimit="1.45">
      <rect x="-40.944" y="-237.3795" clip-path="url(#clipPath2)" fill="none" width="105.2576" rx="4" ry="4" height="20"/>
    </g>
    <g stroke-linecap="butt" transform="matrix(2,0,0,2,128,996)" text-rendering="geometricPrecision" font-family="sans-serif" shape-rendering="geometricPrecision" font-weight="bold" stroke-miterlimit="1.45">
      <text x="-0.3259" xml:space="preserve" y="-102.6657" clip-path="url(#clipPath2)" stroke="none">Surface</text>
    </g>
    <g stroke-linecap="butt" transform="matrix(2,0,0,2,128,996)" fill="rgb(243,101,35)" text-rendering="geometricPrecision" shape-rendering="geometricPrecision" stroke="rgb(243,101,35)" stroke-miterlimit="1.45">
      <rect x="-20.944" y="-117.3795" clip-path="url(#clipPath2)" fill="none" width="85.2576" rx="4" ry="4" height="20"/>
    </g>
    <g fill="rgb(150,150,150)" text-rendering="geometricPrecision" shape-rendering="geometricPrecision" transform="matrix(2,0,0,2,128,996)" stroke="rgb(150,150,150)">
      <rect x="405.808" y="-465.6995" clip-path="url(#clipPath2)" width="68" rx="4" ry="4" height="20" stroke="none"/>
    </g>
    <g stroke-linecap="butt" transform="matrix(2,0,0,2,128,996)" fill="white" text-rendering="geometricPrecision" font-family="sans-serif" shape-rendering="geometricPrecision" stroke="white" font-weight="bold" stroke-miterlimit="1.45">
      <text x="411.8061" xml:space="preserve" y="-450.9857" clip-path="url(#clipPath2)" stroke="none">Individual</text>
    </g>
    <g stroke-linecap="butt" transform="matrix(2,0,0,2,128,996)" fill="rgb(150,150,150)" text-rendering="geometricPrecision" shape-rendering="geometricPrecision" stroke="rgb(150,150,150)" stroke-miterlimit="1.45">
      <rect x="405.808" y="-465.6995" clip-path="url(#clipPath2)" fill="none" width="68" rx="4" ry="4" height="20"/>
    </g>
    <g stroke-linecap="butt" transform="matrix(2,0,0,2,128,996)" text-rendering="geometricPrecision" font-family="sans-serif" shape-rendering="geometricPrecision" font-weight="bold" stroke-miterlimit="1.45">
      <text x="-18.658" xml:space="preserve" y="-262.6657" clip-path="url(#clipPath2)" stroke="none">ObjectPart</text>
    </g>
    <g stroke-linecap="butt" transform="matrix(2,0,0,2,128,996)" fill="rgb(243,101,35)" text-rendering="geometricPrecision" shape-rendering="geometricPrecision" stroke="rgb(243,101,35)" stroke-miterlimit="1.45">
      <rect x="-40.944" y="-277.3795" clip-path="url(#clipPath2)" fill="none" width="105.2576" rx="4" ry="4" height="20"/>
    </g>
    <g stroke-linecap="butt" transform="matrix(2,0,0,2,128,996)" text-rendering="geometricPrecision" font-family="sans-serif" shape-rendering="geometricPrecision" font-weight="bold" stroke-miterlimit="1.45">
      <text x="219.7301" xml:space="preserve" y="-142.6657" clip-path="url(#clipPath2)" stroke="none">SituationalRole</text>
    </g>
    <g stroke-linecap="butt" transform="matrix(2,0,0,2,128,996)" fill="rgb(73,114,136)" text-rendering="geometricPrecision" shape-rendering="geometricPrecision" stroke="rgb(73,114,136)" stroke-miterlimit="1.45">
      <rect x="209" y="-157.3795" clip-path="url(#clipPath2)" fill="none" width="108.8" rx="4" ry="4" height="20"/>
    </g>
    <g stroke-linecap="butt" transform="matrix(2,0,0,2,128,996)" text-rendering="geometricPrecision" font-family="sans-serif" shape-rendering="geometricPrecision" font-weight="bold" stroke-miterlimit="1.45">
      <text x="424.144" xml:space="preserve" y="-262.6657" clip-path="url(#clipPath2)" stroke="none">Situation</text>
    </g>
    <g stroke-linecap="butt" transform="matrix(2,0,0,2,128,996)" fill="rgb(157,64,95)" text-rendering="geometricPrecision" shape-rendering="geometricPrecision" stroke="rgb(157,64,95)" stroke-miterlimit="1.45">
      <rect x="390.408" y="-277.3795" clip-path="url(#clipPath2)" fill="none" width="118.8" rx="4" ry="4" height="20"/>
    </g>
    <g stroke-linecap="butt" transform="matrix(2,0,0,2,128,996)" text-rendering="geometricPrecision" font-family="sans-serif" shape-rendering="geometricPrecision" font-weight="bold" stroke-miterlimit="1.45">
      <text x="394.4721" xml:space="preserve" y="-302.6657" clip-path="url(#clipPath2)" stroke="none">SituationAggregate</text>
    </g>
    <g stroke-linecap="butt" transform="matrix(2,0,0,2,128,996)" fill="rgb(157,64,95)" text-rendering="geometricPrecision" shape-rendering="geometricPrecision" stroke="rgb(157,64,95)" stroke-miterlimit="1.45">
      <rect x="390.408" y="-317.3795" clip-path="url(#clipPath2)" fill="none" width="118.8" rx="4" ry="4" height="20"/>
      <rect stroke-linecap="square" x="370.408" y="-357.3795" clip-path="url(#clipPath2)" width="138.8" rx="4" ry="4" height="20" stroke="none" stroke-miterlimit="10"/>
    </g>
    <g stroke-linecap="butt" transform="matrix(2,0,0,2,128,996)" fill="white" text-rendering="geometricPrecision" font-family="sans-serif" shape-rendering="geometricPrecision" stroke="white" font-weight="bold" stroke-miterlimit="1.45">
      <text x="392.4731" xml:space="preserve" y="-342.6657" clip-path="url(#clipPath2)" stroke="none">SituationalEntity</text>
    </g>
    <g stroke-linecap="butt" transform="matrix(2,0,0,2,128,996)" fill="rgb(157,64,95)" text-rendering="geometricPrecision" shape-rendering="geometricPrecision" stroke="rgb(157,64,95)" stroke-miterlimit="1.45">
      <rect x="370.408" y="-357.3795" clip-path="url(#clipPath2)" fill="none" width="138.8" rx="4" ry="4" height="20"/>
    </g>
    <g stroke-linecap="butt" transform="matrix(2,0,0,2,128,996)" text-rendering="geometricPrecision" font-family="sans-serif" shape-rendering="geometricPrecision" font-weight="bold" stroke-miterlimit="1.45">
      <text x="603.8584" xml:space="preserve" y="-262.6657" clip-path="url(#clipPath2)" stroke="none">Process</text>
    </g>
    <g stroke-linecap="butt" transform="matrix(2,0,0,2,128,996)" fill="rgb(247,149,29)" text-rendering="geometricPrecision" shape-rendering="geometricPrecision" stroke="rgb(247,149,29)" stroke-miterlimit="1.45">
      <rect x="569.912" y="-277.3795" clip-path="url(#clipPath2)" fill="none" width="114.592" rx="4" ry="4" height="20"/>
    </g>
    <g stroke-linecap="butt" transform="matrix(2,0,0,2,128,996)" text-rendering="geometricPrecision" font-family="sans-serif" shape-rendering="geometricPrecision" font-weight="bold" stroke-miterlimit="1.45">
      <text x="574.1865" xml:space="preserve" y="-302.6657" clip-path="url(#clipPath2)" stroke="none">ProcessAggregate</text>
    </g>
    <g stroke-linecap="butt" transform="matrix(2,0,0,2,128,996)" fill="rgb(247,149,29)" text-rendering="geometricPrecision" shape-rendering="geometricPrecision" stroke="rgb(247,149,29)" stroke-miterlimit="1.45">
      <rect x="569.912" y="-317.3795" clip-path="url(#clipPath2)" fill="none" width="114.592" rx="4" ry="4" height="20"/>
      <rect stroke-linecap="square" x="549.912" y="-357.3795" clip-path="url(#clipPath2)" width="134.592" rx="4" ry="4" height="20" stroke="none" stroke-miterlimit="10"/>
    </g>
    <g stroke-linecap="butt" transform="matrix(2,0,0,2,128,996)" fill="white" text-rendering="geometricPrecision" font-family="sans-serif" shape-rendering="geometricPrecision" stroke="white" font-weight="bold" stroke-miterlimit="1.45">
      <text x="568.5225" xml:space="preserve" y="-342.6657" clip-path="url(#clipPath2)" stroke="none">ProcessualEntity</text>
    </g>
    <g stroke-linecap="butt" transform="matrix(2,0,0,2,128,996)" fill="rgb(247,149,29)" text-rendering="geometricPrecision" shape-rendering="geometricPrecision" stroke="rgb(247,149,29)" stroke-miterlimit="1.45">
      <rect x="549.912" y="-357.3795" clip-path="url(#clipPath2)" fill="none" width="134.592" rx="4" ry="4" height="20"/>
    </g>
    <g stroke-linecap="butt" transform="matrix(2,0,0,2,128,996)" text-rendering="geometricPrecision" font-family="sans-serif" shape-rendering="geometricPrecision" font-weight="bold" stroke-miterlimit="1.45">
      <text x="-18.1345" xml:space="preserve" y="-182.6657" clip-path="url(#clipPath2)" stroke="none">Token</text>
    </g>
    <g stroke-linecap="butt" transform="matrix(2,0,0,2,128,996)" fill="rgb(243,101,35)" text-rendering="geometricPrecision" shape-rendering="geometricPrecision" stroke="rgb(243,101,35)" stroke-miterlimit="1.45">
      <rect x="-21.008" y="-197.3795" clip-path="url(#clipPath2)" fill="none" width="41.0848" rx="4" ry="4" height="20"/>
    </g>
  </g>
</svg>
