<?xml version="1.0" encoding="UTF-8"?><svg xmlns="http://www.w3.org/2000/svg" xmlns:xlink="http://www.w3.org/1999/xlink" fill-opacity="1" color-rendering="auto" color-interpolation="auto" text-rendering="auto" stroke="black" stroke-linecap="square" width="2006" stroke-miterlimit="10" shape-rendering="auto" stroke-opacity="1" fill="black" stroke-dasharray="none" font-weight="normal" stroke-width="1" height="968" font-family="'Dialog'" font-style="normal" stroke-linejoin="miter" font-size="12px" stroke-dashoffset="0" image-rendering="auto">
  <!--Generated by ySVG 2.6-->
  <defs id="genericDefs"/>
  <g>
    <defs id="defs1">
      <clipPath clipPathUnits="userSpaceOnUse" id="clipPath1">
        <path d="M0 0 L2006 0 L2006 968 L0 968 L0 0 Z"/>
      </clipPath>
      <clipPath clipPathUnits="userSpaceOnUse" id="clipPath2">
        <path d="M-119 -498 L884 -498 L884 -14 L-119 -14 L-119 -498 Z"/>
      </clipPath>
    </defs>
    <g fill="white" text-rendering="geometricPrecision" shape-rendering="geometricPrecision" transform="scale(2,2) translate(119,498)" stroke="white">
      <rect x="-119" width="1003" height="484" y="-498" clip-path="url(#clipPath2)" stroke="none"/>
    </g>
    <g text-rendering="geometricPrecision" stroke-miterlimit="1.45" shape-rendering="geometricPrecision" transform="matrix(2,0,0,2,238,996)" stroke-linecap="butt">
      <path fill="none" d="M413.2389 -455.6995 L316.6854 -455.6995" clip-path="url(#clipPath2)"/>
      <path d="M308.6854 -455.6995 L320.6854 -450.6995 L317.6854 -455.6995 L320.6854 -460.6995 Z" clip-path="url(#clipPath2)" stroke="none"/>
      <rect x="330.2774" y="-465.0501" clip-path="url(#clipPath2)" fill="white" width="61.3633" height="18.7012" stroke="none"/>
      <text x="332.2774" xml:space="preserve" y="-450.9857" clip-path="url(#clipPath2)" font-family="sans-serif" stroke="none">instanceOf</text>
      <path fill="none" d="M714.9169 -347.3795 L761.5632 -347.3795" clip-path="url(#clipPath2)"/>
      <path d="M769.5632 -347.3795 L757.5632 -352.3795 L760.5632 -347.3795 L757.5632 -342.3795 Z" clip-path="url(#clipPath2)" stroke="none"/>
      <text x="719.2187" xml:space="preserve" y="-354.0163" clip-path="url(#clipPath2)" font-family="sans-serif" stroke="none">hasTime</text>
      <path fill="none" d="M273.698 -465.6966 L273.698 -484.6995 L310.9779 -484.6995" clip-path="url(#clipPath2)"/>
      <path fill="white" d="M325.9779 -484.6995 L309.9779 -490.6995 L309.9779 -478.6995 Z" clip-path="url(#clipPath2)" stroke="none"/>
      <path fill="none" d="M325.9779 -484.6995 L309.9779 -490.6995 L309.9779 -478.6995 Z" clip-path="url(#clipPath2)"/>
      <path fill="none" d="M448.22 -465.6966 L448.22 -484.6995 L410.9401 -484.6995" clip-path="url(#clipPath2)"/>
      <path fill="white" d="M395.9401 -484.6995 L411.9401 -478.6995 L411.9401 -490.6995 Z" clip-path="url(#clipPath2)" stroke="none"/>
      <path fill="none" d="M395.9401 -484.6995 L411.9401 -478.6995 L411.9401 -490.6995 Z" clip-path="url(#clipPath2)"/>
      <path fill="none" d="M226.18 -357.3893 L226.18 -397.3795 L368.8468 -397.3795" clip-path="url(#clipPath2)"/>
      <path fill="white" d="M383.8468 -397.3795 L367.8468 -403.3795 L367.8468 -391.3795 Z" clip-path="url(#clipPath2)" stroke="none"/>
      <path fill="none" d="M383.8468 -397.3795 L367.8468 -403.3795 L367.8468 -391.3795 Z" clip-path="url(#clipPath2)"/>
      <path fill="none" d="M448.22 -357.3893 L448.22 -372.3429" clip-path="url(#clipPath2)"/>
      <path fill="white" d="M448.22 -387.3429 L442.22 -371.3429 L454.22 -371.3429 Z" clip-path="url(#clipPath2)" stroke="none"/>
      <path fill="none" d="M448.22 -387.3429 L442.22 -371.3429 L454.22 -371.3429 Z" clip-path="url(#clipPath2)"/>
      <path fill="none" d="M-37.6752 -357.3893 L-37.6752 -397.3795 L368.8353 -397.3795" clip-path="url(#clipPath2)"/>
      <path fill="white" d="M383.8353 -397.3795 L367.8353 -403.3795 L367.8353 -391.3795 Z" clip-path="url(#clipPath2)" stroke="none"/>
      <path fill="none" d="M383.8353 -397.3795 L367.8353 -403.3795 L367.8353 -391.3795 Z" clip-path="url(#clipPath2)"/>
      <path fill="none" d="M638.901 -357.3551 L638.901 -392.3795 L527.6028 -392.3795" clip-path="url(#clipPath2)"/>
      <path fill="white" d="M512.6028 -392.3795 L528.6028 -386.3795 L528.6028 -398.3795 Z" clip-path="url(#clipPath2)" stroke="none"/>
      <path fill="none" d="M512.6028 -392.3795 L528.6028 -386.3795 L528.6028 -398.3795 Z" clip-path="url(#clipPath2)"/>
      <path fill="none" d="M860.6617 -307.3795 L870.11 -307.3795 L870.11 -372.404" clip-path="url(#clipPath2)"/>
      <path fill="white" d="M870.11 -387.404 L864.11 -371.404 L876.11 -371.404 Z" clip-path="url(#clipPath2)" stroke="none"/>
      <path fill="none" d="M870.11 -387.404 L864.11 -371.404 L876.11 -371.404 Z" clip-path="url(#clipPath2)"/>
      <path fill="none" d="M860.6617 -347.3795 L870.11 -347.3795 L870.11 -372.3698" clip-path="url(#clipPath2)"/>
      <path fill="white" d="M870.11 -387.3698 L864.11 -371.3698 L876.11 -371.3698 Z" clip-path="url(#clipPath2)" stroke="none"/>
      <path fill="none" d="M870.11 -387.3698 L864.11 -371.3698 L876.11 -371.3698 Z" clip-path="url(#clipPath2)"/>
      <path fill="none" d="M512.5839 -402.3795 L761.5252 -402.3795" clip-path="url(#clipPath2)"/>
      <path d="M769.5252 -402.3795 L757.5252 -407.3795 L760.5252 -402.3795 L757.5252 -397.3795 Z" clip-path="url(#clipPath2)" stroke="none"/>
      <rect x="616.0782" y="-411.7301" clip-path="url(#clipPath2)" fill="white" width="50.0137" height="18.7012" stroke="none"/>
      <text x="618.0782" xml:space="preserve" y="-397.6657" clip-path="url(#clipPath2)" font-family="sans-serif" stroke="none">hasTime</text>
      <path fill="none" d="M307.367 -187.3795 L330 -187.3795 L330 -267.3795 L315.3238 -267.3795" clip-path="url(#clipPath2)"/>
      <path d="M307.3238 -267.3795 L319.3238 -262.3795 L316.3238 -267.3795 L319.3238 -272.3795 Z" clip-path="url(#clipPath2)" stroke="none"/>
      <rect x="312.9912" y="-236.7301" clip-path="url(#clipPath2)" fill="white" width="34.0176" height="18.7012" stroke="none"/>
      <text x="314.9912" xml:space="preserve" y="-222.6657" clip-path="url(#clipPath2)" font-family="sans-serif" stroke="none">roleIn</text>
      <path fill="none" d="M184.9907 -107.3795 L175.5 -107.3795 L175.5 -202.3625" clip-path="url(#clipPath2)"/>
      <path fill="white" d="M175.5 -217.3625 L169.5 -201.3625 L181.5 -201.3625 Z" clip-path="url(#clipPath2)" stroke="none"/>
      <path fill="none" d="M175.5 -217.3625 L169.5 -201.3625 L181.5 -201.3625 Z" clip-path="url(#clipPath2)"/>
      <path fill="none" d="M184.9907 -72.3795 L175.5 -72.3795 L175.5 -202.4006" clip-path="url(#clipPath2)"/>
      <path fill="white" d="M175.5 -217.4006 L169.5 -201.4006 L181.5 -201.4006 Z" clip-path="url(#clipPath2)" stroke="none"/>
      <path fill="none" d="M175.5 -217.4006 L169.5 -201.4006 L181.5 -201.4006 Z" clip-path="url(#clipPath2)"/>
      <path fill="none" d="M184.9907 -187.3795 L175.5 -187.3795 L175.5 -202.3533" clip-path="url(#clipPath2)"/>
      <path fill="white" d="M175.5 -217.3533 L169.5 -201.3533 L181.5 -201.3533 Z" clip-path="url(#clipPath2)" stroke="none"/>
      <path fill="none" d="M175.5 -217.3533 L169.5 -201.3533 L181.5 -201.3533 Z" clip-path="url(#clipPath2)"/>
      <path fill="none" d="M184.9907 -147.3795 L175.5 -147.3795 L175.5 -202.4186" clip-path="url(#clipPath2)"/>
      <path fill="white" d="M175.5 -217.4186 L169.5 -201.4186 L181.5 -201.4186 Z" clip-path="url(#clipPath2)" stroke="none"/>
      <path fill="none" d="M175.5 -217.4186 L169.5 -201.4186 L181.5 -201.4186 Z" clip-path="url(#clipPath2)"/>
      <path fill="none" d="M165.0033 -232.3795 L155.2971 -232.3795 L155.2971 -322.3845" clip-path="url(#clipPath2)"/>
      <path fill="white" d="M155.2971 -337.3845 L149.2971 -321.3845 L161.2971 -321.3845 Z" clip-path="url(#clipPath2)" stroke="none"/>
      <path fill="none" d="M155.2971 -337.3845 L149.2971 -321.3845 L161.2971 -321.3845 Z" clip-path="url(#clipPath2)"/>
      <path fill="none" d="M164.973 -307.3795 L155.2971 -307.3795 L155.2971 -322.3967" clip-path="url(#clipPath2)"/>
      <path fill="white" d="M155.2971 -337.3967 L149.2971 -321.3967 L161.2971 -321.3967 Z" clip-path="url(#clipPath2)" stroke="none"/>
      <path fill="none" d="M155.2971 -337.3967 L149.2971 -321.3967 L161.2971 -321.3967 Z" clip-path="url(#clipPath2)"/>
      <path fill="none" d="M164.973 -267.3795 L155.2971 -267.3795 L155.2971 -322.3739" clip-path="url(#clipPath2)"/>
      <path fill="white" d="M155.2971 -337.3739 L149.2971 -321.3739 L161.2971 -321.3739 Z" clip-path="url(#clipPath2)" stroke="none"/>
      <path fill="none" d="M155.2971 -337.3739 L149.2971 -321.3739 L161.2971 -321.3739 Z" clip-path="url(#clipPath2)"/>
      <path fill="none" d="M433.22 -357.403 L433.22 -375.5 L241.18 -375.5 L241.18 -365.403" clip-path="url(#clipPath2)"/>
      <path d="M241.18 -357.403 L246.18 -369.403 L241.18 -366.403 L236.18 -369.403 Z" clip-path="url(#clipPath2)" stroke="none"/>
      <rect x="291.1727" y="-384.8506" clip-path="url(#clipPath2)" fill="white" width="92.0547" height="18.7012" stroke="none"/>
      <text x="293.1727" xml:space="preserve" y="-370.7861" clip-path="url(#clipPath2)" font-family="sans-serif" stroke="none">hasSituationPart</text>
      <path fill="none" d="M-17.6752 -89.4186 L-17.6752 -77.3828" clip-path="url(#clipPath2)"/>
      <path d="M-17.6752 -97.4186 L-22.6752 -85.4186 L-17.6752 -88.4186 L-12.6752 -85.4186 Z" clip-path="url(#clipPath2)" stroke="none"/>
      <text x="-11.6752" xml:space="preserve" y="-82.6657" clip-path="url(#clipPath2)" font-family="sans-serif" stroke="none">boundaryOf</text>
      <path fill="none" d="M-95.6586 -147.3795 L-105.6752 -147.3795 L-105.6752 -322.3698" clip-path="url(#clipPath2)"/>
      <path fill="white" d="M-105.6752 -337.3698 L-111.6752 -321.3698 L-99.6752 -321.3698 Z" clip-path="url(#clipPath2)" stroke="none"/>
      <path fill="none" d="M-105.6752 -337.3698 L-111.6752 -321.3698 L-99.6752 -321.3698 Z" clip-path="url(#clipPath2)"/>
      <path fill="none" d="M165.0115 -222.3795 L126.688 -222.3795 L126.688 -352.3795 L48.293 -352.3795" clip-path="url(#clipPath2)"/>
      <path d="M40.293 -352.3795 L52.293 -347.3795 L49.293 -352.3795 L52.293 -357.3795 Z" clip-path="url(#clipPath2)" stroke="none"/>
      <rect x="100.0054" y="-296.7301" clip-path="url(#clipPath2)" fill="white" width="53.3652" height="18.7012" stroke="none"/>
      <text x="102.0054" xml:space="preserve" y="-282.6657" clip-path="url(#clipPath2)" font-family="sans-serif" stroke="none">playedBy</text>
      <path fill="none" d="M184.9852 -62.3795 L95.456 -62.3795 L95.456 -342.3795 L48.3182 -342.3795" clip-path="url(#clipPath2)"/>
      <path d="M40.3182 -342.3795 L52.3182 -337.3795 L49.3182 -342.3795 L52.3182 -347.3795 Z" clip-path="url(#clipPath2)" stroke="none"/>
      <rect x="78.4472" y="-211.7301" clip-path="url(#clipPath2)" fill="white" width="34.0176" height="18.7012" stroke="none"/>
      <text x="80.4472" xml:space="preserve" y="-197.6657" clip-path="url(#clipPath2)" font-family="sans-serif" stroke="none">roleIn</text>
      <path fill="none" d="M-95.6586 -307.3795 L-105.6752 -307.3795 L-105.6752 -322.4186" clip-path="url(#clipPath2)"/>
      <path fill="white" d="M-105.6752 -337.4186 L-111.6752 -321.4186 L-99.6752 -321.4186 Z" clip-path="url(#clipPath2)" stroke="none"/>
      <path fill="none" d="M-105.6752 -337.4186 L-111.6752 -321.4186 L-99.6752 -321.4186 Z" clip-path="url(#clipPath2)"/>
      <path fill="none" d="M-75.6811 -107.3795 L-85.6752 -107.3795 L-85.6752 -122.4186" clip-path="url(#clipPath2)"/>
      <path fill="white" d="M-85.6752 -137.4186 L-91.6752 -121.4186 L-79.6752 -121.4186 Z" clip-path="url(#clipPath2)" stroke="none"/>
      <path fill="none" d="M-85.6752 -137.4186 L-91.6752 -121.4186 L-79.6752 -121.4186 Z" clip-path="url(#clipPath2)"/>
      <path fill="none" d="M-75.6811 -67.3795 L-85.6752 -67.3795 L-85.6752 -122.4186" clip-path="url(#clipPath2)"/>
      <path fill="white" d="M-85.6752 -137.4186 L-91.6752 -121.4186 L-79.6752 -121.4186 Z" clip-path="url(#clipPath2)" stroke="none"/>
      <path fill="none" d="M-85.6752 -137.4186 L-91.6752 -121.4186 L-79.6752 -121.4186 Z" clip-path="url(#clipPath2)"/>
      <path fill="none" d="M-75.6811 -27.3795 L-85.6752 -27.3795 L-85.6752 -122.3893" clip-path="url(#clipPath2)"/>
      <path fill="white" d="M-85.6752 -137.3893 L-91.6752 -121.3893 L-79.6752 -121.3893 Z" clip-path="url(#clipPath2)" stroke="none"/>
      <path fill="none" d="M-85.6752 -137.3893 L-91.6752 -121.3893 L-79.6752 -121.3893 Z" clip-path="url(#clipPath2)"/>
      <path fill="none" d="M-17.6752 -49.4186 L-17.6752 -37.3828" clip-path="url(#clipPath2)"/>
      <path d="M-17.6752 -57.4186 L-22.6752 -45.4186 L-17.6752 -48.4186 L-12.6752 -45.4186 Z" clip-path="url(#clipPath2)" stroke="none"/>
      <text x="-11.6752" xml:space="preserve" y="-42.6657" clip-path="url(#clipPath2)" font-family="sans-serif" stroke="none">boundaryOf</text>
      <path fill="none" d="M40.315 -107.3795 L56.4133 -107.3795 L56.4133 -187.3795 L48.3134 -187.3795" clip-path="url(#clipPath2)"/>
      <path d="M40.3134 -187.3795 L52.3134 -182.3795 L49.3134 -187.3795 L52.3134 -192.3795 Z" clip-path="url(#clipPath2)" stroke="none"/>
      <rect x="23.0598" y="-137.9284" clip-path="url(#clipPath2)" fill="white" width="66.707" height="18.7012" stroke="none"/>
      <text x="25.0598" xml:space="preserve" y="-123.864" clip-path="url(#clipPath2)" font-family="sans-serif" stroke="none">boundaryOf</text>
      <path fill="none" d="M-15.4224 -217.4186 L-15.4224 -205.3828" clip-path="url(#clipPath2)"/>
      <path d="M-15.4224 -197.3828 L-10.4224 -209.3828 L-15.4224 -206.3828 L-20.4224 -209.3828 Z" clip-path="url(#clipPath2)" stroke="none"/>
      <text x="-9.4224" xml:space="preserve" y="-202.6657" clip-path="url(#clipPath2)" font-family="sans-serif" stroke="none">partOf</text>
      <path fill="none" d="M448.22 -407.3748 L448.22 -430.742" clip-path="url(#clipPath2)"/>
      <path fill="white" d="M448.22 -445.742 L442.22 -429.742 L454.22 -429.742 Z" clip-path="url(#clipPath2)" stroke="none"/>
      <path fill="none" d="M448.22 -445.742 L442.22 -429.742 L454.22 -429.742 Z" clip-path="url(#clipPath2)"/>
      <path fill="none" d="M825.11 -407.3535 L825.11 -420.4867 L448.22 -420.4867 L448.22 -430.6927" clip-path="url(#clipPath2)"/>
      <path fill="white" d="M448.22 -445.6927 L442.22 -429.6927 L454.22 -429.6927 Z" clip-path="url(#clipPath2)" stroke="none"/>
      <path fill="none" d="M448.22 -445.6927 L442.22 -429.6927 L454.22 -429.6927 Z" clip-path="url(#clipPath2)"/>
      <path fill="none" d="M-71.1743 -267.3795 L-79.3887 -267.3795 L-79.3887 -282.4095" clip-path="url(#clipPath2)"/>
      <path fill="white" d="M-79.3887 -297.4095 L-85.3887 -281.4095 L-73.3887 -281.4095 Z" clip-path="url(#clipPath2)" stroke="none"/>
      <path fill="none" d="M-79.3887 -297.4095 L-85.3887 -281.4095 L-73.3887 -281.4095 Z" clip-path="url(#clipPath2)"/>
      <path fill="none" d="M-71.1743 -187.3795 L-79.3887 -187.3795 L-79.3887 -282.3893" clip-path="url(#clipPath2)"/>
      <path fill="white" d="M-79.3887 -297.3893 L-85.3887 -281.3893 L-73.3887 -281.3893 Z" clip-path="url(#clipPath2)" stroke="none"/>
      <path fill="none" d="M-79.3887 -297.3893 L-85.3887 -281.3893 L-73.3887 -281.3893 Z" clip-path="url(#clipPath2)"/>
      <path fill="none" d="M-15.4224 -277.3666 L-15.4224 -289.37" clip-path="url(#clipPath2)"/>
      <path d="M-15.4224 -297.37 L-20.4224 -285.37 L-15.4224 -288.37 L-10.4224 -285.37 Z" clip-path="url(#clipPath2)" stroke="none"/>
      <text x="-9.4224" xml:space="preserve" y="-282.6657" clip-path="url(#clipPath2)" font-family="sans-serif" stroke="none">hasMember</text>
      <path fill="none" d="M-91.8 -157.404 L-91.8 -289.3809" clip-path="url(#clipPath2)"/>
      <path d="M-91.8 -297.3809 L-96.8 -285.3809 L-91.8 -288.3809 L-86.8 -285.3809 Z" clip-path="url(#clipPath2)" stroke="none"/>
      <rect x="-100.5441" y="-181.1522" clip-path="url(#clipPath2)" fill="white" width="58.6914" height="18.7012" stroke="none"/>
      <text x="-98.5441" xml:space="preserve" y="-167.0877" clip-path="url(#clipPath2)" font-family="sans-serif" stroke="none">hasOwner</text>
      <path fill="none" d="M-71.1743 -227.3795 L-79.3887 -227.3795 L-79.3887 -282.4186" clip-path="url(#clipPath2)"/>
      <path fill="white" d="M-79.3887 -297.4186 L-85.3887 -281.4186 L-73.3887 -281.4186 Z" clip-path="url(#clipPath2)" stroke="none"/>
      <path fill="none" d="M-79.3887 -297.4186 L-85.3887 -281.4186 L-73.3887 -281.4186 Z" clip-path="url(#clipPath2)"/>
      <path fill="none" d="M307.3815 -147.3795 L354 -147.3795 L354 -349.7776 L365.8311 -349.4765" clip-path="url(#clipPath2)"/>
      <path d="M373.8285 -349.2729 L361.9596 -354.5766 L364.8314 -349.5019 L361.7052 -344.5799 Z" clip-path="url(#clipPath2)" stroke="none"/>
      <rect x="336.9912" y="-257.9292" clip-path="url(#clipPath2)" fill="white" width="34.0176" height="18.7012" stroke="none"/>
      <text x="338.9912" xml:space="preserve" y="-243.8647" clip-path="url(#clipPath2)" font-family="sans-serif" stroke="none">roleIn</text>
      <path fill="none" d="M623.901 -357.4035 L623.901 -376.9605 L463.22 -376.9605 L463.22 -365.4035" clip-path="url(#clipPath2)"/>
      <path d="M463.22 -357.4035 L468.22 -369.4035 L463.22 -366.4035 L458.22 -369.4035 Z" clip-path="url(#clipPath2)" stroke="none"/>
      <rect x="499.2089" y="-386.3111" clip-path="url(#clipPath2)" fill="white" width="88.7031" height="18.7012" stroke="none"/>
      <text x="501.2089" xml:space="preserve" y="-372.2466" clip-path="url(#clipPath2)" font-family="sans-serif" stroke="none">hasProcessPart</text>
      <path fill="none" d="M393.8353 -307.3795 L383.257 -307.3795 L383.257 -322.3967" clip-path="url(#clipPath2)"/>
      <path fill="white" d="M383.257 -337.3967 L377.257 -321.3967 L389.257 -321.3967 Z" clip-path="url(#clipPath2)" stroke="none"/>
      <path fill="none" d="M383.257 -337.3967 L377.257 -321.3967 L389.257 -321.3967 Z" clip-path="url(#clipPath2)"/>
      <path fill="none" d="M393.8353 -267.3795 L383.257 -267.3795 L383.257 -322.378" clip-path="url(#clipPath2)"/>
      <path fill="white" d="M383.257 -337.378 L377.257 -321.378 L389.257 -321.378 Z" clip-path="url(#clipPath2)" stroke="none"/>
      <path fill="none" d="M383.257 -337.378 L377.257 -321.378 L389.257 -321.378 Z" clip-path="url(#clipPath2)"/>
      <path fill="none" d="M458.1647 -317.3832 L458.0984 -329.3719" clip-path="url(#clipPath2)"/>
      <path d="M458.0542 -337.3718 L453.1206 -325.3443 L458.1039 -328.3719 L463.1205 -325.3996 Z" clip-path="url(#clipPath2)" stroke="none"/>
      <text x="464.1611" xml:space="preserve" y="-322.6657" clip-path="url(#clipPath2)" font-family="sans-serif" stroke="none">hasMember</text>
      <path fill="none" d="M307.3508 -107.3795 L542.52 -107.3795 L542.52 -347.3795 L554.8974 -347.3795" clip-path="url(#clipPath2)"/>
      <path d="M562.8974 -347.3795 L550.8974 -352.3795 L553.8974 -347.3795 L550.8974 -342.3795 Z" clip-path="url(#clipPath2)" stroke="none"/>
      <rect x="525.5112" y="-236.7301" clip-path="url(#clipPath2)" fill="white" width="34.0176" height="18.7012" stroke="none"/>
      <text x="527.5112" xml:space="preserve" y="-222.6657" clip-path="url(#clipPath2)" font-family="sans-serif" stroke="none">roleIn</text>
      <path fill="none" d="M582.869 -307.3795 L572.541 -307.3795 L572.541 -322.3967" clip-path="url(#clipPath2)"/>
      <path fill="white" d="M572.541 -337.3967 L566.541 -321.3967 L578.541 -321.3967 Z" clip-path="url(#clipPath2)" stroke="none"/>
      <path fill="none" d="M572.541 -337.3967 L566.541 -321.3967 L578.541 -321.3967 Z" clip-path="url(#clipPath2)"/>
      <path fill="none" d="M582.869 -267.3795 L572.541 -267.3795 L572.541 -322.3763" clip-path="url(#clipPath2)"/>
      <path fill="white" d="M572.541 -337.3763 L566.541 -321.3763 L578.541 -321.3763 Z" clip-path="url(#clipPath2)" stroke="none"/>
      <path fill="none" d="M572.541 -337.3763 L566.541 -321.3763 L578.541 -321.3763 Z" clip-path="url(#clipPath2)"/>
      <path fill="none" d="M648.901 -317.3407 L648.901 -329.377" clip-path="url(#clipPath2)"/>
      <path d="M648.901 -337.377 L643.901 -325.377 L648.901 -328.377 L653.901 -325.377 Z" clip-path="url(#clipPath2)" stroke="none"/>
      <text x="654.901" xml:space="preserve" y="-322.6657" clip-path="url(#clipPath2)" font-family="sans-serif" stroke="none">hasMember</text>
    </g>
    <g fill="rgb(150,150,150)" text-rendering="geometricPrecision" shape-rendering="geometricPrecision" transform="matrix(2,0,0,2,238,996)" stroke="rgb(150,150,150)">
      <rect x="238.698" y="-465.6995" clip-path="url(#clipPath2)" width="70" rx="4" ry="4" height="20" stroke="none"/>
    </g>
    <g stroke-linecap="butt" transform="matrix(2,0,0,2,238,996)" fill="white" text-rendering="geometricPrecision" font-family="sans-serif" shape-rendering="geometricPrecision" stroke="white" font-weight="bold" stroke-miterlimit="1.45">
      <text x="247.6912" xml:space="preserve" y="-450.9857" clip-path="url(#clipPath2)" stroke="none">Category</text>
    </g>
    <g stroke-linecap="butt" transform="matrix(2,0,0,2,238,996)" fill="rgb(150,150,150)" text-rendering="geometricPrecision" shape-rendering="geometricPrecision" stroke="rgb(150,150,150)" stroke-miterlimit="1.45">
      <rect x="238.698" y="-465.6995" clip-path="url(#clipPath2)" fill="none" width="70" rx="4" ry="4" height="20"/>
    </g>
    <g stroke-linecap="butt" transform="matrix(2,0,0,2,238,996)" text-rendering="geometricPrecision" font-family="sans-serif" shape-rendering="geometricPrecision" font-weight="bold" stroke-miterlimit="1.45">
      <text x="788.4498" xml:space="preserve" y="-342.6657" clip-path="url(#clipPath2)" stroke="none">Chronoid</text>
    </g>
    <g stroke-linecap="butt" transform="matrix(2,0,0,2,238,996)" fill="rgb(43,138,132)" text-rendering="geometricPrecision" shape-rendering="geometricPrecision" stroke="rgb(43,138,132)" stroke-miterlimit="1.45">
      <rect x="769.55" y="-357.3795" clip-path="url(#clipPath2)" fill="none" width="91.12" rx="4" ry="4" height="20"/>
    </g>
    <g fill="rgb(150,150,150)" text-rendering="geometricPrecision" shape-rendering="geometricPrecision" transform="matrix(2,0,0,2,238,996)" stroke="rgb(150,150,150)">
      <rect x="325.959" y="-494.6995" clip-path="url(#clipPath2)" width="70" rx="4" ry="4" height="20" stroke="none"/>
    </g>
    <g stroke-linecap="butt" transform="matrix(2,0,0,2,238,996)" fill="white" text-rendering="geometricPrecision" font-family="sans-serif" shape-rendering="geometricPrecision" stroke="white" font-weight="bold" stroke-miterlimit="1.45">
      <text x="344.292" xml:space="preserve" y="-479.9857" clip-path="url(#clipPath2)" stroke="none">Entity</text>
    </g>
    <g stroke-linecap="butt" transform="matrix(2,0,0,2,238,996)" fill="rgb(150,150,150)" text-rendering="geometricPrecision" shape-rendering="geometricPrecision" stroke="rgb(150,150,150)" stroke-miterlimit="1.45">
      <rect x="325.959" y="-494.6995" clip-path="url(#clipPath2)" fill="none" width="70" rx="4" ry="4" height="20"/>
      <rect stroke-linecap="square" x="383.82" y="-407.3795" clip-path="url(#clipPath2)" width="128.8" rx="4" ry="4" height="20" stroke="none" stroke-miterlimit="10"/>
    </g>
    <g stroke-linecap="butt" transform="matrix(2,0,0,2,238,996)" fill="white" text-rendering="geometricPrecision" font-family="sans-serif" shape-rendering="geometricPrecision" stroke="white" font-weight="bold" stroke-miterlimit="1.45">
      <text x="394.2112" xml:space="preserve" y="-392.6657" clip-path="url(#clipPath2)" stroke="none">ConcreteIndividual</text>
    </g>
    <g stroke-linecap="butt" transform="matrix(2,0,0,2,238,996)" fill="rgb(150,150,150)" text-rendering="geometricPrecision" shape-rendering="geometricPrecision" stroke="rgb(150,150,150)" stroke-miterlimit="1.45">
      <rect x="383.82" y="-407.3795" clip-path="url(#clipPath2)" fill="none" width="128.8" rx="4" ry="4" height="20"/>
    </g>
    <g fill="rgb(43,138,132)" text-rendering="geometricPrecision" shape-rendering="geometricPrecision" transform="matrix(2,0,0,2,238,996)" stroke="rgb(43,138,132)">
      <rect x="769.55" y="-407.3795" clip-path="url(#clipPath2)" width="111.12" rx="4" ry="4" height="20" stroke="none"/>
    </g>
    <g stroke-linecap="butt" transform="matrix(2,0,0,2,238,996)" fill="white" text-rendering="geometricPrecision" font-family="sans-serif" shape-rendering="geometricPrecision" stroke="white" font-weight="bold" stroke-miterlimit="1.45">
      <text x="794.4391" xml:space="preserve" y="-392.6657" clip-path="url(#clipPath2)" stroke="none">TimeEntity</text>
    </g>
    <g stroke-linecap="butt" transform="matrix(2,0,0,2,238,996)" fill="rgb(43,138,132)" text-rendering="geometricPrecision" shape-rendering="geometricPrecision" stroke="rgb(43,138,132)" stroke-miterlimit="1.45">
      <rect x="769.55" y="-407.3795" clip-path="url(#clipPath2)" fill="none" width="111.12" rx="4" ry="4" height="20"/>
    </g>
    <g stroke-linecap="butt" transform="matrix(2,0,0,2,238,996)" text-rendering="geometricPrecision" font-family="sans-serif" shape-rendering="geometricPrecision" font-weight="bold" stroke-miterlimit="1.45">
      <text x="773.1041" xml:space="preserve" y="-302.6657" clip-path="url(#clipPath2)" stroke="none">TimeBoundary</text>
    </g>
    <g stroke-linecap="butt" transform="matrix(2,0,0,2,238,996)" fill="rgb(43,138,132)" text-rendering="geometricPrecision" shape-rendering="geometricPrecision" stroke="rgb(43,138,132)" stroke-miterlimit="1.45">
      <rect x="769.55" y="-317.3795" clip-path="url(#clipPath2)" fill="none" width="91.12" rx="4" ry="4" height="20"/>
    </g>
    <g stroke-linecap="butt" transform="matrix(2,0,0,2,238,996)" text-rendering="geometricPrecision" font-family="sans-serif" shape-rendering="geometricPrecision" font-weight="bold" stroke-miterlimit="1.45">
      <text x="189.848" xml:space="preserve" y="-62.6657" clip-path="url(#clipPath2)" stroke="none">ContinuantPartRole</text>
    </g>
    <g stroke-linecap="butt" transform="matrix(2,0,0,2,238,996)" fill="rgb(73,114,136)" text-rendering="geometricPrecision" shape-rendering="geometricPrecision" stroke="rgb(73,114,136)" stroke-miterlimit="1.45">
      <rect x="185" y="-77.3795" clip-path="url(#clipPath2)" fill="none" width="122.36" rx="4" ry="4" height="20"/>
    </g>
    <g stroke-linecap="butt" transform="matrix(2,0,0,2,238,996)" text-rendering="geometricPrecision" font-family="sans-serif" shape-rendering="geometricPrecision" font-weight="bold" stroke-miterlimit="1.45">
      <text x="215.5081" xml:space="preserve" y="-262.6657" clip-path="url(#clipPath2)" stroke="none">Relator</text>
    </g>
    <g stroke-linecap="butt" transform="matrix(2,0,0,2,238,996)" fill="rgb(73,114,136)" text-rendering="geometricPrecision" shape-rendering="geometricPrecision" stroke="rgb(73,114,136)" stroke-miterlimit="1.45">
      <rect x="165" y="-277.3795" clip-path="url(#clipPath2)" fill="none" width="142.36" rx="4" ry="4" height="20"/>
    </g>
    <g stroke-linecap="butt" transform="matrix(2,0,0,2,238,996)" text-rendering="geometricPrecision" font-family="sans-serif" shape-rendering="geometricPrecision" font-weight="bold" stroke-miterlimit="1.45">
      <text x="224.778" xml:space="preserve" y="-222.6657" clip-path="url(#clipPath2)" stroke="none">Role</text>
    </g>
    <g stroke-linecap="butt" transform="matrix(2,0,0,2,238,996)" fill="rgb(73,114,136)" text-rendering="geometricPrecision" shape-rendering="geometricPrecision" stroke="rgb(73,114,136)" stroke-miterlimit="1.45">
      <rect x="165" y="-237.3795" clip-path="url(#clipPath2)" fill="none" width="145.56" rx="4" ry="4" height="20"/>
    </g>
    <g stroke-linecap="butt" transform="matrix(2,0,0,2,238,996)" text-rendering="geometricPrecision" font-family="sans-serif" shape-rendering="geometricPrecision" font-weight="bold" stroke-miterlimit="1.45">
      <text x="201.1595" xml:space="preserve" y="-102.6657" clip-path="url(#clipPath2)" stroke="none">ProcessualRole</text>
    </g>
    <g stroke-linecap="butt" transform="matrix(2,0,0,2,238,996)" fill="rgb(73,114,136)" text-rendering="geometricPrecision" shape-rendering="geometricPrecision" stroke="rgb(73,114,136)" stroke-miterlimit="1.45">
      <rect x="185" y="-117.3795" clip-path="url(#clipPath2)" fill="none" width="122.36" rx="4" ry="4" height="20"/>
    </g>
    <g stroke-linecap="butt" transform="matrix(2,0,0,2,238,996)" text-rendering="geometricPrecision" font-family="sans-serif" shape-rendering="geometricPrecision" font-weight="bold" stroke-miterlimit="1.45">
      <text x="204.5052" xml:space="preserve" y="-182.6657" clip-path="url(#clipPath2)" stroke="none">RelationalRole</text>
    </g>
    <g stroke-linecap="butt" transform="matrix(2,0,0,2,238,996)" fill="rgb(73,114,136)" text-rendering="geometricPrecision" shape-rendering="geometricPrecision" stroke="rgb(73,114,136)" stroke-miterlimit="1.45">
      <rect x="185" y="-197.3795" clip-path="url(#clipPath2)" fill="none" width="122.36" rx="4" ry="4" height="20"/>
    </g>
    <g stroke-linecap="butt" transform="matrix(2,0,0,2,238,996)" text-rendering="geometricPrecision" font-family="sans-serif" shape-rendering="geometricPrecision" font-weight="bold" stroke-miterlimit="1.45">
      <text x="215.8421" xml:space="preserve" y="-302.6657" clip-path="url(#clipPath2)" stroke="none">Quality</text>
    </g>
    <g stroke-linecap="butt" transform="matrix(2,0,0,2,238,996)" fill="rgb(73,114,136)" text-rendering="geometricPrecision" shape-rendering="geometricPrecision" stroke="rgb(73,114,136)" stroke-miterlimit="1.45">
      <rect x="165" y="-317.3795" clip-path="url(#clipPath2)" fill="none" width="142.36" rx="4" ry="4" height="20"/>
      <rect stroke-linecap="square" x="145" y="-357.3795" clip-path="url(#clipPath2)" width="162.36" rx="4" ry="4" height="20" stroke="none" stroke-miterlimit="10"/>
    </g>
    <g stroke-linecap="butt" transform="matrix(2,0,0,2,238,996)" fill="white" text-rendering="geometricPrecision" font-family="sans-serif" shape-rendering="geometricPrecision" stroke="white" font-weight="bold" stroke-miterlimit="1.45">
      <text x="196.18" xml:space="preserve" y="-342.6657" clip-path="url(#clipPath2)" stroke="none">Attributive</text>
    </g>
    <g stroke-linecap="butt" transform="matrix(2,0,0,2,238,996)" fill="rgb(73,114,136)" text-rendering="geometricPrecision" shape-rendering="geometricPrecision" stroke="rgb(73,114,136)" stroke-miterlimit="1.45">
      <rect x="145" y="-357.3795" clip-path="url(#clipPath2)" fill="none" width="162.36" rx="4" ry="4" height="20"/>
    </g>
    <g stroke-linecap="butt" transform="matrix(2,0,0,2,238,996)" text-rendering="geometricPrecision" font-family="sans-serif" shape-rendering="geometricPrecision" font-weight="bold" stroke-miterlimit="1.45">
      <text x="-30.0092" xml:space="preserve" y="-62.6657" clip-path="url(#clipPath2)" stroke="none">Line</text>
    </g>
    <g stroke-linecap="butt" transform="matrix(2,0,0,2,238,996)" fill="rgb(243,101,35)" text-rendering="geometricPrecision" shape-rendering="geometricPrecision" stroke="rgb(243,101,35)" stroke-miterlimit="1.45">
      <rect x="-75.664" y="-77.3795" clip-path="url(#clipPath2)" fill="none" width="115.9776" rx="4" ry="4" height="20"/>
      <rect stroke-linecap="square" x="-115.664" y="-357.3795" clip-path="url(#clipPath2)" width="155.9776" rx="4" ry="4" height="20" stroke="none" stroke-miterlimit="10"/>
    </g>
    <g stroke-linecap="butt" transform="matrix(2,0,0,2,238,996)" fill="white" text-rendering="geometricPrecision" font-family="sans-serif" shape-rendering="geometricPrecision" stroke="white" font-weight="bold" stroke-miterlimit="1.45">
      <text x="-69.3334" xml:space="preserve" y="-342.6657" clip-path="url(#clipPath2)" stroke="none">Continuant</text>
    </g>
    <g stroke-linecap="butt" transform="matrix(2,0,0,2,238,996)" fill="rgb(243,101,35)" text-rendering="geometricPrecision" shape-rendering="geometricPrecision" stroke="rgb(243,101,35)" stroke-miterlimit="1.45">
      <rect x="-115.664" y="-357.3795" clip-path="url(#clipPath2)" fill="none" width="155.9776" rx="4" ry="4" height="20"/>
    </g>
    <g stroke-linecap="butt" transform="matrix(2,0,0,2,238,996)" text-rendering="geometricPrecision" font-family="sans-serif" shape-rendering="geometricPrecision" font-weight="bold" stroke-miterlimit="1.45">
      <text x="-89.3481" xml:space="preserve" y="-142.6657" clip-path="url(#clipPath2)" stroke="none">ImmaterialContinuant</text>
    </g>
    <g stroke-linecap="butt" transform="matrix(2,0,0,2,238,996)" fill="rgb(243,101,35)" text-rendering="geometricPrecision" shape-rendering="geometricPrecision" stroke="rgb(243,101,35)" stroke-miterlimit="1.45">
      <rect x="-95.664" y="-157.3795" clip-path="url(#clipPath2)" fill="none" width="135.9776" rx="4" ry="4" height="20"/>
    </g>
    <g stroke-linecap="butt" transform="matrix(2,0,0,2,238,996)" text-rendering="geometricPrecision" font-family="sans-serif" shape-rendering="geometricPrecision" font-weight="bold" stroke-miterlimit="1.45">
      <text x="-67.7701" xml:space="preserve" y="-262.6657" clip-path="url(#clipPath2)" stroke="none">MaterialAggregate</text>
    </g>
    <g stroke-linecap="butt" transform="matrix(2,0,0,2,238,996)" fill="rgb(243,101,35)" text-rendering="geometricPrecision" shape-rendering="geometricPrecision" stroke="rgb(243,101,35)" stroke-miterlimit="1.45">
      <rect x="-71.1584" y="-277.3795" clip-path="url(#clipPath2)" fill="none" width="111.472" rx="4" ry="4" height="20"/>
    </g>
    <g stroke-linecap="butt" transform="matrix(2,0,0,2,238,996)" text-rendering="geometricPrecision" font-family="sans-serif" shape-rendering="geometricPrecision" font-weight="bold" stroke-miterlimit="1.45">
      <text x="-32.6723" xml:space="preserve" y="-22.6657" clip-path="url(#clipPath2)" stroke="none">Point</text>
    </g>
    <g stroke-linecap="butt" transform="matrix(2,0,0,2,238,996)" fill="rgb(243,101,35)" text-rendering="geometricPrecision" shape-rendering="geometricPrecision" stroke="rgb(243,101,35)" stroke-miterlimit="1.45">
      <rect x="-75.664" y="-37.3795" clip-path="url(#clipPath2)" fill="none" width="115.9776" rx="4" ry="4" height="20"/>
    </g>
    <g stroke-linecap="butt" transform="matrix(2,0,0,2,238,996)" text-rendering="geometricPrecision" font-family="sans-serif" shape-rendering="geometricPrecision" font-weight="bold" stroke-miterlimit="1.45">
      <text x="-56.7691" xml:space="preserve" y="-182.6657" clip-path="url(#clipPath2)" stroke="none">MaterialObject</text>
    </g>
    <g stroke-linecap="butt" transform="matrix(2,0,0,2,238,996)" fill="rgb(243,101,35)" text-rendering="geometricPrecision" shape-rendering="geometricPrecision" stroke="rgb(243,101,35)" stroke-miterlimit="1.45">
      <rect x="-71.1584" y="-197.3795" clip-path="url(#clipPath2)" fill="none" width="111.472" rx="4" ry="4" height="20"/>
    </g>
    <g stroke-linecap="butt" transform="matrix(2,0,0,2,238,996)" text-rendering="geometricPrecision" font-family="sans-serif" shape-rendering="geometricPrecision" font-weight="bold" stroke-miterlimit="1.45">
      <text x="-39.6859" xml:space="preserve" y="-102.6657" clip-path="url(#clipPath2)" stroke="none">Surface</text>
    </g>
    <g stroke-linecap="butt" transform="matrix(2,0,0,2,238,996)" fill="rgb(243,101,35)" text-rendering="geometricPrecision" shape-rendering="geometricPrecision" stroke="rgb(243,101,35)" stroke-miterlimit="1.45">
      <rect x="-75.664" y="-117.3795" clip-path="url(#clipPath2)" fill="none" width="115.9776" rx="4" ry="4" height="20"/>
    </g>
    <g fill="rgb(150,150,150)" text-rendering="geometricPrecision" shape-rendering="geometricPrecision" transform="matrix(2,0,0,2,238,996)" stroke="rgb(150,150,150)">
      <rect x="413.22" y="-465.6995" clip-path="url(#clipPath2)" width="70" rx="4" ry="4" height="20" stroke="none"/>
    </g>
    <g stroke-linecap="butt" transform="matrix(2,0,0,2,238,996)" fill="white" text-rendering="geometricPrecision" font-family="sans-serif" shape-rendering="geometricPrecision" stroke="white" font-weight="bold" stroke-miterlimit="1.45">
      <text x="420.218" xml:space="preserve" y="-450.9857" clip-path="url(#clipPath2)" stroke="none">Individual</text>
    </g>
    <g stroke-linecap="butt" transform="matrix(2,0,0,2,238,996)" fill="rgb(150,150,150)" text-rendering="geometricPrecision" shape-rendering="geometricPrecision" stroke="rgb(150,150,150)" stroke-miterlimit="1.45">
      <rect x="413.22" y="-465.6995" clip-path="url(#clipPath2)" fill="none" width="70" rx="4" ry="4" height="20"/>
    </g>
    <g stroke-linecap="butt" transform="matrix(2,0,0,2,238,996)" text-rendering="geometricPrecision" font-family="sans-serif" shape-rendering="geometricPrecision" font-weight="bold" stroke-miterlimit="1.45">
      <text x="-49.7701" xml:space="preserve" y="-222.6657" clip-path="url(#clipPath2)" stroke="none">MaterialPart</text>
    </g>
    <g stroke-linecap="butt" transform="matrix(2,0,0,2,238,996)" fill="rgb(243,101,35)" text-rendering="geometricPrecision" shape-rendering="geometricPrecision" stroke="rgb(243,101,35)" stroke-miterlimit="1.45">
      <rect x="-71.1584" y="-237.3795" clip-path="url(#clipPath2)" fill="none" width="111.472" rx="4" ry="4" height="20"/>
    </g>
    <g stroke-linecap="butt" transform="matrix(2,0,0,2,238,996)" text-rendering="geometricPrecision" font-family="sans-serif" shape-rendering="geometricPrecision" font-weight="bold" stroke-miterlimit="1.45">
      <text x="-82.0092" xml:space="preserve" y="-302.6657" clip-path="url(#clipPath2)" stroke="none">MaterialContinuant</text>
    </g>
    <g stroke-linecap="butt" transform="matrix(2,0,0,2,238,996)" fill="rgb(243,101,35)" text-rendering="geometricPrecision" shape-rendering="geometricPrecision" stroke="rgb(243,101,35)" stroke-miterlimit="1.45">
      <rect x="-95.664" y="-317.3795" clip-path="url(#clipPath2)" fill="none" width="135.9776" rx="4" ry="4" height="20"/>
    </g>
    <g stroke-linecap="butt" transform="matrix(2,0,0,2,238,996)" text-rendering="geometricPrecision" font-family="sans-serif" shape-rendering="geometricPrecision" font-weight="bold" stroke-miterlimit="1.45">
      <text x="202.5101" xml:space="preserve" y="-142.6657" clip-path="url(#clipPath2)" stroke="none">SituationalRole</text>
    </g>
    <g stroke-linecap="butt" transform="matrix(2,0,0,2,238,996)" fill="rgb(73,114,136)" text-rendering="geometricPrecision" shape-rendering="geometricPrecision" stroke="rgb(73,114,136)" stroke-miterlimit="1.45">
      <rect x="185" y="-157.3795" clip-path="url(#clipPath2)" fill="none" width="122.36" rx="4" ry="4" height="20"/>
    </g>
    <g stroke-linecap="butt" transform="matrix(2,0,0,2,238,996)" text-rendering="geometricPrecision" font-family="sans-serif" shape-rendering="geometricPrecision" font-weight="bold" stroke-miterlimit="1.45">
      <text x="432.5559" xml:space="preserve" y="-262.6657" clip-path="url(#clipPath2)" stroke="none">Situation</text>
    </g>
    <g stroke-linecap="butt" transform="matrix(2,0,0,2,238,996)" fill="rgb(157,64,95)" text-rendering="geometricPrecision" shape-rendering="geometricPrecision" stroke="rgb(157,64,95)" stroke-miterlimit="1.45">
      <rect x="393.82" y="-277.3795" clip-path="url(#clipPath2)" fill="none" width="128.8" rx="4" ry="4" height="20"/>
    </g>
    <g stroke-linecap="butt" transform="matrix(2,0,0,2,238,996)" text-rendering="geometricPrecision" font-family="sans-serif" shape-rendering="geometricPrecision" font-weight="bold" stroke-miterlimit="1.45">
      <text x="397.8802" xml:space="preserve" y="-302.6657" clip-path="url(#clipPath2)" stroke="none">SituationalAggregate</text>
    </g>
    <g stroke-linecap="butt" transform="matrix(2,0,0,2,238,996)" fill="rgb(157,64,95)" text-rendering="geometricPrecision" shape-rendering="geometricPrecision" stroke="rgb(157,64,95)" stroke-miterlimit="1.45">
      <rect x="393.82" y="-317.3795" clip-path="url(#clipPath2)" fill="none" width="128.8" rx="4" ry="4" height="20"/>
      <rect stroke-linecap="square" x="373.82" y="-357.3795" clip-path="url(#clipPath2)" width="148.8" rx="4" ry="4" height="20" stroke="none" stroke-miterlimit="10"/>
    </g>
    <g stroke-linecap="butt" transform="matrix(2,0,0,2,238,996)" fill="white" text-rendering="geometricPrecision" font-family="sans-serif" shape-rendering="geometricPrecision" stroke="white" font-weight="bold" stroke-miterlimit="1.45">
      <text x="400.885" xml:space="preserve" y="-342.6657" clip-path="url(#clipPath2)" stroke="none">SituationalEntity</text>
    </g>
    <g stroke-linecap="butt" transform="matrix(2,0,0,2,238,996)" fill="rgb(157,64,95)" text-rendering="geometricPrecision" shape-rendering="geometricPrecision" stroke="rgb(157,64,95)" stroke-miterlimit="1.45">
      <rect x="373.82" y="-357.3795" clip-path="url(#clipPath2)" fill="none" width="148.8" rx="4" ry="4" height="20"/>
    </g>
    <g stroke-linecap="butt" transform="matrix(2,0,0,2,238,996)" text-rendering="geometricPrecision" font-family="sans-serif" shape-rendering="geometricPrecision" font-weight="bold" stroke-miterlimit="1.45">
      <text x="625.5514" xml:space="preserve" y="-262.6657" clip-path="url(#clipPath2)" stroke="none">Process</text>
    </g>
    <g stroke-linecap="butt" transform="matrix(2,0,0,2,238,996)" fill="rgb(247,149,29)" text-rendering="geometricPrecision" shape-rendering="geometricPrecision" stroke="rgb(247,149,29)" stroke-miterlimit="1.45">
      <rect x="582.901" y="-277.3795" clip-path="url(#clipPath2)" fill="none" width="132" rx="4" ry="4" height="20"/>
    </g>
    <g stroke-linecap="butt" transform="matrix(2,0,0,2,238,996)" text-rendering="geometricPrecision" font-family="sans-serif" shape-rendering="geometricPrecision" font-weight="bold" stroke-miterlimit="1.45">
      <text x="587.2106" xml:space="preserve" y="-302.6657" clip-path="url(#clipPath2)" stroke="none">ProcessualAggregate</text>
    </g>
    <g stroke-linecap="butt" transform="matrix(2,0,0,2,238,996)" fill="rgb(247,149,29)" text-rendering="geometricPrecision" shape-rendering="geometricPrecision" stroke="rgb(247,149,29)" stroke-miterlimit="1.45">
      <rect x="582.901" y="-317.3795" clip-path="url(#clipPath2)" fill="none" width="132" rx="4" ry="4" height="20"/>
      <rect stroke-linecap="square" x="562.901" y="-357.3795" clip-path="url(#clipPath2)" width="152" rx="4" ry="4" height="20" stroke="none" stroke-miterlimit="10"/>
    </g>
    <g stroke-linecap="butt" transform="matrix(2,0,0,2,238,996)" fill="white" text-rendering="geometricPrecision" font-family="sans-serif" shape-rendering="geometricPrecision" stroke="white" font-weight="bold" stroke-miterlimit="1.45">
      <text x="590.2155" xml:space="preserve" y="-342.6657" clip-path="url(#clipPath2)" stroke="none">ProcessualEntity</text>
    </g>
    <g stroke-linecap="butt" transform="matrix(2,0,0,2,238,996)" fill="rgb(247,149,29)" text-rendering="geometricPrecision" shape-rendering="geometricPrecision" stroke="rgb(247,149,29)" stroke-miterlimit="1.45">
      <rect x="562.901" y="-357.3795" clip-path="url(#clipPath2)" fill="none" width="152" rx="4" ry="4" height="20"/>
    </g>
  </g>
</svg>
