<?xml version="1.0" encoding="UTF-8"?><svg xmlns="http://www.w3.org/2000/svg" xmlns:xlink="http://www.w3.org/1999/xlink" fill-opacity="1" color-rendering="auto" color-interpolation="auto" text-rendering="auto" stroke="black" stroke-linecap="square" width="1338" stroke-miterlimit="10" shape-rendering="auto" stroke-opacity="1" fill="black" stroke-dasharray="none" font-weight="normal" stroke-width="1" height="1002" font-family="'Dialog'" font-style="normal" stroke-linejoin="miter" font-size="12px" stroke-dashoffset="0" image-rendering="auto">
  <!--Generated by ySVG 2.6-->
  <defs id="genericDefs"/>
  <g>
    <defs id="defs1">
      <clipPath clipPathUnits="userSpaceOnUse" id="clipPath1">
        <path d="M0 0 L1338 0 L1338 1002 L0 1002 L0 0 Z"/>
      </clipPath>
      <clipPath clipPathUnits="userSpaceOnUse" id="clipPath2">
        <path d="M256 -515 L925 -515 L925 -14 L256 -14 L256 -515 Z"/>
      </clipPath>
    </defs>
    <g fill="white" text-rendering="geometricPrecision" shape-rendering="geometricPrecision" transform="scale(2,2) translate(-256,515)" stroke="white">
      <rect x="256" width="669" height="501" y="-515" clip-path="url(#clipPath2)" stroke="none"/>
    </g>
    <g text-rendering="geometricPrecision" stroke-miterlimit="1.45" shape-rendering="geometricPrecision" transform="matrix(2,0,0,2,-512,1030)" stroke-linecap="butt">
      <path fill="none" d="M333.8689 -471.7408 L358.8381 -471.7408" clip-path="url(#clipPath2)"/>
      <path fill="white" d="M373.8381 -471.7408 L357.8381 -477.7408 L357.8381 -465.7408 Z" clip-path="url(#clipPath2)" stroke="none"/>
      <path fill="none" d="M373.8381 -471.7408 L357.8381 -477.7408 L357.8381 -465.7408 Z" clip-path="url(#clipPath2)"/>
      <path fill="none" d="M455.7133 -471.7408 L430.8411 -471.7408" clip-path="url(#clipPath2)"/>
      <path fill="white" d="M415.8411 -471.7408 L431.8411 -465.7408 L431.8411 -477.7408 Z" clip-path="url(#clipPath2)" stroke="none"/>
      <path fill="none" d="M415.8411 -471.7408 L431.8411 -465.7408 L431.8411 -477.7408 Z" clip-path="url(#clipPath2)"/>
      <path fill="none" d="M293.904 -461.7072 L293.904 -444.7421 L392.7047 -444.7421 L393.4122 -453.7726" clip-path="url(#clipPath2)"/>
      <path d="M394.037 -461.7481 L388.1151 -450.1753 L393.3341 -452.7756 L398.0845 -449.3943 Z" clip-path="url(#clipPath2)" stroke="none"/>
      <text x="305.614" xml:space="preserve" y="-449.3788" clip-path="url(#clipPath2)" font-family="sans-serif" stroke="none">instantiatedBy</text>
      <path fill="none" d="M303.904 -357.36 L303.904 -404 L414.7769 -404" clip-path="url(#clipPath2)"/>
      <path fill="white" d="M429.7769 -404 L413.7769 -410 L413.7769 -398 Z" clip-path="url(#clipPath2)" stroke="none"/>
      <path fill="none" d="M429.7769 -404 L413.7769 -410 L413.7769 -398 Z" clip-path="url(#clipPath2)"/>
      <path fill="none" d="M488.2355 -357.36 L488.2355 -379.0252" clip-path="url(#clipPath2)"/>
      <path fill="white" d="M488.2355 -394.0252 L482.2355 -378.0252 L494.2355 -378.0252 Z" clip-path="url(#clipPath2)" stroke="none"/>
      <path fill="none" d="M488.2355 -394.0252 L482.2355 -378.0252 L494.2355 -378.0252 Z" clip-path="url(#clipPath2)"/>
      <path fill="none" d="M709.067 -357.386 L709.067 -399 L561.7591 -399" clip-path="url(#clipPath2)"/>
      <path fill="white" d="M546.7591 -399 L562.7591 -393 L562.7591 -405 Z" clip-path="url(#clipPath2)" stroke="none"/>
      <path fill="none" d="M546.7591 -399 L562.7591 -393 L562.7591 -405 Z" clip-path="url(#clipPath2)"/>
      <path fill="none" d="M546.7582 -409 L858.4422 -409 L858.4422 -365.3989" clip-path="url(#clipPath2)"/>
      <path d="M858.4422 -357.3989 L863.4422 -369.3989 L858.4422 -366.3989 L853.4422 -369.3989 Z" clip-path="url(#clipPath2)" stroke="none"/>
      <rect x="682.1445" y="-418.3506" clip-path="url(#clipPath2)" fill="white" width="50.0137" height="18.7012" stroke="none"/>
      <text x="684.1445" xml:space="preserve" y="-404.2861" clip-path="url(#clipPath2)" font-family="sans-serif" stroke="none">hasTime</text>
      <path fill="none" d="M829.9395 -307.3795 L822.4422 -307.3795 L822.4422 -322.4186" clip-path="url(#clipPath2)"/>
      <path fill="white" d="M822.4422 -337.4186 L816.4422 -321.4186 L828.4422 -321.4186 Z" clip-path="url(#clipPath2)" stroke="none"/>
      <path fill="none" d="M822.4422 -337.4186 L816.4422 -321.4186 L828.4422 -321.4186 Z" clip-path="url(#clipPath2)"/>
      <path fill="none" d="M829.9395 -267.3795 L822.4422 -267.3795 L822.4422 -322.4186" clip-path="url(#clipPath2)"/>
      <path fill="white" d="M822.4422 -337.4186 L816.4422 -321.4186 L828.4422 -321.4186 Z" clip-path="url(#clipPath2)" stroke="none"/>
      <path fill="none" d="M822.4422 -337.4186 L816.4422 -321.4186 L828.4422 -321.4186 Z" clip-path="url(#clipPath2)"/>
      <path fill="none" d="M488.2355 -414.0222 L488.2355 -446.7359" clip-path="url(#clipPath2)"/>
      <path fill="white" d="M488.2355 -461.7359 L482.2355 -445.7359 L494.2355 -445.7359 Z" clip-path="url(#clipPath2)" stroke="none"/>
      <path fill="none" d="M488.2355 -461.7359 L482.2355 -445.7359 L494.2355 -445.7359 Z" clip-path="url(#clipPath2)"/>
      <path fill="none" d="M868.4422 -357.3766 L868.4422 -430.9471 L488.4855 -430.9471 L488.3887 -446.7419" clip-path="url(#clipPath2)"/>
      <path fill="white" d="M488.2968 -461.7416 L482.3949 -445.7051 L494.3947 -445.7787 Z" clip-path="url(#clipPath2)" stroke="none"/>
      <path fill="none" d="M488.2968 -461.7416 L482.3949 -445.7051 L494.3947 -445.7787 Z" clip-path="url(#clipPath2)"/>
      <path fill="none" d="M293.904 -357.3489 L293.904 -420.6205 L473.4855 -420.6205 L473.3237 -453.7065" clip-path="url(#clipPath2)"/>
      <path d="M473.2846 -461.7065 L468.3433 -449.6821 L473.3286 -452.7066 L478.3432 -449.731 Z" clip-path="url(#clipPath2)" stroke="none"/>
      <text x="261.7513" xml:space="preserve" y="-427.2572" clip-path="url(#clipPath2)" font-family="sans-serif" stroke="none">attributiveOf:qualityOf/relates/playedBy</text>
      <path fill="none" d="M488.2355 -481.7303 L488.2355 -491.0413 L578.9105 -491.0413 L578.9105 -471.7408 L528.7776 -471.7408" clip-path="url(#clipPath2)"/>
      <path d="M520.7776 -471.7408 L532.7776 -466.7408 L529.7776 -471.7408 L532.7776 -476.7408 Z" clip-path="url(#clipPath2)" stroke="none"/>
      <text x="473.2156" xml:space="preserve" y="-497.678" clip-path="url(#clipPath2)" font-family="sans-serif" stroke="none">temporallyRelatedWith</text>
      <text x="582.9105" xml:space="preserve" y="-476.6772" clip-path="url(#clipPath2)" font-family="sans-serif" stroke="none">hasPart</text>
      <path fill="none" d="M638.0893 -352.3795 L568.7112 -352.3795" clip-path="url(#clipPath2)"/>
      <path d="M560.7112 -352.3795 L572.7112 -347.3795 L569.7112 -352.3795 L572.7112 -357.3795 Z" clip-path="url(#clipPath2)" stroke="none"/>
      <text x="563.7147" xml:space="preserve" y="-359.0163" clip-path="url(#clipPath2)" font-family="sans-serif" stroke="none">participatesIn</text>
      <path fill="none" d="M430.705 -307.3795 L423.2355 -307.3795 L423.2355 -322.4186" clip-path="url(#clipPath2)"/>
      <path fill="white" d="M423.2355 -337.4186 L417.2355 -321.4186 L429.2355 -321.4186 Z" clip-path="url(#clipPath2)" stroke="none"/>
      <path fill="none" d="M423.2355 -337.4186 L417.2355 -321.4186 L429.2355 -321.4186 Z" clip-path="url(#clipPath2)"/>
      <path fill="none" d="M430.705 -187.3795 L423.2355 -187.3795 L423.2355 -322.4186" clip-path="url(#clipPath2)"/>
      <path fill="white" d="M423.2355 -337.4186 L417.2355 -321.4186 L429.2355 -321.4186 Z" clip-path="url(#clipPath2)" stroke="none"/>
      <path fill="none" d="M423.2355 -337.4186 L417.2355 -321.4186 L429.2355 -321.4186 Z" clip-path="url(#clipPath2)"/>
      <path fill="none" d="M495.7355 -325.4186 L495.7355 -337.4023" clip-path="url(#clipPath2)"/>
      <path d="M495.7355 -317.4186 L500.7355 -329.4186 L495.7355 -326.4186 L490.7355 -329.4186 Z" clip-path="url(#clipPath2)" stroke="none"/>
      <text x="501.7355" xml:space="preserve" y="-322.6657" clip-path="url(#clipPath2)" font-family="sans-serif" stroke="none">hasStaticPart</text>
      <path fill="none" d="M478.2355 -357.3882 L478.2355 -374 L420.2355 -374 L420.2355 -365.3882" clip-path="url(#clipPath2)"/>
      <path d="M420.2355 -357.3882 L425.2355 -369.3882 L420.2355 -366.3882 L415.2355 -369.3882 Z" clip-path="url(#clipPath2)" stroke="none"/>
      <text x="393.9001" xml:space="preserve" y="-378.6367" clip-path="url(#clipPath2)" font-family="sans-serif" stroke="none">leadsTo/causes</text>
      <path fill="none" d="M338.3888 -227.3795 L375 -227.3795 L375 -342.3795 L407.7216 -342.3795" clip-path="url(#clipPath2)"/>
      <path d="M415.7216 -342.3795 L403.7216 -347.3795 L406.7216 -342.3795 L403.7216 -337.3795 Z" clip-path="url(#clipPath2)" stroke="none"/>
      <rect x="357.9912" y="-294.2301" clip-path="url(#clipPath2)" fill="white" width="34.0176" height="18.7012" stroke="none"/>
      <text x="359.9912" xml:space="preserve" y="-280.1657" clip-path="url(#clipPath2)" font-family="sans-serif" stroke="none">roleIn</text>
      <path fill="none" d="M724.067 -89.4186 L724.067 -77.3828" clip-path="url(#clipPath2)"/>
      <path d="M724.067 -97.4186 L719.067 -85.4186 L724.067 -88.4186 L729.067 -85.4186 Z" clip-path="url(#clipPath2)" stroke="none"/>
      <text x="730.067" xml:space="preserve" y="-82.6657" clip-path="url(#clipPath2)" font-family="sans-serif" stroke="none">boundaryOf</text>
      <path fill="none" d="M653.09 -307.3795 L645.567 -307.3795 L645.567 -322.4186" clip-path="url(#clipPath2)"/>
      <path fill="white" d="M645.567 -337.4186 L639.567 -321.4186 L651.567 -321.4186 Z" clip-path="url(#clipPath2)" stroke="none"/>
      <path fill="none" d="M645.567 -337.4186 L639.567 -321.4186 L651.567 -321.4186 Z" clip-path="url(#clipPath2)"/>
      <path fill="none" d="M653.09 -227.3795 L645.567 -227.3795 L645.567 -322.3893" clip-path="url(#clipPath2)"/>
      <path fill="white" d="M645.567 -337.3893 L639.567 -321.3893 L651.567 -321.3893 Z" clip-path="url(#clipPath2)" stroke="none"/>
      <path fill="none" d="M645.567 -337.3893 L639.567 -321.3893 L651.567 -321.3893 Z" clip-path="url(#clipPath2)"/>
      <path fill="none" d="M653.09 -147.3795 L645.567 -147.3795 L645.567 -322.3698" clip-path="url(#clipPath2)"/>
      <path fill="white" d="M645.567 -337.3698 L639.567 -321.3698 L651.567 -321.3698 Z" clip-path="url(#clipPath2)" stroke="none"/>
      <path fill="none" d="M645.567 -337.3698 L639.567 -321.3698 L651.567 -321.3698 Z" clip-path="url(#clipPath2)"/>
      <path fill="none" d="M653.09 -267.3795 L645.567 -267.3795 L645.567 -322.4186" clip-path="url(#clipPath2)"/>
      <path fill="white" d="M645.567 -337.4186 L639.567 -321.4186 L651.567 -321.4186 Z" clip-path="url(#clipPath2)" stroke="none"/>
      <path fill="none" d="M645.567 -337.4186 L639.567 -321.4186 L651.567 -321.4186 Z" clip-path="url(#clipPath2)"/>
      <path fill="none" d="M311.404 -217.4127 L311.404 -80 L605.536 -80 L605.536 -342.3795 L630.0664 -342.3795" clip-path="url(#clipPath2)"/>
      <path d="M638.0664 -342.3795 L626.0664 -347.3795 L629.0664 -342.3795 L626.0664 -337.3795 Z" clip-path="url(#clipPath2)" stroke="none"/>
      <rect x="441.4612" y="-89.3506" clip-path="url(#clipPath2)" fill="white" width="34.0176" height="18.7012" stroke="none"/>
      <text x="443.4612" xml:space="preserve" y="-75.2861" clip-path="url(#clipPath2)" font-family="sans-serif" stroke="none">roleIn</text>
      <path fill="none" d="M668.0394 -107.3795 L660.567 -107.3795 L660.567 -122.4186" clip-path="url(#clipPath2)"/>
      <path fill="white" d="M660.567 -137.4186 L654.567 -121.4186 L666.567 -121.4186 Z" clip-path="url(#clipPath2)" stroke="none"/>
      <path fill="none" d="M660.567 -137.4186 L654.567 -121.4186 L666.567 -121.4186 Z" clip-path="url(#clipPath2)"/>
      <path fill="none" d="M668.0394 -67.3795 L660.567 -67.3795 L660.567 -122.4186" clip-path="url(#clipPath2)"/>
      <path fill="white" d="M660.567 -137.4186 L654.567 -121.4186 L666.567 -121.4186 Z" clip-path="url(#clipPath2)" stroke="none"/>
      <path fill="none" d="M660.567 -137.4186 L654.567 -121.4186 L666.567 -121.4186 Z" clip-path="url(#clipPath2)"/>
      <path fill="none" d="M668.0394 -27.3795 L660.567 -27.3795 L660.567 -122.3893" clip-path="url(#clipPath2)"/>
      <path fill="white" d="M660.567 -137.3893 L654.567 -121.3893 L666.567 -121.3893 Z" clip-path="url(#clipPath2)" stroke="none"/>
      <path fill="none" d="M660.567 -137.3893 L654.567 -121.3893 L666.567 -121.3893 Z" clip-path="url(#clipPath2)"/>
      <path fill="none" d="M701.567 -317.3864 L701.567 -328.464 L797.4422 -328.464 L797.4422 -312.3795 L788.1062 -312.3795" clip-path="url(#clipPath2)"/>
      <path d="M780.1062 -312.3795 L792.1062 -307.3795 L789.1062 -312.3795 L792.1062 -317.3795 Z" clip-path="url(#clipPath2)" stroke="none"/>
      <rect x="715.8259" y="-337.8146" clip-path="url(#clipPath2)" fill="white" width="67.3574" height="18.7012" stroke="none"/>
      <text x="717.8259" xml:space="preserve" y="-323.7501" clip-path="url(#clipPath2)" font-family="sans-serif" stroke="none">hasMember</text>
      <path fill="none" d="M724.067 -49.4186 L724.067 -37.3828" clip-path="url(#clipPath2)"/>
      <path d="M724.067 -57.4186 L719.067 -45.4186 L724.067 -48.4186 L729.067 -45.4186 Z" clip-path="url(#clipPath2)" stroke="none"/>
      <text x="730.067" xml:space="preserve" y="-42.6657" clip-path="url(#clipPath2)" font-family="sans-serif" stroke="none">boundaryOf</text>
      <path fill="none" d="M780.0555 -147.3795 L794.9422 -147.3795 L794.9422 -220.3795 L787.9025 -220.3795" clip-path="url(#clipPath2)"/>
      <path d="M779.9025 -220.3795 L791.9025 -215.3795 L788.9025 -220.3795 L791.9025 -225.3795 Z" clip-path="url(#clipPath2)" stroke="none"/>
      <text x="735.1183" xml:space="preserve" y="-162.8333" clip-path="url(#clipPath2)" font-family="sans-serif" stroke="none">hasOwner</text>
      <path fill="none" d="M780.0982 -107.3795 L806.0912 -107.3795 L806.0912 -227.3795 L788.082 -227.3795" clip-path="url(#clipPath2)"/>
      <path d="M780.082 -227.3795 L792.082 -222.3795 L789.082 -227.3795 L792.082 -232.3795 Z" clip-path="url(#clipPath2)" stroke="none"/>
      <rect x="772.7377" y="-137.3207" clip-path="url(#clipPath2)" fill="white" width="66.707" height="18.7012" stroke="none"/>
      <text x="774.7377" xml:space="preserve" y="-123.2563" clip-path="url(#clipPath2)" font-family="sans-serif" stroke="none">boundaryOf</text>
      <path fill="none" d="M716.567 -257.4186 L716.567 -245.3828" clip-path="url(#clipPath2)"/>
      <path d="M716.567 -237.3828 L721.567 -249.3828 L716.567 -246.3828 L711.567 -249.3828 Z" clip-path="url(#clipPath2)" stroke="none"/>
      <text x="722.567" xml:space="preserve" y="-242.6657" clip-path="url(#clipPath2)" font-family="sans-serif" stroke="none">partOf</text>
      <path fill="none" d="M780.0555 -302.3795 L794.9422 -302.3795 L794.9422 -234.3795 L787.9025 -234.3795" clip-path="url(#clipPath2)"/>
      <path d="M779.9025 -234.3795 L791.9025 -229.3795 L788.9025 -234.3795 L791.9025 -239.3795 Z" clip-path="url(#clipPath2)" stroke="none"/>
      <text x="728.6603" xml:space="preserve" y="-285.0809" clip-path="url(#clipPath2)" font-family="sans-serif" stroke="none">hasMember</text>
      <path fill="none" d="M668.0394 -187.3795 L660.567 -187.3795 L660.567 -202.4186" clip-path="url(#clipPath2)"/>
      <path fill="white" d="M660.567 -217.4186 L654.567 -201.4186 L666.567 -201.4186 Z" clip-path="url(#clipPath2)" stroke="none"/>
      <path fill="none" d="M660.567 -217.4186 L654.567 -201.4186 L666.567 -201.4186 Z" clip-path="url(#clipPath2)"/>
      <path fill="none" d="M311.404 -237.4186 L311.404 -249.4023" clip-path="url(#clipPath2)"/>
      <path d="M311.404 -257.4023 L306.404 -245.4023 L311.404 -248.4023 L316.404 -245.4023 Z" clip-path="url(#clipPath2)" stroke="none"/>
      <text x="317.404" xml:space="preserve" y="-242.6657" clip-path="url(#clipPath2)" font-family="sans-serif" stroke="none">roleIn</text>
      <path fill="none" d="M415.736 -352.3795 L346.3874 -352.3795" clip-path="url(#clipPath2)"/>
      <path d="M338.3874 -352.3795 L350.3874 -347.3795 L347.3874 -352.3795 L350.3874 -357.3795 Z" clip-path="url(#clipPath2)" stroke="none"/>
      <text x="341.3862" xml:space="preserve" y="-357.0163" clip-path="url(#clipPath2)" font-family="sans-serif" stroke="none">hasStaticPart</text>
      <path fill="none" d="M284.4172 -227.3795 L276.904 -227.3795 L276.904 -322.3893" clip-path="url(#clipPath2)"/>
      <path fill="white" d="M276.904 -337.3893 L270.904 -321.3893 L282.904 -321.3893 Z" clip-path="url(#clipPath2)" stroke="none"/>
      <path fill="none" d="M276.904 -337.3893 L270.904 -321.3893 L282.904 -321.3893 Z" clip-path="url(#clipPath2)"/>
      <path fill="none" d="M284.4172 -307.3795 L276.904 -307.3795 L276.904 -322.4186" clip-path="url(#clipPath2)"/>
      <path fill="white" d="M276.904 -337.4186 L270.904 -321.4186 L282.904 -321.4186 Z" clip-path="url(#clipPath2)" stroke="none"/>
      <path fill="none" d="M276.904 -337.4186 L270.904 -321.4186 L282.904 -321.4186 Z" clip-path="url(#clipPath2)"/>
      <path fill="none" d="M284.4172 -267.3795 L276.904 -267.3795 L276.904 -322.4186" clip-path="url(#clipPath2)"/>
      <path fill="white" d="M276.904 -337.4186 L270.904 -321.4186 L282.904 -321.4186 Z" clip-path="url(#clipPath2)" stroke="none"/>
      <path fill="none" d="M276.904 -337.4186 L270.904 -321.4186 L282.904 -321.4186 Z" clip-path="url(#clipPath2)"/>
      <path fill="none" d="M445.7575 -267.3795 L438.2355 -267.3795 L438.2355 -282.4186" clip-path="url(#clipPath2)"/>
      <path fill="white" d="M438.2355 -297.4186 L432.2355 -281.4186 L444.2355 -281.4186 Z" clip-path="url(#clipPath2)" stroke="none"/>
      <path fill="none" d="M438.2355 -297.4186 L432.2355 -281.4186 L444.2355 -281.4186 Z" clip-path="url(#clipPath2)"/>
      <path fill="none" d="M445.7575 -227.3795 L438.2355 -227.3795 L438.2355 -282.4186" clip-path="url(#clipPath2)"/>
      <path fill="white" d="M438.2355 -297.4186 L432.2355 -281.4186 L444.2355 -281.4186 Z" clip-path="url(#clipPath2)" stroke="none"/>
      <path fill="none" d="M438.2355 -297.4186 L432.2355 -281.4186 L444.2355 -281.4186 Z" clip-path="url(#clipPath2)"/>
      <path fill="none" d="M503.2355 -277.4186 L503.2355 -289.4023" clip-path="url(#clipPath2)"/>
      <path d="M503.2355 -297.4023 L498.2355 -285.4023 L503.2355 -288.4023 L508.2355 -285.4023 Z" clip-path="url(#clipPath2)" stroke="none"/>
      <text x="509.2355" xml:space="preserve" y="-282.6657" clip-path="url(#clipPath2)" font-family="sans-serif" stroke="none">hasMember</text>
      <path fill="none" d="M465.7355 -197.3628 L465.7355 -207.2685 L587.4798 -207.2685 L587.4798 -187.3795 L568.736 -187.3795" clip-path="url(#clipPath2)"/>
      <path d="M560.736 -187.3795 L572.736 -182.3795 L569.736 -187.3795 L572.736 -192.3795 Z" clip-path="url(#clipPath2)" stroke="none"/>
      <rect x="480.592" y="-216.6191" clip-path="url(#clipPath2)" fill="white" width="92.0312" height="18.7012" stroke="none"/>
      <text x="482.592" xml:space="preserve" y="-202.5546" clip-path="url(#clipPath2)" font-family="sans-serif" stroke="none">hasDynamicPart</text>
      <path fill="none" d="M445.7575 -147.3795 L438.2355 -147.3795 L438.2355 -162.4186" clip-path="url(#clipPath2)"/>
      <path fill="white" d="M438.2355 -177.4186 L432.2355 -161.4186 L444.2355 -161.4186 Z" clip-path="url(#clipPath2)" stroke="none"/>
      <path fill="none" d="M438.2355 -177.4186 L432.2355 -161.4186 L444.2355 -161.4186 Z" clip-path="url(#clipPath2)"/>
      <path fill="none" d="M445.7575 -107.3795 L438.2355 -107.3795 L438.2355 -162.4186" clip-path="url(#clipPath2)"/>
      <path fill="white" d="M438.2355 -177.4186 L432.2355 -161.4186 L444.2355 -161.4186 Z" clip-path="url(#clipPath2)" stroke="none"/>
      <path fill="none" d="M438.2355 -177.4186 L432.2355 -161.4186 L444.2355 -161.4186 Z" clip-path="url(#clipPath2)"/>
      <path fill="none" d="M503.2355 -157.4186 L503.2355 -169.4023" clip-path="url(#clipPath2)"/>
      <path d="M503.2355 -177.4023 L498.2355 -165.4023 L503.2355 -168.4023 L508.2355 -165.4023 Z" clip-path="url(#clipPath2)" stroke="none"/>
      <text x="509.2355" xml:space="preserve" y="-162.6657" clip-path="url(#clipPath2)" font-family="sans-serif" stroke="none">hasMember</text>
    </g>
    <g fill="rgb(150,150,150)" text-rendering="geometricPrecision" shape-rendering="geometricPrecision" transform="matrix(2,0,0,2,-512,1030)" stroke="rgb(150,150,150)">
      <rect x="273.904" y="-481.7408" clip-path="url(#clipPath2)" width="60" rx="4" ry="4" height="20" stroke="none"/>
    </g>
    <g stroke-linecap="butt" transform="matrix(2,0,0,2,-512,1030)" fill="white" text-rendering="geometricPrecision" font-family="sans-serif" shape-rendering="geometricPrecision" stroke="white" font-weight="bold" stroke-miterlimit="1.45">
      <text x="277.8972" xml:space="preserve" y="-467.0269" clip-path="url(#clipPath2)" stroke="none">Category</text>
    </g>
    <g stroke-linecap="butt" transform="matrix(2,0,0,2,-512,1030)" fill="rgb(150,150,150)" text-rendering="geometricPrecision" shape-rendering="geometricPrecision" stroke="rgb(150,150,150)" stroke-miterlimit="1.45">
      <rect x="273.904" y="-481.7408" clip-path="url(#clipPath2)" fill="none" width="60" rx="4" ry="4" height="20"/>
      <rect stroke-linecap="square" x="373.8198" y="-481.7408" clip-path="url(#clipPath2)" width="42" rx="4" ry="4" height="20" stroke="none" stroke-miterlimit="10"/>
    </g>
    <g stroke-linecap="butt" transform="matrix(2,0,0,2,-512,1030)" fill="white" text-rendering="geometricPrecision" font-family="sans-serif" shape-rendering="geometricPrecision" stroke="white" font-weight="bold" stroke-miterlimit="1.45">
      <text x="378.1528" xml:space="preserve" y="-467.0269" clip-path="url(#clipPath2)" stroke="none">Entity</text>
    </g>
    <g stroke-linecap="butt" transform="matrix(2,0,0,2,-512,1030)" fill="rgb(150,150,150)" text-rendering="geometricPrecision" shape-rendering="geometricPrecision" stroke="rgb(150,150,150)" stroke-miterlimit="1.45">
      <rect x="373.8198" y="-481.7408" clip-path="url(#clipPath2)" fill="none" width="42" rx="4" ry="4" height="20"/>
      <rect stroke-linecap="square" x="429.7355" y="-414" clip-path="url(#clipPath2)" width="117" rx="4" ry="4" height="20" stroke="none" stroke-miterlimit="10"/>
    </g>
    <g stroke-linecap="butt" transform="matrix(2,0,0,2,-512,1030)" fill="white" text-rendering="geometricPrecision" font-family="sans-serif" shape-rendering="geometricPrecision" stroke="white" font-weight="bold" stroke-miterlimit="1.45">
      <text x="434.2267" xml:space="preserve" y="-399.2861" clip-path="url(#clipPath2)" stroke="none">ConcreteIndividual</text>
    </g>
    <g stroke-linecap="butt" transform="matrix(2,0,0,2,-512,1030)" fill="rgb(150,150,150)" text-rendering="geometricPrecision" shape-rendering="geometricPrecision" stroke="rgb(150,150,150)" stroke-miterlimit="1.45">
      <rect x="429.7355" y="-414" clip-path="url(#clipPath2)" fill="none" width="117" rx="4" ry="4" height="20"/>
    </g>
    <g fill="rgb(43,138,132)" text-rendering="geometricPrecision" shape-rendering="geometricPrecision" transform="matrix(2,0,0,2,-512,1030)" stroke="rgb(43,138,132)">
      <rect x="814.9422" y="-357.3795" clip-path="url(#clipPath2)" width="107" rx="4" ry="4" height="20" stroke="none"/>
    </g>
    <g stroke-linecap="butt" transform="matrix(2,0,0,2,-512,1030)" fill="white" text-rendering="geometricPrecision" font-family="sans-serif" shape-rendering="geometricPrecision" stroke="white" font-weight="bold" stroke-miterlimit="1.45">
      <text x="837.7713" xml:space="preserve" y="-342.6657" clip-path="url(#clipPath2)" stroke="none">TimeEntity</text>
    </g>
    <g stroke-linecap="butt" transform="matrix(2,0,0,2,-512,1030)" fill="rgb(43,138,132)" text-rendering="geometricPrecision" shape-rendering="geometricPrecision" stroke="rgb(43,138,132)" stroke-miterlimit="1.45">
      <rect x="814.9422" y="-357.3795" clip-path="url(#clipPath2)" fill="none" width="107" rx="4" ry="4" height="20"/>
    </g>
    <g fill="rgb(150,150,150)" text-rendering="geometricPrecision" shape-rendering="geometricPrecision" transform="matrix(2,0,0,2,-512,1030)" stroke="rgb(150,150,150)">
      <rect x="455.7355" y="-481.7408" clip-path="url(#clipPath2)" width="65" rx="4" ry="4" height="20" stroke="none"/>
    </g>
    <g stroke-linecap="butt" transform="matrix(2,0,0,2,-512,1030)" fill="white" text-rendering="geometricPrecision" font-family="sans-serif" shape-rendering="geometricPrecision" stroke="white" font-weight="bold" stroke-miterlimit="1.45">
      <text x="460.2336" xml:space="preserve" y="-467.0269" clip-path="url(#clipPath2)" stroke="none">Individual</text>
    </g>
    <g stroke-linecap="butt" transform="matrix(2,0,0,2,-512,1030)" fill="rgb(150,150,150)" text-rendering="geometricPrecision" shape-rendering="geometricPrecision" stroke="rgb(150,150,150)" stroke-miterlimit="1.45">
      <rect x="455.7355" y="-481.7408" clip-path="url(#clipPath2)" fill="none" width="65" rx="4" ry="4" height="20"/>
    </g>
    <g fill="rgb(43,138,132)" text-rendering="geometricPrecision" shape-rendering="geometricPrecision" transform="matrix(2,0,0,2,-512,1030)" stroke="rgb(43,138,132)">
      <rect x="829.9422" y="-317.3795" clip-path="url(#clipPath2)" width="92" rx="4" ry="4" height="20" stroke="none"/>
    </g>
    <g stroke-linecap="butt" transform="matrix(2,0,0,2,-512,1030)" fill="white" text-rendering="geometricPrecision" font-family="sans-serif" shape-rendering="geometricPrecision" stroke="white" font-weight="bold" stroke-miterlimit="1.45">
      <text x="833.9363" xml:space="preserve" y="-302.6657" clip-path="url(#clipPath2)" stroke="none">TimeBoundary</text>
    </g>
    <g stroke-linecap="butt" transform="matrix(2,0,0,2,-512,1030)" fill="rgb(43,138,132)" text-rendering="geometricPrecision" shape-rendering="geometricPrecision" stroke="rgb(43,138,132)" stroke-miterlimit="1.45">
      <rect x="829.9422" y="-317.3795" clip-path="url(#clipPath2)" fill="none" width="92" rx="4" ry="4" height="20"/>
      <rect stroke-linecap="square" x="829.9422" y="-277.3795" clip-path="url(#clipPath2)" width="92" rx="4" ry="4" height="20" stroke="none" stroke-miterlimit="10"/>
    </g>
    <g stroke-linecap="butt" transform="matrix(2,0,0,2,-512,1030)" fill="white" text-rendering="geometricPrecision" font-family="sans-serif" shape-rendering="geometricPrecision" stroke="white" font-weight="bold" stroke-miterlimit="1.45">
      <text x="849.282" xml:space="preserve" y="-262.6657" clip-path="url(#clipPath2)" stroke="none">Chronoid</text>
    </g>
    <g stroke-linecap="butt" transform="matrix(2,0,0,2,-512,1030)" fill="rgb(43,138,132)" text-rendering="geometricPrecision" shape-rendering="geometricPrecision" stroke="rgb(43,138,132)" stroke-miterlimit="1.45">
      <rect x="829.9422" y="-277.3795" clip-path="url(#clipPath2)" fill="none" width="92" rx="4" ry="4" height="20"/>
    </g>
    <g fill="rgb(157,64,95)" text-rendering="geometricPrecision" shape-rendering="geometricPrecision" transform="matrix(2,0,0,2,-512,1030)" stroke="rgb(157,64,95)">
      <rect x="415.7355" y="-357.3795" clip-path="url(#clipPath2)" width="145" rx="4" ry="4" height="20" stroke="none"/>
    </g>
    <g stroke-linecap="butt" transform="matrix(2,0,0,2,-512,1030)" fill="white" text-rendering="geometricPrecision" font-family="sans-serif" shape-rendering="geometricPrecision" stroke="white" font-weight="bold" stroke-miterlimit="1.45">
      <text x="462.5714" xml:space="preserve" y="-342.6657" clip-path="url(#clipPath2)" stroke="none">Situation</text>
    </g>
    <g stroke-linecap="butt" transform="matrix(2,0,0,2,-512,1030)" fill="rgb(157,64,95)" text-rendering="geometricPrecision" shape-rendering="geometricPrecision" stroke="rgb(157,64,95)" stroke-miterlimit="1.45">
      <rect x="415.7355" y="-357.3795" clip-path="url(#clipPath2)" fill="none" width="145" rx="4" ry="4" height="20"/>
    </g>
    <g stroke-linecap="butt" transform="matrix(2,0,0,2,-512,1030)" text-rendering="geometricPrecision" font-family="sans-serif" shape-rendering="geometricPrecision" font-weight="bold" stroke-miterlimit="1.45">
      <text x="711.733" xml:space="preserve" y="-62.6657" clip-path="url(#clipPath2)" stroke="none">Line</text>
    </g>
    <g stroke-linecap="butt" transform="matrix(2,0,0,2,-512,1030)" fill="rgb(243,101,35)" text-rendering="geometricPrecision" shape-rendering="geometricPrecision" stroke="rgb(243,101,35)" stroke-miterlimit="1.45">
      <rect x="668.067" y="-77.3795" clip-path="url(#clipPath2)" fill="none" width="112" rx="4" ry="4" height="20"/>
      <rect stroke-linecap="square" x="638.067" y="-357.3795" clip-path="url(#clipPath2)" width="142" rx="4" ry="4" height="20" stroke="none" stroke-miterlimit="10"/>
    </g>
    <g stroke-linecap="butt" transform="matrix(2,0,0,2,-512,1030)" fill="white" text-rendering="geometricPrecision" font-family="sans-serif" shape-rendering="geometricPrecision" stroke="white" font-weight="bold" stroke-miterlimit="1.45">
      <text x="677.4088" xml:space="preserve" y="-342.6657" clip-path="url(#clipPath2)" stroke="none">Continuant</text>
    </g>
    <g stroke-linecap="butt" transform="matrix(2,0,0,2,-512,1030)" fill="rgb(243,101,35)" text-rendering="geometricPrecision" shape-rendering="geometricPrecision" stroke="rgb(243,101,35)" stroke-miterlimit="1.45">
      <rect x="638.067" y="-357.3795" clip-path="url(#clipPath2)" fill="none" width="142" rx="4" ry="4" height="20"/>
    </g>
    <g stroke-linecap="butt" transform="matrix(2,0,0,2,-512,1030)" text-rendering="geometricPrecision" font-family="sans-serif" shape-rendering="geometricPrecision" font-weight="bold" stroke-miterlimit="1.45">
      <text x="669.8942" xml:space="preserve" y="-142.6657" clip-path="url(#clipPath2)" stroke="none">ObjectBoundary</text>
    </g>
    <g stroke-linecap="butt" transform="matrix(2,0,0,2,-512,1030)" fill="rgb(243,101,35)" text-rendering="geometricPrecision" shape-rendering="geometricPrecision" stroke="rgb(243,101,35)" stroke-miterlimit="1.45">
      <rect x="653.067" y="-157.3795" clip-path="url(#clipPath2)" fill="none" width="127" rx="4" ry="4" height="20"/>
    </g>
    <g stroke-linecap="butt" transform="matrix(2,0,0,2,-512,1030)" text-rendering="geometricPrecision" font-family="sans-serif" shape-rendering="geometricPrecision" font-weight="bold" stroke-miterlimit="1.45">
      <text x="668.2242" xml:space="preserve" y="-302.6657" clip-path="url(#clipPath2)" stroke="none">ObjectAggregate</text>
    </g>
    <g stroke-linecap="butt" transform="matrix(2,0,0,2,-512,1030)" fill="rgb(243,101,35)" text-rendering="geometricPrecision" shape-rendering="geometricPrecision" stroke="rgb(243,101,35)" stroke-miterlimit="1.45">
      <rect x="653.067" y="-317.3795" clip-path="url(#clipPath2)" fill="none" width="127" rx="4" ry="4" height="20"/>
    </g>
    <g stroke-linecap="butt" transform="matrix(2,0,0,2,-512,1030)" text-rendering="geometricPrecision" font-family="sans-serif" shape-rendering="geometricPrecision" font-weight="bold" stroke-miterlimit="1.45">
      <text x="709.0699" xml:space="preserve" y="-22.6657" clip-path="url(#clipPath2)" stroke="none">Point</text>
    </g>
    <g stroke-linecap="butt" transform="matrix(2,0,0,2,-512,1030)" fill="rgb(243,101,35)" text-rendering="geometricPrecision" shape-rendering="geometricPrecision" stroke="rgb(243,101,35)" stroke-miterlimit="1.45">
      <rect x="668.067" y="-37.3795" clip-path="url(#clipPath2)" fill="none" width="112" rx="4" ry="4" height="20"/>
    </g>
    <g stroke-linecap="butt" transform="matrix(2,0,0,2,-512,1030)" text-rendering="geometricPrecision" font-family="sans-serif" shape-rendering="geometricPrecision" font-weight="bold" stroke-miterlimit="1.45">
      <text x="697.8961" xml:space="preserve" y="-222.6657" clip-path="url(#clipPath2)" stroke="none">Object</text>
    </g>
    <g stroke-linecap="butt" transform="matrix(2,0,0,2,-512,1030)" fill="rgb(243,101,35)" text-rendering="geometricPrecision" shape-rendering="geometricPrecision" stroke="rgb(243,101,35)" stroke-miterlimit="1.45">
      <rect x="653.067" y="-237.3795" clip-path="url(#clipPath2)" fill="none" width="127" rx="4" ry="4" height="20"/>
    </g>
    <g stroke-linecap="butt" transform="matrix(2,0,0,2,-512,1030)" text-rendering="geometricPrecision" font-family="sans-serif" shape-rendering="geometricPrecision" font-weight="bold" stroke-miterlimit="1.45">
      <text x="702.0563" xml:space="preserve" y="-102.6657" clip-path="url(#clipPath2)" stroke="none">Surface</text>
    </g>
    <g stroke-linecap="butt" transform="matrix(2,0,0,2,-512,1030)" fill="rgb(243,101,35)" text-rendering="geometricPrecision" shape-rendering="geometricPrecision" stroke="rgb(243,101,35)" stroke-miterlimit="1.45">
      <rect x="668.067" y="-117.3795" clip-path="url(#clipPath2)" fill="none" width="112" rx="4" ry="4" height="20"/>
    </g>
    <g stroke-linecap="butt" transform="matrix(2,0,0,2,-512,1030)" text-rendering="geometricPrecision" font-family="sans-serif" shape-rendering="geometricPrecision" font-weight="bold" stroke-miterlimit="1.45">
      <text x="686.2242" xml:space="preserve" y="-262.6657" clip-path="url(#clipPath2)" stroke="none">ObjectPart</text>
    </g>
    <g stroke-linecap="butt" transform="matrix(2,0,0,2,-512,1030)" fill="rgb(243,101,35)" text-rendering="geometricPrecision" shape-rendering="geometricPrecision" stroke="rgb(243,101,35)" stroke-miterlimit="1.45">
      <rect x="653.067" y="-277.3795" clip-path="url(#clipPath2)" fill="none" width="127" rx="4" ry="4" height="20"/>
    </g>
    <g stroke-linecap="butt" transform="matrix(2,0,0,2,-512,1030)" text-rendering="geometricPrecision" font-family="sans-serif" shape-rendering="geometricPrecision" font-weight="bold" stroke-miterlimit="1.45">
      <text x="672.399" xml:space="preserve" y="-182.6657" clip-path="url(#clipPath2)" stroke="none">InformationObject</text>
    </g>
    <g stroke-linecap="butt" transform="matrix(2,0,0,2,-512,1030)" fill="rgb(243,101,35)" text-rendering="geometricPrecision" shape-rendering="geometricPrecision" stroke="rgb(243,101,35)" stroke-miterlimit="1.45">
      <rect x="668.067" y="-197.3795" clip-path="url(#clipPath2)" fill="none" width="112" rx="4" ry="4" height="20"/>
    </g>
    <g stroke-linecap="butt" transform="matrix(2,0,0,2,-512,1030)" text-rendering="geometricPrecision" font-family="sans-serif" shape-rendering="geometricPrecision" font-weight="bold" stroke-miterlimit="1.45">
      <text x="290.7321" xml:space="preserve" y="-262.6657" clip-path="url(#clipPath2)" stroke="none">Relator</text>
    </g>
    <g stroke-linecap="butt" transform="matrix(2,0,0,2,-512,1030)" fill="rgb(73,114,136)" text-rendering="geometricPrecision" shape-rendering="geometricPrecision" stroke="rgb(73,114,136)" stroke-miterlimit="1.45">
      <rect x="284.404" y="-277.3795" clip-path="url(#clipPath2)" fill="none" width="54" rx="4" ry="4" height="20"/>
    </g>
    <g stroke-linecap="butt" transform="matrix(2,0,0,2,-512,1030)" text-rendering="geometricPrecision" font-family="sans-serif" shape-rendering="geometricPrecision" font-weight="bold" stroke-miterlimit="1.45">
      <text x="298.402" xml:space="preserve" y="-222.6657" clip-path="url(#clipPath2)" stroke="none">Role</text>
    </g>
    <g stroke-linecap="butt" transform="matrix(2,0,0,2,-512,1030)" fill="rgb(73,114,136)" text-rendering="geometricPrecision" shape-rendering="geometricPrecision" stroke="rgb(73,114,136)" stroke-miterlimit="1.45">
      <rect x="284.404" y="-237.3795" clip-path="url(#clipPath2)" fill="none" width="54" rx="4" ry="4" height="20"/>
    </g>
    <g stroke-linecap="butt" transform="matrix(2,0,0,2,-512,1030)" text-rendering="geometricPrecision" font-family="sans-serif" shape-rendering="geometricPrecision" font-weight="bold" stroke-miterlimit="1.45">
      <text x="291.0661" xml:space="preserve" y="-302.6657" clip-path="url(#clipPath2)" stroke="none">Quality</text>
    </g>
    <g stroke-linecap="butt" transform="matrix(2,0,0,2,-512,1030)" fill="rgb(73,114,136)" text-rendering="geometricPrecision" shape-rendering="geometricPrecision" stroke="rgb(73,114,136)" stroke-miterlimit="1.45">
      <rect x="284.404" y="-317.3795" clip-path="url(#clipPath2)" fill="none" width="54" rx="4" ry="4" height="20"/>
      <rect stroke-linecap="square" x="269.404" y="-357.3795" clip-path="url(#clipPath2)" width="69" rx="4" ry="4" height="20" stroke="none" stroke-miterlimit="10"/>
    </g>
    <g stroke-linecap="butt" transform="matrix(2,0,0,2,-512,1030)" fill="white" text-rendering="geometricPrecision" font-family="sans-serif" shape-rendering="geometricPrecision" stroke="white" font-weight="bold" stroke-miterlimit="1.45">
      <text x="273.904" xml:space="preserve" y="-342.6657" clip-path="url(#clipPath2)" stroke="none">Attributive</text>
    </g>
    <g stroke-linecap="butt" transform="matrix(2,0,0,2,-512,1030)" fill="rgb(73,114,136)" text-rendering="geometricPrecision" shape-rendering="geometricPrecision" stroke="rgb(73,114,136)" stroke-miterlimit="1.45">
      <rect x="269.404" y="-357.3795" clip-path="url(#clipPath2)" fill="none" width="69" rx="4" ry="4" height="20"/>
    </g>
    <g stroke-linecap="butt" transform="matrix(2,0,0,2,-512,1030)" text-rendering="geometricPrecision" font-family="sans-serif" shape-rendering="geometricPrecision" font-weight="bold" stroke-miterlimit="1.45">
      <text x="461.8859" xml:space="preserve" y="-222.6657" clip-path="url(#clipPath2)" stroke="none">CohesiveState</text>
    </g>
    <g stroke-linecap="butt" transform="matrix(2,0,0,2,-512,1030)" fill="rgb(157,64,95)" text-rendering="geometricPrecision" shape-rendering="geometricPrecision" stroke="rgb(157,64,95)" stroke-miterlimit="1.45">
      <rect x="445.7355" y="-237.3795" clip-path="url(#clipPath2)" fill="none" width="115" rx="4" ry="4" height="20"/>
    </g>
    <g stroke-linecap="butt" transform="matrix(2,0,0,2,-512,1030)" text-rendering="geometricPrecision" font-family="sans-serif" shape-rendering="geometricPrecision" font-weight="bold" stroke-miterlimit="1.45">
      <text x="458.8918" xml:space="preserve" y="-262.6657" clip-path="url(#clipPath2)" stroke="none">StateAggregate</text>
    </g>
    <g stroke-linecap="butt" transform="matrix(2,0,0,2,-512,1030)" fill="rgb(157,64,95)" text-rendering="geometricPrecision" shape-rendering="geometricPrecision" stroke="rgb(157,64,95)" stroke-miterlimit="1.45">
      <rect x="445.7355" y="-277.3795" clip-path="url(#clipPath2)" fill="none" width="115" rx="4" ry="4" height="20"/>
      <rect stroke-linecap="square" x="430.7355" y="-317.3795" clip-path="url(#clipPath2)" width="130" rx="4" ry="4" height="20" stroke="none" stroke-miterlimit="10"/>
    </g>
    <g stroke-linecap="butt" transform="matrix(2,0,0,2,-512,1030)" fill="white" text-rendering="geometricPrecision" font-family="sans-serif" shape-rendering="geometricPrecision" stroke="white" font-weight="bold" stroke-miterlimit="1.45">
      <text x="481.0636" xml:space="preserve" y="-302.6657" clip-path="url(#clipPath2)" stroke="none">State</text>
    </g>
    <g stroke-linecap="butt" transform="matrix(2,0,0,2,-512,1030)" fill="rgb(157,64,95)" text-rendering="geometricPrecision" shape-rendering="geometricPrecision" stroke="rgb(157,64,95)" stroke-miterlimit="1.45">
      <rect x="430.7355" y="-317.3795" clip-path="url(#clipPath2)" fill="none" width="130" rx="4" ry="4" height="20"/>
    </g>
    <g stroke-linecap="butt" transform="matrix(2,0,0,2,-512,1030)" text-rendering="geometricPrecision" font-family="sans-serif" shape-rendering="geometricPrecision" font-weight="bold" stroke-miterlimit="1.45">
      <text x="453.2082" xml:space="preserve" y="-102.6657" clip-path="url(#clipPath2)" stroke="none">CohesiveProcess</text>
    </g>
    <g stroke-linecap="butt" transform="matrix(2,0,0,2,-512,1030)" fill="rgb(157,64,95)" text-rendering="geometricPrecision" shape-rendering="geometricPrecision" stroke="rgb(157,64,95)" stroke-miterlimit="1.45">
      <rect x="445.7355" y="-117.3795" clip-path="url(#clipPath2)" fill="none" width="115" rx="4" ry="4" height="20"/>
    </g>
    <g stroke-linecap="butt" transform="matrix(2,0,0,2,-512,1030)" text-rendering="geometricPrecision" font-family="sans-serif" shape-rendering="geometricPrecision" font-weight="bold" stroke-miterlimit="1.45">
      <text x="450.214" xml:space="preserve" y="-142.6657" clip-path="url(#clipPath2)" stroke="none">ProcessAggregate</text>
    </g>
    <g stroke-linecap="butt" transform="matrix(2,0,0,2,-512,1030)" fill="rgb(157,64,95)" text-rendering="geometricPrecision" shape-rendering="geometricPrecision" stroke="rgb(157,64,95)" stroke-miterlimit="1.45">
      <rect x="445.7355" y="-157.3795" clip-path="url(#clipPath2)" fill="none" width="115" rx="4" ry="4" height="20"/>
      <rect stroke-linecap="square" x="430.7355" y="-197.3795" clip-path="url(#clipPath2)" width="130" rx="4" ry="4" height="20" stroke="none" stroke-miterlimit="10"/>
    </g>
    <g stroke-linecap="butt" transform="matrix(2,0,0,2,-512,1030)" fill="white" text-rendering="geometricPrecision" font-family="sans-serif" shape-rendering="geometricPrecision" stroke="white" font-weight="bold" stroke-miterlimit="1.45">
      <text x="472.3859" xml:space="preserve" y="-182.6657" clip-path="url(#clipPath2)" stroke="none">Process</text>
    </g>
    <g stroke-linecap="butt" transform="matrix(2,0,0,2,-512,1030)" fill="rgb(157,64,95)" text-rendering="geometricPrecision" shape-rendering="geometricPrecision" stroke="rgb(157,64,95)" stroke-miterlimit="1.45">
      <rect x="430.7355" y="-197.3795" clip-path="url(#clipPath2)" fill="none" width="130" rx="4" ry="4" height="20"/>
    </g>
  </g>
</svg>
