<?xml version="1.0" encoding="UTF-8"?><svg xmlns="http://www.w3.org/2000/svg" xmlns:xlink="http://www.w3.org/1999/xlink" fill-opacity="1" color-rendering="auto" color-interpolation="auto" text-rendering="auto" stroke="black" stroke-linecap="square" width="1048" stroke-miterlimit="10" shape-rendering="auto" stroke-opacity="1" fill="black" stroke-dasharray="none" font-weight="normal" stroke-width="1" height="412" font-family="'Dialog'" font-style="normal" stroke-linejoin="miter" font-size="12px" stroke-dashoffset="0" image-rendering="auto">
  <!--Generated by ySVG 2.6-->
  <defs id="genericDefs"/>
  <g>
    <defs id="defs1">
      <clipPath clipPathUnits="userSpaceOnUse" id="clipPath1">
        <path d="M0 0 L1048 0 L1048 412 L0 412 L0 0 Z"/>
      </clipPath>
      <clipPath clipPathUnits="userSpaceOnUse" id="clipPath2">
        <path d="M211 -498 L735 -498 L735 -292 L211 -292 L211 -498 Z"/>
      </clipPath>
    </defs>
    <g fill="white" text-rendering="geometricPrecision" shape-rendering="geometricPrecision" transform="scale(2,2) translate(-211,498)" stroke="white">
      <rect x="211" width="524" height="206" y="-498" clip-path="url(#clipPath2)" stroke="none"/>
    </g>
    <g text-rendering="geometricPrecision" stroke-miterlimit="1.45" shape-rendering="geometricPrecision" transform="matrix(2,0,0,2,-422,996)" stroke-linecap="butt">
      <path fill="none" d="M250.172 -465.6966 L250.172 -484.6995 L311.9876 -484.6995" clip-path="url(#clipPath2)"/>
      <path fill="white" d="M326.9876 -484.6995 L310.9876 -490.6995 L310.9876 -478.6995 Z" clip-path="url(#clipPath2)" stroke="none"/>
      <path fill="none" d="M326.9876 -484.6995 L310.9876 -490.6995 L310.9876 -478.6995 Z" clip-path="url(#clipPath2)"/>
      <path fill="none" d="M448.22 -465.6966 L448.22 -484.6995 L383.9507 -484.6995" clip-path="url(#clipPath2)"/>
      <path fill="white" d="M368.9507 -484.6995 L384.9507 -478.6995 L384.9507 -490.6995 Z" clip-path="url(#clipPath2)" stroke="none"/>
      <path fill="none" d="M368.9507 -484.6995 L384.9507 -478.6995 L384.9507 -490.6995 Z" clip-path="url(#clipPath2)"/>
      <path fill="none" d="M280.2012 -455.6995 L347.946 -455.6995 L347.946 -466.7025" clip-path="url(#clipPath2)"/>
      <path d="M347.946 -474.7025 L342.946 -462.7025 L347.946 -465.7025 L352.946 -462.7025 Z" clip-path="url(#clipPath2)" stroke="none"/>
      <text x="282.8224" xml:space="preserve" y="-443.9309" clip-path="url(#clipPath2)" font-family="sans-serif" stroke="none">instantiatedBy</text>
      <path fill="none" d="M322.672 -357.3893 L322.672 -397.3795 L374.7065 -397.3795" clip-path="url(#clipPath2)"/>
      <path fill="white" d="M389.7065 -397.3795 L373.7065 -403.3795 L373.7065 -391.3795 Z" clip-path="url(#clipPath2)" stroke="none"/>
      <path fill="none" d="M389.7065 -397.3795 L373.7065 -403.3795 L373.7065 -391.3795 Z" clip-path="url(#clipPath2)"/>
      <path fill="none" d="M448.22 -357.3893 L448.22 -372.3429" clip-path="url(#clipPath2)"/>
      <path fill="white" d="M448.22 -387.3429 L442.22 -371.3429 L454.22 -371.3429 Z" clip-path="url(#clipPath2)" stroke="none"/>
      <path fill="none" d="M448.22 -387.3429 L442.22 -371.3429 L454.22 -371.3429 Z" clip-path="url(#clipPath2)"/>
      <path fill="none" d="M250.172 -357.3893 L250.172 -397.3795 L374.763 -397.3795" clip-path="url(#clipPath2)"/>
      <path fill="white" d="M389.763 -397.3795 L373.763 -403.3795 L373.763 -391.3795 Z" clip-path="url(#clipPath2)" stroke="none"/>
      <path fill="none" d="M389.763 -397.3795 L373.763 -403.3795 L373.763 -391.3795 Z" clip-path="url(#clipPath2)"/>
      <path fill="none" d="M569.1548 -357.3551 L569.1548 -392.3795 L521.7092 -392.3795" clip-path="url(#clipPath2)"/>
      <path fill="white" d="M506.7092 -392.3795 L522.7092 -386.3795 L522.7092 -398.3795 Z" clip-path="url(#clipPath2)" stroke="none"/>
      <path fill="none" d="M506.7092 -392.3795 L522.7092 -386.3795 L522.7092 -398.3795 Z" clip-path="url(#clipPath2)"/>
      <path fill="none" d="M506.73 -402.3795 L616.5934 -402.3795" clip-path="url(#clipPath2)"/>
      <path d="M624.5934 -402.3795 L612.5934 -407.3795 L615.5934 -402.3795 L612.5934 -397.3795 Z" clip-path="url(#clipPath2)" stroke="none"/>
      <rect x="540.6566" y="-411.7301" clip-path="url(#clipPath2)" fill="white" width="50.0137" height="18.7012" stroke="none"/>
      <text x="542.6566" xml:space="preserve" y="-397.6657" clip-path="url(#clipPath2)" font-family="sans-serif" stroke="none">hasTime</text>
      <path fill="none" d="M716.6095 -347.3795 L724.1068 -347.3795 L724.1068 -372.3698" clip-path="url(#clipPath2)"/>
      <path fill="white" d="M724.1068 -387.3698 L718.1068 -371.3698 L730.1068 -371.3698 Z" clip-path="url(#clipPath2)" stroke="none"/>
      <path fill="none" d="M724.1068 -387.3698 L718.1068 -371.3698 L730.1068 -371.3698 Z" clip-path="url(#clipPath2)"/>
      <path fill="none" d="M716.6095 -317.3795 L724.1068 -317.3795 L724.1068 -372.4186" clip-path="url(#clipPath2)"/>
      <path fill="white" d="M724.1068 -387.4186 L718.1068 -371.4186 L730.1068 -371.4186 Z" clip-path="url(#clipPath2)" stroke="none"/>
      <path fill="none" d="M724.1068 -387.4186 L718.1068 -371.4186 L730.1068 -371.4186 Z" clip-path="url(#clipPath2)"/>
      <path fill="none" d="M438.22 -357.3866 L438.22 -375 L332.672 -375 L332.672 -365.3866" clip-path="url(#clipPath2)"/>
      <path d="M332.672 -357.3866 L337.672 -369.3866 L332.672 -366.3866 L327.672 -369.3866 Z" clip-path="url(#clipPath2)" stroke="none"/>
      <rect x="339.4187" y="-384.3506" clip-path="url(#clipPath2)" fill="white" width="92.0547" height="18.7012" stroke="none"/>
      <text x="341.4187" xml:space="preserve" y="-370.2861" clip-path="url(#clipPath2)" font-family="sans-serif" stroke="none">hasSituationPart</text>
      <path fill="none" d="M448.22 -407.3748 L448.22 -430.742" clip-path="url(#clipPath2)"/>
      <path fill="white" d="M448.22 -445.742 L442.22 -429.742 L454.22 -429.742 Z" clip-path="url(#clipPath2)" stroke="none"/>
      <path fill="none" d="M448.22 -445.742 L442.22 -429.742 L454.22 -429.742 Z" clip-path="url(#clipPath2)"/>
      <path fill="none" d="M678.1068 -407.3535 L678.1068 -420.4867 L448.22 -420.4867 L448.22 -430.6927" clip-path="url(#clipPath2)"/>
      <path fill="white" d="M448.22 -445.6927 L442.22 -429.6927 L454.22 -429.6927 Z" clip-path="url(#clipPath2)" stroke="none"/>
      <path fill="none" d="M448.22 -445.6927 L442.22 -429.6927 L454.22 -429.6927 Z" clip-path="url(#clipPath2)"/>
      <path fill="none" d="M559.1548 -357.3866 L559.1548 -375 L458.22 -375 L458.22 -365.3866" clip-path="url(#clipPath2)"/>
      <path d="M458.22 -357.3866 L463.22 -369.3866 L458.22 -366.3866 L453.22 -369.3866 Z" clip-path="url(#clipPath2)" stroke="none"/>
      <rect x="464.3358" y="-384.3506" clip-path="url(#clipPath2)" fill="white" width="88.7031" height="18.7012" stroke="none"/>
      <text x="466.3358" xml:space="preserve" y="-370.2861" clip-path="url(#clipPath2)" font-family="sans-serif" stroke="none">hasProcessPart</text>
      <path fill="none" d="M255.172 -337.3676 L255.172 -318.5 L448.22 -318.5 L448.22 -329.3676" clip-path="url(#clipPath2)"/>
      <path d="M448.22 -337.3676 L443.22 -325.3676 L448.22 -328.3676 L453.22 -325.3676 Z" clip-path="url(#clipPath2)" stroke="none"/>
      <path fill="none" d="M255.172 -337.3676 L255.172 -318.5 L255.172 -318.5 L569.1548 -318.5 L569.1548 -329.3676" clip-path="url(#clipPath2)"/>
      <path d="M569.1548 -337.3676 L564.1548 -325.3676 L569.1548 -328.3676 L574.1548 -325.3676 Z" clip-path="url(#clipPath2)" stroke="none"/>
      <rect x="315.3244" y="-327.8506" clip-path="url(#clipPath2)" fill="white" width="75.373" height="18.7012" stroke="none"/>
      <text x="317.3244" xml:space="preserve" y="-313.7861" clip-path="url(#clipPath2)" font-family="sans-serif" stroke="none">participatesIn</text>
      <path fill="none" d="M579.1548 -357.3866 L579.1548 -375 L670.6068 -375 L670.6068 -365.3866" clip-path="url(#clipPath2)"/>
      <path d="M670.6068 -357.3866 L675.6068 -369.3866 L670.6068 -366.3866 L665.6068 -369.3866 Z" clip-path="url(#clipPath2)" stroke="none"/>
      <rect x="599.874" y="-384.3506" clip-path="url(#clipPath2)" fill="white" width="50.0137" height="18.7012" stroke="none"/>
      <text x="601.874" xml:space="preserve" y="-370.2861" clip-path="url(#clipPath2)" font-family="sans-serif" stroke="none">hasTime</text>
      <path fill="none" d="M245.172 -337.4055 L245.172 -305 L605.952 -305 L605.952 -347.3795 L616.6097 -347.3795" clip-path="url(#clipPath2)"/>
      <path d="M624.6097 -347.3795 L612.6097 -352.3795 L615.6097 -347.3795 L612.6097 -342.3795 Z" clip-path="url(#clipPath2)" stroke="none"/>
      <rect x="400.5552" y="-314.3506" clip-path="url(#clipPath2)" fill="white" width="50.0137" height="18.7012" stroke="none"/>
      <text x="402.5552" xml:space="preserve" y="-300.2861" clip-path="url(#clipPath2)" font-family="sans-serif" stroke="none">hasTime</text>
    </g>
    <g fill="rgb(150,150,150)" text-rendering="geometricPrecision" shape-rendering="geometricPrecision" transform="matrix(2,0,0,2,-422,996)" stroke="rgb(150,150,150)">
      <rect x="220.172" y="-465.6995" clip-path="url(#clipPath2)" width="60" rx="4" ry="4" height="20" stroke="none"/>
    </g>
    <g stroke-linecap="butt" transform="matrix(2,0,0,2,-422,996)" fill="white" text-rendering="geometricPrecision" font-family="sans-serif" shape-rendering="geometricPrecision" stroke="white" font-weight="bold" stroke-miterlimit="1.45">
      <text x="224.1652" xml:space="preserve" y="-450.9857" clip-path="url(#clipPath2)" stroke="none">Category</text>
    </g>
    <g stroke-linecap="butt" transform="matrix(2,0,0,2,-422,996)" fill="rgb(150,150,150)" text-rendering="geometricPrecision" shape-rendering="geometricPrecision" stroke="rgb(150,150,150)" stroke-miterlimit="1.45">
      <rect x="220.172" y="-465.6995" clip-path="url(#clipPath2)" fill="none" width="60" rx="4" ry="4" height="20"/>
      <rect stroke-linecap="square" x="326.946" y="-494.6995" clip-path="url(#clipPath2)" width="42" rx="4" ry="4" height="20" stroke="none" stroke-miterlimit="10"/>
    </g>
    <g stroke-linecap="butt" transform="matrix(2,0,0,2,-422,996)" fill="white" text-rendering="geometricPrecision" font-family="sans-serif" shape-rendering="geometricPrecision" stroke="white" font-weight="bold" stroke-miterlimit="1.45">
      <text x="331.279" xml:space="preserve" y="-479.9857" clip-path="url(#clipPath2)" stroke="none">Entity</text>
    </g>
    <g stroke-linecap="butt" transform="matrix(2,0,0,2,-422,996)" fill="rgb(150,150,150)" text-rendering="geometricPrecision" shape-rendering="geometricPrecision" stroke="rgb(150,150,150)" stroke-miterlimit="1.45">
      <rect x="326.946" y="-494.6995" clip-path="url(#clipPath2)" fill="none" width="42" rx="4" ry="4" height="20"/>
      <rect stroke-linecap="square" x="389.72" y="-407.3795" clip-path="url(#clipPath2)" width="117" rx="4" ry="4" height="20" stroke="none" stroke-miterlimit="10"/>
    </g>
    <g stroke-linecap="butt" transform="matrix(2,0,0,2,-422,996)" fill="white" text-rendering="geometricPrecision" font-family="sans-serif" shape-rendering="geometricPrecision" stroke="white" font-weight="bold" stroke-miterlimit="1.45">
      <text x="394.2112" xml:space="preserve" y="-392.6657" clip-path="url(#clipPath2)" stroke="none">ConcreteIndividual</text>
    </g>
    <g stroke-linecap="butt" transform="matrix(2,0,0,2,-422,996)" fill="rgb(150,150,150)" text-rendering="geometricPrecision" shape-rendering="geometricPrecision" stroke="rgb(150,150,150)" stroke-miterlimit="1.45">
      <rect x="389.72" y="-407.3795" clip-path="url(#clipPath2)" fill="none" width="117" rx="4" ry="4" height="20"/>
    </g>
    <g fill="rgb(43,138,132)" text-rendering="geometricPrecision" shape-rendering="geometricPrecision" transform="matrix(2,0,0,2,-422,996)" stroke="rgb(43,138,132)">
      <rect x="624.6068" y="-407.3795" clip-path="url(#clipPath2)" width="107" rx="4" ry="4" height="20" stroke="none"/>
    </g>
    <g stroke-linecap="butt" transform="matrix(2,0,0,2,-422,996)" fill="white" text-rendering="geometricPrecision" font-family="sans-serif" shape-rendering="geometricPrecision" stroke="white" font-weight="bold" stroke-miterlimit="1.45">
      <text x="647.4359" xml:space="preserve" y="-392.6657" clip-path="url(#clipPath2)" stroke="none">TimeEntity</text>
    </g>
    <g stroke-linecap="butt" transform="matrix(2,0,0,2,-422,996)" fill="rgb(43,138,132)" text-rendering="geometricPrecision" shape-rendering="geometricPrecision" stroke="rgb(43,138,132)" stroke-miterlimit="1.45">
      <rect x="624.6068" y="-407.3795" clip-path="url(#clipPath2)" fill="none" width="107" rx="4" ry="4" height="20"/>
    </g>
    <g fill="rgb(73,114,136)" text-rendering="geometricPrecision" shape-rendering="geometricPrecision" transform="matrix(2,0,0,2,-422,996)" stroke="rgb(73,114,136)">
      <rect x="292.672" y="-357.3795" clip-path="url(#clipPath2)" width="70" rx="4" ry="4" height="20" stroke="none"/>
    </g>
    <g stroke-linecap="butt" transform="matrix(2,0,0,2,-422,996)" fill="white" text-rendering="geometricPrecision" font-family="sans-serif" shape-rendering="geometricPrecision" stroke="white" font-weight="bold" stroke-miterlimit="1.45">
      <text x="297.672" xml:space="preserve" y="-342.6657" clip-path="url(#clipPath2)" stroke="none">Attributive</text>
    </g>
    <g stroke-linecap="butt" transform="matrix(2,0,0,2,-422,996)" fill="rgb(73,114,136)" text-rendering="geometricPrecision" shape-rendering="geometricPrecision" stroke="rgb(73,114,136)" stroke-miterlimit="1.45">
      <rect x="292.672" y="-357.3795" clip-path="url(#clipPath2)" fill="none" width="70" rx="4" ry="4" height="20"/>
    </g>
    <g fill="rgb(243,101,35)" text-rendering="geometricPrecision" shape-rendering="geometricPrecision" transform="matrix(2,0,0,2,-422,996)" stroke="rgb(243,101,35)">
      <rect x="214.672" y="-357.3795" clip-path="url(#clipPath2)" width="71" rx="4" ry="4" height="20" stroke="none"/>
    </g>
    <g stroke-linecap="butt" transform="matrix(2,0,0,2,-422,996)" fill="white" text-rendering="geometricPrecision" font-family="sans-serif" shape-rendering="geometricPrecision" stroke="white" font-weight="bold" stroke-miterlimit="1.45">
      <text x="218.5138" xml:space="preserve" y="-342.6657" clip-path="url(#clipPath2)" stroke="none">Continuant</text>
    </g>
    <g stroke-linecap="butt" transform="matrix(2,0,0,2,-422,996)" fill="rgb(243,101,35)" text-rendering="geometricPrecision" shape-rendering="geometricPrecision" stroke="rgb(243,101,35)" stroke-miterlimit="1.45">
      <rect x="214.672" y="-357.3795" clip-path="url(#clipPath2)" fill="none" width="71" rx="4" ry="4" height="20"/>
    </g>
    <g fill="rgb(150,150,150)" text-rendering="geometricPrecision" shape-rendering="geometricPrecision" transform="matrix(2,0,0,2,-422,996)" stroke="rgb(150,150,150)">
      <rect x="415.72" y="-465.6995" clip-path="url(#clipPath2)" width="65" rx="4" ry="4" height="20" stroke="none"/>
    </g>
    <g stroke-linecap="butt" transform="matrix(2,0,0,2,-422,996)" fill="white" text-rendering="geometricPrecision" font-family="sans-serif" shape-rendering="geometricPrecision" stroke="white" font-weight="bold" stroke-miterlimit="1.45">
      <text x="420.218" xml:space="preserve" y="-450.9857" clip-path="url(#clipPath2)" stroke="none">Individual</text>
    </g>
    <g stroke-linecap="butt" transform="matrix(2,0,0,2,-422,996)" fill="rgb(150,150,150)" text-rendering="geometricPrecision" shape-rendering="geometricPrecision" stroke="rgb(150,150,150)" stroke-miterlimit="1.45">
      <rect x="415.72" y="-465.6995" clip-path="url(#clipPath2)" fill="none" width="65" rx="4" ry="4" height="20"/>
    </g>
    <g fill="rgb(157,64,95)" text-rendering="geometricPrecision" shape-rendering="geometricPrecision" transform="matrix(2,0,0,2,-422,996)" stroke="rgb(157,64,95)">
      <rect x="418.22" y="-357.3795" clip-path="url(#clipPath2)" width="60" rx="4" ry="4" height="20" stroke="none"/>
    </g>
    <g stroke-linecap="butt" transform="matrix(2,0,0,2,-422,996)" fill="white" text-rendering="geometricPrecision" font-family="sans-serif" shape-rendering="geometricPrecision" stroke="white" font-weight="bold" stroke-miterlimit="1.45">
      <text x="422.5559" xml:space="preserve" y="-342.6657" clip-path="url(#clipPath2)" stroke="none">Situation</text>
    </g>
    <g stroke-linecap="butt" transform="matrix(2,0,0,2,-422,996)" fill="rgb(157,64,95)" text-rendering="geometricPrecision" shape-rendering="geometricPrecision" stroke="rgb(157,64,95)" stroke-miterlimit="1.45">
      <rect x="418.22" y="-357.3795" clip-path="url(#clipPath2)" fill="none" width="60" rx="4" ry="4" height="20"/>
    </g>
    <g fill="rgb(247,149,29)" text-rendering="geometricPrecision" shape-rendering="geometricPrecision" transform="matrix(2,0,0,2,-422,996)" stroke="rgb(247,149,29)">
      <rect x="541.6548" y="-357.3795" clip-path="url(#clipPath2)" width="55" rx="4" ry="4" height="20" stroke="none"/>
    </g>
    <g stroke-linecap="butt" transform="matrix(2,0,0,2,-422,996)" fill="white" text-rendering="geometricPrecision" font-family="sans-serif" shape-rendering="geometricPrecision" stroke="white" font-weight="bold" stroke-miterlimit="1.45">
      <text x="545.8052" xml:space="preserve" y="-342.6657" clip-path="url(#clipPath2)" stroke="none">Process</text>
    </g>
    <g stroke-linecap="butt" transform="matrix(2,0,0,2,-422,996)" fill="rgb(247,149,29)" text-rendering="geometricPrecision" shape-rendering="geometricPrecision" stroke="rgb(247,149,29)" stroke-miterlimit="1.45">
      <rect x="541.6548" y="-357.3795" clip-path="url(#clipPath2)" fill="none" width="55" rx="4" ry="4" height="20"/>
    </g>
    <g fill="rgb(43,138,132)" text-rendering="geometricPrecision" shape-rendering="geometricPrecision" transform="matrix(2,0,0,2,-422,996)" stroke="rgb(43,138,132)">
      <rect x="624.6068" y="-357.3795" clip-path="url(#clipPath2)" width="92" rx="4" ry="4" height="20" stroke="none"/>
    </g>
    <g stroke-linecap="butt" transform="matrix(2,0,0,2,-422,996)" fill="white" text-rendering="geometricPrecision" font-family="sans-serif" shape-rendering="geometricPrecision" stroke="white" font-weight="bold" stroke-miterlimit="1.45">
      <text x="643.9467" xml:space="preserve" y="-342.6657" clip-path="url(#clipPath2)" stroke="none">Chronoid</text>
    </g>
    <g stroke-linecap="butt" transform="matrix(2,0,0,2,-422,996)" fill="rgb(43,138,132)" text-rendering="geometricPrecision" shape-rendering="geometricPrecision" stroke="rgb(43,138,132)" stroke-miterlimit="1.45">
      <rect x="624.6068" y="-357.3795" clip-path="url(#clipPath2)" fill="none" width="92" rx="4" ry="4" height="20"/>
      <rect stroke-linecap="square" x="624.6068" y="-327.3795" clip-path="url(#clipPath2)" width="92" rx="4" ry="4" height="20" stroke="none" stroke-miterlimit="10"/>
    </g>
    <g stroke-linecap="butt" transform="matrix(2,0,0,2,-422,996)" fill="white" text-rendering="geometricPrecision" font-family="sans-serif" shape-rendering="geometricPrecision" stroke="white" font-weight="bold" stroke-miterlimit="1.45">
      <text x="628.601" xml:space="preserve" y="-312.6657" clip-path="url(#clipPath2)" stroke="none">TimeBoundary</text>
    </g>
    <g stroke-linecap="butt" transform="matrix(2,0,0,2,-422,996)" fill="rgb(43,138,132)" text-rendering="geometricPrecision" shape-rendering="geometricPrecision" stroke="rgb(43,138,132)" stroke-miterlimit="1.45">
      <rect x="624.6068" y="-327.3795" clip-path="url(#clipPath2)" fill="none" width="92" rx="4" ry="4" height="20"/>
    </g>
  </g>
</svg>
