<?xml version="1.0" encoding="UTF-8"?><svg xmlns="http://www.w3.org/2000/svg" xmlns:xlink="http://www.w3.org/1999/xlink" fill-opacity="1" color-rendering="auto" color-interpolation="auto" text-rendering="auto" stroke="black" stroke-linecap="square" width="620" stroke-miterlimit="10" shape-rendering="auto" stroke-opacity="1" fill="black" stroke-dasharray="none" font-weight="normal" stroke-width="1" height="580" font-family="'Dialog'" font-style="normal" stroke-linejoin="miter" font-size="12px" stroke-dashoffset="0" image-rendering="auto">
  <!--Generated by ySVG 2.6-->
  <defs id="genericDefs"/>
  <g>
    <defs id="defs1">
      <clipPath clipPathUnits="userSpaceOnUse" id="clipPath1">
        <path d="M0 0 L620 0 L620 580 L0 580 L0 0 Z"/>
      </clipPath>
      <clipPath clipPathUnits="userSpaceOnUse" id="clipPath2">
        <path d="M-488 64 L-178 64 L-178 354 L-488 354 L-488 64 Z"/>
      </clipPath>
    </defs>
    <g fill="white" text-rendering="geometricPrecision" shape-rendering="geometricPrecision" transform="scale(2,2) translate(488,-64)" stroke="white">
      <rect x="-488" width="310" height="290" y="64" clip-path="url(#clipPath2)" stroke="none"/>
    </g>
    <g text-rendering="geometricPrecision" stroke-miterlimit="1.45" shape-rendering="geometricPrecision" transform="matrix(2,0,0,2,976,-128)" stroke-linecap="butt">
      <path fill="none" d="M-254.5936 235.6685 L-254.5936 247.7044" clip-path="url(#clipPath2)"/>
      <path d="M-254.5936 227.6685 L-259.5936 239.6685 L-254.5936 236.6685 L-249.5936 239.6685 Z" clip-path="url(#clipPath2)" stroke="none"/>
      <text x="-323.3006" xml:space="preserve" y="242.4215" clip-path="url(#clipPath2)" font-family="sans-serif" stroke="none">boundaryOf</text>
      <path fill="none" d="M-307.2193 217.7076 L-383.7456 217.7076 L-383.7456 232.6685" clip-path="url(#clipPath2)"/>
      <path fill="white" d="M-383.7456 247.6685 L-377.7456 231.6685 L-389.7456 231.6685 Z" clip-path="url(#clipPath2)" stroke="none"/>
      <path fill="none" d="M-383.7456 247.6685 L-377.7456 231.6685 L-389.7456 231.6685 Z" clip-path="url(#clipPath2)"/>
      <path fill="none" d="M-307.232 257.7076 L-317.2336 257.7076 L-317.7354 257.7076" clip-path="url(#clipPath2)"/>
      <path fill="white" d="M-332.7354 257.7076 L-316.7354 263.7076 L-316.7354 251.7076 Z" clip-path="url(#clipPath2)" stroke="none"/>
      <path fill="none" d="M-332.7354 257.7076 L-316.7354 263.7076 L-316.7354 251.7076 Z" clip-path="url(#clipPath2)"/>
      <path fill="none" d="M-307.2193 297.7076 L-383.7456 297.7076 L-383.7456 282.6685" clip-path="url(#clipPath2)"/>
      <path fill="white" d="M-383.7456 267.6685 L-389.7456 283.6685 L-377.7456 283.6685 Z" clip-path="url(#clipPath2)" stroke="none"/>
      <path fill="none" d="M-383.7456 267.6685 L-389.7456 283.6685 L-377.7456 283.6685 Z" clip-path="url(#clipPath2)"/>
      <path fill="none" d="M-254.5936 275.6685 L-254.5936 287.7043" clip-path="url(#clipPath2)"/>
      <path d="M-254.5936 267.6685 L-259.5936 279.6685 L-254.5936 276.6685 L-249.5936 279.6685 Z" clip-path="url(#clipPath2)" stroke="none"/>
      <text x="-323.3006" xml:space="preserve" y="282.4215" clip-path="url(#clipPath2)" font-family="sans-serif" stroke="none">boundaryOf</text>
      <path fill="none" d="M-307.1789 137.7076 L-396.282 137.7076" clip-path="url(#clipPath2)"/>
      <path fill="white" d="M-411.282 137.7076 L-395.282 143.7076 L-395.282 131.7076 Z" clip-path="url(#clipPath2)" stroke="none"/>
      <path fill="none" d="M-411.282 137.7076 L-395.282 143.7076 L-395.282 131.7076 Z" clip-path="url(#clipPath2)"/>
      <path fill="none" d="M-434.7946 257.7076 L-447.7679 257.7076 L-447.7679 162.6978" clip-path="url(#clipPath2)"/>
      <path fill="white" d="M-447.7679 147.6978 L-453.7679 163.6978 L-441.7679 163.6978 Z" clip-path="url(#clipPath2)" stroke="none"/>
      <path fill="none" d="M-447.7679 147.6978 L-453.7679 163.6978 L-441.7679 163.6978 Z" clip-path="url(#clipPath2)"/>
      <path fill="none" d="M-201.9561 217.7076 L-182 217.7076 L-182 341.112 L-467.0716 341.112 L-467.0716 155.727" clip-path="url(#clipPath2)"/>
      <path d="M-467.0716 147.727 L-472.0716 159.727 L-467.0716 156.727 L-462.0716 159.727 Z" clip-path="url(#clipPath2)" stroke="none"/>
      <path fill="none" d="M-201.9561 252.7076 L-182 252.7076 L-182 341.112 L-467.0716 341.112 L-467.0716 155.7171" clip-path="url(#clipPath2)"/>
      <path d="M-467.0716 147.7171 L-472.0716 159.7171 L-467.0716 156.7171 L-462.0716 159.7171 Z" clip-path="url(#clipPath2)" stroke="none"/>
      <rect x="-390.236" y="331.7614" clip-path="url(#clipPath2)" fill="white" width="131.4004" height="18.7012" stroke="none"/>
      <text x="-388.236" xml:space="preserve" y="345.8259" clip-path="url(#clipPath2)" font-family="sans-serif" stroke="none">spatiallyPassesThrough</text>
      <path fill="none" d="M-201.9942 262.7076 L-192 262.7076 L-192 324.2 L-467.0716 324.2 L-467.0716 155.7493" clip-path="url(#clipPath2)"/>
      <path d="M-467.0716 147.7493 L-472.0716 159.7493 L-467.0716 156.7493 L-462.0716 159.7493 Z" clip-path="url(#clipPath2)" stroke="none"/>
      <rect x="-421.9108" y="314.8494" clip-path="url(#clipPath2)" fill="white" width="184.75" height="18.7012" stroke="none"/>
      <text x="-419.9108" xml:space="preserve" y="328.9139" clip-path="url(#clipPath2)" font-family="sans-serif" stroke="none">spatiallyStartsOn/spatiallyEndsOn</text>
      <path fill="none" d="M-307.2426 97.7076 L-350.268 97.7076 L-350.268 137.7076 L-396.253 137.7076" clip-path="url(#clipPath2)"/>
      <path fill="white" d="M-411.253 137.7076 L-395.253 143.7076 L-395.253 131.7076 Z" clip-path="url(#clipPath2)" stroke="none"/>
      <path fill="none" d="M-411.253 137.7076 L-395.253 143.7076 L-395.253 131.7076 Z" clip-path="url(#clipPath2)"/>
      <path fill="none" d="M-307.2426 172.7076 L-350.268 172.7076 L-350.268 137.7076 L-396.253 137.7076" clip-path="url(#clipPath2)"/>
      <path fill="white" d="M-411.253 137.7076 L-395.253 143.7076 L-395.253 131.7076 Z" clip-path="url(#clipPath2)" stroke="none"/>
      <path fill="none" d="M-411.253 137.7076 L-395.253 143.7076 L-395.253 131.7076 Z" clip-path="url(#clipPath2)"/>
      <path fill="none" d="M-284.5936 87.6735 L-284.5936 76.6231 L-182 76.6231 L-182 92.7076 L-193.9272 92.7076" clip-path="url(#clipPath2)"/>
      <path d="M-201.9272 92.7076 L-189.9272 97.7076 L-192.9272 92.7076 L-189.9272 87.7076 Z" clip-path="url(#clipPath2)" stroke="none"/>
      <rect x="-266.9755" y="67.2725" clip-path="url(#clipPath2)" fill="white" width="67.3574" height="18.7012" stroke="none"/>
      <text x="-264.9755" xml:space="preserve" y="81.337" clip-path="url(#clipPath2)" font-family="sans-serif" stroke="none">hasMember</text>
      <path fill="none" d="M-254.5936 147.6685 L-254.5936 159.7044" clip-path="url(#clipPath2)"/>
      <path d="M-254.5936 167.7044 L-249.5936 155.7044 L-254.5936 158.7044 L-259.5936 155.7044 Z" clip-path="url(#clipPath2)" stroke="none"/>
      <text x="-293.9393" xml:space="preserve" y="162.4215" clip-path="url(#clipPath2)" font-family="sans-serif" stroke="none">partOf</text>
      <path fill="none" d="M-201.9561 102.7076 L-182 102.7076 L-182 172.7076 L-193.9561 172.7076" clip-path="url(#clipPath2)"/>
      <path d="M-201.9561 172.7076 L-189.9561 177.7076 L-192.9561 172.7076 L-189.9561 167.7076 Z" clip-path="url(#clipPath2)" stroke="none"/>
      <text x="-248.9043" xml:space="preserve" y="122.5735" clip-path="url(#clipPath2)" font-family="sans-serif" stroke="none">hasMember</text>
      <path fill="none" d="M-398.7456 247.71 L-398.7456 182.7076 L-315.2077 182.7076" clip-path="url(#clipPath2)"/>
      <path d="M-307.2077 182.7076 L-319.2077 177.7076 L-316.2077 182.7076 L-319.2077 187.7076 Z" clip-path="url(#clipPath2)" stroke="none"/>
      <rect x="-386.8922" y="173.357" clip-path="url(#clipPath2)" fill="white" width="58.6914" height="18.7012" stroke="none"/>
      <text x="-384.8922" xml:space="preserve" y="187.4215" clip-path="url(#clipPath2)" font-family="sans-serif" stroke="none">hasOwner</text>
      <path fill="none" d="M-254.5936 207.6832 L-254.5936 195.6897" clip-path="url(#clipPath2)"/>
      <path d="M-254.5936 187.6897 L-259.5936 199.6897 L-254.5936 196.6897 L-249.5936 199.6897 Z" clip-path="url(#clipPath2)" stroke="none"/>
      <rect x="-325.3006" y="188.357" clip-path="url(#clipPath2)" fill="white" width="66.707" height="18.7012" stroke="none"/>
      <text x="-323.3006" xml:space="preserve" y="202.4215" clip-path="url(#clipPath2)" font-family="sans-serif" stroke="none">boundaryOf</text>
      <path fill="none" d="M-244.5936 187.7349 L-244.5936 198 L-182 198 L-182 182.7076 L-193.9561 182.7076" clip-path="url(#clipPath2)"/>
      <path d="M-201.9561 182.7076 L-189.9561 187.7076 L-192.9561 182.7076 L-189.9561 177.7076 Z" clip-path="url(#clipPath2)" stroke="none"/>
      <rect x="-239.6484" y="188.6494" clip-path="url(#clipPath2)" fill="white" width="52.7031" height="18.7012" stroke="none"/>
      <text x="-237.6484" xml:space="preserve" y="202.7139" clip-path="url(#clipPath2)" font-family="sans-serif" stroke="none">locatedIn</text>
      <text x="-266.9276" y="262.4215" clip-path="url(#clipPath2)" font-family="sans-serif" stroke="none" font-weight="bold" xml:space="preserve">Line</text>
      <rect x="-307.2224" y="247.7076" clip-path="url(#clipPath2)" fill="none" width="105.2576" rx="4" ry="4" height="20" stroke="rgb(243,101,35)"/>
      <text x="-430.4185" y="262.4215" clip-path="url(#clipPath2)" font-family="sans-serif" stroke="none" font-weight="bold" xml:space="preserve">ObjectBoundary</text>
      <rect x="-434.7744" y="247.7076" clip-path="url(#clipPath2)" fill="none" width="102.0576" rx="4" ry="4" height="20" stroke="rgb(243,101,35)"/>
      <text x="-269.5907" y="302.4215" clip-path="url(#clipPath2)" font-family="sans-serif" stroke="none" font-weight="bold" xml:space="preserve">Point</text>
      <rect x="-307.2224" y="287.7076" clip-path="url(#clipPath2)" fill="none" width="105.2576" rx="4" ry="4" height="20" stroke="rgb(243,101,35)"/>
      <text x="-276.6043" y="222.4215" clip-path="url(#clipPath2)" font-family="sans-serif" stroke="none" font-weight="bold" xml:space="preserve">Surface</text>
      <rect x="-307.2224" y="207.7076" clip-path="url(#clipPath2)" fill="none" width="105.2576" rx="4" ry="4" height="20" stroke="rgb(243,101,35)"/>
    </g>
    <g fill="rgb(243,101,35)" text-rendering="geometricPrecision" shape-rendering="geometricPrecision" transform="matrix(2,0,0,2,976,-128)" stroke="rgb(243,101,35)">
      <rect x="-484.2847" y="127.7076" clip-path="url(#clipPath2)" width="73.0336" rx="4" ry="4" height="20" stroke="none"/>
    </g>
    <g stroke-linecap="butt" transform="matrix(2,0,0,2,976,-128)" fill="white" text-rendering="geometricPrecision" font-family="sans-serif" shape-rendering="geometricPrecision" stroke="white" font-weight="bold" stroke-miterlimit="1.45">
      <text x="-479.4261" xml:space="preserve" y="142.4215" clip-path="url(#clipPath2)" stroke="none">Continuant</text>
    </g>
    <g stroke-linecap="butt" transform="matrix(2,0,0,2,976,-128)" fill="rgb(243,101,35)" text-rendering="geometricPrecision" shape-rendering="geometricPrecision" stroke="rgb(243,101,35)" stroke-miterlimit="1.45">
      <rect x="-484.2847" y="127.7076" clip-path="url(#clipPath2)" fill="none" width="73.0336" rx="4" ry="4" height="20"/>
    </g>
    <g stroke-linecap="butt" transform="matrix(2,0,0,2,976,-128)" text-rendering="geometricPrecision" font-family="sans-serif" shape-rendering="geometricPrecision" font-weight="bold" stroke-miterlimit="1.45">
      <text x="-302.9364" xml:space="preserve" y="102.4215" clip-path="url(#clipPath2)" stroke="none">ObjectAggregate</text>
    </g>
    <g stroke-linecap="butt" transform="matrix(2,0,0,2,976,-128)" fill="rgb(243,101,35)" text-rendering="geometricPrecision" shape-rendering="geometricPrecision" stroke="rgb(243,101,35)" stroke-miterlimit="1.45">
      <rect x="-307.2224" y="87.7076" clip-path="url(#clipPath2)" fill="none" width="105.2576" rx="4" ry="4" height="20"/>
    </g>
    <g stroke-linecap="butt" transform="matrix(2,0,0,2,976,-128)" text-rendering="geometricPrecision" font-family="sans-serif" shape-rendering="geometricPrecision" font-weight="bold" stroke-miterlimit="1.45">
      <text x="-273.2645" xml:space="preserve" y="182.4215" clip-path="url(#clipPath2)" stroke="none">Object</text>
    </g>
    <g stroke-linecap="butt" transform="matrix(2,0,0,2,976,-128)" fill="rgb(243,101,35)" text-rendering="geometricPrecision" shape-rendering="geometricPrecision" stroke="rgb(243,101,35)" stroke-miterlimit="1.45">
      <rect x="-307.2224" y="167.7076" clip-path="url(#clipPath2)" fill="none" width="105.2576" rx="4" ry="4" height="20"/>
    </g>
    <g stroke-linecap="butt" transform="matrix(2,0,0,2,976,-128)" text-rendering="geometricPrecision" font-family="sans-serif" shape-rendering="geometricPrecision" font-weight="bold" stroke-miterlimit="1.45">
      <text x="-284.9364" xml:space="preserve" y="142.4215" clip-path="url(#clipPath2)" stroke="none">ObjectPart</text>
    </g>
    <g stroke-linecap="butt" transform="matrix(2,0,0,2,976,-128)" fill="rgb(243,101,35)" text-rendering="geometricPrecision" shape-rendering="geometricPrecision" stroke="rgb(243,101,35)" stroke-miterlimit="1.45">
      <rect x="-307.2224" y="127.7076" clip-path="url(#clipPath2)" fill="none" width="105.2576" rx="4" ry="4" height="20"/>
    </g>
  </g>
</svg>
