<?xml version="1.0" encoding="UTF-8" standalone="no"?>
<svg xml:space="preserve" width="757.82343" height="374.52277" viewBox="0 0 757.82342 374.52276" version="1.1"
    id="svg11" xmlns="http://www.w3.org/2000/svg" xmlns:svg="http://www.w3.org/2000/svg">
    <defs id="defs1">
        <style id="style1">
            .yellow {
                fill: #ffbd35;
                stroke: #ffbd35;
            }

            .blue {
                fill: #163255;
                stroke: #163255;
            }

            .ray {
                fill: #f3dba7;
            }

            .focus {
                fill: #fff2d6;
            }
        </style>
    </defs>
    <g id="flashlight">
        <path id="ray" class="ray"
            d="M 327.48667,65.752269 484.29297,43.494642 487.4989,147.13883 329.32514,136.65125 Z" />
        <ellipse class="focus" id="focus" cx="490.86206" cy="95.172417" rx="53.276001" ry="52.068966" />
        <path id="lense" class="focus"
            d="m 334.25538,111.73864 a 9.1879997,35.75 0 0 1 -9.17698,35.74997 9.1879997,35.75 0 0 1 -9.19899,-35.66426 9.1879997,35.75 0 0 1 9.15493,-35.835479 9.1879997,35.75 0 0 1 9.22094,35.578339 l -9.1879,0.17143 z"
            transform="rotate(-1.8824804)" />
        <path id="gadget"
            d="m 317.4375,140.97354 c -1.7,-2.63 -4.72,-10.79 -7.12,-19.25 -2.13,-7.54001 -3.17,-22.560006 -2.28,-33.000006 0.78,-9.17 4.84,-22.99 7.89,-26.86 1.84,-2.34 2.76,-2.63 8.32,-2.63 7.5,0 9.3,1.47 13.02,10.62 4.25,10.47 5.83,21.98 5.33,38.849996 -0.49,16.69001 -2.64,25.86001 -7.37,31.48001 -2.4,2.85 -3,3.04 -9.45,3.04 -6.04,0 -7.06,-0.27 -8.34,-2.25 m 16.74,-9.62 c 5.95,-14.87 4.26,-49.850006 -3,-62.300006 -1.06,-1.82 -2.54,-3.31 -3.27,-3.31 -4.23,0 -9.05,15.66 -9.04,29.41 0,14.939996 3.94,34.210006 8.06,39.450006 2.64,3.36 5.05,2.29 7.26,-3.23 m -29.83,7.72 c -2.2,-1.13 -9.5,-5.19 -16.23,-9.02 l -12.23,-6.95 -1.57,-5.18 c -1.95,-6.44001 -2.1,-25.600006 -0.25,-31.180006 1.08,-3.27 2.77,-4.87 10.78,-10.26 11.76,-7.9 24.94,-14.64 25.44,-14.13 0.2,0.21 -0.68,3.55 -1.98,7.42 -6.1,18.18 -5.23,45.720006 2.06,65.110006 2.65,7.05 0.28,7.44 -6.02,4.18 m -117.54,-14.09 c -5.11,-3.44 -7.06,-7.66 -7.67,-16.56001 -0.44,-6.49 -0.18,-8.589996 1.52,-12.459996 3.22,-7.28 6.41,-8.7 19.69,-8.73 6.05,-0.01 21.12,-0.68 33.5,-1.47 12.38,-0.79 25.04,-1.45 28.15,-1.47 l 7.65,-0.02 -0.52,11.75 c -0.46,10.519996 0.36,19.650006 2.21,24.420006 0.85,2.2 -2.37,2.35 -42.32,4.82 -39.83,2.46 -38.18,2.47 -42.23,-0.25 m 59.56738,-14.97204 c 3.59433,-0.26868 9.73503,-0.71314 9.73503,-0.71314 l -0.46241,-5.44483 -0.29,-5.099996 c 0,0 -7.50379,0.25483 -12.86069,0.61517 -5.3569,0.36035 -7.62931,1.194826 -7.62931,4.844826 0,1.6 -0.13405,2.84476 0.54483,4.1934 0.75534,1.50054 7.36822,1.87325 10.96255,1.60457 z"
            class="blue" />
    </g>
    <g id="title">
        <path id="light"
            d="m 552.4375,361.16354 c -6.72,-2.12 -14.04,-6.2 -14.04,-7.81 0,-0.52 1.36,-2.89 3.04,-5.27 l 3.04,-4.31 5.98,2.96 c 11.06,5.48 21.88,4.59 28.12,-2.31 3.42,-3.79 4.85,-7.42 5.97,-15.23 l 0.53,-3.73 -3.67,2.94 c -10.02,8.03 -24.1,7.85 -32.28,-0.42 -5.56,-5.62 -8.47,-18.09 -6.77,-29.04 2.2,-14.2 10.56,-25.83 22.7,-31.58 6.14,-2.91 7.53,-3.17 16.66,-3.17 6.28,0 12.99,0.7 18.18,1.9 7.46,1.73 8.22,2.12 8.22,4.28 0,1.3 -1.33,11.02 -2.97,21.6 -1.64,10.58 -3.67,24.34 -4.52,30.59 -3.41,25.01 -10.15,34.86 -26.85,39.21 -7.8,2.03 -13.58,1.87 -21.35,-0.58 m 27.54,-43.02 c 6.2,-4.29 7.96,-8.57 10.35,-25.08 1.78,-12.35 1.9,-14.8 0.74,-15.53 -2.18,-1.38 -14.55,-1.04 -18.26,0.5 -1.85,0.77 -5.14,3.18 -7.32,5.36 -9.92,9.92 -11.61,32.45 -2.77,36.97 3.78,1.93 12.95,0.75 17.26,-2.22 m -107.35,19.06 c -5.1,-2.62 -7.96,-7.25 -7.97,-12.88 0,-3.22 1.63,-13.16 11.87,-72.11 l 2.76,-15.94 7.12,-0.29 c 6.3,-0.25 7.12,-0.08 7.12,1.49 0,0.98 -2.91,19.26 -6.47,40.63 -3.55,21.36 -6.46,40.5 -6.46,42.53 0,4.12 1.12,5.21 5.41,5.27 2.65,0.03 3.03,0.48 4.15,4.85 l 1.23,4.81 -3.65,1.53 c -6.21,2.6 -10.18,2.63 -15.11,0.1 m 243.14,1.03 c -7.77,-2.28 -12.92,-9.05 -12.96,-17.09 -0.01,-2.08 1.32,-11.5 2.97,-20.92 1.64,-9.42 3.2,-18.36 3.46,-19.87 0.46,-2.69 0.37,-2.74 -4.6,-2.74 h -5.07 l 0.71,-5.73 c 0.39,-3.15 0.91,-6.06 1.17,-6.47 0.26,-0.41 2.64,-0.74 5.31,-0.74 5.44,0 5.43,0.02 6.48,-8.96 1.09,-9.31 0.75,-8.96 8.66,-8.96 h 7.03 l -0.67,5.23 c -0.37,2.87 -0.93,6.91 -1.25,8.96 l -0.57,3.73 h 19.32 l -0.68,5.73 c -0.37,3.15 -0.97,6.04 -1.32,6.43 -0.35,0.38 -4.89,0.83 -10.09,0.99 l -9.44,0.29 -2.14,13.94 c -1.18,7.67 -2.65,17.07 -3.28,20.89 -1.03,6.31 -0.96,7.16 0.76,9.46 1.7,2.26 2.59,2.52 8.64,2.52 h 6.74 l 1.3,4.41 c 0.71,2.42 1.09,4.74 0.84,5.15 -0.65,1.05 -9.16,3.65 -13.88,4.24 -2.19,0.27 -5.53,0.04 -7.43,-0.51 m -210.72,-4.54 c 1.82,-9.93 5.86,-34.09 7.96,-47.61 1.36,-8.76 2.7,-16.95 2.98,-18.18 0.46,-2.06 1.05,-2.24 7.58,-2.24 h 7.08 l -0.65,5.23 c -0.36,2.87 -2.42,15.99 -4.57,29.14 -2.15,13.15 -4.27,26.6 -4.71,29.89 l -0.78,5.97 -7.7,0.29 -7.7,0.29 z m 113.41,0.95 c 0.28,-0.95 2.37,-13.4 4.65,-27.65 a 16001,16001 0 0 1 7.81,-48.32 l 3.67,-22.41 7.19,-0.29 c 6.04,-0.24 7.19,-0.03 7.19,1.3 0,1.81 -4.67,31.61 -5.53,35.28 -0.52,2.24 -0.28,2.16 3.42,-1.18 5.56,-5.02 9.49,-6.84 16.12,-7.44 7.68,-0.69 12.2,0.28 15.99,3.47 7.07,5.95 8.25,14.03 4.95,34.01 a 1511,1511 0 0 0 -3.61,23.27 l -1.7,11.7 h -7.34 c -6.33,0 -7.34,-0.24 -7.33,-1.74 0,-0.95 1.34,-9.77 2.97,-19.59 3.98,-24 4.51,-29.77 3.05,-33.3 -3.21,-7.76 -16.8,-6.13 -25.73,3.08 -2.93,3.02 -3.35,4.36 -5.6,17.7 -1.33,7.93 -2.94,18.01 -3.57,22.39 -1.76,12.28 -1.07,11.45 -9.62,11.45 -6.64,0 -7.41,-0.19 -6.96,-1.74 m -96.65,-82.12 c -4.54,-2.2 -5.65,-9.18 -2.1,-13.26 6.91,-7.95 18.9,-0.08 15.07,9.89 -1.4,3.64 -8.55,5.5 -12.96,3.36"
            class="yellow" />
        <path id="hyphen" d="m 398.4375,286.47354 h 48 v 15 h -48 z" class="blue" />
        <path id="gfo"
            d="m 301.3575,344.67354 c -14.76,-1.73 -25.52,-6.83 -35.7,-16.92 -13.33,-13.22 -18.76,-28.82 -17.58,-50.5 1.06,-19.53 5.48,-30.33 17.24,-42.24 12.64,-12.79 27.42,-17.98 48.31,-16.98 18.82,0.9 30.19,5.56 41.71,17.09 12.82,12.84 17.95,27.55 17.13,49.1 -0.69,18.14 -5.34,30.44 -15.87,41.96 -6.16,6.74 -12.48,10.8 -22.49,14.45 -11.01,4.01 -21.65,5.32 -32.75,4.02 m 24.53,-22.79 c 8.15,-3.21 14.14,-8.92 18.31,-17.47 10.47,-21.45 5.08,-49.05 -11.81,-60.4 -6.13,-4.12 -10.24,-5.34 -20.15,-5.97 -13.23,-0.84 -24.24,3.67 -32,13.14 -15.07,18.39 -11.54,53.71 6.67,66.68 1.71,1.22 5.64,3.27 8.72,4.57 4.83,2.02 6.92,2.3 15.1,2.02 6.84,-0.24 11.07,-0.95 15.14,-2.55 m -267.890005,20.88 c -12.21,-3.29 -19.82,-7.54 -27.67,-15.43 -3.93,-3.95 -8.46,-9.76 -10.209999,-13.1 -9.290001,-17.72 -10.6500006,-38.85 -3.680001,-57.47 3.17,-8.49 7.14,-14.54 13.85,-21.14 12.36,-12.14 25.86,-17.18 45.98,-17.17 18.44,0.01 33.810005,4.79 44.150005,13.73 l 3.67,3.18 -6.35,8.43 c -3.49,4.64 -6.42,8.56 -6.51,8.7 -0.09,0.14 -1.91001,-1.33 -4.06001,-3.3 -9.079995,-8.32 -19.789995,-11.94 -33.359995,-11.26 -20.11,1 -34.36,14.51 -37.37,35.46 -2.96,20.54 6.06,40.33 21.78,47.77 8.8,4.16 17.74,5.24 27.51,3.31 4.51,-0.89 10.31,-2.66 12.87,-3.93 l 4.659995,-2.31 0.28,-12.25 0.28,-12.25 H 75.757495 v -19 H 124.4375 l 0.67,25.53 0.67,25.53 -2.76,2.39 c -5.04,4.37 -16.27001,10.54 -24.070005,13.23 -10.61,3.65 -30.04,4.28 -40.97,1.34 m 93.770005,-62.03 v -61 h 83 v 20 h -61.05 l 0.27,15.75 0.27,15.75 27.17,0.26 27.17,0.26 0.32,7.23 c 0.18,3.97 0.18,8.24 0,9.48 l -0.32,2.25 h -54.82 v 51 h -22 z"
            class="blue" />
    </g>
    <g id="graph">
        <path id="edges" style="stroke-width:4"
            d="m 488.9775,21.083534 -18.1,48.42 z m -67.12599,48.34092 48.57599,-0.37092 z m -6.17339,57.871866 49.41045,-8.79765 z m 102.71938,-30.632786 -9.05,34.840006 z m -1.81,-2.72 33.03,23.080006 z m -48.88,-23.08 -2.30761,47.046456 z m 0.91,-3.17 49.32,27.15 z m 41.74,62.190006 -8.925,29.36 z m 27.95172,-81.469661 -19.68,47.74 z"
            class="blue" />
        <ellipse cx="415.80881" cy="127.23356" rx="12.1" ry="11.42" id="node10" class="blue" />
        <ellipse cx="502.21753" cy="158.20352" rx="11.2" ry="11.54" id="node9" class="blue" />
        <ellipse cx="549.28748" cy="116.79355" rx="11.42" ry="12.21" id="node8" class="blue" />
        <ellipse cx="537.7475" cy="48.463543" rx="15.04" ry="16.059999" id="node7" class="blue" />
        <ellipse cx="488.75751" cy="23.003532" rx="11.76" ry="11.65" id="node6" class="blue" />
        <ellipse cx="421.44006" cy="68.218826" rx="11.08" ry="10.74" id="node5" class="blue" />
        <g id="highlight">
            <ellipse cx="510.8175" cy="129.47354" rx="11.42" ry="10.86" id="node4" class="yellow" />
            <ellipse cx="518.73749" cy="95.413544" rx="16.4" ry="16.85" id="node3" class="yellow" />
            <ellipse cx="465.71164" cy="118.54746" rx="14.82" ry="15.38" id="node2" class="yellow" />
            <ellipse cx="470.19751" cy="66.563538" rx="16.969999" ry="16.51" id="node1" class="yellow" />
        </g>
    </g>
</svg>