<?xml version="1.0" encoding="UTF-8"?><svg xmlns="http://www.w3.org/2000/svg" xmlns:xlink="http://www.w3.org/1999/xlink" fill-opacity="1" color-rendering="auto" color-interpolation="auto" text-rendering="auto" stroke="black" stroke-linecap="square" width="1100" stroke-miterlimit="10" shape-rendering="auto" stroke-opacity="1" fill="black" stroke-dasharray="none" font-weight="normal" stroke-width="1" height="490" font-family="'Arial'" font-style="normal" stroke-linejoin="miter" font-size="12px" stroke-dashoffset="0" image-rendering="auto">
  <!--Generated by ySVG 2.6-->
  <defs id="genericDefs"/>
  <g>
    <defs id="defs1">
      <clipPath clipPathUnits="userSpaceOnUse" id="clipPath1">
        <path d="M0 0 L1100 0 L1100 490 L0 490 L0 0 Z"/>
      </clipPath>
      <clipPath clipPathUnits="userSpaceOnUse" id="clipPath2">
        <path d="M214 -499 L764 -499 L764 -254 L214 -254 L214 -499 Z"/>
      </clipPath>
    </defs>
    <g fill="white" text-rendering="geometricPrecision" shape-rendering="geometricPrecision" transform="scale(2,2) translate(-214,499)" stroke="white">
      <rect x="214" width="550" height="245" y="-499" clip-path="url(#clipPath2)" stroke="none"/>
    </g>
    <g text-rendering="geometricPrecision" stroke-miterlimit="1.45" shape-rendering="geometricPrecision" transform="matrix(2,0,0,2,-428,998)" stroke-linecap="butt">
      <path fill="none" d="M277.9767 -455.6995 L323.239 -455.6995" clip-path="url(#clipPath2)"/>
      <path fill="white" d="M338.239 -455.6995 L322.239 -461.6995 L322.239 -449.6995 Z" clip-path="url(#clipPath2)" stroke="none"/>
      <path fill="none" d="M338.239 -455.6995 L322.239 -461.6995 L322.239 -449.6995 Z" clip-path="url(#clipPath2)"/>
      <path fill="none" d="M440.4669 -455.6995 L395.2103 -455.6995" clip-path="url(#clipPath2)"/>
      <path fill="white" d="M380.2103 -455.6995 L396.2103 -449.6995 L396.2103 -461.6995 Z" clip-path="url(#clipPath2)" stroke="none"/>
      <path fill="none" d="M380.2103 -455.6995 L396.2103 -449.6995 L396.2103 -461.6995 Z" clip-path="url(#clipPath2)"/>
      <path fill="none" d="M242.96 -445.692 L242.96 -427 L359.2256 -427 L359.2256 -437.6939" clip-path="url(#clipPath2)"/>
      <path d="M359.2256 -445.6939 L354.2256 -433.6939 L359.2256 -436.6939 L364.2256 -433.6939 Z" clip-path="url(#clipPath2)" stroke="none"/>
      <text x="263.4024" xml:space="preserve" y="-431.6367" clip-path="url(#clipPath2)" font-family="sans-serif" stroke="none">instantiatedBy</text>
      <path fill="none" d="M252.96 -357.3893 L252.96 -397.3795 L373.4881 -397.3795" clip-path="url(#clipPath2)"/>
      <path fill="white" d="M388.4881 -397.3795 L372.4881 -403.3795 L372.4881 -391.3795 Z" clip-path="url(#clipPath2)" stroke="none"/>
      <path fill="none" d="M388.4881 -397.3795 L372.4881 -403.3795 L372.4881 -391.3795 Z" clip-path="url(#clipPath2)"/>
      <path fill="none" d="M446.9912 -357.3893 L446.9912 -372.3429" clip-path="url(#clipPath2)"/>
      <path fill="white" d="M446.9912 -387.3429 L440.9912 -371.3429 L452.9912 -371.3429 Z" clip-path="url(#clipPath2)" stroke="none"/>
      <path fill="none" d="M446.9912 -387.3429 L440.9912 -371.3429 L452.9912 -371.3429 Z" clip-path="url(#clipPath2)"/>
      <path fill="none" d="M595.0584 -357.3551 L595.0584 -392.3795 L520.5168 -392.3795" clip-path="url(#clipPath2)"/>
      <path fill="white" d="M505.5168 -392.3795 L521.5168 -386.3795 L521.5168 -398.3795 Z" clip-path="url(#clipPath2)" stroke="none"/>
      <path fill="none" d="M505.5168 -392.3795 L521.5168 -386.3795 L521.5168 -398.3795 Z" clip-path="url(#clipPath2)"/>
      <path fill="none" d="M505.4698 -402.3795 L696.8904 -402.3795 L696.8904 -365.3966" clip-path="url(#clipPath2)"/>
      <path d="M696.8904 -357.3966 L701.8904 -369.3966 L696.8904 -366.3966 L691.8904 -369.3966 Z" clip-path="url(#clipPath2)" stroke="none"/>
      <rect x="580.7465" y="-411.7301" clip-path="url(#clipPath2)" fill="white" width="50.0137" height="18.7012" stroke="none"/>
      <text x="582.7465" xml:space="preserve" y="-397.6657" clip-path="url(#clipPath2)" font-family="sans-serif" stroke="none">hasTime</text>
      <path fill="none" d="M668.3877 -307.3795 L660.8904 -307.3795 L660.8904 -322.4186" clip-path="url(#clipPath2)"/>
      <path fill="white" d="M660.8904 -337.4186 L654.8904 -321.4186 L666.8904 -321.4186 Z" clip-path="url(#clipPath2)" stroke="none"/>
      <path fill="none" d="M660.8904 -337.4186 L654.8904 -321.4186 L666.8904 -321.4186 Z" clip-path="url(#clipPath2)"/>
      <path fill="none" d="M668.3877 -272.3795 L660.8904 -272.3795 L660.8904 -322.382" clip-path="url(#clipPath2)"/>
      <path fill="white" d="M660.8904 -337.382 L654.8904 -321.382 L666.8904 -321.382 Z" clip-path="url(#clipPath2)" stroke="none"/>
      <path fill="none" d="M660.8904 -337.382 L654.8904 -321.382 L666.8904 -321.382 Z" clip-path="url(#clipPath2)"/>
      <path fill="none" d="M411.9841 -342.3795 L295.9406 -342.3795" clip-path="url(#clipPath2)"/>
      <path d="M287.9406 -342.3795 L299.9406 -337.3795 L296.9406 -342.3795 L299.9406 -347.3795 Z" clip-path="url(#clipPath2)" stroke="none"/>
      <text x="305.9482" xml:space="preserve" y="-328.3151" clip-path="url(#clipPath2)" font-family="sans-serif" stroke="none">hasSituationPart</text>
      <path fill="none" d="M472.9912 -407.3605 L472.9912 -430.739" clip-path="url(#clipPath2)"/>
      <path fill="white" d="M472.9912 -445.739 L466.9912 -429.739 L478.9912 -429.739 Z" clip-path="url(#clipPath2)" stroke="none"/>
      <path fill="none" d="M472.9912 -445.739 L466.9912 -429.739 L478.9912 -429.739 Z" clip-path="url(#clipPath2)"/>
      <path fill="none" d="M706.8904 -357.4103 L706.8904 -420.4867 L472.9912 -420.4867 L472.9912 -430.6927" clip-path="url(#clipPath2)"/>
      <path fill="white" d="M472.9912 -445.6927 L466.9912 -429.6927 L478.9912 -429.6927 Z" clip-path="url(#clipPath2)" stroke="none"/>
      <path fill="none" d="M472.9912 -445.6927 L466.9912 -429.6927 L478.9912 -429.6927 Z" clip-path="url(#clipPath2)"/>
      <path fill="none" d="M242.96 -357.3979 L242.96 -416 L457.9912 -416 L457.9912 -437.7359" clip-path="url(#clipPath2)"/>
      <path d="M457.9912 -445.7359 L452.9912 -433.7359 L457.9912 -436.7359 L462.9912 -433.7359 Z" clip-path="url(#clipPath2)" stroke="none"/>
      <rect x="316.1289" y="-425.3506" clip-path="url(#clipPath2)" fill="white" width="68.6934" height="18.7012" stroke="none"/>
      <text x="318.1289" xml:space="preserve" y="-411.2861" clip-path="url(#clipPath2)" font-family="sans-serif" stroke="none">attributiveOf</text>
      <path fill="none" d="M472.9912 -465.689 L472.9912 -475 L563.6662 -475 L563.6662 -455.6995 L513.5333 -455.6995" clip-path="url(#clipPath2)"/>
      <path d="M505.5333 -455.6995 L517.5333 -450.6995 L514.5333 -455.6995 L517.5333 -460.6995 Z" clip-path="url(#clipPath2)" stroke="none"/>
      <text x="457.9713" xml:space="preserve" y="-481.6367" clip-path="url(#clipPath2)" font-family="sans-serif" stroke="none">temporallyRelatedWith</text>
      <text x="567.6662" xml:space="preserve" y="-460.6359" clip-path="url(#clipPath2)" font-family="sans-serif" stroke="none">hasPart</text>
      <path fill="none" d="M481.9976 -262.3795 L660.4055 -262.3795" clip-path="url(#clipPath2)"/>
      <path d="M668.4055 -262.3795 L656.4055 -267.3795 L659.4055 -262.3795 L656.4055 -257.3795 Z" clip-path="url(#clipPath2)" stroke="none"/>
      <path fill="none" d="M595.0584 -337.3771 L595.0584 -262.3795 L660.3881 -262.3795" clip-path="url(#clipPath2)"/>
      <path d="M668.3881 -262.3795 L656.3881 -267.3795 L659.3881 -262.3795 L656.3881 -257.3795 Z" clip-path="url(#clipPath2)" stroke="none"/>
      <text x="610.2517" xml:space="preserve" y="-267.0163" clip-path="url(#clipPath2)" font-family="sans-serif" stroke="none">hasTime</text>
      <path fill="none" d="M559.5237 -347.3795 L489.9653 -347.3795" clip-path="url(#clipPath2)"/>
      <path d="M481.9653 -347.3795 L493.9653 -342.3795 L490.9653 -347.3795 L493.9653 -352.3795 Z" clip-path="url(#clipPath2)" stroke="none"/>
      <text x="485.0883" xml:space="preserve" y="-354.0163" clip-path="url(#clipPath2)" font-family="sans-serif" stroke="none">participatesIn</text>
      <path fill="none" d="M426.9766 -307.3795 L419.4912 -307.3795 L419.4912 -322.4186" clip-path="url(#clipPath2)"/>
      <path fill="white" d="M419.4912 -337.4186 L413.4912 -321.4186 L425.4912 -321.4186 Z" clip-path="url(#clipPath2)" stroke="none"/>
      <path fill="none" d="M419.4912 -337.4186 L413.4912 -321.4186 L425.4912 -321.4186 Z" clip-path="url(#clipPath2)"/>
      <path fill="none" d="M426.9766 -267.3795 L419.4912 -267.3795 L419.4912 -322.4186" clip-path="url(#clipPath2)"/>
      <path fill="white" d="M419.4912 -337.4186 L413.4912 -321.4186 L425.4912 -321.4186 Z" clip-path="url(#clipPath2)" stroke="none"/>
      <path fill="none" d="M419.4912 -337.4186 L413.4912 -321.4186 L425.4912 -321.4186 Z" clip-path="url(#clipPath2)"/>
      <path fill="none" d="M436.9912 -357.3814 L436.9912 -367 L330 -367 L330 -352.3795 L404.0024 -352.3795" clip-path="url(#clipPath2)"/>
      <path d="M412.0024 -352.3795 L400.0024 -357.3795 L403.0024 -352.3795 L400.0024 -347.3795 Z" clip-path="url(#clipPath2)" stroke="none"/>
      <text x="262.2726" xml:space="preserve" y="-371.6367" clip-path="url(#clipPath2)" font-family="sans-serif" stroke="none">leadsTo/causes/hasSituationPart</text>
    </g>
    <g fill="rgb(150,150,150)" text-rendering="geometricPrecision" shape-rendering="geometricPrecision" transform="matrix(2,0,0,2,-428,998)" stroke="rgb(150,150,150)">
      <rect x="217.96" y="-465.6995" clip-path="url(#clipPath2)" width="60" rx="4" ry="4" height="20" stroke="none"/>
    </g>
    <g stroke-linecap="butt" transform="matrix(2,0,0,2,-428,998)" fill="white" text-rendering="geometricPrecision" font-family="sans-serif" shape-rendering="geometricPrecision" stroke="white" font-weight="bold" stroke-miterlimit="1.45">
      <text x="221.9532" xml:space="preserve" y="-450.9857" clip-path="url(#clipPath2)" stroke="none">Category</text>
    </g>
    <g stroke-linecap="butt" transform="matrix(2,0,0,2,-428,998)" fill="rgb(150,150,150)" text-rendering="geometricPrecision" shape-rendering="geometricPrecision" stroke="rgb(150,150,150)" stroke-miterlimit="1.45">
      <rect x="217.96" y="-465.6995" clip-path="url(#clipPath2)" fill="none" width="60" rx="4" ry="4" height="20"/>
      <rect stroke-linecap="square" x="338.2256" y="-465.6995" clip-path="url(#clipPath2)" width="42" rx="4" ry="4" height="20" stroke="none" stroke-miterlimit="10"/>
    </g>
    <g stroke-linecap="butt" transform="matrix(2,0,0,2,-428,998)" fill="white" text-rendering="geometricPrecision" font-family="sans-serif" shape-rendering="geometricPrecision" stroke="white" font-weight="bold" stroke-miterlimit="1.45">
      <text x="342.5586" xml:space="preserve" y="-450.9857" clip-path="url(#clipPath2)" stroke="none">Entity</text>
    </g>
    <g stroke-linecap="butt" transform="matrix(2,0,0,2,-428,998)" fill="rgb(150,150,150)" text-rendering="geometricPrecision" shape-rendering="geometricPrecision" stroke="rgb(150,150,150)" stroke-miterlimit="1.45">
      <rect x="338.2256" y="-465.6995" clip-path="url(#clipPath2)" fill="none" width="42" rx="4" ry="4" height="20"/>
      <rect stroke-linecap="square" x="388.4912" y="-407.3795" clip-path="url(#clipPath2)" width="117" rx="4" ry="4" height="20" stroke="none" stroke-miterlimit="10"/>
    </g>
    <g stroke-linecap="butt" transform="matrix(2,0,0,2,-428,998)" fill="white" text-rendering="geometricPrecision" font-family="sans-serif" shape-rendering="geometricPrecision" stroke="white" font-weight="bold" stroke-miterlimit="1.45">
      <text x="392.9824" xml:space="preserve" y="-392.6657" clip-path="url(#clipPath2)" stroke="none">ConcreteIndividual</text>
    </g>
    <g stroke-linecap="butt" transform="matrix(2,0,0,2,-428,998)" fill="rgb(150,150,150)" text-rendering="geometricPrecision" shape-rendering="geometricPrecision" stroke="rgb(150,150,150)" stroke-miterlimit="1.45">
      <rect x="388.4912" y="-407.3795" clip-path="url(#clipPath2)" fill="none" width="117" rx="4" ry="4" height="20"/>
    </g>
    <g fill="rgb(43,138,132)" text-rendering="geometricPrecision" shape-rendering="geometricPrecision" transform="matrix(2,0,0,2,-428,998)" stroke="rgb(43,138,132)">
      <rect x="653.3904" y="-357.3795" clip-path="url(#clipPath2)" width="107" rx="4" ry="4" height="20" stroke="none"/>
    </g>
    <g stroke-linecap="butt" transform="matrix(2,0,0,2,-428,998)" fill="white" text-rendering="geometricPrecision" font-family="sans-serif" shape-rendering="geometricPrecision" stroke="white" font-weight="bold" stroke-miterlimit="1.45">
      <text x="676.2195" xml:space="preserve" y="-342.6657" clip-path="url(#clipPath2)" stroke="none">TimeEntity</text>
    </g>
    <g stroke-linecap="butt" transform="matrix(2,0,0,2,-428,998)" fill="rgb(43,138,132)" text-rendering="geometricPrecision" shape-rendering="geometricPrecision" stroke="rgb(43,138,132)" stroke-miterlimit="1.45">
      <rect x="653.3904" y="-357.3795" clip-path="url(#clipPath2)" fill="none" width="107" rx="4" ry="4" height="20"/>
    </g>
    <g fill="rgb(73,114,136)" text-rendering="geometricPrecision" shape-rendering="geometricPrecision" transform="matrix(2,0,0,2,-428,998)" stroke="rgb(73,114,136)">
      <rect x="217.96" y="-357.3795" clip-path="url(#clipPath2)" width="70" rx="4" ry="4" height="20" stroke="none"/>
    </g>
    <g stroke-linecap="butt" transform="matrix(2,0,0,2,-428,998)" fill="white" text-rendering="geometricPrecision" font-family="sans-serif" shape-rendering="geometricPrecision" stroke="white" font-weight="bold" stroke-miterlimit="1.45">
      <text x="222.96" xml:space="preserve" y="-342.6657" clip-path="url(#clipPath2)" stroke="none">Attributive</text>
    </g>
    <g stroke-linecap="butt" transform="matrix(2,0,0,2,-428,998)" fill="rgb(73,114,136)" text-rendering="geometricPrecision" shape-rendering="geometricPrecision" stroke="rgb(73,114,136)" stroke-miterlimit="1.45">
      <rect x="217.96" y="-357.3795" clip-path="url(#clipPath2)" fill="none" width="70" rx="4" ry="4" height="20"/>
    </g>
    <g fill="rgb(243,101,35)" text-rendering="geometricPrecision" shape-rendering="geometricPrecision" transform="matrix(2,0,0,2,-428,998)" stroke="rgb(243,101,35)">
      <rect x="559.5584" y="-357.3795" clip-path="url(#clipPath2)" width="71" rx="4" ry="4" height="20" stroke="none"/>
    </g>
    <g stroke-linecap="butt" transform="matrix(2,0,0,2,-428,998)" fill="white" text-rendering="geometricPrecision" font-family="sans-serif" shape-rendering="geometricPrecision" stroke="white" font-weight="bold" stroke-miterlimit="1.45">
      <text x="563.4002" xml:space="preserve" y="-342.6657" clip-path="url(#clipPath2)" stroke="none">Continuant</text>
    </g>
    <g stroke-linecap="butt" transform="matrix(2,0,0,2,-428,998)" fill="rgb(243,101,35)" text-rendering="geometricPrecision" shape-rendering="geometricPrecision" stroke="rgb(243,101,35)" stroke-miterlimit="1.45">
      <rect x="559.5584" y="-357.3795" clip-path="url(#clipPath2)" fill="none" width="71" rx="4" ry="4" height="20"/>
    </g>
    <g fill="rgb(150,150,150)" text-rendering="geometricPrecision" shape-rendering="geometricPrecision" transform="matrix(2,0,0,2,-428,998)" stroke="rgb(150,150,150)">
      <rect x="440.4912" y="-465.6995" clip-path="url(#clipPath2)" width="65" rx="4" ry="4" height="20" stroke="none"/>
    </g>
    <g stroke-linecap="butt" transform="matrix(2,0,0,2,-428,998)" fill="white" text-rendering="geometricPrecision" font-family="sans-serif" shape-rendering="geometricPrecision" stroke="white" font-weight="bold" stroke-miterlimit="1.45">
      <text x="444.9893" xml:space="preserve" y="-450.9857" clip-path="url(#clipPath2)" stroke="none">Individual</text>
    </g>
    <g stroke-linecap="butt" transform="matrix(2,0,0,2,-428,998)" fill="rgb(150,150,150)" text-rendering="geometricPrecision" shape-rendering="geometricPrecision" stroke="rgb(150,150,150)" stroke-miterlimit="1.45">
      <rect x="440.4912" y="-465.6995" clip-path="url(#clipPath2)" fill="none" width="65" rx="4" ry="4" height="20"/>
    </g>
    <g fill="rgb(43,138,132)" text-rendering="geometricPrecision" shape-rendering="geometricPrecision" transform="matrix(2,0,0,2,-428,998)" stroke="rgb(43,138,132)">
      <rect x="668.3904" y="-317.3795" clip-path="url(#clipPath2)" width="92" rx="4" ry="4" height="20" stroke="none"/>
    </g>
    <g stroke-linecap="butt" transform="matrix(2,0,0,2,-428,998)" fill="white" text-rendering="geometricPrecision" font-family="sans-serif" shape-rendering="geometricPrecision" stroke="white" font-weight="bold" stroke-miterlimit="1.45">
      <text x="672.3845" xml:space="preserve" y="-302.6657" clip-path="url(#clipPath2)" stroke="none">TimeBoundary</text>
    </g>
    <g stroke-linecap="butt" transform="matrix(2,0,0,2,-428,998)" fill="rgb(43,138,132)" text-rendering="geometricPrecision" shape-rendering="geometricPrecision" stroke="rgb(43,138,132)" stroke-miterlimit="1.45">
      <rect x="668.3904" y="-317.3795" clip-path="url(#clipPath2)" fill="none" width="92" rx="4" ry="4" height="20"/>
      <rect stroke-linecap="square" x="668.3904" y="-277.3795" clip-path="url(#clipPath2)" width="92" rx="4" ry="4" height="20" stroke="none" stroke-miterlimit="10"/>
    </g>
    <g stroke-linecap="butt" transform="matrix(2,0,0,2,-428,998)" fill="white" text-rendering="geometricPrecision" font-family="sans-serif" shape-rendering="geometricPrecision" stroke="white" font-weight="bold" stroke-miterlimit="1.45">
      <text x="687.7302" xml:space="preserve" y="-262.6657" clip-path="url(#clipPath2)" stroke="none">Chronoid</text>
    </g>
    <g stroke-linecap="butt" transform="matrix(2,0,0,2,-428,998)" fill="rgb(43,138,132)" text-rendering="geometricPrecision" shape-rendering="geometricPrecision" stroke="rgb(43,138,132)" stroke-miterlimit="1.45">
      <rect x="668.3904" y="-277.3795" clip-path="url(#clipPath2)" fill="none" width="92" rx="4" ry="4" height="20"/>
    </g>
    <g fill="rgb(157,64,95)" text-rendering="geometricPrecision" shape-rendering="geometricPrecision" transform="matrix(2,0,0,2,-428,998)" stroke="rgb(157,64,95)">
      <rect x="426.9912" y="-277.3795" clip-path="url(#clipPath2)" width="55" rx="4" ry="4" height="20" stroke="none"/>
    </g>
    <g stroke-linecap="butt" transform="matrix(2,0,0,2,-428,998)" fill="white" text-rendering="geometricPrecision" font-family="sans-serif" shape-rendering="geometricPrecision" stroke="white" font-weight="bold" stroke-miterlimit="1.45">
      <text x="431.1416" xml:space="preserve" y="-262.6657" clip-path="url(#clipPath2)" stroke="none">Process</text>
    </g>
    <g stroke-linecap="butt" transform="matrix(2,0,0,2,-428,998)" fill="rgb(157,64,95)" text-rendering="geometricPrecision" shape-rendering="geometricPrecision" stroke="rgb(157,64,95)" stroke-miterlimit="1.45">
      <rect x="426.9912" y="-277.3795" clip-path="url(#clipPath2)" fill="none" width="55" rx="4" ry="4" height="20"/>
      <rect stroke-linecap="square" x="426.9912" y="-317.3795" clip-path="url(#clipPath2)" width="55" rx="4" ry="4" height="20" stroke="none" stroke-miterlimit="10"/>
    </g>
    <g stroke-linecap="butt" transform="matrix(2,0,0,2,-428,998)" fill="white" text-rendering="geometricPrecision" font-family="sans-serif" shape-rendering="geometricPrecision" stroke="white" font-weight="bold" stroke-miterlimit="1.45">
      <text x="439.8193" xml:space="preserve" y="-302.6657" clip-path="url(#clipPath2)" stroke="none">State</text>
    </g>
    <g stroke-linecap="butt" transform="matrix(2,0,0,2,-428,998)" fill="rgb(157,64,95)" text-rendering="geometricPrecision" shape-rendering="geometricPrecision" stroke="rgb(157,64,95)" stroke-miterlimit="1.45">
      <rect x="426.9912" y="-317.3795" clip-path="url(#clipPath2)" fill="none" width="55" rx="4" ry="4" height="20"/>
      <rect stroke-linecap="square" x="411.9912" y="-357.3795" clip-path="url(#clipPath2)" width="70" rx="4" ry="4" height="20" stroke="none" stroke-miterlimit="10"/>
    </g>
    <g stroke-linecap="butt" transform="matrix(2,0,0,2,-428,998)" fill="white" text-rendering="geometricPrecision" font-family="sans-serif" shape-rendering="geometricPrecision" stroke="white" font-weight="bold" stroke-miterlimit="1.45">
      <text x="421.3271" xml:space="preserve" y="-342.6657" clip-path="url(#clipPath2)" stroke="none">Situation</text>
    </g>
    <g stroke-linecap="butt" transform="matrix(2,0,0,2,-428,998)" fill="rgb(157,64,95)" text-rendering="geometricPrecision" shape-rendering="geometricPrecision" stroke="rgb(157,64,95)" stroke-miterlimit="1.45">
      <rect x="411.9912" y="-357.3795" clip-path="url(#clipPath2)" fill="none" width="70" rx="4" ry="4" height="20"/>
    </g>
  </g>
</svg>
