<?xml version="1.0" encoding="UTF-8"?><svg xmlns="http://www.w3.org/2000/svg" xmlns:xlink="http://www.w3.org/1999/xlink" fill-opacity="1" color-rendering="auto" color-interpolation="auto" text-rendering="auto" stroke="black" stroke-linecap="square" width="1260" stroke-miterlimit="10" shape-rendering="auto" stroke-opacity="1" fill="black" stroke-dasharray="none" font-weight="normal" stroke-width="1" height="372" font-family="'Dialog'" font-style="normal" stroke-linejoin="miter" font-size="12px" stroke-dashoffset="0" image-rendering="auto">
  <!--Generated by ySVG 2.6-->
  <defs id="genericDefs"/>
  <g>
    <defs id="defs1">
      <clipPath clipPathUnits="userSpaceOnUse" id="clipPath1">
        <path d="M0 0 L1260 0 L1260 372 L0 372 L0 0 Z"/>
      </clipPath>
      <clipPath clipPathUnits="userSpaceOnUse" id="clipPath2">
        <path d="M150 -498 L780 -498 L780 -312 L150 -312 L150 -498 Z"/>
      </clipPath>
    </defs>
    <g fill="white" text-rendering="geometricPrecision" shape-rendering="geometricPrecision" transform="scale(2,2) translate(-150,498)" stroke="white">
      <rect x="150" width="630" height="186" y="-498" clip-path="url(#clipPath2)" stroke="none"/>
    </g>
    <g text-rendering="geometricPrecision" stroke-miterlimit="1.45" shape-rendering="geometricPrecision" transform="matrix(2,0,0,2,-300,996)" stroke-linecap="butt">
      <path fill="none" d="M415.7102 -455.6995 L311.6884 -455.6995" clip-path="url(#clipPath2)"/>
      <path d="M303.6884 -455.6995 L315.6884 -450.6995 L312.6884 -455.6995 L315.6884 -460.6995 Z" clip-path="url(#clipPath2)" stroke="none"/>
      <rect x="329.0274" y="-465.0501" clip-path="url(#clipPath2)" fill="white" width="61.3633" height="18.7012" stroke="none"/>
      <text x="331.0274" xml:space="preserve" y="-450.9857" clip-path="url(#clipPath2)" font-family="sans-serif" stroke="none">instanceOf</text>
      <path fill="none" d="M273.698 -465.6966 L273.698 -484.6995 L324.9533 -484.6995" clip-path="url(#clipPath2)"/>
      <path fill="white" d="M339.9533 -484.6995 L323.9533 -490.6995 L323.9533 -478.6995 Z" clip-path="url(#clipPath2)" stroke="none"/>
      <path fill="none" d="M339.9533 -484.6995 L323.9533 -490.6995 L323.9533 -478.6995 Z" clip-path="url(#clipPath2)"/>
      <path fill="none" d="M448.22 -465.6966 L448.22 -484.6995 L396.9647 -484.6995" clip-path="url(#clipPath2)"/>
      <path fill="white" d="M381.9647 -484.6995 L397.9647 -478.6995 L397.9647 -490.6995 Z" clip-path="url(#clipPath2)" stroke="none"/>
      <path fill="none" d="M381.9647 -484.6995 L397.9647 -478.6995 L397.9647 -490.6995 Z" clip-path="url(#clipPath2)"/>
      <path fill="none" d="M268.698 -357.3966 L268.698 -402.3795 L374.7088 -402.3795" clip-path="url(#clipPath2)"/>
      <path fill="white" d="M389.7088 -402.3795 L373.7088 -408.3795 L373.7088 -396.3795 Z" clip-path="url(#clipPath2)" stroke="none"/>
      <path fill="none" d="M389.7088 -402.3795 L373.7088 -408.3795 L373.7088 -396.3795 Z" clip-path="url(#clipPath2)"/>
      <path fill="none" d="M448.22 -357.3893 L448.22 -372.3429" clip-path="url(#clipPath2)"/>
      <path fill="white" d="M448.22 -387.3429 L442.22 -371.3429 L454.22 -371.3429 Z" clip-path="url(#clipPath2)" stroke="none"/>
      <path fill="none" d="M448.22 -387.3429 L442.22 -371.3429 L454.22 -371.3429 Z" clip-path="url(#clipPath2)"/>
      <path fill="none" d="M188.698 -357.3966 L188.698 -402.3795 L374.7072 -402.3795" clip-path="url(#clipPath2)"/>
      <path fill="white" d="M389.7072 -402.3795 L373.7072 -408.3795 L373.7072 -396.3795 Z" clip-path="url(#clipPath2)" stroke="none"/>
      <path fill="none" d="M389.7072 -402.3795 L373.7072 -408.3795 L373.7072 -396.3795 Z" clip-path="url(#clipPath2)"/>
      <path fill="none" d="M644.214 -357.3551 L644.214 -392.3795 L521.7407 -392.3795" clip-path="url(#clipPath2)"/>
      <path fill="white" d="M506.7407 -392.3795 L522.7407 -386.3795 L522.7407 -398.3795 Z" clip-path="url(#clipPath2)" stroke="none"/>
      <path fill="none" d="M506.7407 -392.3795 L522.7407 -386.3795 L522.7407 -398.3795 Z" clip-path="url(#clipPath2)"/>
      <path fill="none" d="M506.7269 -402.3795 L726.714 -402.3795 L726.714 -365.3966" clip-path="url(#clipPath2)"/>
      <path d="M726.714 -357.3966 L731.714 -369.3966 L726.714 -366.3966 L721.714 -369.3966 Z" clip-path="url(#clipPath2)" stroke="none"/>
      <rect x="596.2727" y="-411.7301" clip-path="url(#clipPath2)" fill="white" width="50.0137" height="18.7012" stroke="none"/>
      <text x="598.2726" xml:space="preserve" y="-397.6657" clip-path="url(#clipPath2)" font-family="sans-serif" stroke="none">hasTime</text>
      <path fill="none" d="M396.7214 -347.3795 L311.6731 -347.3795" clip-path="url(#clipPath2)"/>
      <path d="M303.6731 -347.3795 L315.6731 -342.3795 L312.6731 -347.3795 L315.6731 -352.3795 Z" clip-path="url(#clipPath2)" stroke="none"/>
      <text x="306.1817" xml:space="preserve" y="-354.0163" clip-path="url(#clipPath2)" font-family="sans-serif" stroke="none">hasSituationPart</text>
      <path fill="none" d="M389.6974 -392.3795 L283.698 -392.3795 L283.698 -365.3551" clip-path="url(#clipPath2)"/>
      <path d="M283.698 -357.3551 L288.698 -369.3551 L283.698 -366.3551 L278.698 -369.3551 Z" clip-path="url(#clipPath2)" stroke="none"/>
      <rect x="293.7949" y="-401.7301" clip-path="url(#clipPath2)" fill="white" width="76.7031" height="18.7012" stroke="none"/>
      <text x="295.795" xml:space="preserve" y="-387.6657" clip-path="url(#clipPath2)" font-family="sans-serif" stroke="none">hasAttributive</text>
      <path fill="none" d="M448.22 -407.3748 L448.22 -430.742" clip-path="url(#clipPath2)"/>
      <path fill="white" d="M448.22 -445.742 L442.22 -429.742 L454.22 -429.742 Z" clip-path="url(#clipPath2)" stroke="none"/>
      <path fill="none" d="M448.22 -445.742 L442.22 -429.742 L454.22 -429.742 Z" clip-path="url(#clipPath2)"/>
      <path fill="none" d="M741.714 -357.4103 L741.714 -420.4867 L448.22 -420.4867 L448.22 -430.6927" clip-path="url(#clipPath2)"/>
      <path fill="white" d="M448.22 -445.6927 L442.22 -429.6927 L454.22 -429.6927 Z" clip-path="url(#clipPath2)" stroke="none"/>
      <path fill="none" d="M448.22 -445.6927 L442.22 -429.6927 L454.22 -429.6927 Z" clip-path="url(#clipPath2)"/>
      <path fill="none" d="M591.7225 -347.3795 L507.6861 -347.3795" clip-path="url(#clipPath2)"/>
      <path d="M499.6861 -347.3795 L511.6861 -342.3795 L508.6861 -347.3795 L511.6861 -352.3795 Z" clip-path="url(#clipPath2)" stroke="none"/>
      <text x="503.3654" xml:space="preserve" y="-354.0163" clip-path="url(#clipPath2)" font-family="sans-serif" stroke="none">hasProcessPart</text>
      <path fill="none" d="M188.698 -337.3558 L188.698 -315 L448.22 -315 L448.22 -329.3558" clip-path="url(#clipPath2)"/>
      <path d="M448.22 -337.3558 L443.22 -325.3558 L448.22 -328.3558 L453.22 -325.3558 Z" clip-path="url(#clipPath2)" stroke="none"/>
      <text x="282.7725" xml:space="preserve" y="-321.6367" clip-path="url(#clipPath2)" font-family="sans-serif" stroke="none">participatesIn</text>
      <path fill="none" d="M188.698 -337.3558 L188.698 -315 L644.214 -315 L644.214 -329.3558" clip-path="url(#clipPath2)"/>
      <path d="M644.214 -337.3558 L639.214 -325.3558 L644.214 -328.3558 L649.214 -325.3558 Z" clip-path="url(#clipPath2)" stroke="none"/>
    </g>
    <g fill="rgb(150,150,150)" text-rendering="geometricPrecision" shape-rendering="geometricPrecision" transform="matrix(2,0,0,2,-300,996)" stroke="rgb(150,150,150)">
      <rect x="243.698" y="-465.6995" clip-path="url(#clipPath2)" width="60" rx="4" ry="4" height="20" stroke="none"/>
    </g>
    <g stroke-linecap="butt" transform="matrix(2,0,0,2,-300,996)" fill="white" text-rendering="geometricPrecision" font-family="sans-serif" shape-rendering="geometricPrecision" stroke="white" font-weight="bold" stroke-miterlimit="1.45">
      <text x="247.6912" xml:space="preserve" y="-450.9857" clip-path="url(#clipPath2)" stroke="none">Category</text>
    </g>
    <g stroke-linecap="butt" transform="matrix(2,0,0,2,-300,996)" fill="rgb(150,150,150)" text-rendering="geometricPrecision" shape-rendering="geometricPrecision" stroke="rgb(150,150,150)" stroke-miterlimit="1.45">
      <rect x="243.698" y="-465.6995" clip-path="url(#clipPath2)" fill="none" width="60" rx="4" ry="4" height="20"/>
      <rect stroke-linecap="square" x="339.959" y="-494.6995" clip-path="url(#clipPath2)" width="42" rx="4" ry="4" height="20" stroke="none" stroke-miterlimit="10"/>
    </g>
    <g stroke-linecap="butt" transform="matrix(2,0,0,2,-300,996)" fill="white" text-rendering="geometricPrecision" font-family="sans-serif" shape-rendering="geometricPrecision" stroke="white" font-weight="bold" stroke-miterlimit="1.45">
      <text x="344.292" xml:space="preserve" y="-479.9857" clip-path="url(#clipPath2)" stroke="none">Entity</text>
    </g>
    <g stroke-linecap="butt" transform="matrix(2,0,0,2,-300,996)" fill="rgb(150,150,150)" text-rendering="geometricPrecision" shape-rendering="geometricPrecision" stroke="rgb(150,150,150)" stroke-miterlimit="1.45">
      <rect x="339.959" y="-494.6995" clip-path="url(#clipPath2)" fill="none" width="42" rx="4" ry="4" height="20"/>
      <rect stroke-linecap="square" x="389.72" y="-407.3795" clip-path="url(#clipPath2)" width="117" rx="4" ry="4" height="20" stroke="none" stroke-miterlimit="10"/>
    </g>
    <g stroke-linecap="butt" transform="matrix(2,0,0,2,-300,996)" fill="white" text-rendering="geometricPrecision" font-family="sans-serif" shape-rendering="geometricPrecision" stroke="white" font-weight="bold" stroke-miterlimit="1.45">
      <text x="394.2112" xml:space="preserve" y="-392.6657" clip-path="url(#clipPath2)" stroke="none">ConcreteIndividual</text>
    </g>
    <g stroke-linecap="butt" transform="matrix(2,0,0,2,-300,996)" fill="rgb(150,150,150)" text-rendering="geometricPrecision" shape-rendering="geometricPrecision" stroke="rgb(150,150,150)" stroke-miterlimit="1.45">
      <rect x="389.72" y="-407.3795" clip-path="url(#clipPath2)" fill="none" width="117" rx="4" ry="4" height="20"/>
    </g>
    <g fill="rgb(43,138,132)" text-rendering="geometricPrecision" shape-rendering="geometricPrecision" transform="matrix(2,0,0,2,-300,996)" stroke="rgb(43,138,132)">
      <rect x="706.714" y="-357.3795" clip-path="url(#clipPath2)" width="70" rx="4" ry="4" height="20" stroke="none"/>
    </g>
    <g stroke-linecap="butt" transform="matrix(2,0,0,2,-300,996)" fill="white" text-rendering="geometricPrecision" font-family="sans-serif" shape-rendering="geometricPrecision" stroke="white" font-weight="bold" stroke-miterlimit="1.45">
      <text x="711.0431" xml:space="preserve" y="-342.6657" clip-path="url(#clipPath2)" stroke="none">TimeEntity</text>
    </g>
    <g stroke-linecap="butt" transform="matrix(2,0,0,2,-300,996)" fill="rgb(43,138,132)" text-rendering="geometricPrecision" shape-rendering="geometricPrecision" stroke="rgb(43,138,132)" stroke-miterlimit="1.45">
      <rect x="706.714" y="-357.3795" clip-path="url(#clipPath2)" fill="none" width="70" rx="4" ry="4" height="20"/>
    </g>
    <g fill="rgb(73,114,136)" text-rendering="geometricPrecision" shape-rendering="geometricPrecision" transform="matrix(2,0,0,2,-300,996)" stroke="rgb(73,114,136)">
      <rect x="233.698" y="-357.3795" clip-path="url(#clipPath2)" width="70" rx="4" ry="4" height="20" stroke="none"/>
    </g>
    <g stroke-linecap="butt" transform="matrix(2,0,0,2,-300,996)" fill="white" text-rendering="geometricPrecision" font-family="sans-serif" shape-rendering="geometricPrecision" stroke="white" font-weight="bold" stroke-miterlimit="1.45">
      <text x="238.698" xml:space="preserve" y="-342.6657" clip-path="url(#clipPath2)" stroke="none">Attributive</text>
    </g>
    <g stroke-linecap="butt" transform="matrix(2,0,0,2,-300,996)" fill="rgb(73,114,136)" text-rendering="geometricPrecision" shape-rendering="geometricPrecision" stroke="rgb(73,114,136)" stroke-miterlimit="1.45">
      <rect x="233.698" y="-357.3795" clip-path="url(#clipPath2)" fill="none" width="70" rx="4" ry="4" height="20"/>
    </g>
    <g fill="rgb(243,101,35)" text-rendering="geometricPrecision" shape-rendering="geometricPrecision" transform="matrix(2,0,0,2,-300,996)" stroke="rgb(243,101,35)">
      <rect x="153.698" y="-357.3795" clip-path="url(#clipPath2)" width="70" rx="4" ry="4" height="20" stroke="none"/>
    </g>
    <g stroke-linecap="butt" transform="matrix(2,0,0,2,-300,996)" fill="white" text-rendering="geometricPrecision" font-family="sans-serif" shape-rendering="geometricPrecision" stroke="white" font-weight="bold" stroke-miterlimit="1.45">
      <text x="157.0398" xml:space="preserve" y="-342.6657" clip-path="url(#clipPath2)" stroke="none">Continuant</text>
    </g>
    <g stroke-linecap="butt" transform="matrix(2,0,0,2,-300,996)" fill="rgb(243,101,35)" text-rendering="geometricPrecision" shape-rendering="geometricPrecision" stroke="rgb(243,101,35)" stroke-miterlimit="1.45">
      <rect x="153.698" y="-357.3795" clip-path="url(#clipPath2)" fill="none" width="70" rx="4" ry="4" height="20"/>
    </g>
    <g fill="rgb(150,150,150)" text-rendering="geometricPrecision" shape-rendering="geometricPrecision" transform="matrix(2,0,0,2,-300,996)" stroke="rgb(150,150,150)">
      <rect x="415.72" y="-465.6995" clip-path="url(#clipPath2)" width="65" rx="4" ry="4" height="20" stroke="none"/>
    </g>
    <g stroke-linecap="butt" transform="matrix(2,0,0,2,-300,996)" fill="white" text-rendering="geometricPrecision" font-family="sans-serif" shape-rendering="geometricPrecision" stroke="white" font-weight="bold" stroke-miterlimit="1.45">
      <text x="420.218" xml:space="preserve" y="-450.9857" clip-path="url(#clipPath2)" stroke="none">Individual</text>
    </g>
    <g stroke-linecap="butt" transform="matrix(2,0,0,2,-300,996)" fill="rgb(150,150,150)" text-rendering="geometricPrecision" shape-rendering="geometricPrecision" stroke="rgb(150,150,150)" stroke-miterlimit="1.45">
      <rect x="415.72" y="-465.6995" clip-path="url(#clipPath2)" fill="none" width="65" rx="4" ry="4" height="20"/>
    </g>
    <g fill="rgb(157,64,95)" text-rendering="geometricPrecision" shape-rendering="geometricPrecision" transform="matrix(2,0,0,2,-300,996)" stroke="rgb(157,64,95)">
      <rect x="396.72" y="-357.3795" clip-path="url(#clipPath2)" width="103" rx="4" ry="4" height="20" stroke="none"/>
    </g>
    <g stroke-linecap="butt" transform="matrix(2,0,0,2,-300,996)" fill="white" text-rendering="geometricPrecision" font-family="sans-serif" shape-rendering="geometricPrecision" stroke="white" font-weight="bold" stroke-miterlimit="1.45">
      <text x="400.885" xml:space="preserve" y="-342.6657" clip-path="url(#clipPath2)" stroke="none">SituationalEntity</text>
    </g>
    <g stroke-linecap="butt" transform="matrix(2,0,0,2,-300,996)" fill="rgb(157,64,95)" text-rendering="geometricPrecision" shape-rendering="geometricPrecision" stroke="rgb(157,64,95)" stroke-miterlimit="1.45">
      <rect x="396.72" y="-357.3795" clip-path="url(#clipPath2)" fill="none" width="103" rx="4" ry="4" height="20"/>
    </g>
    <g fill="rgb(247,149,29)" text-rendering="geometricPrecision" shape-rendering="geometricPrecision" transform="matrix(2,0,0,2,-300,996)" stroke="rgb(247,149,29)">
      <rect x="591.714" y="-357.3795" clip-path="url(#clipPath2)" width="105" rx="4" ry="4" height="20" stroke="none"/>
    </g>
    <g stroke-linecap="butt" transform="matrix(2,0,0,2,-300,996)" fill="white" text-rendering="geometricPrecision" font-family="sans-serif" shape-rendering="geometricPrecision" stroke="white" font-weight="bold" stroke-miterlimit="1.45">
      <text x="595.5284" xml:space="preserve" y="-342.6657" clip-path="url(#clipPath2)" stroke="none">ProcessualEntity</text>
    </g>
    <g stroke-linecap="butt" transform="matrix(2,0,0,2,-300,996)" fill="rgb(247,149,29)" text-rendering="geometricPrecision" shape-rendering="geometricPrecision" stroke="rgb(247,149,29)" stroke-miterlimit="1.45">
      <rect x="591.714" y="-357.3795" clip-path="url(#clipPath2)" fill="none" width="105" rx="4" ry="4" height="20"/>
    </g>
  </g>
</svg>
