<?xml version="1.0" encoding="UTF-8"?><svg xmlns="http://www.w3.org/2000/svg" xmlns:xlink="http://www.w3.org/1999/xlink" fill-opacity="1" color-rendering="auto" color-interpolation="auto" text-rendering="auto" stroke="black" stroke-linecap="square" width="1572" stroke-miterlimit="10" shape-rendering="auto" stroke-opacity="1" fill="black" stroke-dasharray="none" font-weight="normal" stroke-width="1" height="968" font-family="'Dialog'" font-style="normal" stroke-linejoin="miter" font-size="12px" stroke-dashoffset="0" image-rendering="auto">
  <!--Generated by ySVG 2.6-->
  <defs id="genericDefs"/>
  <g>
    <defs id="defs1">
      <clipPath clipPathUnits="userSpaceOnUse" id="clipPath1">
        <path d="M0 0 L1572 0 L1572 968 L0 968 L0 0 Z"/>
      </clipPath>
      <clipPath clipPathUnits="userSpaceOnUse" id="clipPath2">
        <path d="M29 -498 L815 -498 L815 -14 L29 -14 L29 -498 Z"/>
      </clipPath>
    </defs>
    <g fill="white" text-rendering="geometricPrecision" shape-rendering="geometricPrecision" transform="scale(2,2) translate(-29,498)" stroke="white">
      <rect x="29" width="786" height="484" y="-498" clip-path="url(#clipPath2)" stroke="none"/>
    </g>
    <g text-rendering="geometricPrecision" stroke-miterlimit="1.45" shape-rendering="geometricPrecision" transform="matrix(2,0,0,2,-58,996)" stroke-linecap="butt">
      <path fill="none" d="M623.804 -357.3866 L623.804 -375 L746.242 -375 L746.242 -365.3866" clip-path="url(#clipPath2)"/>
      <path d="M746.242 -357.3866 L751.242 -369.3866 L746.242 -366.3866 L741.242 -369.3866 Z" clip-path="url(#clipPath2)" stroke="none"/>
      <rect x="660.0162" y="-384.3506" clip-path="url(#clipPath2)" fill="white" width="50.0137" height="18.7012" stroke="none"/>
      <text x="662.0162" xml:space="preserve" y="-370.2861" clip-path="url(#clipPath2)" font-family="sans-serif" stroke="none">hasTime</text>
      <path fill="none" d="M108.4048 -465.6966 L108.4048 -484.6995 L238.28 -484.6995" clip-path="url(#clipPath2)"/>
      <path fill="white" d="M253.28 -484.6995 L237.28 -490.6995 L237.28 -478.6995 Z" clip-path="url(#clipPath2)" stroke="none"/>
      <path fill="none" d="M253.28 -484.6995 L237.28 -490.6995 L237.28 -478.6995 Z" clip-path="url(#clipPath2)"/>
      <path fill="none" d="M440.408 -465.6966 L440.408 -484.6995 L336.2814 -484.6995" clip-path="url(#clipPath2)"/>
      <path fill="white" d="M321.2814 -484.6995 L337.2814 -478.6995 L337.2814 -490.6995 Z" clip-path="url(#clipPath2)" stroke="none"/>
      <path fill="none" d="M321.2814 -484.6995 L337.2814 -478.6995 L337.2814 -490.6995 Z" clip-path="url(#clipPath2)"/>
      <path fill="none" d="M142.4288 -455.6995 L287.304 -455.6995 L287.304 -466.7025" clip-path="url(#clipPath2)"/>
      <path d="M287.304 -474.7025 L282.304 -462.7025 L287.304 -465.7025 L292.304 -462.7025 Z" clip-path="url(#clipPath2)" stroke="none"/>
      <rect x="179.7265" y="-465.0501" clip-path="url(#clipPath2)" fill="white" width="79.3809" height="18.7012" stroke="none"/>
      <text x="181.7265" xml:space="preserve" y="-450.9857" clip-path="url(#clipPath2)" font-family="sans-serif" stroke="none">instantiatedBy</text>
      <path fill="none" d="M282.304 -357.3893 L282.304 -397.3795 L365.3856 -397.3795" clip-path="url(#clipPath2)"/>
      <path fill="white" d="M380.3856 -397.3795 L364.3856 -403.3795 L364.3856 -391.3795 Z" clip-path="url(#clipPath2)" stroke="none"/>
      <path fill="none" d="M380.3856 -397.3795 L364.3856 -403.3795 L364.3856 -391.3795 Z" clip-path="url(#clipPath2)"/>
      <path fill="none" d="M440.408 -357.3893 L440.408 -372.3429" clip-path="url(#clipPath2)"/>
      <path fill="white" d="M440.408 -387.3429 L434.408 -371.3429 L446.408 -371.3429 Z" clip-path="url(#clipPath2)" stroke="none"/>
      <path fill="none" d="M440.408 -387.3429 L434.408 -371.3429 L446.408 -371.3429 Z" clip-path="url(#clipPath2)"/>
      <path fill="none" d="M108.4048 -357.3893 L108.4048 -397.3795 L365.3864 -397.3795" clip-path="url(#clipPath2)"/>
      <path fill="white" d="M380.3864 -397.3795 L364.3864 -403.3795 L364.3864 -391.3795 Z" clip-path="url(#clipPath2)" stroke="none"/>
      <path fill="none" d="M380.3864 -397.3795 L364.3864 -403.3795 L364.3864 -391.3795 Z" clip-path="url(#clipPath2)"/>
      <path fill="none" d="M613.804 -357.3551 L613.804 -392.3795 L515.3939 -392.3795" clip-path="url(#clipPath2)"/>
      <path fill="white" d="M500.3939 -392.3795 L516.3939 -386.3795 L516.3939 -398.3795 Z" clip-path="url(#clipPath2)" stroke="none"/>
      <path fill="none" d="M500.3939 -392.3795 L516.3939 -386.3795 L516.3939 -398.3795 Z" clip-path="url(#clipPath2)"/>
      <path fill="none" d="M791.7938 -307.3795 L801.242 -307.3795 L801.242 -372.404" clip-path="url(#clipPath2)"/>
      <path fill="white" d="M801.242 -387.404 L795.242 -371.404 L807.242 -371.404 Z" clip-path="url(#clipPath2)" stroke="none"/>
      <path fill="none" d="M801.242 -387.404 L795.242 -371.404 L807.242 -371.404 Z" clip-path="url(#clipPath2)"/>
      <path fill="none" d="M791.7938 -347.3795 L801.242 -347.3795 L801.242 -372.3698" clip-path="url(#clipPath2)"/>
      <path fill="white" d="M801.242 -387.3698 L795.242 -371.3698 L807.242 -371.3698 Z" clip-path="url(#clipPath2)" stroke="none"/>
      <path fill="none" d="M801.242 -387.3698 L795.242 -371.3698 L807.242 -371.3698 Z" clip-path="url(#clipPath2)"/>
      <path fill="none" d="M500.4365 -402.3795 L692.6905 -402.3795" clip-path="url(#clipPath2)"/>
      <path d="M700.6905 -402.3795 L688.6905 -407.3795 L691.6905 -402.3795 L688.6905 -397.3795 Z" clip-path="url(#clipPath2)" stroke="none"/>
      <rect x="575.5382" y="-411.7301" clip-path="url(#clipPath2)" fill="white" width="50.0137" height="18.7012" stroke="none"/>
      <text x="577.5381" xml:space="preserve" y="-397.6657" clip-path="url(#clipPath2)" font-family="sans-serif" stroke="none">hasTime</text>
      <path fill="none" d="M297.304 -237.4186 L297.304 -249.4023" clip-path="url(#clipPath2)"/>
      <path d="M297.304 -257.4023 L292.304 -245.4023 L297.304 -248.4023 L302.304 -245.4023 Z" clip-path="url(#clipPath2)" stroke="none"/>
      <text x="303.304" xml:space="preserve" y="-242.6657" clip-path="url(#clipPath2)" font-family="sans-serif" stroke="none">roleIn</text>
      <path fill="none" d="M273.3104 -232.3795 L263.601 -232.3795 L263.601 -322.37" clip-path="url(#clipPath2)"/>
      <path fill="white" d="M263.601 -337.37 L257.601 -321.37 L269.601 -321.37 Z" clip-path="url(#clipPath2)" stroke="none"/>
      <path fill="none" d="M263.601 -337.37 L257.601 -321.37 L269.601 -321.37 Z" clip-path="url(#clipPath2)"/>
      <path fill="none" d="M273.3104 -307.3795 L263.601 -307.3795 L263.601 -322.3607" clip-path="url(#clipPath2)"/>
      <path fill="white" d="M263.601 -337.3607 L257.601 -321.3607 L269.601 -321.3607 Z" clip-path="url(#clipPath2)" stroke="none"/>
      <path fill="none" d="M263.601 -337.3607 L257.601 -321.3607 L269.601 -321.3607 Z" clip-path="url(#clipPath2)"/>
      <path fill="none" d="M273.3104 -267.3795 L263.601 -267.3795 L263.601 -322.37" clip-path="url(#clipPath2)"/>
      <path fill="white" d="M263.601 -337.37 L257.601 -321.37 L269.601 -321.37 Z" clip-path="url(#clipPath2)" stroke="none"/>
      <path fill="none" d="M263.601 -337.37 L257.601 -321.37 L269.601 -321.37 Z" clip-path="url(#clipPath2)"/>
      <path fill="none" d="M430.408 -357.3866 L430.408 -375 L292.304 -375 L292.304 -365.3866" clip-path="url(#clipPath2)"/>
      <path d="M292.304 -357.3866 L297.304 -369.3866 L292.304 -366.3866 L287.304 -369.3866 Z" clip-path="url(#clipPath2)" stroke="none"/>
      <rect x="315.3287" y="-384.3506" clip-path="url(#clipPath2)" fill="white" width="92.0547" height="18.7012" stroke="none"/>
      <text x="317.3286" xml:space="preserve" y="-370.2861" clip-path="url(#clipPath2)" font-family="sans-serif" stroke="none">hasSituationPart</text>
      <path fill="none" d="M128.4048 -89.4186 L128.4048 -77.3828" clip-path="url(#clipPath2)"/>
      <path d="M128.4048 -97.4186 L123.4048 -85.4186 L128.4048 -88.4186 L133.4048 -85.4186 Z" clip-path="url(#clipPath2)" stroke="none"/>
      <text x="134.4048" xml:space="preserve" y="-82.6657" clip-path="url(#clipPath2)" font-family="sans-serif" stroke="none">boundaryOf</text>
      <path fill="none" d="M52.9473 -307.3795 L42.9648 -307.3795 L42.9648 -322.33" clip-path="url(#clipPath2)"/>
      <path fill="white" d="M42.9648 -337.33 L36.9648 -321.33 L48.9648 -321.33 Z" clip-path="url(#clipPath2)" stroke="none"/>
      <path fill="none" d="M42.9648 -337.33 L36.9648 -321.33 L48.9648 -321.33 Z" clip-path="url(#clipPath2)"/>
      <path fill="none" d="M52.9473 -227.3795 L42.9648 -227.3795 L42.9648 -322.37" clip-path="url(#clipPath2)"/>
      <path fill="white" d="M42.9648 -337.37 L36.9648 -321.37 L48.9648 -321.37 Z" clip-path="url(#clipPath2)" stroke="none"/>
      <path fill="none" d="M42.9648 -337.37 L36.9648 -321.37 L48.9648 -321.37 Z" clip-path="url(#clipPath2)"/>
      <path fill="none" d="M52.9473 -147.3795 L42.9648 -147.3795 L42.9648 -322.3436" clip-path="url(#clipPath2)"/>
      <path fill="white" d="M42.9648 -337.3436 L36.9648 -321.3436 L48.9648 -321.3436 Z" clip-path="url(#clipPath2)" stroke="none"/>
      <path fill="none" d="M42.9648 -337.3436 L36.9648 -321.3436 L48.9648 -321.3436 Z" clip-path="url(#clipPath2)"/>
      <path fill="none" d="M52.9473 -267.3795 L42.9648 -267.3795 L42.9648 -322.35" clip-path="url(#clipPath2)"/>
      <path fill="white" d="M42.9648 -337.35 L36.9648 -321.35 L48.9648 -321.35 Z" clip-path="url(#clipPath2)" stroke="none"/>
      <path fill="none" d="M42.9648 -337.35 L36.9648 -321.35 L48.9648 -321.35 Z" clip-path="url(#clipPath2)"/>
      <path fill="none" d="M72.9661 -107.3795 L62.9648 -107.3795 L62.9648 -122.355" clip-path="url(#clipPath2)"/>
      <path fill="white" d="M62.9648 -137.355 L56.9648 -121.355 L68.9648 -121.355 Z" clip-path="url(#clipPath2)" stroke="none"/>
      <path fill="none" d="M62.9648 -137.355 L56.9648 -121.355 L68.9648 -121.355 Z" clip-path="url(#clipPath2)"/>
      <path fill="none" d="M72.9661 -67.3795 L62.9648 -67.3795 L62.9648 -122.365" clip-path="url(#clipPath2)"/>
      <path fill="white" d="M62.9648 -137.365 L56.9648 -121.365 L68.9648 -121.365 Z" clip-path="url(#clipPath2)" stroke="none"/>
      <path fill="none" d="M62.9648 -137.365 L56.9648 -121.365 L68.9648 -121.365 Z" clip-path="url(#clipPath2)"/>
      <path fill="none" d="M72.9661 -27.3795 L62.9648 -27.3795 L62.9648 -122.375" clip-path="url(#clipPath2)"/>
      <path fill="white" d="M62.9648 -137.375 L56.9648 -121.375 L68.9648 -121.375 Z" clip-path="url(#clipPath2)" stroke="none"/>
      <path fill="none" d="M62.9648 -137.375 L56.9648 -121.375 L68.9648 -121.375 Z" clip-path="url(#clipPath2)"/>
      <path fill="none" d="M81.1084 -317.4137 L81.1084 -328.464 L199.28 -328.464 L199.28 -315.3795 L191.2924 -315.3795" clip-path="url(#clipPath2)"/>
      <path d="M183.2924 -315.3795 L195.2924 -310.3795 L192.2924 -315.3795 L195.2924 -320.3795 Z" clip-path="url(#clipPath2)" stroke="none"/>
      <rect x="106.5155" y="-337.8146" clip-path="url(#clipPath2)" fill="white" width="67.3574" height="18.7012" stroke="none"/>
      <text x="108.5155" xml:space="preserve" y="-323.7501" clip-path="url(#clipPath2)" font-family="sans-serif" stroke="none">hasMember</text>
      <path fill="none" d="M273.3039 -227.3795 L210 -227.3795 L210 -307.3795 L191.8363 -307.3795" clip-path="url(#clipPath2)"/>
      <path d="M183.8363 -307.3795 L195.8363 -302.3795 L192.8363 -307.3795 L195.8363 -312.3795 Z" clip-path="url(#clipPath2)" stroke="none"/>
      <path fill="none" d="M128.4048 -49.4186 L128.4048 -37.3828" clip-path="url(#clipPath2)"/>
      <path d="M128.4048 -57.4186 L123.4048 -45.4186 L128.4048 -48.4186 L133.4048 -45.4186 Z" clip-path="url(#clipPath2)" stroke="none"/>
      <text x="134.4048" xml:space="preserve" y="-42.6657" clip-path="url(#clipPath2)" font-family="sans-serif" stroke="none">boundaryOf</text>
      <path fill="none" d="M273.3039 -227.3795 L210 -227.3795 L191.8363 -227.3795" clip-path="url(#clipPath2)"/>
      <path d="M183.8363 -227.3795 L195.8363 -222.3795 L192.8363 -227.3795 L195.8363 -232.3795 Z" clip-path="url(#clipPath2)" stroke="none"/>
      <rect x="220.0807" y="-236.7301" clip-path="url(#clipPath2)" fill="white" width="34.0176" height="18.7012" stroke="none"/>
      <text x="222.0807" xml:space="preserve" y="-222.6657" clip-path="url(#clipPath2)" font-family="sans-serif" stroke="none">roleIn</text>
      <path fill="none" d="M65.5662 -157.3843 L65.5662 -209.3571" clip-path="url(#clipPath2)"/>
      <path d="M65.5662 -217.3571 L60.5662 -205.3571 L65.5662 -208.3571 L70.5662 -205.3571 Z" clip-path="url(#clipPath2)" stroke="none"/>
      <text x="68.2543" xml:space="preserve" y="-163.1901" clip-path="url(#clipPath2)" font-family="sans-serif" stroke="none">hasOwner</text>
      <path fill="none" d="M183.8651 -107.3795 L199.28 -107.3795 L199.28 -219.3795 L191.2924 -219.3795" clip-path="url(#clipPath2)"/>
      <path d="M183.2924 -219.3795 L195.2924 -214.3795 L192.2924 -219.3795 L195.2924 -224.3795 Z" clip-path="url(#clipPath2)" stroke="none"/>
      <rect x="163.6446" y="-136.7047" clip-path="url(#clipPath2)" fill="white" width="66.707" height="18.7012" stroke="none"/>
      <text x="165.6446" xml:space="preserve" y="-122.6402" clip-path="url(#clipPath2)" font-family="sans-serif" stroke="none">boundaryOf</text>
      <path fill="none" d="M118.4048 -257.4186 L118.4048 -245.3828" clip-path="url(#clipPath2)"/>
      <path d="M118.4048 -237.3828 L123.4048 -249.3828 L118.4048 -246.3828 L113.4048 -249.3828 Z" clip-path="url(#clipPath2)" stroke="none"/>
      <text x="124.4048" xml:space="preserve" y="-242.6657" clip-path="url(#clipPath2)" font-family="sans-serif" stroke="none">partOf</text>
      <path fill="none" d="M183.2924 -299.3795 L199.28 -299.3795 L199.28 -235.3795 L191.2924 -235.3795" clip-path="url(#clipPath2)"/>
      <path d="M183.2924 -235.3795 L195.2924 -230.3795 L192.2924 -235.3795 L195.2924 -240.3795 Z" clip-path="url(#clipPath2)" stroke="none"/>
      <text x="132.9981" xml:space="preserve" y="-282.8212" clip-path="url(#clipPath2)" font-family="sans-serif" stroke="none">hasMember</text>
      <path fill="none" d="M128.3728 -197.3663 L128.3728 -202.369" clip-path="url(#clipPath2)"/>
      <path fill="white" d="M128.3728 -217.369 L122.3728 -201.369 L134.3728 -201.369 Z" clip-path="url(#clipPath2)" stroke="none"/>
      <path fill="none" d="M128.3728 -217.369 L122.3728 -201.369 L134.3728 -201.369 Z" clip-path="url(#clipPath2)"/>
      <path fill="none" d="M440.408 -407.3748 L440.408 -430.742" clip-path="url(#clipPath2)"/>
      <path fill="white" d="M440.408 -445.742 L434.408 -429.742 L446.408 -429.742 Z" clip-path="url(#clipPath2)" stroke="none"/>
      <path fill="none" d="M440.408 -445.742 L434.408 -429.742 L446.408 -429.742 Z" clip-path="url(#clipPath2)"/>
      <path fill="none" d="M756.242 -407.3535 L756.242 -420.4867 L440.408 -420.4867 L440.408 -430.6927" clip-path="url(#clipPath2)"/>
      <path fill="white" d="M440.408 -445.6927 L434.408 -429.6927 L446.408 -429.6927 Z" clip-path="url(#clipPath2)" stroke="none"/>
      <path fill="none" d="M440.408 -445.6927 L434.408 -429.6927 L446.408 -429.6927 Z" clip-path="url(#clipPath2)"/>
      <path fill="none" d="M321.3057 -227.3795 L354 -227.3795 L354 -349.7776 L362.4155 -349.544" clip-path="url(#clipPath2)"/>
      <path d="M370.4124 -349.3221 L358.5558 -354.6531 L361.4159 -349.5718 L358.2784 -344.6569 Z" clip-path="url(#clipPath2)" stroke="none"/>
      <rect x="336.9912" y="-261.5911" clip-path="url(#clipPath2)" fill="white" width="34.0176" height="18.7012" stroke="none"/>
      <text x="338.9912" xml:space="preserve" y="-247.5267" clip-path="url(#clipPath2)" font-family="sans-serif" stroke="none">roleIn</text>
      <path fill="none" d="M603.804 -357.3866 L603.804 -375 L450.408 -375 L450.408 -365.3866" clip-path="url(#clipPath2)"/>
      <path d="M450.408 -357.3866 L455.408 -369.3866 L450.408 -366.3866 L445.408 -369.3866 Z" clip-path="url(#clipPath2)" stroke="none"/>
      <rect x="482.7544" y="-384.3506" clip-path="url(#clipPath2)" fill="white" width="88.7031" height="18.7012" stroke="none"/>
      <text x="484.7544" xml:space="preserve" y="-370.2861" clip-path="url(#clipPath2)" font-family="sans-serif" stroke="none">hasProcessPart</text>
      <path fill="none" d="M390.3772 -307.3795 L379.5474 -307.3795 L379.5474 -322.3752" clip-path="url(#clipPath2)"/>
      <path fill="white" d="M379.5474 -337.3752 L373.5474 -321.3752 L385.5474 -321.3752 Z" clip-path="url(#clipPath2)" stroke="none"/>
      <path fill="none" d="M379.5474 -337.3752 L373.5474 -321.3752 L385.5474 -321.3752 Z" clip-path="url(#clipPath2)"/>
      <path fill="none" d="M390.3772 -267.3795 L379.5474 -267.3795 L379.5474 -322.3533" clip-path="url(#clipPath2)"/>
      <path fill="white" d="M379.5474 -337.3533 L373.5474 -321.3533 L385.5474 -321.3533 Z" clip-path="url(#clipPath2)" stroke="none"/>
      <path fill="none" d="M379.5474 -337.3533 L373.5474 -321.3533 L385.5474 -321.3533 Z" clip-path="url(#clipPath2)"/>
      <path fill="none" d="M450.3029 -317.3695 L450.1767 -329.3793" clip-path="url(#clipPath2)"/>
      <path d="M450.0926 -337.3789 L445.219 -325.327 L450.1872 -328.3794 L455.2184 -325.4321 Z" clip-path="url(#clipPath2)" stroke="none"/>
      <text x="456.296" xml:space="preserve" y="-322.6657" clip-path="url(#clipPath2)" font-family="sans-serif" stroke="none">hasMember</text>
      <path fill="none" d="M321.2916 -227.3795 L530.408 -227.3795 L530.408 -347.3795 L538.4113 -347.3795" clip-path="url(#clipPath2)"/>
      <path d="M546.4113 -347.3795 L534.4113 -352.3795 L537.4113 -347.3795 L534.4113 -342.3795 Z" clip-path="url(#clipPath2)" stroke="none"/>
      <rect x="513.3992" y="-261.0568" clip-path="url(#clipPath2)" fill="white" width="34.0176" height="18.7012" stroke="none"/>
      <text x="515.3992" xml:space="preserve" y="-246.9923" clip-path="url(#clipPath2)" font-family="sans-serif" stroke="none">roleIn</text>
      <path fill="none" d="M566.3796 -307.3795 L556.02 -307.3795 L556.0292 -322.3658" clip-path="url(#clipPath2)"/>
      <path fill="white" d="M556.0383 -337.3658 L550.0286 -321.3694 L562.0286 -321.3621 Z" clip-path="url(#clipPath2)" stroke="none"/>
      <path fill="none" d="M556.0383 -337.3658 L550.0286 -321.3694 L562.0286 -321.3621 Z" clip-path="url(#clipPath2)"/>
      <path fill="none" d="M566.3796 -267.3795 L556.02 -267.3795 L556.0344 -322.3636" clip-path="url(#clipPath2)"/>
      <path fill="white" d="M556.0383 -337.3636 L550.0342 -321.3651 L562.0342 -321.362 Z" clip-path="url(#clipPath2)" stroke="none"/>
      <path fill="none" d="M556.0383 -337.3636 L550.0342 -321.3651 L562.0342 -321.362 Z" clip-path="url(#clipPath2)"/>
      <path fill="none" d="M623.7118 -317.3781 L623.6013 -329.3657" clip-path="url(#clipPath2)"/>
      <path d="M623.5275 -337.3654 L618.6384 -325.3197 L623.6105 -328.3658 L628.6379 -325.412 Z" clip-path="url(#clipPath2)" stroke="none"/>
      <text x="629.7058" xml:space="preserve" y="-322.6657" clip-path="url(#clipPath2)" font-family="sans-serif" stroke="none">hasMember</text>
    </g>
    <g fill="rgb(150,150,150)" text-rendering="geometricPrecision" shape-rendering="geometricPrecision" transform="matrix(2,0,0,2,-58,996)" stroke="rgb(150,150,150)">
      <rect x="74.4048" y="-465.6995" clip-path="url(#clipPath2)" width="68" rx="4" ry="4" height="20" stroke="none"/>
    </g>
    <g stroke-linecap="butt" transform="matrix(2,0,0,2,-58,996)" fill="white" text-rendering="geometricPrecision" font-family="sans-serif" shape-rendering="geometricPrecision" stroke="white" font-weight="bold" stroke-miterlimit="1.45">
      <text x="82.398" xml:space="preserve" y="-450.9857" clip-path="url(#clipPath2)" stroke="none">Category</text>
    </g>
    <g stroke-linecap="butt" transform="matrix(2,0,0,2,-58,996)" fill="rgb(150,150,150)" text-rendering="geometricPrecision" shape-rendering="geometricPrecision" stroke="rgb(150,150,150)" stroke-miterlimit="1.45">
      <rect x="74.4048" y="-465.6995" clip-path="url(#clipPath2)" fill="none" width="68" rx="4" ry="4" height="20"/>
    </g>
    <g fill="rgb(43,138,132)" text-rendering="geometricPrecision" shape-rendering="geometricPrecision" transform="matrix(2,0,0,2,-58,996)" stroke="rgb(43,138,132)">
      <rect x="700.682" y="-357.3795" clip-path="url(#clipPath2)" width="91.12" rx="4" ry="4" height="20" stroke="none"/>
    </g>
    <g stroke-linecap="butt" transform="matrix(2,0,0,2,-58,996)" fill="white" text-rendering="geometricPrecision" font-family="sans-serif" shape-rendering="geometricPrecision" stroke="white" font-weight="bold" stroke-miterlimit="1.45">
      <text x="719.5818" xml:space="preserve" y="-342.6657" clip-path="url(#clipPath2)" stroke="none">Chronoid</text>
    </g>
    <g stroke-linecap="butt" transform="matrix(2,0,0,2,-58,996)" fill="rgb(43,138,132)" text-rendering="geometricPrecision" shape-rendering="geometricPrecision" stroke="rgb(43,138,132)" stroke-miterlimit="1.45">
      <rect x="700.682" y="-357.3795" clip-path="url(#clipPath2)" fill="none" width="91.12" rx="4" ry="4" height="20"/>
    </g>
    <g fill="rgb(150,150,150)" text-rendering="geometricPrecision" shape-rendering="geometricPrecision" transform="matrix(2,0,0,2,-58,996)" stroke="rgb(150,150,150)">
      <rect x="253.304" y="-494.6995" clip-path="url(#clipPath2)" width="68" rx="4" ry="4" height="20" stroke="none"/>
    </g>
    <g stroke-linecap="butt" transform="matrix(2,0,0,2,-58,996)" fill="white" text-rendering="geometricPrecision" font-family="sans-serif" shape-rendering="geometricPrecision" stroke="white" font-weight="bold" stroke-miterlimit="1.45">
      <text x="270.637" xml:space="preserve" y="-479.9857" clip-path="url(#clipPath2)" stroke="none">Entity</text>
    </g>
    <g stroke-linecap="butt" transform="matrix(2,0,0,2,-58,996)" fill="rgb(150,150,150)" text-rendering="geometricPrecision" shape-rendering="geometricPrecision" stroke="rgb(150,150,150)" stroke-miterlimit="1.45">
      <rect x="253.304" y="-494.6995" clip-path="url(#clipPath2)" fill="none" width="68" rx="4" ry="4" height="20"/>
      <rect stroke-linecap="square" x="380.408" y="-407.3795" clip-path="url(#clipPath2)" width="120" rx="4" ry="4" height="20" stroke="none" stroke-miterlimit="10"/>
    </g>
    <g stroke-linecap="butt" transform="matrix(2,0,0,2,-58,996)" fill="white" text-rendering="geometricPrecision" font-family="sans-serif" shape-rendering="geometricPrecision" stroke="white" font-weight="bold" stroke-miterlimit="1.45">
      <text x="386.3992" xml:space="preserve" y="-392.6657" clip-path="url(#clipPath2)" stroke="none">ConcreteIndividual</text>
    </g>
    <g stroke-linecap="butt" transform="matrix(2,0,0,2,-58,996)" fill="rgb(150,150,150)" text-rendering="geometricPrecision" shape-rendering="geometricPrecision" stroke="rgb(150,150,150)" stroke-miterlimit="1.45">
      <rect x="380.408" y="-407.3795" clip-path="url(#clipPath2)" fill="none" width="120" rx="4" ry="4" height="20"/>
    </g>
    <g fill="rgb(43,138,132)" text-rendering="geometricPrecision" shape-rendering="geometricPrecision" transform="matrix(2,0,0,2,-58,996)" stroke="rgb(43,138,132)">
      <rect x="700.682" y="-407.3795" clip-path="url(#clipPath2)" width="111.12" rx="4" ry="4" height="20" stroke="none"/>
    </g>
    <g stroke-linecap="butt" transform="matrix(2,0,0,2,-58,996)" fill="white" text-rendering="geometricPrecision" font-family="sans-serif" shape-rendering="geometricPrecision" stroke="white" font-weight="bold" stroke-miterlimit="1.45">
      <text x="725.5711" xml:space="preserve" y="-392.6657" clip-path="url(#clipPath2)" stroke="none">TimeEntity</text>
    </g>
    <g stroke-linecap="butt" transform="matrix(2,0,0,2,-58,996)" fill="rgb(43,138,132)" text-rendering="geometricPrecision" shape-rendering="geometricPrecision" stroke="rgb(43,138,132)" stroke-miterlimit="1.45">
      <rect x="700.682" y="-407.3795" clip-path="url(#clipPath2)" fill="none" width="111.12" rx="4" ry="4" height="20"/>
      <rect stroke-linecap="square" x="700.682" y="-317.3795" clip-path="url(#clipPath2)" width="91.12" rx="4" ry="4" height="20" stroke="none" stroke-miterlimit="10"/>
    </g>
    <g stroke-linecap="butt" transform="matrix(2,0,0,2,-58,996)" fill="white" text-rendering="geometricPrecision" font-family="sans-serif" shape-rendering="geometricPrecision" stroke="white" font-weight="bold" stroke-miterlimit="1.45">
      <text x="704.2361" xml:space="preserve" y="-302.6657" clip-path="url(#clipPath2)" stroke="none">TimeBoundary</text>
    </g>
    <g stroke-linecap="butt" transform="matrix(2,0,0,2,-58,996)" fill="rgb(43,138,132)" text-rendering="geometricPrecision" shape-rendering="geometricPrecision" stroke="rgb(43,138,132)" stroke-miterlimit="1.45">
      <rect x="700.682" y="-317.3795" clip-path="url(#clipPath2)" fill="none" width="91.12" rx="4" ry="4" height="20"/>
    </g>
    <g stroke-linecap="butt" transform="matrix(2,0,0,2,-58,996)" text-rendering="geometricPrecision" font-family="sans-serif" shape-rendering="geometricPrecision" font-weight="bold" stroke-miterlimit="1.45">
      <text x="276.6321" xml:space="preserve" y="-262.6657" clip-path="url(#clipPath2)" stroke="none">Relator</text>
    </g>
    <g stroke-linecap="butt" transform="matrix(2,0,0,2,-58,996)" fill="rgb(73,114,136)" text-rendering="geometricPrecision" shape-rendering="geometricPrecision" stroke="rgb(73,114,136)" stroke-miterlimit="1.45">
      <rect x="273.304" y="-277.3795" clip-path="url(#clipPath2)" fill="none" width="48" rx="4" ry="4" height="20"/>
    </g>
    <g stroke-linecap="butt" transform="matrix(2,0,0,2,-58,996)" text-rendering="geometricPrecision" font-family="sans-serif" shape-rendering="geometricPrecision" font-weight="bold" stroke-miterlimit="1.45">
      <text x="284.302" xml:space="preserve" y="-222.6657" clip-path="url(#clipPath2)" stroke="none">Role</text>
    </g>
    <g stroke-linecap="butt" transform="matrix(2,0,0,2,-58,996)" fill="rgb(73,114,136)" text-rendering="geometricPrecision" shape-rendering="geometricPrecision" stroke="rgb(73,114,136)" stroke-miterlimit="1.45">
      <rect x="273.304" y="-237.3795" clip-path="url(#clipPath2)" fill="none" width="48" rx="4" ry="4" height="20"/>
    </g>
    <g stroke-linecap="butt" transform="matrix(2,0,0,2,-58,996)" text-rendering="geometricPrecision" font-family="sans-serif" shape-rendering="geometricPrecision" font-weight="bold" stroke-miterlimit="1.45">
      <text x="276.9661" xml:space="preserve" y="-302.6657" clip-path="url(#clipPath2)" stroke="none">Quality</text>
    </g>
    <g stroke-linecap="butt" transform="matrix(2,0,0,2,-58,996)" fill="rgb(73,114,136)" text-rendering="geometricPrecision" shape-rendering="geometricPrecision" stroke="rgb(73,114,136)" stroke-miterlimit="1.45">
      <rect x="273.304" y="-317.3795" clip-path="url(#clipPath2)" fill="none" width="48" rx="4" ry="4" height="20"/>
      <rect stroke-linecap="square" x="253.304" y="-357.3795" clip-path="url(#clipPath2)" width="68" rx="4" ry="4" height="20" stroke="none" stroke-miterlimit="10"/>
    </g>
    <g stroke-linecap="butt" transform="matrix(2,0,0,2,-58,996)" fill="white" text-rendering="geometricPrecision" font-family="sans-serif" shape-rendering="geometricPrecision" stroke="white" font-weight="bold" stroke-miterlimit="1.45">
      <text x="257.304" xml:space="preserve" y="-342.6657" clip-path="url(#clipPath2)" stroke="none">Attributive</text>
    </g>
    <g stroke-linecap="butt" transform="matrix(2,0,0,2,-58,996)" fill="rgb(73,114,136)" text-rendering="geometricPrecision" shape-rendering="geometricPrecision" stroke="rgb(73,114,136)" stroke-miterlimit="1.45">
      <rect x="253.304" y="-357.3795" clip-path="url(#clipPath2)" fill="none" width="68" rx="4" ry="4" height="20"/>
    </g>
    <g stroke-linecap="butt" transform="matrix(2,0,0,2,-58,996)" text-rendering="geometricPrecision" font-family="sans-serif" shape-rendering="geometricPrecision" font-weight="bold" stroke-miterlimit="1.45">
      <text x="116.0708" xml:space="preserve" y="-62.6657" clip-path="url(#clipPath2)" stroke="none">Line</text>
    </g>
    <g stroke-linecap="butt" transform="matrix(2,0,0,2,-58,996)" fill="rgb(243,101,35)" text-rendering="geometricPrecision" shape-rendering="geometricPrecision" stroke="rgb(243,101,35)" stroke-miterlimit="1.45">
      <rect x="72.976" y="-77.3795" clip-path="url(#clipPath2)" fill="none" width="110.8576" rx="4" ry="4" height="20"/>
      <rect stroke-linecap="square" x="32.976" y="-357.3795" clip-path="url(#clipPath2)" width="150.8576" rx="4" ry="4" height="20" stroke="none" stroke-miterlimit="10"/>
    </g>
    <g stroke-linecap="butt" transform="matrix(2,0,0,2,-58,996)" fill="white" text-rendering="geometricPrecision" font-family="sans-serif" shape-rendering="geometricPrecision" stroke="white" font-weight="bold" stroke-miterlimit="1.45">
      <text x="76.7466" xml:space="preserve" y="-342.6657" clip-path="url(#clipPath2)" stroke="none">Continuant</text>
    </g>
    <g stroke-linecap="butt" transform="matrix(2,0,0,2,-58,996)" fill="rgb(243,101,35)" text-rendering="geometricPrecision" shape-rendering="geometricPrecision" stroke="rgb(243,101,35)" stroke-miterlimit="1.45">
      <rect x="32.976" y="-357.3795" clip-path="url(#clipPath2)" fill="none" width="150.8576" rx="4" ry="4" height="20"/>
    </g>
    <g stroke-linecap="butt" transform="matrix(2,0,0,2,-58,996)" text-rendering="geometricPrecision" font-family="sans-serif" shape-rendering="geometricPrecision" font-weight="bold" stroke-miterlimit="1.45">
      <text x="71.7319" xml:space="preserve" y="-142.6657" clip-path="url(#clipPath2)" stroke="none">ObjectBoundary</text>
    </g>
    <g stroke-linecap="butt" transform="matrix(2,0,0,2,-58,996)" fill="rgb(243,101,35)" text-rendering="geometricPrecision" shape-rendering="geometricPrecision" stroke="rgb(243,101,35)" stroke-miterlimit="1.45">
      <rect x="52.976" y="-157.3795" clip-path="url(#clipPath2)" fill="none" width="130.8576" rx="4" ry="4" height="20"/>
    </g>
    <g stroke-linecap="butt" transform="matrix(2,0,0,2,-58,996)" text-rendering="geometricPrecision" font-family="sans-serif" shape-rendering="geometricPrecision" font-weight="bold" stroke-miterlimit="1.45">
      <text x="70.062" xml:space="preserve" y="-302.6657" clip-path="url(#clipPath2)" stroke="none">ObjectAggregate</text>
    </g>
    <g stroke-linecap="butt" transform="matrix(2,0,0,2,-58,996)" fill="rgb(243,101,35)" text-rendering="geometricPrecision" shape-rendering="geometricPrecision" stroke="rgb(243,101,35)" stroke-miterlimit="1.45">
      <rect x="52.976" y="-317.3795" clip-path="url(#clipPath2)" fill="none" width="130.8576" rx="4" ry="4" height="20"/>
    </g>
    <g stroke-linecap="butt" transform="matrix(2,0,0,2,-58,996)" text-rendering="geometricPrecision" font-family="sans-serif" shape-rendering="geometricPrecision" font-weight="bold" stroke-miterlimit="1.45">
      <text x="113.4077" xml:space="preserve" y="-22.6657" clip-path="url(#clipPath2)" stroke="none">Point</text>
    </g>
    <g stroke-linecap="butt" transform="matrix(2,0,0,2,-58,996)" fill="rgb(243,101,35)" text-rendering="geometricPrecision" shape-rendering="geometricPrecision" stroke="rgb(243,101,35)" stroke-miterlimit="1.45">
      <rect x="72.976" y="-37.3795" clip-path="url(#clipPath2)" fill="none" width="110.8576" rx="4" ry="4" height="20"/>
    </g>
    <g stroke-linecap="butt" transform="matrix(2,0,0,2,-58,996)" text-rendering="geometricPrecision" font-family="sans-serif" shape-rendering="geometricPrecision" font-weight="bold" stroke-miterlimit="1.45">
      <text x="99.7339" xml:space="preserve" y="-222.6657" clip-path="url(#clipPath2)" stroke="none">Object</text>
    </g>
    <g stroke-linecap="butt" transform="matrix(2,0,0,2,-58,996)" fill="rgb(243,101,35)" text-rendering="geometricPrecision" shape-rendering="geometricPrecision" stroke="rgb(243,101,35)" stroke-miterlimit="1.45">
      <rect x="52.976" y="-237.3795" clip-path="url(#clipPath2)" fill="none" width="130.8576" rx="4" ry="4" height="20"/>
    </g>
    <g stroke-linecap="butt" transform="matrix(2,0,0,2,-58,996)" text-rendering="geometricPrecision" font-family="sans-serif" shape-rendering="geometricPrecision" font-weight="bold" stroke-miterlimit="1.45">
      <text x="106.3941" xml:space="preserve" y="-102.6657" clip-path="url(#clipPath2)" stroke="none">Surface</text>
    </g>
    <g stroke-linecap="butt" transform="matrix(2,0,0,2,-58,996)" fill="rgb(243,101,35)" text-rendering="geometricPrecision" shape-rendering="geometricPrecision" stroke="rgb(243,101,35)" stroke-miterlimit="1.45">
      <rect x="72.976" y="-117.3795" clip-path="url(#clipPath2)" fill="none" width="110.8576" rx="4" ry="4" height="20"/>
    </g>
    <g fill="rgb(150,150,150)" text-rendering="geometricPrecision" shape-rendering="geometricPrecision" transform="matrix(2,0,0,2,-58,996)" stroke="rgb(150,150,150)">
      <rect x="406.408" y="-465.6995" clip-path="url(#clipPath2)" width="68" rx="4" ry="4" height="20" stroke="none"/>
    </g>
    <g stroke-linecap="butt" transform="matrix(2,0,0,2,-58,996)" fill="white" text-rendering="geometricPrecision" font-family="sans-serif" shape-rendering="geometricPrecision" stroke="white" font-weight="bold" stroke-miterlimit="1.45">
      <text x="412.406" xml:space="preserve" y="-450.9857" clip-path="url(#clipPath2)" stroke="none">Individual</text>
    </g>
    <g stroke-linecap="butt" transform="matrix(2,0,0,2,-58,996)" fill="rgb(150,150,150)" text-rendering="geometricPrecision" shape-rendering="geometricPrecision" stroke="rgb(150,150,150)" stroke-miterlimit="1.45">
      <rect x="406.408" y="-465.6995" clip-path="url(#clipPath2)" fill="none" width="68" rx="4" ry="4" height="20"/>
    </g>
    <g stroke-linecap="butt" transform="matrix(2,0,0,2,-58,996)" text-rendering="geometricPrecision" font-family="sans-serif" shape-rendering="geometricPrecision" font-weight="bold" stroke-miterlimit="1.45">
      <text x="88.062" xml:space="preserve" y="-262.6657" clip-path="url(#clipPath2)" stroke="none">ObjectPart</text>
    </g>
    <g stroke-linecap="butt" transform="matrix(2,0,0,2,-58,996)" fill="rgb(243,101,35)" text-rendering="geometricPrecision" shape-rendering="geometricPrecision" stroke="rgb(243,101,35)" stroke-miterlimit="1.45">
      <rect x="52.976" y="-277.3795" clip-path="url(#clipPath2)" fill="none" width="130.8576" rx="4" ry="4" height="20"/>
    </g>
    <g stroke-linecap="butt" transform="matrix(2,0,0,2,-58,996)" text-rendering="geometricPrecision" font-family="sans-serif" shape-rendering="geometricPrecision" font-weight="bold" stroke-miterlimit="1.45">
      <text x="398.0662" xml:space="preserve" y="-262.6657" clip-path="url(#clipPath2)" stroke="none">CohesiveSituation</text>
    </g>
    <g stroke-linecap="butt" transform="matrix(2,0,0,2,-58,996)" fill="rgb(157,64,95)" text-rendering="geometricPrecision" shape-rendering="geometricPrecision" stroke="rgb(157,64,95)" stroke-miterlimit="1.45">
      <rect x="390.408" y="-277.3795" clip-path="url(#clipPath2)" fill="none" width="120" rx="4" ry="4" height="20"/>
    </g>
    <g stroke-linecap="butt" transform="matrix(2,0,0,2,-58,996)" text-rendering="geometricPrecision" font-family="sans-serif" shape-rendering="geometricPrecision" font-weight="bold" stroke-miterlimit="1.45">
      <text x="395.0721" xml:space="preserve" y="-302.6657" clip-path="url(#clipPath2)" stroke="none">SituationAggregate</text>
    </g>
    <g stroke-linecap="butt" transform="matrix(2,0,0,2,-58,996)" fill="rgb(157,64,95)" text-rendering="geometricPrecision" shape-rendering="geometricPrecision" stroke="rgb(157,64,95)" stroke-miterlimit="1.45">
      <rect x="390.408" y="-317.3795" clip-path="url(#clipPath2)" fill="none" width="120" rx="4" ry="4" height="20"/>
      <rect stroke-linecap="square" x="370.408" y="-357.3795" clip-path="url(#clipPath2)" width="140" rx="4" ry="4" height="20" stroke="none" stroke-miterlimit="10"/>
    </g>
    <g stroke-linecap="butt" transform="matrix(2,0,0,2,-58,996)" fill="white" text-rendering="geometricPrecision" font-family="sans-serif" shape-rendering="geometricPrecision" stroke="white" font-weight="bold" stroke-miterlimit="1.45">
      <text x="414.7439" xml:space="preserve" y="-342.6657" clip-path="url(#clipPath2)" stroke="none">Situation</text>
    </g>
    <g stroke-linecap="butt" transform="matrix(2,0,0,2,-58,996)" fill="rgb(157,64,95)" text-rendering="geometricPrecision" shape-rendering="geometricPrecision" stroke="rgb(157,64,95)" stroke-miterlimit="1.45">
      <rect x="370.408" y="-357.3795" clip-path="url(#clipPath2)" fill="none" width="140" rx="4" ry="4" height="20"/>
    </g>
    <g stroke-linecap="butt" transform="matrix(2,0,0,2,-58,996)" text-rendering="geometricPrecision" font-family="sans-serif" shape-rendering="geometricPrecision" font-weight="bold" stroke-miterlimit="1.45">
      <text x="573.7767" xml:space="preserve" y="-262.6657" clip-path="url(#clipPath2)" stroke="none">CohesiveProcess</text>
    </g>
    <g stroke-linecap="butt" transform="matrix(2,0,0,2,-58,996)" fill="rgb(247,149,29)" text-rendering="geometricPrecision" shape-rendering="geometricPrecision" stroke="rgb(247,149,29)" stroke-miterlimit="1.45">
      <rect x="566.38" y="-277.3795" clip-path="url(#clipPath2)" fill="none" width="114.848" rx="4" ry="4" height="20"/>
    </g>
    <g stroke-linecap="butt" transform="matrix(2,0,0,2,-58,996)" text-rendering="geometricPrecision" font-family="sans-serif" shape-rendering="geometricPrecision" font-weight="bold" stroke-miterlimit="1.45">
      <text x="570.7825" xml:space="preserve" y="-302.6657" clip-path="url(#clipPath2)" stroke="none">ProcessAggregate</text>
    </g>
    <g stroke-linecap="butt" transform="matrix(2,0,0,2,-58,996)" fill="rgb(247,149,29)" text-rendering="geometricPrecision" shape-rendering="geometricPrecision" stroke="rgb(247,149,29)" stroke-miterlimit="1.45">
      <rect x="566.38" y="-317.3795" clip-path="url(#clipPath2)" fill="none" width="114.848" rx="4" ry="4" height="20"/>
      <rect stroke-linecap="square" x="546.38" y="-357.3795" clip-path="url(#clipPath2)" width="134.848" rx="4" ry="4" height="20" stroke="none" stroke-miterlimit="10"/>
    </g>
    <g stroke-linecap="butt" transform="matrix(2,0,0,2,-58,996)" fill="white" text-rendering="geometricPrecision" font-family="sans-serif" shape-rendering="geometricPrecision" stroke="white" font-weight="bold" stroke-miterlimit="1.45">
      <text x="590.4544" xml:space="preserve" y="-342.6657" clip-path="url(#clipPath2)" stroke="none">Process</text>
    </g>
    <g stroke-linecap="butt" transform="matrix(2,0,0,2,-58,996)" fill="rgb(247,149,29)" text-rendering="geometricPrecision" shape-rendering="geometricPrecision" stroke="rgb(247,149,29)" stroke-miterlimit="1.45">
      <rect x="546.38" y="-357.3795" clip-path="url(#clipPath2)" fill="none" width="134.848" rx="4" ry="4" height="20"/>
    </g>
    <g stroke-linecap="butt" transform="matrix(2,0,0,2,-58,996)" text-rendering="geometricPrecision" font-family="sans-serif" shape-rendering="geometricPrecision" font-weight="bold" stroke-miterlimit="1.45">
      <text x="76.7048" xml:space="preserve" y="-182.6657" clip-path="url(#clipPath2)" stroke="none">InformationObject</text>
    </g>
    <g stroke-linecap="butt" transform="matrix(2,0,0,2,-58,996)" fill="rgb(243,101,35)" text-rendering="geometricPrecision" shape-rendering="geometricPrecision" stroke="rgb(243,101,35)" stroke-miterlimit="1.45">
      <rect x="72.912" y="-197.3795" clip-path="url(#clipPath2)" fill="none" width="110.9216" rx="4" ry="4" height="20"/>
    </g>
  </g>
</svg>
