<?xml version="1.0" encoding="UTF-8"?><svg xmlns="http://www.w3.org/2000/svg" xmlns:xlink="http://www.w3.org/1999/xlink" fill-opacity="1" color-rendering="auto" color-interpolation="auto" text-rendering="auto" stroke="black" stroke-linecap="square" width="1774" stroke-miterlimit="10" shape-rendering="auto" stroke-opacity="1" fill="black" stroke-dasharray="none" font-weight="normal" stroke-width="1" height="968" font-family="'Dialog'" font-style="normal" stroke-linejoin="miter" font-size="12px" stroke-dashoffset="0" image-rendering="auto">
  <!--Generated by ySVG 2.6-->
  <defs id="genericDefs"/>
  <g>
    <defs id="defs1">
      <clipPath clipPathUnits="userSpaceOnUse" id="clipPath1">
        <path d="M0 0 L1774 0 L1774 968 L0 968 L0 0 Z"/>
      </clipPath>
      <clipPath clipPathUnits="userSpaceOnUse" id="clipPath2">
        <path d="M-31 -498 L856 -498 L856 -14 L-31 -14 L-31 -498 Z"/>
      </clipPath>
    </defs>
    <g fill="white" text-rendering="geometricPrecision" shape-rendering="geometricPrecision" transform="scale(2,2) translate(31,498)" stroke="white">
      <rect x="-31" width="887" height="484" y="-498" clip-path="url(#clipPath2)" stroke="none"/>
    </g>
    <g text-rendering="geometricPrecision" stroke-miterlimit="1.45" shape-rendering="geometricPrecision" transform="matrix(2,0,0,2,62,996)" stroke-linecap="butt">
      <path fill="none" d="M405.7991 -455.6995 L297.2903 -455.6995" clip-path="url(#clipPath2)"/>
      <path d="M289.2903 -455.6995 L301.2903 -450.6995 L298.2903 -455.6995 L301.2903 -460.6995 Z" clip-path="url(#clipPath2)" stroke="none"/>
      <rect x="316.8744" y="-465.0501" clip-path="url(#clipPath2)" fill="white" width="61.3633" height="18.7012" stroke="none"/>
      <text x="318.8744" xml:space="preserve" y="-450.9857" clip-path="url(#clipPath2)" font-family="sans-serif" stroke="none">instanceOf</text>
      <path fill="none" d="M684.4783 -347.3795 L732.9533 -347.3795" clip-path="url(#clipPath2)"/>
      <path d="M740.9533 -347.3795 L728.9533 -352.3795 L731.9533 -347.3795 L728.9533 -342.3795 Z" clip-path="url(#clipPath2)" stroke="none"/>
      <text x="689.7462" xml:space="preserve" y="-354.0163" clip-path="url(#clipPath2)" font-family="sans-serif" stroke="none">hasTime</text>
      <path fill="none" d="M255.304 -465.6966 L255.304 -484.6995 L298.5471 -484.6995" clip-path="url(#clipPath2)"/>
      <path fill="white" d="M313.5471 -484.6995 L297.5471 -490.6995 L297.5471 -478.6995 Z" clip-path="url(#clipPath2)" stroke="none"/>
      <path fill="none" d="M313.5471 -484.6995 L297.5471 -490.6995 L297.5471 -478.6995 Z" clip-path="url(#clipPath2)"/>
      <path fill="none" d="M439.808 -465.6966 L439.808 -484.6995 L396.5649 -484.6995" clip-path="url(#clipPath2)"/>
      <path fill="white" d="M381.5649 -484.6995 L397.5649 -478.6995 L397.5649 -490.6995 Z" clip-path="url(#clipPath2)" stroke="none"/>
      <path fill="none" d="M381.5649 -484.6995 L397.5649 -478.6995 L397.5649 -490.6995 Z" clip-path="url(#clipPath2)"/>
      <path fill="none" d="M255.304 -357.3893 L255.304 -397.3795 L364.7631 -397.3795" clip-path="url(#clipPath2)"/>
      <path fill="white" d="M379.7631 -397.3795 L363.7631 -403.3795 L363.7631 -391.3795 Z" clip-path="url(#clipPath2)" stroke="none"/>
      <path fill="none" d="M379.7631 -397.3795 L363.7631 -403.3795 L363.7631 -391.3795 Z" clip-path="url(#clipPath2)"/>
      <path fill="none" d="M439.808 -357.3893 L439.808 -372.3429" clip-path="url(#clipPath2)"/>
      <path fill="white" d="M439.808 -387.3429 L433.808 -371.3429 L445.808 -371.3429 Z" clip-path="url(#clipPath2)" stroke="none"/>
      <path fill="none" d="M439.808 -387.3429 L433.808 -371.3429 L445.808 -371.3429 Z" clip-path="url(#clipPath2)"/>
      <path fill="none" d="M35.1888 -357.3893 L35.1888 -397.3795 L364.7967 -397.3795" clip-path="url(#clipPath2)"/>
      <path fill="white" d="M379.7967 -397.3795 L363.7967 -403.3795 L363.7967 -391.3795 Z" clip-path="url(#clipPath2)" stroke="none"/>
      <path fill="none" d="M379.7967 -397.3795 L363.7967 -403.3795 L363.7967 -391.3795 Z" clip-path="url(#clipPath2)"/>
      <path fill="none" d="M617.208 -357.3551 L617.208 -392.3795 L514.7931 -392.3795" clip-path="url(#clipPath2)"/>
      <path fill="white" d="M499.7931 -392.3795 L515.7931 -386.3795 L515.7931 -398.3795 Z" clip-path="url(#clipPath2)" stroke="none"/>
      <path fill="none" d="M499.7931 -392.3795 L515.7931 -386.3795 L515.7931 -398.3795 Z" clip-path="url(#clipPath2)"/>
      <path fill="none" d="M832.1138 -307.3795 L841.562 -307.3795 L841.562 -372.404" clip-path="url(#clipPath2)"/>
      <path fill="white" d="M841.562 -387.404 L835.562 -371.404 L847.562 -371.404 Z" clip-path="url(#clipPath2)" stroke="none"/>
      <path fill="none" d="M841.562 -387.404 L835.562 -371.404 L847.562 -371.404 Z" clip-path="url(#clipPath2)"/>
      <path fill="none" d="M832.1138 -347.3795 L841.562 -347.3795 L841.562 -372.3698" clip-path="url(#clipPath2)"/>
      <path fill="white" d="M841.562 -387.3698 L835.562 -371.3698 L847.562 -371.3698 Z" clip-path="url(#clipPath2)" stroke="none"/>
      <path fill="none" d="M841.562 -387.3698 L835.562 -371.3698 L847.562 -371.3698 Z" clip-path="url(#clipPath2)"/>
      <path fill="none" d="M499.7751 -402.3795 L733.0231 -402.3795" clip-path="url(#clipPath2)"/>
      <path d="M741.0231 -402.3795 L729.0231 -407.3795 L732.0231 -402.3795 L729.0231 -397.3795 Z" clip-path="url(#clipPath2)" stroke="none"/>
      <rect x="595.3982" y="-411.7301" clip-path="url(#clipPath2)" fill="white" width="50.0137" height="18.7012" stroke="none"/>
      <text x="597.3982" xml:space="preserve" y="-397.6657" clip-path="url(#clipPath2)" font-family="sans-serif" stroke="none">hasTime</text>
      <path fill="none" d="M265.304 -237.4186 L265.304 -249.4023" clip-path="url(#clipPath2)"/>
      <path d="M265.304 -257.4023 L260.304 -245.4023 L265.304 -248.4023 L270.304 -245.4023 Z" clip-path="url(#clipPath2)" stroke="none"/>
      <text x="271.304" xml:space="preserve" y="-242.6657" clip-path="url(#clipPath2)" font-family="sans-serif" stroke="none">roleIn</text>
      <path fill="none" d="M200.9343 -232.3795 L191.201 -232.3795 L191.201 -322.3616" clip-path="url(#clipPath2)"/>
      <path fill="white" d="M191.201 -337.3616 L185.201 -321.3616 L197.201 -321.3616 Z" clip-path="url(#clipPath2)" stroke="none"/>
      <path fill="none" d="M191.201 -337.3616 L185.201 -321.3616 L197.201 -321.3616 Z" clip-path="url(#clipPath2)"/>
      <path fill="none" d="M200.9343 -307.3795 L191.201 -307.3795 L191.201 -322.3616" clip-path="url(#clipPath2)"/>
      <path fill="white" d="M191.201 -337.3616 L185.201 -321.3616 L197.201 -321.3616 Z" clip-path="url(#clipPath2)" stroke="none"/>
      <path fill="none" d="M191.201 -337.3616 L185.201 -321.3616 L197.201 -321.3616 Z" clip-path="url(#clipPath2)"/>
      <path fill="none" d="M200.9343 -267.3795 L191.201 -267.3795 L191.201 -322.3616" clip-path="url(#clipPath2)"/>
      <path fill="white" d="M191.201 -337.3616 L185.201 -321.3616 L197.201 -321.3616 Z" clip-path="url(#clipPath2)" stroke="none"/>
      <path fill="none" d="M191.201 -337.3616 L185.201 -321.3616 L197.201 -321.3616 Z" clip-path="url(#clipPath2)"/>
      <path fill="none" d="M425.8161 -357.403 L425.8161 -375.5 L269.0512 -375.5 L269.0512 -365.403" clip-path="url(#clipPath2)"/>
      <path d="M269.0512 -357.403 L274.0512 -369.403 L269.0512 -366.403 L264.0512 -369.403 Z" clip-path="url(#clipPath2)" stroke="none"/>
      <rect x="301.4063" y="-384.8506" clip-path="url(#clipPath2)" fill="white" width="92.0547" height="18.7012" stroke="none"/>
      <text x="303.4063" xml:space="preserve" y="-370.7861" clip-path="url(#clipPath2)" font-family="sans-serif" stroke="none">hasSituationPart</text>
      <path fill="none" d="M55.1888 -89.4186 L55.1888 -77.3828" clip-path="url(#clipPath2)"/>
      <path d="M55.1888 -97.4186 L50.1888 -85.4186 L55.1888 -88.4186 L60.1888 -85.4186 Z" clip-path="url(#clipPath2)" stroke="none"/>
      <text x="61.1888" xml:space="preserve" y="-82.6657" clip-path="url(#clipPath2)" font-family="sans-serif" stroke="none">boundaryOf</text>
      <path fill="none" d="M-7.4496 -307.3795 L-17.4512 -307.3795 L-17.4512 -322.3547" clip-path="url(#clipPath2)"/>
      <path fill="white" d="M-17.4512 -337.3547 L-23.4512 -321.3547 L-11.4512 -321.3547 Z" clip-path="url(#clipPath2)" stroke="none"/>
      <path fill="none" d="M-17.4512 -337.3547 L-23.4512 -321.3547 L-11.4512 -321.3547 Z" clip-path="url(#clipPath2)"/>
      <path fill="none" d="M-7.4496 -227.3795 L-17.4512 -227.3795 L-17.4512 -322.352" clip-path="url(#clipPath2)"/>
      <path fill="white" d="M-17.4512 -337.352 L-23.4512 -321.352 L-11.4512 -321.352 Z" clip-path="url(#clipPath2)" stroke="none"/>
      <path fill="none" d="M-17.4512 -337.352 L-23.4512 -321.352 L-11.4512 -321.352 Z" clip-path="url(#clipPath2)"/>
      <path fill="none" d="M-7.4496 -147.3795 L-17.4512 -147.3795 L-17.4512 -322.4271" clip-path="url(#clipPath2)"/>
      <path fill="white" d="M-17.4512 -337.4271 L-23.4512 -321.4271 L-11.4512 -321.4271 Z" clip-path="url(#clipPath2)" stroke="none"/>
      <path fill="none" d="M-17.4512 -337.4271 L-23.4512 -321.4271 L-11.4512 -321.4271 Z" clip-path="url(#clipPath2)"/>
      <path fill="none" d="M200.8833 -222.3795 L162.592 -222.3795 L162.592 -347.3795 L105.8018 -347.3795" clip-path="url(#clipPath2)"/>
      <path d="M97.8018 -347.3795 L109.8018 -342.3795 L106.8018 -347.3795 L109.8018 -352.3795 Z" clip-path="url(#clipPath2)" stroke="none"/>
      <rect x="135.9094" y="-294.2301" clip-path="url(#clipPath2)" fill="white" width="53.3652" height="18.7012" stroke="none"/>
      <text x="137.9094" xml:space="preserve" y="-280.1657" clip-path="url(#clipPath2)" font-family="sans-serif" stroke="none">playedBy</text>
      <path fill="none" d="M-7.4496 -267.3795 L-17.4512 -267.3795 L-17.4512 -322.3658" clip-path="url(#clipPath2)"/>
      <path fill="white" d="M-17.4512 -337.3658 L-23.4512 -321.3658 L-11.4512 -321.3658 Z" clip-path="url(#clipPath2)" stroke="none"/>
      <path fill="none" d="M-17.4512 -337.3658 L-23.4512 -321.3658 L-11.4512 -321.3658 Z" clip-path="url(#clipPath2)"/>
      <path fill="none" d="M12.5473 -107.3795 L2.5488 -107.3795 L2.5488 -122.3603" clip-path="url(#clipPath2)"/>
      <path fill="white" d="M2.5488 -137.3603 L-3.4512 -121.3603 L8.5488 -121.3603 Z" clip-path="url(#clipPath2)" stroke="none"/>
      <path fill="none" d="M2.5488 -137.3603 L-3.4512 -121.3603 L8.5488 -121.3603 Z" clip-path="url(#clipPath2)"/>
      <path fill="none" d="M12.5473 -67.3795 L2.5488 -67.3795 L2.5488 -122.3498" clip-path="url(#clipPath2)"/>
      <path fill="white" d="M2.5488 -137.3498 L-3.4512 -121.3498 L8.5488 -121.3498 Z" clip-path="url(#clipPath2)" stroke="none"/>
      <path fill="none" d="M2.5488 -137.3498 L-3.4512 -121.3498 L8.5488 -121.3498 Z" clip-path="url(#clipPath2)"/>
      <path fill="none" d="M12.5473 -27.3795 L2.5488 -27.3795 L2.5488 -122.368" clip-path="url(#clipPath2)"/>
      <path fill="white" d="M2.5488 -137.368 L-3.4512 -121.368 L8.5488 -121.368 Z" clip-path="url(#clipPath2)" stroke="none"/>
      <path fill="none" d="M2.5488 -137.368 L-3.4512 -121.368 L8.5488 -121.368 Z" clip-path="url(#clipPath2)"/>
      <path fill="none" d="M15.1888 -317.4137 L15.1888 -328.464 L114.4293 -328.464 L114.4293 -315.3795 L105.2878 -315.3795" clip-path="url(#clipPath2)"/>
      <path d="M97.2878 -315.3795 L109.2878 -310.3795 L106.2878 -315.3795 L109.2878 -320.3795 Z" clip-path="url(#clipPath2)" stroke="none"/>
      <rect x="31.1303" y="-337.8146" clip-path="url(#clipPath2)" fill="white" width="67.3574" height="18.7012" stroke="none"/>
      <text x="33.1303" xml:space="preserve" y="-323.7501" clip-path="url(#clipPath2)" font-family="sans-serif" stroke="none">hasMember</text>
      <path fill="none" d="M265.304 -217.4259 L265.304 -202.76 L132.16 -202.76 L132.16 -307.3795 L105.8047 -307.3795" clip-path="url(#clipPath2)"/>
      <path d="M97.8047 -307.3795 L109.8047 -302.3795 L106.8047 -307.3795 L109.8047 -312.3795 Z" clip-path="url(#clipPath2)" stroke="none"/>
      <path fill="none" d="M55.1888 -49.4186 L55.1888 -37.3828" clip-path="url(#clipPath2)"/>
      <path d="M55.1888 -57.4186 L50.1888 -45.4186 L55.1888 -48.4186 L60.1888 -45.4186 Z" clip-path="url(#clipPath2)" stroke="none"/>
      <text x="61.1888" xml:space="preserve" y="-42.6657" clip-path="url(#clipPath2)" font-family="sans-serif" stroke="none">boundaryOf</text>
      <path fill="none" d="M83.2804 -157.3834 L83.2804 -209.3711" clip-path="url(#clipPath2)"/>
      <path d="M83.2804 -217.3711 L78.2804 -205.3711 L83.2804 -208.3711 L88.2804 -205.3711 Z" clip-path="url(#clipPath2)" stroke="none"/>
      <rect x="53.9347" y="-181.0807" clip-path="url(#clipPath2)" fill="white" width="58.6914" height="18.7012" stroke="none"/>
      <text x="55.9347" xml:space="preserve" y="-167.0163" clip-path="url(#clipPath2)" font-family="sans-serif" stroke="none">hasOwner</text>
      <path fill="none" d="M97.7968 -107.3795 L114.4293 -107.3795 L114.4293 -219.3795 L105.2882 -219.3795" clip-path="url(#clipPath2)"/>
      <path d="M97.2882 -219.3795 L109.2882 -214.3795 L106.2882 -219.3795 L109.2882 -224.3795 Z" clip-path="url(#clipPath2)" stroke="none"/>
      <rect x="44.0905" y="-136.5906" clip-path="url(#clipPath2)" fill="white" width="66.707" height="18.7012" stroke="none"/>
      <text x="46.0905" xml:space="preserve" y="-122.5261" clip-path="url(#clipPath2)" font-family="sans-serif" stroke="none">boundaryOf</text>
      <path fill="none" d="M45.1888 -257.4186 L45.1888 -245.3828" clip-path="url(#clipPath2)"/>
      <path d="M45.1888 -237.3828 L50.1888 -249.3828 L45.1888 -246.3828 L40.1888 -249.3828 Z" clip-path="url(#clipPath2)" stroke="none"/>
      <text x="51.1888" xml:space="preserve" y="-242.6657" clip-path="url(#clipPath2)" font-family="sans-serif" stroke="none">partOf</text>
      <path fill="none" d="M97.2882 -299.3795 L114.4293 -299.3795 L114.4293 -235.3795 L105.2882 -235.3795" clip-path="url(#clipPath2)"/>
      <path d="M97.2882 -235.3795 L109.2882 -230.3795 L106.2882 -235.3795 L109.2882 -240.3795 Z" clip-path="url(#clipPath2)" stroke="none"/>
      <text x="44.9906" xml:space="preserve" y="-282.7324" clip-path="url(#clipPath2)" font-family="sans-serif" stroke="none">hasMember</text>
      <path fill="none" d="M12.5234 -187.3795 L2.5488 -187.3795 L2.5488 -202.4186" clip-path="url(#clipPath2)"/>
      <path fill="white" d="M2.5488 -217.4186 L-3.4512 -201.4186 L8.5488 -201.4186 Z" clip-path="url(#clipPath2)" stroke="none"/>
      <path fill="none" d="M2.5488 -217.4186 L-3.4512 -201.4186 L8.5488 -201.4186 Z" clip-path="url(#clipPath2)"/>
      <path fill="none" d="M265.304 -217.4259 L265.304 -202.76 L132.16 -202.76 L132.16 -227.3795 L105.8047 -227.3795" clip-path="url(#clipPath2)"/>
      <path d="M97.8047 -227.3795 L109.8047 -222.3795 L106.8047 -227.3795 L109.8047 -232.3795 Z" clip-path="url(#clipPath2)" stroke="none"/>
      <rect x="181.7232" y="-212.1106" clip-path="url(#clipPath2)" fill="white" width="34.0176" height="18.7012" stroke="none"/>
      <text x="183.7232" xml:space="preserve" y="-198.0461" clip-path="url(#clipPath2)" font-family="sans-serif" stroke="none">roleIn</text>
      <path fill="none" d="M439.808 -407.3748 L439.808 -430.742" clip-path="url(#clipPath2)"/>
      <path fill="white" d="M439.808 -445.742 L433.808 -429.742 L445.808 -429.742 Z" clip-path="url(#clipPath2)" stroke="none"/>
      <path fill="none" d="M439.808 -445.742 L433.808 -429.742 L445.808 -429.742 Z" clip-path="url(#clipPath2)"/>
      <path fill="none" d="M796.562 -407.3535 L796.562 -420.4867 L439.808 -420.4867 L439.808 -430.6927" clip-path="url(#clipPath2)"/>
      <path fill="white" d="M439.808 -445.6927 L433.808 -429.6927 L445.808 -429.6927 Z" clip-path="url(#clipPath2)" stroke="none"/>
      <path fill="none" d="M439.808 -445.6927 L433.808 -429.6927 L445.808 -429.6927 Z" clip-path="url(#clipPath2)"/>
      <path fill="none" d="M329.7039 -227.3795 L354 -227.3795 L354 -349.7776 L362.3854 -349.5432" clip-path="url(#clipPath2)"/>
      <path d="M370.3823 -349.3198 L358.5266 -354.653 L361.3858 -349.5712 L358.2473 -344.6569 Z" clip-path="url(#clipPath2)" stroke="none"/>
      <rect x="336.9912" y="-261.5911" clip-path="url(#clipPath2)" fill="white" width="34.0176" height="18.7012" stroke="none"/>
      <text x="338.9912" xml:space="preserve" y="-247.5267" clip-path="url(#clipPath2)" font-family="sans-serif" stroke="none">roleIn</text>
      <path fill="none" d="M603.9259 -357.4035 L603.9259 -376.9605 L453.7999 -376.9605 L453.7999 -365.4035" clip-path="url(#clipPath2)"/>
      <path d="M453.7999 -357.4035 L458.7999 -369.4035 L453.7999 -366.4035 L448.7999 -369.4035 Z" clip-path="url(#clipPath2)" stroke="none"/>
      <rect x="484.5114" y="-386.3111" clip-path="url(#clipPath2)" fill="white" width="88.7031" height="18.7012" stroke="none"/>
      <text x="486.5114" xml:space="preserve" y="-372.2466" clip-path="url(#clipPath2)" font-family="sans-serif" stroke="none">hasProcessPart</text>
      <path fill="none" d="M390.401 -307.3795 L379.8451 -307.3795 L379.8451 -322.3844" clip-path="url(#clipPath2)"/>
      <path fill="white" d="M379.8451 -337.3844 L373.8451 -321.3844 L385.8451 -321.3844 Z" clip-path="url(#clipPath2)" stroke="none"/>
      <path fill="none" d="M379.8451 -337.3844 L373.8451 -321.3844 L385.8451 -321.3844 Z" clip-path="url(#clipPath2)"/>
      <path fill="none" d="M390.401 -267.3795 L379.8451 -267.3795 L379.8451 -322.3476" clip-path="url(#clipPath2)"/>
      <path fill="white" d="M379.8451 -337.3476 L373.8451 -321.3476 L385.8451 -321.3476 Z" clip-path="url(#clipPath2)" stroke="none"/>
      <path fill="none" d="M379.8451 -337.3476 L373.8451 -321.3476 L385.8451 -321.3476 Z" clip-path="url(#clipPath2)"/>
      <path fill="none" d="M449.808 -317.4186 L449.808 -329.4023" clip-path="url(#clipPath2)"/>
      <path d="M449.808 -337.4023 L444.808 -325.4023 L449.808 -328.4023 L454.808 -325.4023 Z" clip-path="url(#clipPath2)" stroke="none"/>
      <text x="455.808" xml:space="preserve" y="-322.6657" clip-path="url(#clipPath2)" font-family="sans-serif" stroke="none">hasMember</text>
      <path fill="none" d="M329.6756 -227.3795 L533.94 -227.3795 L533.94 -347.3795 L541.9187 -347.3795" clip-path="url(#clipPath2)"/>
      <path d="M549.9187 -347.3795 L537.9187 -352.3795 L540.9187 -347.3795 L537.9187 -342.3795 Z" clip-path="url(#clipPath2)" stroke="none"/>
      <rect x="516.9312" y="-261.0568" clip-path="url(#clipPath2)" fill="white" width="34.0176" height="18.7012" stroke="none"/>
      <text x="518.9312" xml:space="preserve" y="-246.9923" clip-path="url(#clipPath2)" font-family="sans-serif" stroke="none">roleIn</text>
      <path fill="none" d="M569.892 -307.3795 L559.552 -307.3795 L559.552 -322.3658" clip-path="url(#clipPath2)"/>
      <path fill="white" d="M559.552 -337.3658 L553.552 -321.3658 L565.552 -321.3658 Z" clip-path="url(#clipPath2)" stroke="none"/>
      <path fill="none" d="M559.552 -337.3658 L553.552 -321.3658 L565.552 -321.3658 Z" clip-path="url(#clipPath2)"/>
      <path fill="none" d="M569.892 -267.3795 L559.552 -267.3795 L559.552 -322.3636" clip-path="url(#clipPath2)"/>
      <path fill="white" d="M559.552 -337.3636 L553.552 -321.3636 L565.552 -321.3636 Z" clip-path="url(#clipPath2)" stroke="none"/>
      <path fill="none" d="M559.552 -337.3636 L553.552 -321.3636 L565.552 -321.3636 Z" clip-path="url(#clipPath2)"/>
      <path fill="none" d="M627.208 -317.4186 L627.208 -329.4023" clip-path="url(#clipPath2)"/>
      <path d="M627.208 -337.4023 L622.208 -325.4023 L627.208 -328.4023 L632.208 -325.4023 Z" clip-path="url(#clipPath2)" stroke="none"/>
      <text x="633.208" xml:space="preserve" y="-322.6657" clip-path="url(#clipPath2)" font-family="sans-serif" stroke="none">hasMember</text>
    </g>
    <g fill="rgb(150,150,150)" text-rendering="geometricPrecision" shape-rendering="geometricPrecision" transform="matrix(2,0,0,2,62,996)" stroke="rgb(150,150,150)">
      <rect x="221.304" y="-465.6995" clip-path="url(#clipPath2)" width="68" rx="4" ry="4" height="20" stroke="none"/>
    </g>
    <g stroke-linecap="butt" transform="matrix(2,0,0,2,62,996)" fill="white" text-rendering="geometricPrecision" font-family="sans-serif" shape-rendering="geometricPrecision" stroke="white" font-weight="bold" stroke-miterlimit="1.45">
      <text x="229.2972" xml:space="preserve" y="-450.9857" clip-path="url(#clipPath2)" stroke="none">Category</text>
    </g>
    <g stroke-linecap="butt" transform="matrix(2,0,0,2,62,996)" fill="rgb(150,150,150)" text-rendering="geometricPrecision" shape-rendering="geometricPrecision" stroke="rgb(150,150,150)" stroke-miterlimit="1.45">
      <rect x="221.304" y="-465.6995" clip-path="url(#clipPath2)" fill="none" width="68" rx="4" ry="4" height="20"/>
    </g>
    <g stroke-linecap="butt" transform="matrix(2,0,0,2,62,996)" text-rendering="geometricPrecision" font-family="sans-serif" shape-rendering="geometricPrecision" font-weight="bold" stroke-miterlimit="1.45">
      <text x="759.9019" xml:space="preserve" y="-342.6657" clip-path="url(#clipPath2)" stroke="none">Chronoid</text>
    </g>
    <g stroke-linecap="butt" transform="matrix(2,0,0,2,62,996)" fill="rgb(43,138,132)" text-rendering="geometricPrecision" shape-rendering="geometricPrecision" stroke="rgb(43,138,132)" stroke-miterlimit="1.45">
      <rect x="741.002" y="-357.3795" clip-path="url(#clipPath2)" fill="none" width="91.12" rx="4" ry="4" height="20"/>
    </g>
    <g fill="rgb(150,150,150)" text-rendering="geometricPrecision" shape-rendering="geometricPrecision" transform="matrix(2,0,0,2,62,996)" stroke="rgb(150,150,150)">
      <rect x="313.556" y="-494.6995" clip-path="url(#clipPath2)" width="68" rx="4" ry="4" height="20" stroke="none"/>
    </g>
    <g stroke-linecap="butt" transform="matrix(2,0,0,2,62,996)" fill="white" text-rendering="geometricPrecision" font-family="sans-serif" shape-rendering="geometricPrecision" stroke="white" font-weight="bold" stroke-miterlimit="1.45">
      <text x="330.889" xml:space="preserve" y="-479.9857" clip-path="url(#clipPath2)" stroke="none">Entity</text>
    </g>
    <g stroke-linecap="butt" transform="matrix(2,0,0,2,62,996)" fill="rgb(150,150,150)" text-rendering="geometricPrecision" shape-rendering="geometricPrecision" stroke="rgb(150,150,150)" stroke-miterlimit="1.45">
      <rect x="313.556" y="-494.6995" clip-path="url(#clipPath2)" fill="none" width="68" rx="4" ry="4" height="20"/>
      <rect stroke-linecap="square" x="379.808" y="-407.3795" clip-path="url(#clipPath2)" width="120" rx="4" ry="4" height="20" stroke="none" stroke-miterlimit="10"/>
    </g>
    <g stroke-linecap="butt" transform="matrix(2,0,0,2,62,996)" fill="white" text-rendering="geometricPrecision" font-family="sans-serif" shape-rendering="geometricPrecision" stroke="white" font-weight="bold" stroke-miterlimit="1.45">
      <text x="385.7992" xml:space="preserve" y="-392.6657" clip-path="url(#clipPath2)" stroke="none">ConcreteIndividual</text>
    </g>
    <g stroke-linecap="butt" transform="matrix(2,0,0,2,62,996)" fill="rgb(150,150,150)" text-rendering="geometricPrecision" shape-rendering="geometricPrecision" stroke="rgb(150,150,150)" stroke-miterlimit="1.45">
      <rect x="379.808" y="-407.3795" clip-path="url(#clipPath2)" fill="none" width="120" rx="4" ry="4" height="20"/>
    </g>
    <g fill="rgb(43,138,132)" text-rendering="geometricPrecision" shape-rendering="geometricPrecision" transform="matrix(2,0,0,2,62,996)" stroke="rgb(43,138,132)">
      <rect x="741.002" y="-407.3795" clip-path="url(#clipPath2)" width="111.12" rx="4" ry="4" height="20" stroke="none"/>
    </g>
    <g stroke-linecap="butt" transform="matrix(2,0,0,2,62,996)" fill="white" text-rendering="geometricPrecision" font-family="sans-serif" shape-rendering="geometricPrecision" stroke="white" font-weight="bold" stroke-miterlimit="1.45">
      <text x="765.8911" xml:space="preserve" y="-392.6657" clip-path="url(#clipPath2)" stroke="none">TimeEntity</text>
    </g>
    <g stroke-linecap="butt" transform="matrix(2,0,0,2,62,996)" fill="rgb(43,138,132)" text-rendering="geometricPrecision" shape-rendering="geometricPrecision" stroke="rgb(43,138,132)" stroke-miterlimit="1.45">
      <rect x="741.002" y="-407.3795" clip-path="url(#clipPath2)" fill="none" width="111.12" rx="4" ry="4" height="20"/>
    </g>
    <g stroke-linecap="butt" transform="matrix(2,0,0,2,62,996)" text-rendering="geometricPrecision" font-family="sans-serif" shape-rendering="geometricPrecision" font-weight="bold" stroke-miterlimit="1.45">
      <text x="744.5562" xml:space="preserve" y="-302.6657" clip-path="url(#clipPath2)" stroke="none">TimeBoundary</text>
    </g>
    <g stroke-linecap="butt" transform="matrix(2,0,0,2,62,996)" fill="rgb(43,138,132)" text-rendering="geometricPrecision" shape-rendering="geometricPrecision" stroke="rgb(43,138,132)" stroke-miterlimit="1.45">
      <rect x="741.002" y="-317.3795" clip-path="url(#clipPath2)" fill="none" width="91.12" rx="4" ry="4" height="20"/>
    </g>
    <g stroke-linecap="butt" transform="matrix(2,0,0,2,62,996)" text-rendering="geometricPrecision" font-family="sans-serif" shape-rendering="geometricPrecision" font-weight="bold" stroke-miterlimit="1.45">
      <text x="244.6321" xml:space="preserve" y="-262.6657" clip-path="url(#clipPath2)" stroke="none">Relator</text>
    </g>
    <g stroke-linecap="butt" transform="matrix(2,0,0,2,62,996)" fill="rgb(73,114,136)" text-rendering="geometricPrecision" shape-rendering="geometricPrecision" stroke="rgb(73,114,136)" stroke-miterlimit="1.45">
      <rect x="200.904" y="-277.3795" clip-path="url(#clipPath2)" fill="none" width="128.8" rx="4" ry="4" height="20"/>
    </g>
    <g stroke-linecap="butt" transform="matrix(2,0,0,2,62,996)" text-rendering="geometricPrecision" font-family="sans-serif" shape-rendering="geometricPrecision" font-weight="bold" stroke-miterlimit="1.45">
      <text x="252.302" xml:space="preserve" y="-222.6657" clip-path="url(#clipPath2)" stroke="none">Role</text>
    </g>
    <g stroke-linecap="butt" transform="matrix(2,0,0,2,62,996)" fill="rgb(73,114,136)" text-rendering="geometricPrecision" shape-rendering="geometricPrecision" stroke="rgb(73,114,136)" stroke-miterlimit="1.45">
      <rect x="200.904" y="-237.3795" clip-path="url(#clipPath2)" fill="none" width="128.8" rx="4" ry="4" height="20"/>
    </g>
    <g stroke-linecap="butt" transform="matrix(2,0,0,2,62,996)" text-rendering="geometricPrecision" font-family="sans-serif" shape-rendering="geometricPrecision" font-weight="bold" stroke-miterlimit="1.45">
      <text x="244.9661" xml:space="preserve" y="-302.6657" clip-path="url(#clipPath2)" stroke="none">Quality</text>
    </g>
    <g stroke-linecap="butt" transform="matrix(2,0,0,2,62,996)" fill="rgb(73,114,136)" text-rendering="geometricPrecision" shape-rendering="geometricPrecision" stroke="rgb(73,114,136)" stroke-miterlimit="1.45">
      <rect x="200.904" y="-317.3795" clip-path="url(#clipPath2)" fill="none" width="128.8" rx="4" ry="4" height="20"/>
      <rect stroke-linecap="square" x="180.904" y="-357.3795" clip-path="url(#clipPath2)" width="148.8" rx="4" ry="4" height="20" stroke="none" stroke-miterlimit="10"/>
    </g>
    <g stroke-linecap="butt" transform="matrix(2,0,0,2,62,996)" fill="white" text-rendering="geometricPrecision" font-family="sans-serif" shape-rendering="geometricPrecision" stroke="white" font-weight="bold" stroke-miterlimit="1.45">
      <text x="225.304" xml:space="preserve" y="-342.6657" clip-path="url(#clipPath2)" stroke="none">Attributive</text>
    </g>
    <g stroke-linecap="butt" transform="matrix(2,0,0,2,62,996)" fill="rgb(73,114,136)" text-rendering="geometricPrecision" shape-rendering="geometricPrecision" stroke="rgb(73,114,136)" stroke-miterlimit="1.45">
      <rect x="180.904" y="-357.3795" clip-path="url(#clipPath2)" fill="none" width="148.8" rx="4" ry="4" height="20"/>
    </g>
    <g stroke-linecap="butt" transform="matrix(2,0,0,2,62,996)" text-rendering="geometricPrecision" font-family="sans-serif" shape-rendering="geometricPrecision" font-weight="bold" stroke-miterlimit="1.45">
      <text x="42.8548" xml:space="preserve" y="-62.6657" clip-path="url(#clipPath2)" stroke="none">Line</text>
    </g>
    <g stroke-linecap="butt" transform="matrix(2,0,0,2,62,996)" fill="rgb(243,101,35)" text-rendering="geometricPrecision" shape-rendering="geometricPrecision" stroke="rgb(243,101,35)" stroke-miterlimit="1.45">
      <rect x="12.56" y="-77.3795" clip-path="url(#clipPath2)" fill="none" width="85.2576" rx="4" ry="4" height="20"/>
      <rect stroke-linecap="square" x="-27.44" y="-357.3795" clip-path="url(#clipPath2)" width="125.2576" rx="4" ry="4" height="20" stroke="none" stroke-miterlimit="10"/>
    </g>
    <g stroke-linecap="butt" transform="matrix(2,0,0,2,62,996)" fill="white" text-rendering="geometricPrecision" font-family="sans-serif" shape-rendering="geometricPrecision" stroke="white" font-weight="bold" stroke-miterlimit="1.45">
      <text x="3.5306" xml:space="preserve" y="-342.6657" clip-path="url(#clipPath2)" stroke="none">Continuant</text>
    </g>
    <g stroke-linecap="butt" transform="matrix(2,0,0,2,62,996)" fill="rgb(243,101,35)" text-rendering="geometricPrecision" shape-rendering="geometricPrecision" stroke="rgb(243,101,35)" stroke-miterlimit="1.45">
      <rect x="-27.44" y="-357.3795" clip-path="url(#clipPath2)" fill="none" width="125.2576" rx="4" ry="4" height="20"/>
    </g>
    <g stroke-linecap="butt" transform="matrix(2,0,0,2,62,996)" text-rendering="geometricPrecision" font-family="sans-serif" shape-rendering="geometricPrecision" font-weight="bold" stroke-miterlimit="1.45">
      <text x="-1.4841" xml:space="preserve" y="-142.6657" clip-path="url(#clipPath2)" stroke="none">ObjectBoundary</text>
    </g>
    <g stroke-linecap="butt" transform="matrix(2,0,0,2,62,996)" fill="rgb(243,101,35)" text-rendering="geometricPrecision" shape-rendering="geometricPrecision" stroke="rgb(243,101,35)" stroke-miterlimit="1.45">
      <rect x="-7.44" y="-157.3795" clip-path="url(#clipPath2)" fill="none" width="105.2576" rx="4" ry="4" height="20"/>
    </g>
    <g stroke-linecap="butt" transform="matrix(2,0,0,2,62,996)" text-rendering="geometricPrecision" font-family="sans-serif" shape-rendering="geometricPrecision" font-weight="bold" stroke-miterlimit="1.45">
      <text x="-3.154" xml:space="preserve" y="-302.6657" clip-path="url(#clipPath2)" stroke="none">ObjectAggregate</text>
    </g>
    <g stroke-linecap="butt" transform="matrix(2,0,0,2,62,996)" fill="rgb(243,101,35)" text-rendering="geometricPrecision" shape-rendering="geometricPrecision" stroke="rgb(243,101,35)" stroke-miterlimit="1.45">
      <rect x="-7.44" y="-317.3795" clip-path="url(#clipPath2)" fill="none" width="105.2576" rx="4" ry="4" height="20"/>
    </g>
    <g stroke-linecap="butt" transform="matrix(2,0,0,2,62,996)" text-rendering="geometricPrecision" font-family="sans-serif" shape-rendering="geometricPrecision" font-weight="bold" stroke-miterlimit="1.45">
      <text x="40.1917" xml:space="preserve" y="-22.6657" clip-path="url(#clipPath2)" stroke="none">Point</text>
    </g>
    <g stroke-linecap="butt" transform="matrix(2,0,0,2,62,996)" fill="rgb(243,101,35)" text-rendering="geometricPrecision" shape-rendering="geometricPrecision" stroke="rgb(243,101,35)" stroke-miterlimit="1.45">
      <rect x="12.56" y="-37.3795" clip-path="url(#clipPath2)" fill="none" width="85.2576" rx="4" ry="4" height="20"/>
    </g>
    <g stroke-linecap="butt" transform="matrix(2,0,0,2,62,996)" text-rendering="geometricPrecision" font-family="sans-serif" shape-rendering="geometricPrecision" font-weight="bold" stroke-miterlimit="1.45">
      <text x="26.5179" xml:space="preserve" y="-222.6657" clip-path="url(#clipPath2)" stroke="none">Object</text>
    </g>
    <g stroke-linecap="butt" transform="matrix(2,0,0,2,62,996)" fill="rgb(243,101,35)" text-rendering="geometricPrecision" shape-rendering="geometricPrecision" stroke="rgb(243,101,35)" stroke-miterlimit="1.45">
      <rect x="-7.44" y="-237.3795" clip-path="url(#clipPath2)" fill="none" width="105.2576" rx="4" ry="4" height="20"/>
    </g>
    <g stroke-linecap="butt" transform="matrix(2,0,0,2,62,996)" text-rendering="geometricPrecision" font-family="sans-serif" shape-rendering="geometricPrecision" font-weight="bold" stroke-miterlimit="1.45">
      <text x="33.1781" xml:space="preserve" y="-102.6657" clip-path="url(#clipPath2)" stroke="none">Surface</text>
    </g>
    <g stroke-linecap="butt" transform="matrix(2,0,0,2,62,996)" fill="rgb(243,101,35)" text-rendering="geometricPrecision" shape-rendering="geometricPrecision" stroke="rgb(243,101,35)" stroke-miterlimit="1.45">
      <rect x="12.56" y="-117.3795" clip-path="url(#clipPath2)" fill="none" width="85.2576" rx="4" ry="4" height="20"/>
    </g>
    <g fill="rgb(150,150,150)" text-rendering="geometricPrecision" shape-rendering="geometricPrecision" transform="matrix(2,0,0,2,62,996)" stroke="rgb(150,150,150)">
      <rect x="405.808" y="-465.6995" clip-path="url(#clipPath2)" width="68" rx="4" ry="4" height="20" stroke="none"/>
    </g>
    <g stroke-linecap="butt" transform="matrix(2,0,0,2,62,996)" fill="white" text-rendering="geometricPrecision" font-family="sans-serif" shape-rendering="geometricPrecision" stroke="white" font-weight="bold" stroke-miterlimit="1.45">
      <text x="411.8061" xml:space="preserve" y="-450.9857" clip-path="url(#clipPath2)" stroke="none">Individual</text>
    </g>
    <g stroke-linecap="butt" transform="matrix(2,0,0,2,62,996)" fill="rgb(150,150,150)" text-rendering="geometricPrecision" shape-rendering="geometricPrecision" stroke="rgb(150,150,150)" stroke-miterlimit="1.45">
      <rect x="405.808" y="-465.6995" clip-path="url(#clipPath2)" fill="none" width="68" rx="4" ry="4" height="20"/>
    </g>
    <g stroke-linecap="butt" transform="matrix(2,0,0,2,62,996)" text-rendering="geometricPrecision" font-family="sans-serif" shape-rendering="geometricPrecision" font-weight="bold" stroke-miterlimit="1.45">
      <text x="14.846" xml:space="preserve" y="-262.6657" clip-path="url(#clipPath2)" stroke="none">ObjectPart</text>
    </g>
    <g stroke-linecap="butt" transform="matrix(2,0,0,2,62,996)" fill="rgb(243,101,35)" text-rendering="geometricPrecision" shape-rendering="geometricPrecision" stroke="rgb(243,101,35)" stroke-miterlimit="1.45">
      <rect x="-7.44" y="-277.3795" clip-path="url(#clipPath2)" fill="none" width="105.2576" rx="4" ry="4" height="20"/>
    </g>
    <g stroke-linecap="butt" transform="matrix(2,0,0,2,62,996)" text-rendering="geometricPrecision" font-family="sans-serif" shape-rendering="geometricPrecision" font-weight="bold" stroke-miterlimit="1.45">
      <text x="424.144" xml:space="preserve" y="-262.6657" clip-path="url(#clipPath2)" stroke="none">Situation</text>
    </g>
    <g stroke-linecap="butt" transform="matrix(2,0,0,2,62,996)" fill="rgb(157,64,95)" text-rendering="geometricPrecision" shape-rendering="geometricPrecision" stroke="rgb(157,64,95)" stroke-miterlimit="1.45">
      <rect x="390.408" y="-277.3795" clip-path="url(#clipPath2)" fill="none" width="118.8" rx="4" ry="4" height="20"/>
    </g>
    <g stroke-linecap="butt" transform="matrix(2,0,0,2,62,996)" text-rendering="geometricPrecision" font-family="sans-serif" shape-rendering="geometricPrecision" font-weight="bold" stroke-miterlimit="1.45">
      <text x="394.4721" xml:space="preserve" y="-302.6657" clip-path="url(#clipPath2)" stroke="none">SituationAggregate</text>
    </g>
    <g stroke-linecap="butt" transform="matrix(2,0,0,2,62,996)" fill="rgb(157,64,95)" text-rendering="geometricPrecision" shape-rendering="geometricPrecision" stroke="rgb(157,64,95)" stroke-miterlimit="1.45">
      <rect x="390.408" y="-317.3795" clip-path="url(#clipPath2)" fill="none" width="118.8" rx="4" ry="4" height="20"/>
      <rect stroke-linecap="square" x="370.408" y="-357.3795" clip-path="url(#clipPath2)" width="138.8" rx="4" ry="4" height="20" stroke="none" stroke-miterlimit="10"/>
    </g>
    <g stroke-linecap="butt" transform="matrix(2,0,0,2,62,996)" fill="white" text-rendering="geometricPrecision" font-family="sans-serif" shape-rendering="geometricPrecision" stroke="white" font-weight="bold" stroke-miterlimit="1.45">
      <text x="392.4731" xml:space="preserve" y="-342.6657" clip-path="url(#clipPath2)" stroke="none">SituationalEntity</text>
    </g>
    <g stroke-linecap="butt" transform="matrix(2,0,0,2,62,996)" fill="rgb(157,64,95)" text-rendering="geometricPrecision" shape-rendering="geometricPrecision" stroke="rgb(157,64,95)" stroke-miterlimit="1.45">
      <rect x="370.408" y="-357.3795" clip-path="url(#clipPath2)" fill="none" width="138.8" rx="4" ry="4" height="20"/>
    </g>
    <g stroke-linecap="butt" transform="matrix(2,0,0,2,62,996)" text-rendering="geometricPrecision" font-family="sans-serif" shape-rendering="geometricPrecision" font-weight="bold" stroke-miterlimit="1.45">
      <text x="603.8584" xml:space="preserve" y="-262.6657" clip-path="url(#clipPath2)" stroke="none">Process</text>
    </g>
    <g stroke-linecap="butt" transform="matrix(2,0,0,2,62,996)" fill="rgb(247,149,29)" text-rendering="geometricPrecision" shape-rendering="geometricPrecision" stroke="rgb(247,149,29)" stroke-miterlimit="1.45">
      <rect x="569.912" y="-277.3795" clip-path="url(#clipPath2)" fill="none" width="114.592" rx="4" ry="4" height="20"/>
    </g>
    <g stroke-linecap="butt" transform="matrix(2,0,0,2,62,996)" text-rendering="geometricPrecision" font-family="sans-serif" shape-rendering="geometricPrecision" font-weight="bold" stroke-miterlimit="1.45">
      <text x="574.1865" xml:space="preserve" y="-302.6657" clip-path="url(#clipPath2)" stroke="none">ProcessAggregate</text>
    </g>
    <g stroke-linecap="butt" transform="matrix(2,0,0,2,62,996)" fill="rgb(247,149,29)" text-rendering="geometricPrecision" shape-rendering="geometricPrecision" stroke="rgb(247,149,29)" stroke-miterlimit="1.45">
      <rect x="569.912" y="-317.3795" clip-path="url(#clipPath2)" fill="none" width="114.592" rx="4" ry="4" height="20"/>
      <rect stroke-linecap="square" x="549.912" y="-357.3795" clip-path="url(#clipPath2)" width="134.592" rx="4" ry="4" height="20" stroke="none" stroke-miterlimit="10"/>
    </g>
    <g stroke-linecap="butt" transform="matrix(2,0,0,2,62,996)" fill="white" text-rendering="geometricPrecision" font-family="sans-serif" shape-rendering="geometricPrecision" stroke="white" font-weight="bold" stroke-miterlimit="1.45">
      <text x="568.5225" xml:space="preserve" y="-342.6657" clip-path="url(#clipPath2)" stroke="none">ProcessualEntity</text>
    </g>
    <g stroke-linecap="butt" transform="matrix(2,0,0,2,62,996)" fill="rgb(247,149,29)" text-rendering="geometricPrecision" shape-rendering="geometricPrecision" stroke="rgb(247,149,29)" stroke-miterlimit="1.45">
      <rect x="549.912" y="-357.3795" clip-path="url(#clipPath2)" fill="none" width="134.592" rx="4" ry="4" height="20"/>
    </g>
    <g stroke-linecap="butt" transform="matrix(2,0,0,2,62,996)" text-rendering="geometricPrecision" font-family="sans-serif" shape-rendering="geometricPrecision" font-weight="bold" stroke-miterlimit="1.45">
      <text x="15.3695" xml:space="preserve" y="-182.6657" clip-path="url(#clipPath2)" stroke="none">Token</text>
    </g>
    <g stroke-linecap="butt" transform="matrix(2,0,0,2,62,996)" fill="rgb(243,101,35)" text-rendering="geometricPrecision" shape-rendering="geometricPrecision" stroke="rgb(243,101,35)" stroke-miterlimit="1.45">
      <rect x="12.496" y="-197.3795" clip-path="url(#clipPath2)" fill="none" width="41.0848" rx="4" ry="4" height="20"/>
    </g>
  </g>
</svg>
