<svg xmlns="http://www.w3.org/2000/svg" xml:space="preserve" width="800" height="500" viewBox="0 0 800 500">
	<defs>
		<style>
				.yellow {
						fill: #d4aa00;
						stroke: #d4aa00;
				}
				.blue {
						fill: #163255;
						stroke: #163255;
				}
		</style>
	</defs>
	<path class="blue" id="gfo" d="M326.92 441.70c-14.76-1.73-25.52-6.83-35.7-16.92-13.33-13.22-18.76-28.82-17.58-50.50 1.06-19.53 5.48-30.33 17.24-42.24 12.64-12.79 27.42-17.98 48.31-16.98 18.82.90 30.19 5.56 41.71 17.09 12.82 12.84 17.95 27.55 17.13 49.10-.69 18.14-5.34 30.44-15.87 41.96-6.16 6.74-12.48 10.80-22.49 14.45-11.01 4.01-21.65 5.32-32.75 4.02m24.53-22.79c8.15-3.21 14.14-8.92 18.31-17.47 10.47-21.45 5.08-49.05-11.81-60.40-6.13-4.12-10.24-5.34-20.15-5.97-13.23-.84-24.24 3.67-32.00 13.14-15.07 18.39-11.54 53.71 6.67 66.68 1.71 1.22 5.64 3.27 8.72 4.57 4.83 2.02 6.92 2.30 15.10 2.02 6.84-.24 11.07-.95 15.14-2.55M83.54 439.79c-12.21-3.29-19.82-7.54-27.67-15.43-3.93-3.95-8.46-9.76-10.21-13.10-9.29-17.72-10.65-38.85-3.68-57.47 3.17-8.49 7.14-14.54 13.85-21.14 12.36-12.14 25.86-17.18 45.98-17.17 18.44.01 33.81 4.79 44.15 13.73l3.67 3.18-6.35 8.43c-3.49 4.64-6.42 8.56-6.51 8.70-.09.14-1.91-1.33-4.06-3.30-9.08-8.32-19.79-11.94-33.36-11.26-20.11 1-34.36 14.51-37.37 35.46-2.96 20.54 6.06 40.33 21.78 47.77 8.8 4.16 17.74 5.24 27.51 3.31 4.51-.89 10.31-2.66 12.87-3.93l4.66-2.31.28-12.25.28-12.25H101.32v-19h48.68l.67 25.53.67 25.53-2.76 2.39c-5.04 4.37-16.27 10.54-24.07 13.23-10.61 3.65-30.04 4.28-40.97 1.34m93.77-62.03v-61h83v20h-61.05l.27 15.75.27 15.75 27.17.26 27.17.26.32 7.23c.18 3.97.18 8.24.00 9.48l-.32 2.25H199.32v51h-22zm247"/>
	<path class="yellow" id="hyphen" d="M424 391 v-7.5h48v15h-48zm-81-153"/>
	<path class="yellow" id="light" d="M578 458.19c-6.72-2.12-14.04-6.20-14.04-7.81 0-.52 1.36-2.89 3.04-5.27l3.04-4.31 5.98 2.96c11.06 5.48 21.88 4.59 28.12-2.31 3.42-3.79 4.85-7.42 5.97-15.23l.53-3.73-3.67 2.94c-10.02 8.03-24.1 7.85-32.28-.42-5.56-5.62-8.47-18.09-6.77-29.04 2.2-14.20 10.56-25.83 22.70-31.58 6.14-2.91 7.53-3.17 16.66-3.17 6.28 0 12.99.70 18.18 1.90 7.46 1.73 8.22 2.12 8.22 4.28 0 1.30-1.33 11.02-2.97 21.60s-3.67 24.34-4.52 30.59c-3.41 25.01-10.15 34.86-26.85 39.21-7.80 2.03-13.58 1.87-21.35-.58m27.54-43.02c6.2-4.29 7.96-8.57 10.35-25.08 1.78-12.35 1.90-14.80.74-15.53-2.18-1.38-14.55-1.04-18.26.50-1.85.77-5.14 3.18-7.32 5.36-9.92 9.92-11.61 32.45-2.77 36.97 3.78 1.93 12.95.75 17.26-2.22m-107.35 19.06c-5.10-2.62-7.96-7.25-7.97-12.88 0-3.22 1.63-13.16 11.87-72.11l2.76-15.94 7.12-.29c6.30-.25 7.12-.08 7.12 1.49-.00.98-2.91 19.26-6.47 40.63-3.55 21.36-6.46 40.50-6.46 42.53 0 4.12 1.12 5.21 5.41 5.27 2.65.03 3.03.48 4.15 4.85l1.23 4.81-3.65 1.53c-6.21 2.60-10.18 2.63-15.11.10m243.14 1.03c-7.77-2.28-12.92-9.05-12.96-17.09-.01-2.08 1.32-11.50 2.97-20.92 1.64-9.42 3.20-18.36 3.46-19.87.46-2.69.37-2.74-4.60-2.74h-5.07l.71-5.73c.39-3.15.91-6.06 1.17-6.47s2.64-.74 5.31-.74c5.44 0 5.43.02 6.48-8.96 1.09-9.31.75-8.96 8.66-8.96h7.03l-.67 5.23c-.37 2.87-.93 6.91-1.25 8.96l-.57 3.73h19.32l-.68 5.73c-.37 3.15-.97 6.04-1.32 6.43-.35.38-4.89.83-10.09.99l-9.44.29-2.14 13.94c-1.18 7.67-2.65 17.07-3.28 20.89-1.03 6.31-.96 7.16.76 9.46 1.70 2.26 2.59 2.52 8.64 2.52h6.74l1.30 4.41c.71 2.42 1.09 4.74.84 5.15-.65 1.05-9.16 3.65-13.88 4.24-2.19.27-5.53.04-7.43-.51m-210.72-4.54c1.82-9.93 5.86-34.09 7.96-47.61 1.36-8.76 2.70-16.95 2.98-18.18.46-2.06 1.05-2.24 7.58-2.24h7.08l-.65 5.23c-.36 2.87-2.42 15.99-4.57 29.14s-4.27 26.60-4.71 29.89l-.78 5.97-7.70.29-7.70.29zm113.41.95c.28-.95 2.37-13.40 4.65-27.65a16001 16001 0 0 1 7.81-48.32l3.67-22.41 7.19-.29c6.04-.24 7.19-.03 7.19 1.3 0 1.81-4.67 31.61-5.53 35.28-.52 2.24-.28 2.16 3.42-1.18 5.56-5.02 9.49-6.84 16.12-7.44 7.68-.69 12.20.28 15.99 3.47 7.07 5.95 8.25 14.03 4.95 34.01a1511 1511 0 0 0-3.61 23.27l-1.70 11.70h-7.34c-6.33 0-7.34-.24-7.33-1.74.00-.95 1.34-9.77 2.97-19.59 3.98-24.00 4.51-29.77 3.05-33.3-3.21-7.76-16.80-6.13-25.73 3.08-2.93 3.02-3.35 4.36-5.60 17.70-1.33 7.93-2.94 18.01-3.57 22.39-1.76 12.28-1.07 11.45-9.62 11.45-6.64 0-7.41-.19-6.96-1.74m-96.65-82.12c-4.54-2.2-5.65-9.18-2.10-13.26 6.91-7.95 18.90-.08 15.07 9.89-1.4 3.64-8.55 5.5-12.96 3.36"/>
	
	<path class="blue" id="flashlight" d="M343 238 c-1.70-2.63-4.72-10.79-7.12-19.25-2.13-7.54-3.17-22.56-2.28-33 .78-9.17 4.84-22.99 7.89-26.86 1.84-2.34 2.76-2.63 8.32-2.63 7.50 0 9.30 1.47 13.02 10.62 4.25 10.47 5.83 21.98 5.33 38.85-.49 16.69-2.64 25.86-7.37 31.48-2.4 2.85-3.00 3.04-9.45 3.04-6.04 0-7.06-.27-8.34-2.25m16.74-9.62c5.95-14.87 4.26-49.85-3.00-62.30-1.06-1.82-2.54-3.31-3.27-3.31-4.23 0-9.05 15.66-9.04 29.41.00 14.94 3.94 34.21 8.06 39.45 2.64 3.36 5.05 2.29 7.26-3.23m-29.83 7.72c-2.2-1.13-9.50-5.19-16.23-9.02l-12.23-6.95-1.57-5.18c-1.95-6.44-2.10-25.60-.25-31.18 1.08-3.27 2.77-4.87 10.78-10.26 11.76-7.90 22.94-14.64 23.44-14.13.20.21-.68 3.55-1.98 7.42-6.10 18.18-5.23 45.72 2.06 65.11 2.65 7.05 2.28 7.44-4.02 4.18m-117.54-14.09c-5.11-3.44-7.06-7.66-7.67-16.56-.44-6.49-.18-8.59 1.52-12.46 3.22-7.28 6.41-8.70 19.69-8.73 6.05-.01 21.12-.68 33.5-1.47s25.04-1.45 28.15-1.47l5.65-.02-.52 11.75c-.46 10.52.36 19.65 2.21 24.42.85 2.20-.37 2.35-40.32 4.82-39.83 2.46-38.18 2.47-42.23-.25m63.84-15.4 5.29-.63-.29-5.10-.29-5.10-7.99-.29c-10.80-.4-12.50.10-12.50 3.75 0 1.60.43 4.07.97 5.48"/>

	<path class="blue" d="m564.32 144.13-19.68 47.74Z" style="stroke-width:4;stroke-opacity:1"/>
	<path class="yellow" d="m369.92 147.84 94.72-46.08zM375.68 229.76l92.16 33.28z" style="stroke-width:4;stroke-opacity:1"/>
	<path class="blue" d="m514.54 118.11-18.10 48.42zM496.44 166.53ZM448.02 146.62l47.97 19.46zM444.40 195.04l41.18 28.96zM536.72 228.08ZM537.17 227.18ZM543.96 193.69l-9.05 34.84zM542.15 190.97l33.03 23.08zM493.27 167.89l-9.50 53.40zM494.18 164.72l49.32 27.15zM537.17 224.91l-9.05 29.86z" style="stroke-width:4;stroke-opacity:1"/>
	<ellipse class="yellow" cx="450.51" cy="147.87" rx="11.08" ry="10.74" style="stroke-opacity:1"/>
	<ellipse class="yellow" cx="514.32" cy="120.03" rx="11.76" ry="11.65" style="stroke-opacity:1"/>
	<ellipse class="yellow" cx="445.87" cy="195.61" rx="12.10" ry="11.42" style="stroke-opacity:1"/>
	<ellipse class="yellow" cx="527.78" cy="255.23" rx="11.20" ry="11.54" style="stroke-opacity:1"/>
	<ellipse class="yellow" cx="483.88" cy="222.20" rx="14.82" ry="15.38" style="stroke-opacity:1"/>
	<ellipse class="blue" cx="536.38" cy="226.5" rx="11.42" ry="10.86" style="stroke-opacity:1"/>
	<ellipse class="blue" cx="563.31" cy="145.49" rx="15.04" ry="16.06" style="stroke-opacity:1"/>
	<ellipse class="blue" cx="495.76" cy="163.59" rx="16.97" ry="16.51" style="display:inline;stroke-opacity:1"/>
	<ellipse class="blue" cx="544.30" cy="192.44" rx="16.40" ry="16.85" style="stroke-opacity:1"/>
	<ellipse class="blue" cx="574.85" cy="213.82" rx="11.42" ry="12.21" style="stroke-opacity:1"/>
</svg>
