<?xml version="1.0" encoding="UTF-8"?><svg xmlns="http://www.w3.org/2000/svg" xmlns:xlink="http://www.w3.org/1999/xlink" fill-opacity="1" color-rendering="auto" color-interpolation="auto" text-rendering="auto" stroke="black" stroke-linecap="square" width="1668" stroke-miterlimit="10" shape-rendering="auto" stroke-opacity="1" fill="black" stroke-dasharray="none" font-weight="normal" stroke-width="1" height="968" font-family="'Dialog'" font-style="normal" stroke-linejoin="miter" font-size="12px" stroke-dashoffset="0" image-rendering="auto">
  <!--Generated by ySVG 2.6-->
  <defs id="genericDefs"/>
  <g>
    <defs id="defs1">
      <clipPath clipPathUnits="userSpaceOnUse" id="clipPath1">
        <path d="M0 0 L1668 0 L1668 968 L0 968 L0 0 Z"/>
      </clipPath>
      <clipPath clipPathUnits="userSpaceOnUse" id="clipPath2">
        <path d="M22 -498 L856 -498 L856 -14 L22 -14 L22 -498 Z"/>
      </clipPath>
    </defs>
    <g fill="white" text-rendering="geometricPrecision" shape-rendering="geometricPrecision" transform="scale(2,2) translate(-22,498)" stroke="white">
      <rect x="22" width="834" height="484" y="-498" clip-path="url(#clipPath2)" stroke="none"/>
    </g>
    <g text-rendering="geometricPrecision" stroke-miterlimit="1.45" shape-rendering="geometricPrecision" transform="matrix(2,0,0,2,-44,996)" stroke-linecap="butt">
      <path fill="none" d="M405.8148 -455.6995 L329.3006 -455.6995" clip-path="url(#clipPath2)"/>
      <path d="M321.3006 -455.6995 L333.3006 -450.6995 L330.3006 -455.6995 L333.3006 -460.6995 Z" clip-path="url(#clipPath2)" stroke="none"/>
      <rect x="334.3197" y="-465.0501" clip-path="url(#clipPath2)" fill="white" width="61.3633" height="18.7012" stroke="none"/>
      <text x="336.3197" xml:space="preserve" y="-450.9857" clip-path="url(#clipPath2)" font-family="sans-serif" stroke="none">instanceOf</text>
      <path fill="none" d="M684.4783 -347.3795 L732.9533 -347.3795" clip-path="url(#clipPath2)"/>
      <path d="M740.9533 -347.3795 L728.9533 -352.3795 L731.9533 -347.3795 L728.9533 -342.3795 Z" clip-path="url(#clipPath2)" stroke="none"/>
      <text x="689.7462" xml:space="preserve" y="-354.0163" clip-path="url(#clipPath2)" font-family="sans-serif" stroke="none">hasTime</text>
      <path fill="none" d="M287.304 -465.6966 L287.304 -484.6995 L314.5628 -484.6995" clip-path="url(#clipPath2)"/>
      <path fill="white" d="M329.5628 -484.6995 L313.5628 -490.6995 L313.5628 -478.6995 Z" clip-path="url(#clipPath2)" stroke="none"/>
      <path fill="none" d="M329.5628 -484.6995 L313.5628 -490.6995 L313.5628 -478.6995 Z" clip-path="url(#clipPath2)"/>
      <path fill="none" d="M439.808 -465.6966 L439.808 -484.6995 L412.5492 -484.6995" clip-path="url(#clipPath2)"/>
      <path fill="white" d="M397.5492 -484.6995 L413.5492 -478.6995 L413.5492 -490.6995 Z" clip-path="url(#clipPath2)" stroke="none"/>
      <path fill="none" d="M397.5492 -484.6995 L413.5492 -478.6995 L413.5492 -490.6995 Z" clip-path="url(#clipPath2)"/>
      <path fill="none" d="M287.304 -357.3893 L287.304 -397.3795 L364.8266 -397.3795" clip-path="url(#clipPath2)"/>
      <path fill="white" d="M379.8266 -397.3795 L363.8266 -403.3795 L363.8266 -391.3795 Z" clip-path="url(#clipPath2)" stroke="none"/>
      <path fill="none" d="M379.8266 -397.3795 L363.8266 -403.3795 L363.8266 -391.3795 Z" clip-path="url(#clipPath2)"/>
      <path fill="none" d="M439.808 -357.3893 L439.808 -372.3429" clip-path="url(#clipPath2)"/>
      <path fill="white" d="M439.808 -387.3429 L433.808 -371.3429 L445.808 -371.3429 Z" clip-path="url(#clipPath2)" stroke="none"/>
      <path fill="none" d="M439.808 -387.3429 L433.808 -371.3429 L445.808 -371.3429 Z" clip-path="url(#clipPath2)"/>
      <path fill="none" d="M100.7248 -357.3893 L100.7248 -397.3795 L364.831 -397.3795" clip-path="url(#clipPath2)"/>
      <path fill="white" d="M379.831 -397.3795 L363.831 -403.3795 L363.831 -391.3795 Z" clip-path="url(#clipPath2)" stroke="none"/>
      <path fill="none" d="M379.831 -397.3795 L363.831 -403.3795 L363.831 -391.3795 Z" clip-path="url(#clipPath2)"/>
      <path fill="none" d="M617.208 -357.3551 L617.208 -392.3795 L514.7931 -392.3795" clip-path="url(#clipPath2)"/>
      <path fill="white" d="M499.7931 -392.3795 L515.7931 -386.3795 L515.7931 -398.3795 Z" clip-path="url(#clipPath2)" stroke="none"/>
      <path fill="none" d="M499.7931 -392.3795 L515.7931 -386.3795 L515.7931 -398.3795 Z" clip-path="url(#clipPath2)"/>
      <path fill="none" d="M832.1138 -307.3795 L841.562 -307.3795 L841.562 -372.404" clip-path="url(#clipPath2)"/>
      <path fill="white" d="M841.562 -387.404 L835.562 -371.404 L847.562 -371.404 Z" clip-path="url(#clipPath2)" stroke="none"/>
      <path fill="none" d="M841.562 -387.404 L835.562 -371.404 L847.562 -371.404 Z" clip-path="url(#clipPath2)"/>
      <path fill="none" d="M832.1138 -347.3795 L841.562 -347.3795 L841.562 -372.3698" clip-path="url(#clipPath2)"/>
      <path fill="white" d="M841.562 -387.3698 L835.562 -371.3698 L847.562 -371.3698 Z" clip-path="url(#clipPath2)" stroke="none"/>
      <path fill="none" d="M841.562 -387.3698 L835.562 -371.3698 L847.562 -371.3698 Z" clip-path="url(#clipPath2)"/>
      <path fill="none" d="M499.7751 -402.3795 L733.0231 -402.3795" clip-path="url(#clipPath2)"/>
      <path d="M741.0231 -402.3795 L729.0231 -407.3795 L732.0231 -402.3795 L729.0231 -397.3795 Z" clip-path="url(#clipPath2)" stroke="none"/>
      <rect x="595.3982" y="-411.7301" clip-path="url(#clipPath2)" fill="white" width="50.0137" height="18.7012" stroke="none"/>
      <text x="597.3982" xml:space="preserve" y="-397.6657" clip-path="url(#clipPath2)" font-family="sans-serif" stroke="none">hasTime</text>
      <path fill="none" d="M297.304 -237.4186 L297.304 -249.4023" clip-path="url(#clipPath2)"/>
      <path d="M297.304 -257.4023 L292.304 -245.4023 L297.304 -248.4023 L302.304 -245.4023 Z" clip-path="url(#clipPath2)" stroke="none"/>
      <text x="303.304" xml:space="preserve" y="-242.6657" clip-path="url(#clipPath2)" font-family="sans-serif" stroke="none">roleIn</text>
      <path fill="none" d="M273.3104 -232.3795 L263.601 -232.3795 L263.601 -322.37" clip-path="url(#clipPath2)"/>
      <path fill="white" d="M263.601 -337.37 L257.601 -321.37 L269.601 -321.37 Z" clip-path="url(#clipPath2)" stroke="none"/>
      <path fill="none" d="M263.601 -337.37 L257.601 -321.37 L269.601 -321.37 Z" clip-path="url(#clipPath2)"/>
      <path fill="none" d="M273.3104 -307.3795 L263.601 -307.3795 L263.601 -322.3607" clip-path="url(#clipPath2)"/>
      <path fill="white" d="M263.601 -337.3607 L257.601 -321.3607 L269.601 -321.3607 Z" clip-path="url(#clipPath2)" stroke="none"/>
      <path fill="none" d="M263.601 -337.3607 L257.601 -321.3607 L269.601 -321.3607 Z" clip-path="url(#clipPath2)"/>
      <path fill="none" d="M273.3104 -267.3795 L263.601 -267.3795 L263.601 -322.37" clip-path="url(#clipPath2)"/>
      <path fill="white" d="M263.601 -337.37 L257.601 -321.37 L269.601 -321.37 Z" clip-path="url(#clipPath2)" stroke="none"/>
      <path fill="none" d="M263.601 -337.37 L257.601 -321.37 L269.601 -321.37 Z" clip-path="url(#clipPath2)"/>
      <path fill="none" d="M424.808 -357.403 L424.808 -375.5 L302.304 -375.5 L302.304 -365.403" clip-path="url(#clipPath2)"/>
      <path d="M302.304 -357.403 L307.304 -369.403 L302.304 -366.403 L297.304 -369.403 Z" clip-path="url(#clipPath2)" stroke="none"/>
      <rect x="317.5287" y="-384.8506" clip-path="url(#clipPath2)" fill="white" width="92.0547" height="18.7012" stroke="none"/>
      <text x="319.5287" xml:space="preserve" y="-370.7861" clip-path="url(#clipPath2)" font-family="sans-serif" stroke="none">hasSituationPart</text>
      <path fill="none" d="M120.7248 -89.4186 L120.7248 -77.3828" clip-path="url(#clipPath2)"/>
      <path d="M120.7248 -97.4186 L115.7248 -85.4186 L120.7248 -88.4186 L125.7248 -85.4186 Z" clip-path="url(#clipPath2)" stroke="none"/>
      <text x="126.7248" xml:space="preserve" y="-82.6657" clip-path="url(#clipPath2)" font-family="sans-serif" stroke="none">boundaryOf</text>
      <path fill="none" d="M45.2673 -307.3795 L35.2848 -307.3795 L35.2848 -322.33" clip-path="url(#clipPath2)"/>
      <path fill="white" d="M35.2848 -337.33 L29.2848 -321.33 L41.2848 -321.33 Z" clip-path="url(#clipPath2)" stroke="none"/>
      <path fill="none" d="M35.2848 -337.33 L29.2848 -321.33 L41.2848 -321.33 Z" clip-path="url(#clipPath2)"/>
      <path fill="none" d="M45.2673 -227.3795 L35.2848 -227.3795 L35.2848 -322.37" clip-path="url(#clipPath2)"/>
      <path fill="white" d="M35.2848 -337.37 L29.2848 -321.37 L41.2848 -321.37 Z" clip-path="url(#clipPath2)" stroke="none"/>
      <path fill="none" d="M35.2848 -337.37 L29.2848 -321.37 L41.2848 -321.37 Z" clip-path="url(#clipPath2)"/>
      <path fill="none" d="M45.2673 -147.3795 L35.2848 -147.3795 L35.2848 -322.3436" clip-path="url(#clipPath2)"/>
      <path fill="white" d="M35.2848 -337.3436 L29.2848 -321.3436 L41.2848 -321.3436 Z" clip-path="url(#clipPath2)" stroke="none"/>
      <path fill="none" d="M35.2848 -337.3436 L29.2848 -321.3436 L41.2848 -321.3436 Z" clip-path="url(#clipPath2)"/>
      <path fill="none" d="M273.2981 -222.3795 L234.992 -222.3795 L234.992 -347.3795 L184.1518 -347.3795" clip-path="url(#clipPath2)"/>
      <path d="M176.1518 -347.3795 L188.1518 -342.3795 L185.1518 -347.3795 L188.1518 -352.3795 Z" clip-path="url(#clipPath2)" stroke="none"/>
      <rect x="208.3094" y="-294.2301" clip-path="url(#clipPath2)" fill="white" width="53.3652" height="18.7012" stroke="none"/>
      <text x="210.3094" xml:space="preserve" y="-280.1657" clip-path="url(#clipPath2)" font-family="sans-serif" stroke="none">playedBy</text>
      <path fill="none" d="M45.2673 -267.3795 L35.2848 -267.3795 L35.2848 -322.35" clip-path="url(#clipPath2)"/>
      <path fill="white" d="M35.2848 -337.35 L29.2848 -321.35 L41.2848 -321.35 Z" clip-path="url(#clipPath2)" stroke="none"/>
      <path fill="none" d="M35.2848 -337.35 L29.2848 -321.35 L41.2848 -321.35 Z" clip-path="url(#clipPath2)"/>
      <path fill="none" d="M65.2861 -107.3795 L55.2848 -107.3795 L55.2848 -122.355" clip-path="url(#clipPath2)"/>
      <path fill="white" d="M55.2848 -137.355 L49.2848 -121.355 L61.2848 -121.355 Z" clip-path="url(#clipPath2)" stroke="none"/>
      <path fill="none" d="M55.2848 -137.355 L49.2848 -121.355 L61.2848 -121.355 Z" clip-path="url(#clipPath2)"/>
      <path fill="none" d="M65.2861 -67.3795 L55.2848 -67.3795 L55.2848 -122.365" clip-path="url(#clipPath2)"/>
      <path fill="white" d="M55.2848 -137.365 L49.2848 -121.365 L61.2848 -121.365 Z" clip-path="url(#clipPath2)" stroke="none"/>
      <path fill="none" d="M55.2848 -137.365 L49.2848 -121.365 L61.2848 -121.365 Z" clip-path="url(#clipPath2)"/>
      <path fill="none" d="M65.2861 -27.3795 L55.2848 -27.3795 L55.2848 -122.375" clip-path="url(#clipPath2)"/>
      <path fill="white" d="M55.2848 -137.375 L49.2848 -121.375 L61.2848 -121.375 Z" clip-path="url(#clipPath2)" stroke="none"/>
      <path fill="none" d="M55.2848 -137.375 L49.2848 -121.375 L61.2848 -121.375 Z" clip-path="url(#clipPath2)"/>
      <path fill="none" d="M73.4284 -317.4137 L73.4284 -328.464 L191.6 -328.464 L191.6 -315.3795 L183.6124 -315.3795" clip-path="url(#clipPath2)"/>
      <path d="M175.6124 -315.3795 L187.6124 -310.3795 L184.6124 -315.3795 L187.6124 -320.3795 Z" clip-path="url(#clipPath2)" stroke="none"/>
      <rect x="98.8355" y="-337.8146" clip-path="url(#clipPath2)" fill="white" width="67.3574" height="18.7012" stroke="none"/>
      <text x="100.8355" xml:space="preserve" y="-323.7501" clip-path="url(#clipPath2)" font-family="sans-serif" stroke="none">hasMember</text>
      <path fill="none" d="M297.304 -217.4259 L297.304 -202.76 L204.56 -202.76 L204.56 -307.3795 L184.1987 -307.3795" clip-path="url(#clipPath2)"/>
      <path d="M176.1987 -307.3795 L188.1987 -302.3795 L185.1987 -307.3795 L188.1987 -312.3795 Z" clip-path="url(#clipPath2)" stroke="none"/>
      <path fill="none" d="M120.7248 -49.4186 L120.7248 -37.3828" clip-path="url(#clipPath2)"/>
      <path d="M120.7248 -57.4186 L115.7248 -45.4186 L120.7248 -48.4186 L125.7248 -45.4186 Z" clip-path="url(#clipPath2)" stroke="none"/>
      <text x="126.7248" xml:space="preserve" y="-42.6657" clip-path="url(#clipPath2)" font-family="sans-serif" stroke="none">boundaryOf</text>
      <path fill="none" d="M297.304 -217.4259 L297.304 -202.76 L204.56 -202.76 L204.56 -227.3795 L184.1987 -227.3795" clip-path="url(#clipPath2)"/>
      <path d="M176.1987 -227.3795 L188.1987 -222.3795 L185.1987 -227.3795 L188.1987 -232.3795 Z" clip-path="url(#clipPath2)" stroke="none"/>
      <rect x="233.9232" y="-212.1106" clip-path="url(#clipPath2)" fill="white" width="34.0176" height="18.7012" stroke="none"/>
      <text x="235.9232" xml:space="preserve" y="-198.0461" clip-path="url(#clipPath2)" font-family="sans-serif" stroke="none">roleIn</text>
      <path fill="none" d="M57.8862 -157.3843 L57.8862 -209.3571" clip-path="url(#clipPath2)"/>
      <path d="M57.8862 -217.3571 L52.8862 -205.3571 L57.8862 -208.3571 L62.8862 -205.3571 Z" clip-path="url(#clipPath2)" stroke="none"/>
      <text x="60.5743" xml:space="preserve" y="-163.1901" clip-path="url(#clipPath2)" font-family="sans-serif" stroke="none">hasOwner</text>
      <path fill="none" d="M176.1851 -107.3795 L191.6 -107.3795 L191.6 -219.3795 L183.6124 -219.3795" clip-path="url(#clipPath2)"/>
      <path d="M175.6124 -219.3795 L187.6124 -214.3795 L184.6124 -219.3795 L187.6124 -224.3795 Z" clip-path="url(#clipPath2)" stroke="none"/>
      <rect x="155.9646" y="-136.7047" clip-path="url(#clipPath2)" fill="white" width="66.707" height="18.7012" stroke="none"/>
      <text x="157.9646" xml:space="preserve" y="-122.6402" clip-path="url(#clipPath2)" font-family="sans-serif" stroke="none">boundaryOf</text>
      <path fill="none" d="M110.7248 -257.4186 L110.7248 -245.3828" clip-path="url(#clipPath2)"/>
      <path d="M110.7248 -237.3828 L115.7248 -249.3828 L110.7248 -246.3828 L105.7248 -249.3828 Z" clip-path="url(#clipPath2)" stroke="none"/>
      <text x="116.7248" xml:space="preserve" y="-242.6657" clip-path="url(#clipPath2)" font-family="sans-serif" stroke="none">partOf</text>
      <path fill="none" d="M175.6124 -299.3795 L191.6 -299.3795 L191.6 -235.3795 L183.6124 -235.3795" clip-path="url(#clipPath2)"/>
      <path d="M175.6124 -235.3795 L187.6124 -230.3795 L184.6124 -235.3795 L187.6124 -240.3795 Z" clip-path="url(#clipPath2)" stroke="none"/>
      <text x="125.3181" xml:space="preserve" y="-282.8212" clip-path="url(#clipPath2)" font-family="sans-serif" stroke="none">hasMember</text>
      <path fill="none" d="M120.6928 -197.3663 L120.6928 -202.369" clip-path="url(#clipPath2)"/>
      <path fill="white" d="M120.6928 -217.369 L114.6928 -201.369 L126.6928 -201.369 Z" clip-path="url(#clipPath2)" stroke="none"/>
      <path fill="none" d="M120.6928 -217.369 L114.6928 -201.369 L126.6928 -201.369 Z" clip-path="url(#clipPath2)"/>
      <path fill="none" d="M439.808 -407.3748 L439.808 -430.742" clip-path="url(#clipPath2)"/>
      <path fill="white" d="M439.808 -445.742 L433.808 -429.742 L445.808 -429.742 Z" clip-path="url(#clipPath2)" stroke="none"/>
      <path fill="none" d="M439.808 -445.742 L433.808 -429.742 L445.808 -429.742 Z" clip-path="url(#clipPath2)"/>
      <path fill="none" d="M796.562 -407.3535 L796.562 -420.4867 L439.808 -420.4867 L439.808 -430.6927" clip-path="url(#clipPath2)"/>
      <path fill="white" d="M439.808 -445.6927 L433.808 -429.6927 L445.808 -429.6927 Z" clip-path="url(#clipPath2)" stroke="none"/>
      <path fill="none" d="M439.808 -445.6927 L433.808 -429.6927 L445.808 -429.6927 Z" clip-path="url(#clipPath2)"/>
      <path fill="none" d="M321.3057 -227.3795 L354 -227.3795 L354 -349.7776 L362.3854 -349.5432" clip-path="url(#clipPath2)"/>
      <path d="M370.3823 -349.3198 L358.5266 -354.653 L361.3858 -349.5712 L358.2473 -344.6569 Z" clip-path="url(#clipPath2)" stroke="none"/>
      <rect x="336.9912" y="-261.5911" clip-path="url(#clipPath2)" fill="white" width="34.0176" height="18.7012" stroke="none"/>
      <text x="338.9912" xml:space="preserve" y="-247.5267" clip-path="url(#clipPath2)" font-family="sans-serif" stroke="none">roleIn</text>
      <path fill="none" d="M602.208 -357.4035 L602.208 -376.9605 L454.808 -376.9605 L454.808 -365.4035" clip-path="url(#clipPath2)"/>
      <path d="M454.808 -357.4035 L459.808 -369.4035 L454.808 -366.4035 L449.808 -369.4035 Z" clip-path="url(#clipPath2)" stroke="none"/>
      <rect x="484.1564" y="-386.3111" clip-path="url(#clipPath2)" fill="white" width="88.7031" height="18.7012" stroke="none"/>
      <text x="486.1564" xml:space="preserve" y="-372.2466" clip-path="url(#clipPath2)" font-family="sans-serif" stroke="none">hasProcessPart</text>
      <path fill="none" d="M390.401 -307.3795 L379.8451 -307.3795 L379.8451 -322.3844" clip-path="url(#clipPath2)"/>
      <path fill="white" d="M379.8451 -337.3844 L373.8451 -321.3844 L385.8451 -321.3844 Z" clip-path="url(#clipPath2)" stroke="none"/>
      <path fill="none" d="M379.8451 -337.3844 L373.8451 -321.3844 L385.8451 -321.3844 Z" clip-path="url(#clipPath2)"/>
      <path fill="none" d="M390.401 -267.3795 L379.8451 -267.3795 L379.8451 -322.3476" clip-path="url(#clipPath2)"/>
      <path fill="white" d="M379.8451 -337.3476 L373.8451 -321.3476 L385.8451 -321.3476 Z" clip-path="url(#clipPath2)" stroke="none"/>
      <path fill="none" d="M379.8451 -337.3476 L373.8451 -321.3476 L385.8451 -321.3476 Z" clip-path="url(#clipPath2)"/>
      <path fill="none" d="M449.808 -317.4186 L449.808 -329.4023" clip-path="url(#clipPath2)"/>
      <path d="M449.808 -337.4023 L444.808 -325.4023 L449.808 -328.4023 L454.808 -325.4023 Z" clip-path="url(#clipPath2)" stroke="none"/>
      <text x="455.808" xml:space="preserve" y="-322.6657" clip-path="url(#clipPath2)" font-family="sans-serif" stroke="none">hasMember</text>
      <path fill="none" d="M321.3085 -227.3795 L533.94 -227.3795 L533.94 -347.3795 L541.9187 -347.3795" clip-path="url(#clipPath2)"/>
      <path d="M549.9187 -347.3795 L537.9187 -352.3795 L540.9187 -347.3795 L537.9187 -342.3795 Z" clip-path="url(#clipPath2)" stroke="none"/>
      <rect x="516.9312" y="-261.0568" clip-path="url(#clipPath2)" fill="white" width="34.0176" height="18.7012" stroke="none"/>
      <text x="518.9312" xml:space="preserve" y="-246.9923" clip-path="url(#clipPath2)" font-family="sans-serif" stroke="none">roleIn</text>
      <path fill="none" d="M569.892 -307.3795 L559.552 -307.3795 L559.552 -322.3658" clip-path="url(#clipPath2)"/>
      <path fill="white" d="M559.552 -337.3658 L553.552 -321.3658 L565.552 -321.3658 Z" clip-path="url(#clipPath2)" stroke="none"/>
      <path fill="none" d="M559.552 -337.3658 L553.552 -321.3658 L565.552 -321.3658 Z" clip-path="url(#clipPath2)"/>
      <path fill="none" d="M569.892 -267.3795 L559.552 -267.3795 L559.552 -322.3636" clip-path="url(#clipPath2)"/>
      <path fill="white" d="M559.552 -337.3636 L553.552 -321.3636 L565.552 -321.3636 Z" clip-path="url(#clipPath2)" stroke="none"/>
      <path fill="none" d="M559.552 -337.3636 L553.552 -321.3636 L565.552 -321.3636 Z" clip-path="url(#clipPath2)"/>
      <path fill="none" d="M627.208 -317.4186 L627.208 -329.4023" clip-path="url(#clipPath2)"/>
      <path d="M627.208 -337.4023 L622.208 -325.4023 L627.208 -328.4023 L632.208 -325.4023 Z" clip-path="url(#clipPath2)" stroke="none"/>
      <text x="633.208" xml:space="preserve" y="-322.6657" clip-path="url(#clipPath2)" font-family="sans-serif" stroke="none">hasMember</text>
    </g>
    <g fill="rgb(150,150,150)" text-rendering="geometricPrecision" shape-rendering="geometricPrecision" transform="matrix(2,0,0,2,-44,996)" stroke="rgb(150,150,150)">
      <rect x="253.304" y="-465.6995" clip-path="url(#clipPath2)" width="68" rx="4" ry="4" height="20" stroke="none"/>
    </g>
    <g stroke-linecap="butt" transform="matrix(2,0,0,2,-44,996)" fill="white" text-rendering="geometricPrecision" font-family="sans-serif" shape-rendering="geometricPrecision" stroke="white" font-weight="bold" stroke-miterlimit="1.45">
      <text x="261.2971" xml:space="preserve" y="-450.9857" clip-path="url(#clipPath2)" stroke="none">Category</text>
    </g>
    <g stroke-linecap="butt" transform="matrix(2,0,0,2,-44,996)" fill="rgb(150,150,150)" text-rendering="geometricPrecision" shape-rendering="geometricPrecision" stroke="rgb(150,150,150)" stroke-miterlimit="1.45">
      <rect x="253.304" y="-465.6995" clip-path="url(#clipPath2)" fill="none" width="68" rx="4" ry="4" height="20"/>
    </g>
    <g stroke-linecap="butt" transform="matrix(2,0,0,2,-44,996)" text-rendering="geometricPrecision" font-family="sans-serif" shape-rendering="geometricPrecision" font-weight="bold" stroke-miterlimit="1.45">
      <text x="759.9019" xml:space="preserve" y="-342.6657" clip-path="url(#clipPath2)" stroke="none">Chronoid</text>
    </g>
    <g stroke-linecap="butt" transform="matrix(2,0,0,2,-44,996)" fill="rgb(43,138,132)" text-rendering="geometricPrecision" shape-rendering="geometricPrecision" stroke="rgb(43,138,132)" stroke-miterlimit="1.45">
      <rect x="741.002" y="-357.3795" clip-path="url(#clipPath2)" fill="none" width="91.12" rx="4" ry="4" height="20"/>
    </g>
    <g fill="rgb(150,150,150)" text-rendering="geometricPrecision" shape-rendering="geometricPrecision" transform="matrix(2,0,0,2,-44,996)" stroke="rgb(150,150,150)">
      <rect x="329.556" y="-494.6995" clip-path="url(#clipPath2)" width="68" rx="4" ry="4" height="20" stroke="none"/>
    </g>
    <g stroke-linecap="butt" transform="matrix(2,0,0,2,-44,996)" fill="white" text-rendering="geometricPrecision" font-family="sans-serif" shape-rendering="geometricPrecision" stroke="white" font-weight="bold" stroke-miterlimit="1.45">
      <text x="346.889" xml:space="preserve" y="-479.9857" clip-path="url(#clipPath2)" stroke="none">Entity</text>
    </g>
    <g stroke-linecap="butt" transform="matrix(2,0,0,2,-44,996)" fill="rgb(150,150,150)" text-rendering="geometricPrecision" shape-rendering="geometricPrecision" stroke="rgb(150,150,150)" stroke-miterlimit="1.45">
      <rect x="329.556" y="-494.6995" clip-path="url(#clipPath2)" fill="none" width="68" rx="4" ry="4" height="20"/>
      <rect stroke-linecap="square" x="379.808" y="-407.3795" clip-path="url(#clipPath2)" width="120" rx="4" ry="4" height="20" stroke="none" stroke-miterlimit="10"/>
    </g>
    <g stroke-linecap="butt" transform="matrix(2,0,0,2,-44,996)" fill="white" text-rendering="geometricPrecision" font-family="sans-serif" shape-rendering="geometricPrecision" stroke="white" font-weight="bold" stroke-miterlimit="1.45">
      <text x="385.7992" xml:space="preserve" y="-392.6657" clip-path="url(#clipPath2)" stroke="none">ConcreteIndividual</text>
    </g>
    <g stroke-linecap="butt" transform="matrix(2,0,0,2,-44,996)" fill="rgb(150,150,150)" text-rendering="geometricPrecision" shape-rendering="geometricPrecision" stroke="rgb(150,150,150)" stroke-miterlimit="1.45">
      <rect x="379.808" y="-407.3795" clip-path="url(#clipPath2)" fill="none" width="120" rx="4" ry="4" height="20"/>
    </g>
    <g fill="rgb(43,138,132)" text-rendering="geometricPrecision" shape-rendering="geometricPrecision" transform="matrix(2,0,0,2,-44,996)" stroke="rgb(43,138,132)">
      <rect x="741.002" y="-407.3795" clip-path="url(#clipPath2)" width="111.12" rx="4" ry="4" height="20" stroke="none"/>
    </g>
    <g stroke-linecap="butt" transform="matrix(2,0,0,2,-44,996)" fill="white" text-rendering="geometricPrecision" font-family="sans-serif" shape-rendering="geometricPrecision" stroke="white" font-weight="bold" stroke-miterlimit="1.45">
      <text x="765.8911" xml:space="preserve" y="-392.6657" clip-path="url(#clipPath2)" stroke="none">TimeEntity</text>
    </g>
    <g stroke-linecap="butt" transform="matrix(2,0,0,2,-44,996)" fill="rgb(43,138,132)" text-rendering="geometricPrecision" shape-rendering="geometricPrecision" stroke="rgb(43,138,132)" stroke-miterlimit="1.45">
      <rect x="741.002" y="-407.3795" clip-path="url(#clipPath2)" fill="none" width="111.12" rx="4" ry="4" height="20"/>
    </g>
    <g stroke-linecap="butt" transform="matrix(2,0,0,2,-44,996)" text-rendering="geometricPrecision" font-family="sans-serif" shape-rendering="geometricPrecision" font-weight="bold" stroke-miterlimit="1.45">
      <text x="744.5562" xml:space="preserve" y="-302.6657" clip-path="url(#clipPath2)" stroke="none">TimeBoundary</text>
    </g>
    <g stroke-linecap="butt" transform="matrix(2,0,0,2,-44,996)" fill="rgb(43,138,132)" text-rendering="geometricPrecision" shape-rendering="geometricPrecision" stroke="rgb(43,138,132)" stroke-miterlimit="1.45">
      <rect x="741.002" y="-317.3795" clip-path="url(#clipPath2)" fill="none" width="91.12" rx="4" ry="4" height="20"/>
    </g>
    <g stroke-linecap="butt" transform="matrix(2,0,0,2,-44,996)" text-rendering="geometricPrecision" font-family="sans-serif" shape-rendering="geometricPrecision" font-weight="bold" stroke-miterlimit="1.45">
      <text x="276.6321" xml:space="preserve" y="-262.6657" clip-path="url(#clipPath2)" stroke="none">Relator</text>
    </g>
    <g stroke-linecap="butt" transform="matrix(2,0,0,2,-44,996)" fill="rgb(73,114,136)" text-rendering="geometricPrecision" shape-rendering="geometricPrecision" stroke="rgb(73,114,136)" stroke-miterlimit="1.45">
      <rect x="273.304" y="-277.3795" clip-path="url(#clipPath2)" fill="none" width="48" rx="4" ry="4" height="20"/>
    </g>
    <g stroke-linecap="butt" transform="matrix(2,0,0,2,-44,996)" text-rendering="geometricPrecision" font-family="sans-serif" shape-rendering="geometricPrecision" font-weight="bold" stroke-miterlimit="1.45">
      <text x="284.302" xml:space="preserve" y="-222.6657" clip-path="url(#clipPath2)" stroke="none">Role</text>
    </g>
    <g stroke-linecap="butt" transform="matrix(2,0,0,2,-44,996)" fill="rgb(73,114,136)" text-rendering="geometricPrecision" shape-rendering="geometricPrecision" stroke="rgb(73,114,136)" stroke-miterlimit="1.45">
      <rect x="273.304" y="-237.3795" clip-path="url(#clipPath2)" fill="none" width="48" rx="4" ry="4" height="20"/>
    </g>
    <g stroke-linecap="butt" transform="matrix(2,0,0,2,-44,996)" text-rendering="geometricPrecision" font-family="sans-serif" shape-rendering="geometricPrecision" font-weight="bold" stroke-miterlimit="1.45">
      <text x="276.9661" xml:space="preserve" y="-302.6657" clip-path="url(#clipPath2)" stroke="none">Quality</text>
    </g>
    <g stroke-linecap="butt" transform="matrix(2,0,0,2,-44,996)" fill="rgb(73,114,136)" text-rendering="geometricPrecision" shape-rendering="geometricPrecision" stroke="rgb(73,114,136)" stroke-miterlimit="1.45">
      <rect x="273.304" y="-317.3795" clip-path="url(#clipPath2)" fill="none" width="48" rx="4" ry="4" height="20"/>
      <rect stroke-linecap="square" x="253.304" y="-357.3795" clip-path="url(#clipPath2)" width="68" rx="4" ry="4" height="20" stroke="none" stroke-miterlimit="10"/>
    </g>
    <g stroke-linecap="butt" transform="matrix(2,0,0,2,-44,996)" fill="white" text-rendering="geometricPrecision" font-family="sans-serif" shape-rendering="geometricPrecision" stroke="white" font-weight="bold" stroke-miterlimit="1.45">
      <text x="257.304" xml:space="preserve" y="-342.6657" clip-path="url(#clipPath2)" stroke="none">Attributive</text>
    </g>
    <g stroke-linecap="butt" transform="matrix(2,0,0,2,-44,996)" fill="rgb(73,114,136)" text-rendering="geometricPrecision" shape-rendering="geometricPrecision" stroke="rgb(73,114,136)" stroke-miterlimit="1.45">
      <rect x="253.304" y="-357.3795" clip-path="url(#clipPath2)" fill="none" width="68" rx="4" ry="4" height="20"/>
    </g>
    <g stroke-linecap="butt" transform="matrix(2,0,0,2,-44,996)" text-rendering="geometricPrecision" font-family="sans-serif" shape-rendering="geometricPrecision" font-weight="bold" stroke-miterlimit="1.45">
      <text x="108.3908" xml:space="preserve" y="-62.6657" clip-path="url(#clipPath2)" stroke="none">Line</text>
    </g>
    <g stroke-linecap="butt" transform="matrix(2,0,0,2,-44,996)" fill="rgb(243,101,35)" text-rendering="geometricPrecision" shape-rendering="geometricPrecision" stroke="rgb(243,101,35)" stroke-miterlimit="1.45">
      <rect x="65.296" y="-77.3795" clip-path="url(#clipPath2)" fill="none" width="110.8576" rx="4" ry="4" height="20"/>
      <rect stroke-linecap="square" x="25.296" y="-357.3795" clip-path="url(#clipPath2)" width="150.8576" rx="4" ry="4" height="20" stroke="none" stroke-miterlimit="10"/>
    </g>
    <g stroke-linecap="butt" transform="matrix(2,0,0,2,-44,996)" fill="white" text-rendering="geometricPrecision" font-family="sans-serif" shape-rendering="geometricPrecision" stroke="white" font-weight="bold" stroke-miterlimit="1.45">
      <text x="69.0666" xml:space="preserve" y="-342.6657" clip-path="url(#clipPath2)" stroke="none">Continuant</text>
    </g>
    <g stroke-linecap="butt" transform="matrix(2,0,0,2,-44,996)" fill="rgb(243,101,35)" text-rendering="geometricPrecision" shape-rendering="geometricPrecision" stroke="rgb(243,101,35)" stroke-miterlimit="1.45">
      <rect x="25.296" y="-357.3795" clip-path="url(#clipPath2)" fill="none" width="150.8576" rx="4" ry="4" height="20"/>
    </g>
    <g stroke-linecap="butt" transform="matrix(2,0,0,2,-44,996)" text-rendering="geometricPrecision" font-family="sans-serif" shape-rendering="geometricPrecision" font-weight="bold" stroke-miterlimit="1.45">
      <text x="64.0519" xml:space="preserve" y="-142.6657" clip-path="url(#clipPath2)" stroke="none">ObjectBoundary</text>
    </g>
    <g stroke-linecap="butt" transform="matrix(2,0,0,2,-44,996)" fill="rgb(243,101,35)" text-rendering="geometricPrecision" shape-rendering="geometricPrecision" stroke="rgb(243,101,35)" stroke-miterlimit="1.45">
      <rect x="45.296" y="-157.3795" clip-path="url(#clipPath2)" fill="none" width="130.8576" rx="4" ry="4" height="20"/>
    </g>
    <g stroke-linecap="butt" transform="matrix(2,0,0,2,-44,996)" text-rendering="geometricPrecision" font-family="sans-serif" shape-rendering="geometricPrecision" font-weight="bold" stroke-miterlimit="1.45">
      <text x="62.382" xml:space="preserve" y="-302.6657" clip-path="url(#clipPath2)" stroke="none">ObjectAggregate</text>
    </g>
    <g stroke-linecap="butt" transform="matrix(2,0,0,2,-44,996)" fill="rgb(243,101,35)" text-rendering="geometricPrecision" shape-rendering="geometricPrecision" stroke="rgb(243,101,35)" stroke-miterlimit="1.45">
      <rect x="45.296" y="-317.3795" clip-path="url(#clipPath2)" fill="none" width="130.8576" rx="4" ry="4" height="20"/>
    </g>
    <g stroke-linecap="butt" transform="matrix(2,0,0,2,-44,996)" text-rendering="geometricPrecision" font-family="sans-serif" shape-rendering="geometricPrecision" font-weight="bold" stroke-miterlimit="1.45">
      <text x="105.7277" xml:space="preserve" y="-22.6657" clip-path="url(#clipPath2)" stroke="none">Point</text>
    </g>
    <g stroke-linecap="butt" transform="matrix(2,0,0,2,-44,996)" fill="rgb(243,101,35)" text-rendering="geometricPrecision" shape-rendering="geometricPrecision" stroke="rgb(243,101,35)" stroke-miterlimit="1.45">
      <rect x="65.296" y="-37.3795" clip-path="url(#clipPath2)" fill="none" width="110.8576" rx="4" ry="4" height="20"/>
    </g>
    <g stroke-linecap="butt" transform="matrix(2,0,0,2,-44,996)" text-rendering="geometricPrecision" font-family="sans-serif" shape-rendering="geometricPrecision" font-weight="bold" stroke-miterlimit="1.45">
      <text x="92.0539" xml:space="preserve" y="-222.6657" clip-path="url(#clipPath2)" stroke="none">Object</text>
    </g>
    <g stroke-linecap="butt" transform="matrix(2,0,0,2,-44,996)" fill="rgb(243,101,35)" text-rendering="geometricPrecision" shape-rendering="geometricPrecision" stroke="rgb(243,101,35)" stroke-miterlimit="1.45">
      <rect x="45.296" y="-237.3795" clip-path="url(#clipPath2)" fill="none" width="130.8576" rx="4" ry="4" height="20"/>
    </g>
    <g stroke-linecap="butt" transform="matrix(2,0,0,2,-44,996)" text-rendering="geometricPrecision" font-family="sans-serif" shape-rendering="geometricPrecision" font-weight="bold" stroke-miterlimit="1.45">
      <text x="98.7141" xml:space="preserve" y="-102.6657" clip-path="url(#clipPath2)" stroke="none">Surface</text>
    </g>
    <g stroke-linecap="butt" transform="matrix(2,0,0,2,-44,996)" fill="rgb(243,101,35)" text-rendering="geometricPrecision" shape-rendering="geometricPrecision" stroke="rgb(243,101,35)" stroke-miterlimit="1.45">
      <rect x="65.296" y="-117.3795" clip-path="url(#clipPath2)" fill="none" width="110.8576" rx="4" ry="4" height="20"/>
    </g>
    <g fill="rgb(150,150,150)" text-rendering="geometricPrecision" shape-rendering="geometricPrecision" transform="matrix(2,0,0,2,-44,996)" stroke="rgb(150,150,150)">
      <rect x="405.808" y="-465.6995" clip-path="url(#clipPath2)" width="68" rx="4" ry="4" height="20" stroke="none"/>
    </g>
    <g stroke-linecap="butt" transform="matrix(2,0,0,2,-44,996)" fill="white" text-rendering="geometricPrecision" font-family="sans-serif" shape-rendering="geometricPrecision" stroke="white" font-weight="bold" stroke-miterlimit="1.45">
      <text x="411.8061" xml:space="preserve" y="-450.9857" clip-path="url(#clipPath2)" stroke="none">Individual</text>
    </g>
    <g stroke-linecap="butt" transform="matrix(2,0,0,2,-44,996)" fill="rgb(150,150,150)" text-rendering="geometricPrecision" shape-rendering="geometricPrecision" stroke="rgb(150,150,150)" stroke-miterlimit="1.45">
      <rect x="405.808" y="-465.6995" clip-path="url(#clipPath2)" fill="none" width="68" rx="4" ry="4" height="20"/>
    </g>
    <g stroke-linecap="butt" transform="matrix(2,0,0,2,-44,996)" text-rendering="geometricPrecision" font-family="sans-serif" shape-rendering="geometricPrecision" font-weight="bold" stroke-miterlimit="1.45">
      <text x="80.382" xml:space="preserve" y="-262.6657" clip-path="url(#clipPath2)" stroke="none">ObjectPart</text>
    </g>
    <g stroke-linecap="butt" transform="matrix(2,0,0,2,-44,996)" fill="rgb(243,101,35)" text-rendering="geometricPrecision" shape-rendering="geometricPrecision" stroke="rgb(243,101,35)" stroke-miterlimit="1.45">
      <rect x="45.296" y="-277.3795" clip-path="url(#clipPath2)" fill="none" width="130.8576" rx="4" ry="4" height="20"/>
    </g>
    <g stroke-linecap="butt" transform="matrix(2,0,0,2,-44,996)" text-rendering="geometricPrecision" font-family="sans-serif" shape-rendering="geometricPrecision" font-weight="bold" stroke-miterlimit="1.45">
      <text x="424.144" xml:space="preserve" y="-262.6657" clip-path="url(#clipPath2)" stroke="none">Situation</text>
    </g>
    <g stroke-linecap="butt" transform="matrix(2,0,0,2,-44,996)" fill="rgb(157,64,95)" text-rendering="geometricPrecision" shape-rendering="geometricPrecision" stroke="rgb(157,64,95)" stroke-miterlimit="1.45">
      <rect x="390.408" y="-277.3795" clip-path="url(#clipPath2)" fill="none" width="118.8" rx="4" ry="4" height="20"/>
    </g>
    <g stroke-linecap="butt" transform="matrix(2,0,0,2,-44,996)" text-rendering="geometricPrecision" font-family="sans-serif" shape-rendering="geometricPrecision" font-weight="bold" stroke-miterlimit="1.45">
      <text x="394.4721" xml:space="preserve" y="-302.6657" clip-path="url(#clipPath2)" stroke="none">SituationAggregate</text>
    </g>
    <g stroke-linecap="butt" transform="matrix(2,0,0,2,-44,996)" fill="rgb(157,64,95)" text-rendering="geometricPrecision" shape-rendering="geometricPrecision" stroke="rgb(157,64,95)" stroke-miterlimit="1.45">
      <rect x="390.408" y="-317.3795" clip-path="url(#clipPath2)" fill="none" width="118.8" rx="4" ry="4" height="20"/>
      <rect stroke-linecap="square" x="370.408" y="-357.3795" clip-path="url(#clipPath2)" width="138.8" rx="4" ry="4" height="20" stroke="none" stroke-miterlimit="10"/>
    </g>
    <g stroke-linecap="butt" transform="matrix(2,0,0,2,-44,996)" fill="white" text-rendering="geometricPrecision" font-family="sans-serif" shape-rendering="geometricPrecision" stroke="white" font-weight="bold" stroke-miterlimit="1.45">
      <text x="392.4731" xml:space="preserve" y="-342.6657" clip-path="url(#clipPath2)" stroke="none">SituationalEntity</text>
    </g>
    <g stroke-linecap="butt" transform="matrix(2,0,0,2,-44,996)" fill="rgb(157,64,95)" text-rendering="geometricPrecision" shape-rendering="geometricPrecision" stroke="rgb(157,64,95)" stroke-miterlimit="1.45">
      <rect x="370.408" y="-357.3795" clip-path="url(#clipPath2)" fill="none" width="138.8" rx="4" ry="4" height="20"/>
    </g>
    <g stroke-linecap="butt" transform="matrix(2,0,0,2,-44,996)" text-rendering="geometricPrecision" font-family="sans-serif" shape-rendering="geometricPrecision" font-weight="bold" stroke-miterlimit="1.45">
      <text x="603.8584" xml:space="preserve" y="-262.6657" clip-path="url(#clipPath2)" stroke="none">Process</text>
    </g>
    <g stroke-linecap="butt" transform="matrix(2,0,0,2,-44,996)" fill="rgb(247,149,29)" text-rendering="geometricPrecision" shape-rendering="geometricPrecision" stroke="rgb(247,149,29)" stroke-miterlimit="1.45">
      <rect x="569.912" y="-277.3795" clip-path="url(#clipPath2)" fill="none" width="114.592" rx="4" ry="4" height="20"/>
    </g>
    <g stroke-linecap="butt" transform="matrix(2,0,0,2,-44,996)" text-rendering="geometricPrecision" font-family="sans-serif" shape-rendering="geometricPrecision" font-weight="bold" stroke-miterlimit="1.45">
      <text x="574.1865" xml:space="preserve" y="-302.6657" clip-path="url(#clipPath2)" stroke="none">ProcessAggregate</text>
    </g>
    <g stroke-linecap="butt" transform="matrix(2,0,0,2,-44,996)" fill="rgb(247,149,29)" text-rendering="geometricPrecision" shape-rendering="geometricPrecision" stroke="rgb(247,149,29)" stroke-miterlimit="1.45">
      <rect x="569.912" y="-317.3795" clip-path="url(#clipPath2)" fill="none" width="114.592" rx="4" ry="4" height="20"/>
      <rect stroke-linecap="square" x="549.912" y="-357.3795" clip-path="url(#clipPath2)" width="134.592" rx="4" ry="4" height="20" stroke="none" stroke-miterlimit="10"/>
    </g>
    <g stroke-linecap="butt" transform="matrix(2,0,0,2,-44,996)" fill="white" text-rendering="geometricPrecision" font-family="sans-serif" shape-rendering="geometricPrecision" stroke="white" font-weight="bold" stroke-miterlimit="1.45">
      <text x="568.5225" xml:space="preserve" y="-342.6657" clip-path="url(#clipPath2)" stroke="none">ProcessualEntity</text>
    </g>
    <g stroke-linecap="butt" transform="matrix(2,0,0,2,-44,996)" fill="rgb(247,149,29)" text-rendering="geometricPrecision" shape-rendering="geometricPrecision" stroke="rgb(247,149,29)" stroke-miterlimit="1.45">
      <rect x="549.912" y="-357.3795" clip-path="url(#clipPath2)" fill="none" width="134.592" rx="4" ry="4" height="20"/>
    </g>
    <g stroke-linecap="butt" transform="matrix(2,0,0,2,-44,996)" text-rendering="geometricPrecision" font-family="sans-serif" shape-rendering="geometricPrecision" font-weight="bold" stroke-miterlimit="1.45">
      <text x="69.0248" xml:space="preserve" y="-182.6657" clip-path="url(#clipPath2)" stroke="none">InformationObject</text>
    </g>
    <g stroke-linecap="butt" transform="matrix(2,0,0,2,-44,996)" fill="rgb(243,101,35)" text-rendering="geometricPrecision" shape-rendering="geometricPrecision" stroke="rgb(243,101,35)" stroke-miterlimit="1.45">
      <rect x="65.232" y="-197.3795" clip-path="url(#clipPath2)" fill="none" width="110.9216" rx="4" ry="4" height="20"/>
    </g>
  </g>
</svg>
