<?xml version="1.0" encoding="UTF-8"?><svg xmlns="http://www.w3.org/2000/svg" xmlns:xlink="http://www.w3.org/1999/xlink" fill-opacity="1" color-rendering="auto" color-interpolation="auto" text-rendering="auto" stroke="black" stroke-linecap="square" width="652" stroke-miterlimit="10" shape-rendering="auto" stroke-opacity="1" fill="black" stroke-dasharray="none" font-weight="normal" stroke-width="1" height="394" font-family="'Dialog'" font-style="normal" stroke-linejoin="miter" font-size="12px" stroke-dashoffset="0" image-rendering="auto">
  <!--Generated by ySVG 2.6-->
  <defs id="genericDefs"/>
  <g>
    <defs id="defs1">
      <clipPath clipPathUnits="userSpaceOnUse" id="clipPath1">
        <path d="M0 0 L652 0 L652 394 L0 394 L0 0 Z"/>
      </clipPath>
      <clipPath clipPathUnits="userSpaceOnUse" id="clipPath2">
        <path d="M761 499 L1087 499 L1087 696 L761 696 L761 499 Z"/>
      </clipPath>
    </defs>
    <g fill="white" text-rendering="geometricPrecision" shape-rendering="geometricPrecision" transform="scale(2,2) translate(-761,-499)" stroke="white">
      <rect x="761" width="326" height="197" y="499" clip-path="url(#clipPath2)" stroke="none"/>
    </g>
    <g text-rendering="geometricPrecision" stroke-miterlimit="1.45" shape-rendering="geometricPrecision" transform="matrix(2,0,0,2,-1522,-998)" stroke-linecap="butt">
      <path fill="none" d="M905.7599 642.8542 L940.5844 642.8542" clip-path="url(#clipPath2)"/>
      <path d="M948.5844 642.8542 L936.5844 637.8542 L939.5844 642.8542 L936.5844 647.8542 Z" clip-path="url(#clipPath2)" stroke="none"/>
      <text x="912.1807" xml:space="preserve" y="636.2175" clip-path="url(#clipPath2)" font-family="sans-serif" stroke="none">roleIn</text>
      <path fill="none" d="M1054.636 567.8542 L1073.0081 567.8542 L1073.0081 642.8542 L1062.636 642.8542" clip-path="url(#clipPath2)"/>
      <path d="M1054.636 642.8542 L1066.636 647.8542 L1063.636 642.8542 L1066.636 637.8542 Z" clip-path="url(#clipPath2)" stroke="none"/>
      <text x="995.4535" xml:space="preserve" y="627.4539" clip-path="url(#clipPath2)" font-family="sans-serif" stroke="none">participatesIn</text>
      <path fill="none" d="M905.7599 602.8542 L940.5844 602.8542" clip-path="url(#clipPath2)"/>
      <path d="M948.5844 602.8542 L936.5844 597.8542 L939.5844 602.8542 L936.5844 607.8542 Z" clip-path="url(#clipPath2)" stroke="none"/>
      <text x="912.1807" xml:space="preserve" y="596.2175" clip-path="url(#clipPath2)" font-family="sans-serif" stroke="none">roleIn</text>
      <path fill="none" d="M1054.636 567.8542 L1073.0081 567.8542 L1073.0081 602.8542 L1062.636 602.8542" clip-path="url(#clipPath2)"/>
      <path d="M1054.636 602.8542 L1066.636 607.8542 L1063.636 602.8542 L1066.636 597.8542 Z" clip-path="url(#clipPath2)" stroke="none"/>
      <text x="995.4535" xml:space="preserve" y="586.4939" clip-path="url(#clipPath2)" font-family="sans-serif" stroke="none">participatesIn</text>
      <path fill="none" d="M905.7599 682.8542 L940.5844 682.8542" clip-path="url(#clipPath2)"/>
      <path d="M948.5844 682.8542 L936.5844 677.8542 L939.5844 682.8542 L936.5844 687.8542 Z" clip-path="url(#clipPath2)" stroke="none"/>
      <text x="912.1807" xml:space="preserve" y="676.2175" clip-path="url(#clipPath2)" font-family="sans-serif" stroke="none">roleIn</text>
      <path fill="none" d="M1054.6671 557.8542 L1083.1251 557.8542 L1083.1251 682.8542 L1062.6671 682.8542" clip-path="url(#clipPath2)"/>
      <path d="M1054.6671 682.8542 L1066.6671 687.8542 L1063.6671 682.8542 L1066.6671 677.8542 Z" clip-path="url(#clipPath2)" stroke="none"/>
      <text x="1026.2723" xml:space="preserve" y="667.1339" clip-path="url(#clipPath2)" font-family="sans-serif" stroke="none">relatedBy</text>
      <path fill="none" d="M784.6892 642.8542 L775.216 642.8542 L774.9607 547.8713" clip-path="url(#clipPath2)"/>
      <path fill="white" d="M774.9203 532.8713 L768.9634 548.8874 L780.9634 548.8552 Z" clip-path="url(#clipPath2)" stroke="none"/>
      <path fill="none" d="M774.9203 532.8713 L768.9634 548.8874 L780.9634 548.8552 Z" clip-path="url(#clipPath2)"/>
      <path fill="none" d="M784.6892 677.8542 L775.216 677.8542 L774.9438 547.8332" clip-path="url(#clipPath2)"/>
      <path fill="white" d="M774.9125 532.8333 L768.9459 548.8458 L780.9459 548.8207 Z" clip-path="url(#clipPath2)" stroke="none"/>
      <path fill="none" d="M774.9125 532.8333 L768.9459 548.8458 L780.9459 548.8207 Z" clip-path="url(#clipPath2)"/>
      <path fill="none" d="M784.6892 562.8542 L775.216 562.8542 L775.0957 547.8801" clip-path="url(#clipPath2)"/>
      <path fill="white" d="M774.9752 532.8806 L769.1039 548.9282 L781.1035 548.8318 Z" clip-path="url(#clipPath2)" stroke="none"/>
      <path fill="none" d="M774.9752 532.8806 L769.1039 548.9282 L781.1035 548.8318 Z" clip-path="url(#clipPath2)"/>
      <path fill="none" d="M784.6892 602.8542 L775.216 602.8542 L774.9937 547.8151" clip-path="url(#clipPath2)"/>
      <path fill="white" d="M774.933 532.8152 L768.9977 548.8393 L780.9976 548.7908 Z" clip-path="url(#clipPath2)" stroke="none"/>
      <path fill="none" d="M774.933 532.8152 L768.9977 548.8393 L780.9976 548.7908 Z" clip-path="url(#clipPath2)"/>
      <path fill="none" d="M905.8029 522.8542 L1001.6118 522.8542 L1001.6118 544.8152" clip-path="url(#clipPath2)"/>
      <path d="M1001.6118 552.8152 L1006.6118 540.8152 L1001.6118 543.8152 L996.6118 540.8152 Z" clip-path="url(#clipPath2)" stroke="none"/>
      <text x="933.5838" xml:space="preserve" y="516.2175" clip-path="url(#clipPath2)" font-family="sans-serif" stroke="none">playedBy</text>
      <path fill="none" d="M905.7599 562.8542 L940.5844 562.8542" clip-path="url(#clipPath2)"/>
      <path d="M948.5844 562.8542 L936.5844 557.8542 L939.5844 562.8542 L936.5844 567.8542 Z" clip-path="url(#clipPath2)" stroke="none"/>
      <text x="912.1807" xml:space="preserve" y="556.2175" clip-path="url(#clipPath2)" font-family="sans-serif" stroke="none">roleIn</text>
    </g>
    <g fill="rgb(247,149,29)" text-rendering="geometricPrecision" shape-rendering="geometricPrecision" transform="matrix(2,0,0,2,-1522,-998)" stroke="rgb(247,149,29)">
      <rect x="948.583" y="632.8543" clip-path="url(#clipPath2)" width="106.0576" rx="4" ry="4" height="20" stroke="none"/>
    </g>
    <g stroke-linecap="butt" transform="matrix(2,0,0,2,-1522,-998)" fill="white" text-rendering="geometricPrecision" font-family="sans-serif" shape-rendering="geometricPrecision" stroke="white" font-weight="bold" stroke-miterlimit="1.45">
      <text x="952.9263" xml:space="preserve" y="647.5681" clip-path="url(#clipPath2)" stroke="none">ProcessualEntity</text>
    </g>
    <g stroke-linecap="butt" transform="matrix(2,0,0,2,-1522,-998)" fill="rgb(247,149,29)" text-rendering="geometricPrecision" shape-rendering="geometricPrecision" stroke="rgb(247,149,29)" stroke-miterlimit="1.45">
      <rect x="948.583" y="632.8543" clip-path="url(#clipPath2)" fill="none" width="106.0576" rx="4" ry="4" height="20"/>
    </g>
    <g fill="rgb(157,64,95)" text-rendering="geometricPrecision" shape-rendering="geometricPrecision" transform="matrix(2,0,0,2,-1522,-998)" stroke="rgb(157,64,95)">
      <rect x="948.583" y="592.8543" clip-path="url(#clipPath2)" width="106.0576" rx="4" ry="4" height="20" stroke="none"/>
    </g>
    <g stroke-linecap="butt" transform="matrix(2,0,0,2,-1522,-998)" fill="white" text-rendering="geometricPrecision" font-family="sans-serif" shape-rendering="geometricPrecision" stroke="white" font-weight="bold" stroke-miterlimit="1.45">
      <text x="954.2769" xml:space="preserve" y="607.5681" clip-path="url(#clipPath2)" stroke="none">SituationalEntity</text>
    </g>
    <g stroke-linecap="butt" transform="matrix(2,0,0,2,-1522,-998)" fill="rgb(157,64,95)" text-rendering="geometricPrecision" shape-rendering="geometricPrecision" stroke="rgb(157,64,95)" stroke-miterlimit="1.45">
      <rect x="948.583" y="592.8543" clip-path="url(#clipPath2)" fill="none" width="106.0576" rx="4" ry="4" height="20"/>
    </g>
    <g stroke-linecap="butt" transform="matrix(2,0,0,2,-1522,-998)" text-rendering="geometricPrecision" font-family="sans-serif" shape-rendering="geometricPrecision" font-weight="bold" stroke-miterlimit="1.45">
      <text x="803.5812" xml:space="preserve" y="687.5681" clip-path="url(#clipPath2)" stroke="none">RelationalRole</text>
    </g>
    <g stroke-linecap="butt" transform="matrix(2,0,0,2,-1522,-998)" fill="rgb(73,114,136)" text-rendering="geometricPrecision" shape-rendering="geometricPrecision" stroke="rgb(73,114,136)" stroke-miterlimit="1.45">
      <rect x="784.716" y="672.8543" clip-path="url(#clipPath2)" fill="none" width="121.08" rx="4" ry="4" height="20"/>
    </g>
    <g stroke-linecap="butt" transform="matrix(2,0,0,2,-1522,-998)" text-rendering="geometricPrecision" font-family="sans-serif" shape-rendering="geometricPrecision" font-weight="bold" stroke-miterlimit="1.45">
      <text x="980.9399" xml:space="preserve" y="687.5681" clip-path="url(#clipPath2)" stroke="none">Relator</text>
    </g>
    <g stroke-linecap="butt" transform="matrix(2,0,0,2,-1522,-998)" fill="rgb(73,114,136)" text-rendering="geometricPrecision" shape-rendering="geometricPrecision" stroke="rgb(73,114,136)" stroke-miterlimit="1.45">
      <rect x="948.583" y="672.8543" clip-path="url(#clipPath2)" fill="none" width="106.0576" rx="4" ry="4" height="20"/>
    </g>
    <g stroke-linecap="butt" transform="matrix(2,0,0,2,-1522,-998)" text-rendering="geometricPrecision" font-family="sans-serif" shape-rendering="geometricPrecision" font-weight="bold" stroke-miterlimit="1.45">
      <text x="822.254" xml:space="preserve" y="527.5681" clip-path="url(#clipPath2)" stroke="none">Role</text>
    </g>
    <g stroke-linecap="butt" transform="matrix(2,0,0,2,-1522,-998)" fill="rgb(73,114,136)" text-rendering="geometricPrecision" shape-rendering="geometricPrecision" stroke="rgb(73,114,136)" stroke-miterlimit="1.45">
      <rect x="764.716" y="512.8543" clip-path="url(#clipPath2)" fill="none" width="141.08" rx="4" ry="4" height="20"/>
    </g>
    <g stroke-linecap="butt" transform="matrix(2,0,0,2,-1522,-998)" text-rendering="geometricPrecision" font-family="sans-serif" shape-rendering="geometricPrecision" font-weight="bold" stroke-miterlimit="1.45">
      <text x="800.2355" xml:space="preserve" y="647.5681" clip-path="url(#clipPath2)" stroke="none">ProcessualRole</text>
    </g>
    <g stroke-linecap="butt" transform="matrix(2,0,0,2,-1522,-998)" fill="rgb(73,114,136)" text-rendering="geometricPrecision" shape-rendering="geometricPrecision" stroke="rgb(73,114,136)" stroke-miterlimit="1.45">
      <rect x="784.716" y="632.8543" clip-path="url(#clipPath2)" fill="none" width="121.08" rx="4" ry="4" height="20"/>
    </g>
    <g stroke-linecap="butt" transform="matrix(2,0,0,2,-1522,-998)" text-rendering="geometricPrecision" font-family="sans-serif" shape-rendering="geometricPrecision" font-weight="bold" stroke-miterlimit="1.45">
      <text x="788.924" xml:space="preserve" y="567.5681" clip-path="url(#clipPath2)" stroke="none">ContinuantPartRole</text>
    </g>
    <g stroke-linecap="butt" transform="matrix(2,0,0,2,-1522,-998)" fill="rgb(73,114,136)" text-rendering="geometricPrecision" shape-rendering="geometricPrecision" stroke="rgb(73,114,136)" stroke-miterlimit="1.45">
      <rect x="784.716" y="552.8543" clip-path="url(#clipPath2)" fill="none" width="121.08" rx="4" ry="4" height="20"/>
    </g>
    <g fill="rgb(243,101,35)" text-rendering="geometricPrecision" shape-rendering="geometricPrecision" transform="matrix(2,0,0,2,-1522,-998)" stroke="rgb(243,101,35)">
      <rect x="948.583" y="552.8543" clip-path="url(#clipPath2)" width="106.0576" rx="4" ry="4" height="20" stroke="none"/>
    </g>
    <g stroke-linecap="butt" transform="matrix(2,0,0,2,-1522,-998)" fill="white" text-rendering="geometricPrecision" font-family="sans-serif" shape-rendering="geometricPrecision" stroke="white" font-weight="bold" stroke-miterlimit="1.45">
      <text x="969.9536" xml:space="preserve" y="567.5681" clip-path="url(#clipPath2)" stroke="none">Continuant</text>
    </g>
    <g stroke-linecap="butt" transform="matrix(2,0,0,2,-1522,-998)" fill="rgb(243,101,35)" text-rendering="geometricPrecision" shape-rendering="geometricPrecision" stroke="rgb(243,101,35)" stroke-miterlimit="1.45">
      <rect x="948.583" y="552.8543" clip-path="url(#clipPath2)" fill="none" width="106.0576" rx="4" ry="4" height="20"/>
    </g>
    <g stroke-linecap="butt" transform="matrix(2,0,0,2,-1522,-998)" text-rendering="geometricPrecision" font-family="sans-serif" shape-rendering="geometricPrecision" font-weight="bold" stroke-miterlimit="1.45">
      <text x="801.5861" xml:space="preserve" y="607.5681" clip-path="url(#clipPath2)" stroke="none">SituationalRole</text>
    </g>
    <g stroke-linecap="butt" transform="matrix(2,0,0,2,-1522,-998)" fill="rgb(73,114,136)" text-rendering="geometricPrecision" shape-rendering="geometricPrecision" stroke="rgb(73,114,136)" stroke-miterlimit="1.45">
      <rect x="784.716" y="592.8543" clip-path="url(#clipPath2)" fill="none" width="121.08" rx="4" ry="4" height="20"/>
    </g>
  </g>
</svg>
