<?xml version="1.0" encoding="UTF-8"?><svg xmlns="http://www.w3.org/2000/svg" xmlns:xlink="http://www.w3.org/1999/xlink" fill-opacity="1" color-rendering="auto" color-interpolation="auto" text-rendering="auto" stroke="black" stroke-linecap="square" width="1326" stroke-miterlimit="10" shape-rendering="auto" stroke-opacity="1" fill="black" stroke-dasharray="none" font-weight="normal" stroke-width="1" height="1002" font-family="'Arial'" font-style="normal" stroke-linejoin="miter" font-size="12px" stroke-dashoffset="0" image-rendering="auto">
  <!--Generated by ySVG 2.6-->
  <defs id="genericDefs"/>
  <g>
    <defs id="defs1">
      <clipPath clipPathUnits="userSpaceOnUse" id="clipPath1">
        <path d="M0 0 L1326 0 L1326 1002 L0 1002 L0 0 Z"/>
      </clipPath>
      <clipPath clipPathUnits="userSpaceOnUse" id="clipPath2">
        <path d="M247 -515 L910 -515 L910 -14 L247 -14 L247 -515 Z"/>
      </clipPath>
    </defs>
    <g fill="white" text-rendering="geometricPrecision" shape-rendering="geometricPrecision" transform="scale(2,2) translate(-247,515)" stroke="white">
      <rect x="247" width="663" height="501" y="-515" clip-path="url(#clipPath2)" stroke="none"/>
    </g>
    <g text-rendering="geometricPrecision" stroke-miterlimit="1.45" shape-rendering="geometricPrecision" transform="matrix(2,0,0,2,-494,1030)" stroke-linecap="butt">
      <path fill="none" d="M315.3082 -471.7408 L346.2599 -471.7408" clip-path="url(#clipPath2)"/>
      <path fill="white" d="M361.2599 -471.7408 L345.2599 -477.7408 L345.2599 -465.7408 Z" clip-path="url(#clipPath2)" stroke="none"/>
      <path fill="none" d="M361.2599 -471.7408 L345.2599 -477.7408 L345.2599 -465.7408 Z" clip-path="url(#clipPath2)"/>
      <path fill="none" d="M449.2505 -471.7408 L418.3131 -471.7408" clip-path="url(#clipPath2)"/>
      <path fill="white" d="M403.3131 -471.7408 L419.3131 -465.7408 L419.3131 -477.7408 Z" clip-path="url(#clipPath2)" stroke="none"/>
      <path fill="none" d="M403.3131 -471.7408 L419.3131 -465.7408 L419.3131 -477.7408 Z" clip-path="url(#clipPath2)"/>
      <path fill="none" d="M275.344 -461.7072 L275.344 -444.7421 L382.2898 -444.7421 L382.2898 -453.7481" clip-path="url(#clipPath2)"/>
      <path d="M382.2898 -461.7481 L377.2898 -449.7481 L382.2898 -452.7481 L387.2898 -449.7481 Z" clip-path="url(#clipPath2)" stroke="none"/>
      <text x="291.1264" xml:space="preserve" y="-449.3788" clip-path="url(#clipPath2)" font-family="sans-serif" stroke="none">instantiatedBy</text>
      <path fill="none" d="M285.344 -357.36 L285.344 -404 L400.7123 -404" clip-path="url(#clipPath2)"/>
      <path fill="white" d="M415.7123 -404 L399.7123 -410 L399.7123 -398 Z" clip-path="url(#clipPath2)" stroke="none"/>
      <path fill="none" d="M415.7123 -404 L399.7123 -410 L399.7123 -398 Z" clip-path="url(#clipPath2)"/>
      <path fill="none" d="M481.7355 -357.36 L481.7355 -379.0252" clip-path="url(#clipPath2)"/>
      <path fill="white" d="M481.7355 -394.0252 L475.7355 -378.0252 L487.7355 -378.0252 Z" clip-path="url(#clipPath2)" stroke="none"/>
      <path fill="none" d="M481.7355 -394.0252 L475.7355 -378.0252 L487.7355 -378.0252 Z" clip-path="url(#clipPath2)"/>
      <path fill="none" d="M693.464 -357.386 L693.464 -399 L562.7197 -399" clip-path="url(#clipPath2)"/>
      <path fill="white" d="M547.7197 -399 L563.7197 -393 L563.7197 -405 Z" clip-path="url(#clipPath2)" stroke="none"/>
      <path fill="none" d="M547.7197 -399 L563.7197 -393 L563.7197 -405 Z" clip-path="url(#clipPath2)"/>
      <path fill="none" d="M547.7233 -409 L842.8392 -409 L842.8392 -365.3989" clip-path="url(#clipPath2)"/>
      <path d="M842.8392 -357.3989 L847.8392 -369.3989 L842.8392 -366.3989 L837.8392 -369.3989 Z" clip-path="url(#clipPath2)" stroke="none"/>
      <rect x="674.843" y="-418.3506" clip-path="url(#clipPath2)" fill="white" width="50.0137" height="18.7012" stroke="none"/>
      <text x="676.843" xml:space="preserve" y="-404.2861" clip-path="url(#clipPath2)" font-family="sans-serif" stroke="none">hasTime</text>
      <path fill="none" d="M814.3365 -307.3795 L806.8392 -307.3795 L806.8392 -322.4186" clip-path="url(#clipPath2)"/>
      <path fill="white" d="M806.8392 -337.4186 L800.8392 -321.4186 L812.8392 -321.4186 Z" clip-path="url(#clipPath2)" stroke="none"/>
      <path fill="none" d="M806.8392 -337.4186 L800.8392 -321.4186 L812.8392 -321.4186 Z" clip-path="url(#clipPath2)"/>
      <path fill="none" d="M814.3365 -267.3795 L806.8392 -267.3795 L806.8392 -322.4186" clip-path="url(#clipPath2)"/>
      <path fill="white" d="M806.8392 -337.4186 L800.8392 -321.4186 L812.8392 -321.4186 Z" clip-path="url(#clipPath2)" stroke="none"/>
      <path fill="none" d="M806.8392 -337.4186 L800.8392 -321.4186 L812.8392 -321.4186 Z" clip-path="url(#clipPath2)"/>
      <path fill="none" d="M481.7355 -414.0222 L481.7355 -446.7359" clip-path="url(#clipPath2)"/>
      <path fill="white" d="M481.7355 -461.7359 L475.7355 -445.7359 L487.7355 -445.7359 Z" clip-path="url(#clipPath2)" stroke="none"/>
      <path fill="none" d="M481.7355 -461.7359 L475.7355 -445.7359 L487.7355 -445.7359 Z" clip-path="url(#clipPath2)"/>
      <path fill="none" d="M852.8392 -357.3766 L852.8392 -430.9471 L481.7355 -430.9471 L481.7355 -446.7416" clip-path="url(#clipPath2)"/>
      <path fill="white" d="M481.7355 -461.7416 L475.7355 -445.7416 L487.7355 -445.7416 Z" clip-path="url(#clipPath2)" stroke="none"/>
      <path fill="none" d="M481.7355 -461.7416 L475.7355 -445.7416 L487.7355 -445.7416 Z" clip-path="url(#clipPath2)"/>
      <path fill="none" d="M275.344 -357.3489 L275.344 -420.6205 L466.7355 -420.6205 L466.7355 -453.7065" clip-path="url(#clipPath2)"/>
      <path d="M466.7355 -461.7065 L461.7355 -449.7065 L466.7355 -452.7065 L471.7355 -449.7065 Z" clip-path="url(#clipPath2)" stroke="none"/>
      <text x="256.6255" xml:space="preserve" y="-427.2572" clip-path="url(#clipPath2)" font-family="sans-serif" stroke="none">attributiveOf:qualityOf/relates/playedBy</text>
      <path fill="none" d="M481.7355 -481.7303 L481.7355 -491.0413 L572.4105 -491.0413 L572.4105 -471.7408 L522.2776 -471.7408" clip-path="url(#clipPath2)"/>
      <path d="M514.2776 -471.7408 L526.2776 -466.7408 L523.2776 -471.7408 L526.2776 -476.7408 Z" clip-path="url(#clipPath2)" stroke="none"/>
      <text x="466.7156" xml:space="preserve" y="-497.678" clip-path="url(#clipPath2)" font-family="sans-serif" stroke="none">temporallyRelatedWith</text>
      <text x="576.4105" xml:space="preserve" y="-476.6772" clip-path="url(#clipPath2)" font-family="sans-serif" stroke="none">hasPart</text>
      <path fill="none" d="M622.4657 -352.3795 L555.7371 -352.3795" clip-path="url(#clipPath2)"/>
      <path d="M547.7371 -352.3795 L559.7371 -347.3795 L556.7371 -352.3795 L559.7371 -357.3795 Z" clip-path="url(#clipPath2)" stroke="none"/>
      <text x="549.4132" xml:space="preserve" y="-359.0163" clip-path="url(#clipPath2)" font-family="sans-serif" stroke="none">participatesIn</text>
      <path fill="none" d="M430.7443 -267.3795 L423.2355 -267.3795 L423.2355 -322.4186" clip-path="url(#clipPath2)"/>
      <path fill="white" d="M423.2355 -337.4186 L417.2355 -321.4186 L429.2355 -321.4186 Z" clip-path="url(#clipPath2)" stroke="none"/>
      <path fill="none" d="M423.2355 -337.4186 L417.2355 -321.4186 L429.2355 -321.4186 Z" clip-path="url(#clipPath2)"/>
      <path fill="none" d="M430.7443 -227.3795 L423.2355 -227.3795 L423.2355 -322.3893" clip-path="url(#clipPath2)"/>
      <path fill="white" d="M423.2355 -337.3893 L417.2355 -321.3893 L429.2355 -321.3893 Z" clip-path="url(#clipPath2)" stroke="none"/>
      <path fill="none" d="M423.2355 -337.3893 L417.2355 -321.3893 L429.2355 -321.3893 Z" clip-path="url(#clipPath2)"/>
      <path fill="none" d="M472.77 -357.3882 L472.77 -374 L421.2355 -374 L421.0849 -365.387" clip-path="url(#clipPath2)"/>
      <path d="M420.945 -357.3882 L426.1541 -369.299 L421.1024 -366.3868 L416.1556 -369.4738 Z" clip-path="url(#clipPath2)" stroke="none"/>
      <text x="297.7105" xml:space="preserve" y="-378.1251" clip-path="url(#clipPath2)" font-family="sans-serif" stroke="none">leadsTo/causes/hasSituationPart</text>
      <path fill="none" d="M430.7443 -307.3795 L423.2355 -307.3795 L423.2355 -322.4186" clip-path="url(#clipPath2)"/>
      <path fill="white" d="M423.2355 -337.4186 L417.2355 -321.4186 L429.2355 -321.4186 Z" clip-path="url(#clipPath2)" stroke="none"/>
      <path fill="none" d="M423.2355 -337.4186 L417.2355 -321.4186 L429.2355 -321.4186 Z" clip-path="url(#clipPath2)"/>
      <path fill="none" d="M489.2355 -317.4186 L489.2355 -329.4023" clip-path="url(#clipPath2)"/>
      <path d="M489.2355 -337.4023 L484.2355 -325.4023 L489.2355 -328.4023 L494.2355 -325.4023 Z" clip-path="url(#clipPath2)" stroke="none"/>
      <text x="495.2355" xml:space="preserve" y="-322.6657" clip-path="url(#clipPath2)" font-family="sans-serif" stroke="none">hasMember</text>
      <path fill="none" d="M319.8142 -227.3795 L367.7898 -227.3795 L367.7898 -342.3795 L407.7215 -342.3795" clip-path="url(#clipPath2)"/>
      <path d="M415.7215 -342.3795 L403.7215 -347.3795 L406.7215 -342.3795 L403.7215 -337.3795 Z" clip-path="url(#clipPath2)" stroke="none"/>
      <rect x="350.781" y="-294.2301" clip-path="url(#clipPath2)" fill="white" width="34.0176" height="18.7012" stroke="none"/>
      <text x="352.781" xml:space="preserve" y="-280.1657" clip-path="url(#clipPath2)" font-family="sans-serif" stroke="none">roleIn</text>
      <path fill="none" d="M708.464 -89.4186 L708.464 -77.3828" clip-path="url(#clipPath2)"/>
      <path d="M708.464 -97.4186 L703.464 -85.4186 L708.464 -88.4186 L713.464 -85.4186 Z" clip-path="url(#clipPath2)" stroke="none"/>
      <text x="714.464" xml:space="preserve" y="-82.6657" clip-path="url(#clipPath2)" font-family="sans-serif" stroke="none">boundaryOf</text>
      <path fill="none" d="M637.4869 -307.3795 L629.964 -307.3795 L629.964 -322.4186" clip-path="url(#clipPath2)"/>
      <path fill="white" d="M629.964 -337.4186 L623.964 -321.4186 L635.964 -321.4186 Z" clip-path="url(#clipPath2)" stroke="none"/>
      <path fill="none" d="M629.964 -337.4186 L623.964 -321.4186 L635.964 -321.4186 Z" clip-path="url(#clipPath2)"/>
      <path fill="none" d="M637.4869 -227.3795 L629.964 -227.3795 L629.964 -322.3893" clip-path="url(#clipPath2)"/>
      <path fill="white" d="M629.964 -337.3893 L623.964 -321.3893 L635.964 -321.3893 Z" clip-path="url(#clipPath2)" stroke="none"/>
      <path fill="none" d="M629.964 -337.3893 L623.964 -321.3893 L635.964 -321.3893 Z" clip-path="url(#clipPath2)"/>
      <path fill="none" d="M637.4869 -147.3795 L629.964 -147.3795 L629.964 -322.3698" clip-path="url(#clipPath2)"/>
      <path fill="white" d="M629.964 -337.3698 L623.964 -321.3698 L635.964 -321.3698 Z" clip-path="url(#clipPath2)" stroke="none"/>
      <path fill="none" d="M629.964 -337.3698 L623.964 -321.3698 L635.964 -321.3698 Z" clip-path="url(#clipPath2)"/>
      <path fill="none" d="M637.4869 -267.3795 L629.964 -267.3795 L629.964 -322.4186" clip-path="url(#clipPath2)"/>
      <path fill="white" d="M629.964 -337.4186 L623.964 -321.4186 L635.964 -321.4186 Z" clip-path="url(#clipPath2)" stroke="none"/>
      <path fill="none" d="M629.964 -337.4186 L623.964 -321.4186 L635.964 -321.4186 Z" clip-path="url(#clipPath2)"/>
      <path fill="none" d="M292.844 -217.4186 L292.844 -187.3795 L585.0997 -187.3795 L585.0997 -342.3795 L614.4822 -342.3795" clip-path="url(#clipPath2)"/>
      <path d="M622.4822 -342.3795 L610.4822 -347.3795 L613.4822 -342.3795 L610.4822 -337.3795 Z" clip-path="url(#clipPath2)" stroke="none"/>
      <rect x="421.9631" y="-196.7301" clip-path="url(#clipPath2)" fill="white" width="34.0176" height="18.7012" stroke="none"/>
      <text x="423.9631" xml:space="preserve" y="-182.6657" clip-path="url(#clipPath2)" font-family="sans-serif" stroke="none">roleIn</text>
      <path fill="none" d="M652.4364 -107.3795 L644.964 -107.3795 L644.964 -122.4186" clip-path="url(#clipPath2)"/>
      <path fill="white" d="M644.964 -137.4186 L638.964 -121.4186 L650.964 -121.4186 Z" clip-path="url(#clipPath2)" stroke="none"/>
      <path fill="none" d="M644.964 -137.4186 L638.964 -121.4186 L650.964 -121.4186 Z" clip-path="url(#clipPath2)"/>
      <path fill="none" d="M652.4364 -67.3795 L644.964 -67.3795 L644.964 -122.4186" clip-path="url(#clipPath2)"/>
      <path fill="white" d="M644.964 -137.4186 L638.964 -121.4186 L650.964 -121.4186 Z" clip-path="url(#clipPath2)" stroke="none"/>
      <path fill="none" d="M644.964 -137.4186 L638.964 -121.4186 L650.964 -121.4186 Z" clip-path="url(#clipPath2)"/>
      <path fill="none" d="M652.4364 -27.3795 L644.964 -27.3795 L644.964 -122.3893" clip-path="url(#clipPath2)"/>
      <path fill="white" d="M644.964 -137.3893 L638.964 -121.3893 L650.964 -121.3893 Z" clip-path="url(#clipPath2)" stroke="none"/>
      <path fill="none" d="M644.964 -137.3893 L638.964 -121.3893 L650.964 -121.3893 Z" clip-path="url(#clipPath2)"/>
      <path fill="none" d="M685.964 -317.3864 L685.964 -328.464 L781.8392 -328.464 L781.8392 -312.3795 L772.5032 -312.3795" clip-path="url(#clipPath2)"/>
      <path d="M764.5032 -312.3795 L776.5032 -307.3795 L773.5032 -312.3795 L776.5032 -317.3795 Z" clip-path="url(#clipPath2)" stroke="none"/>
      <rect x="700.2229" y="-337.8146" clip-path="url(#clipPath2)" fill="white" width="67.3574" height="18.7012" stroke="none"/>
      <text x="702.2229" xml:space="preserve" y="-323.7501" clip-path="url(#clipPath2)" font-family="sans-serif" stroke="none">hasMember</text>
      <path fill="none" d="M708.464 -49.4186 L708.464 -37.3828" clip-path="url(#clipPath2)"/>
      <path d="M708.464 -57.4186 L703.464 -45.4186 L708.464 -48.4186 L713.464 -45.4186 Z" clip-path="url(#clipPath2)" stroke="none"/>
      <text x="714.464" xml:space="preserve" y="-42.6657" clip-path="url(#clipPath2)" font-family="sans-serif" stroke="none">boundaryOf</text>
      <path fill="none" d="M764.4525 -147.3795 L779.3392 -147.3795 L779.3392 -220.3795 L772.2994 -220.3795" clip-path="url(#clipPath2)"/>
      <path d="M764.2994 -220.3795 L776.2994 -215.3795 L773.2994 -220.3795 L776.2994 -225.3795 Z" clip-path="url(#clipPath2)" stroke="none"/>
      <text x="719.5153" xml:space="preserve" y="-162.8333" clip-path="url(#clipPath2)" font-family="sans-serif" stroke="none">hasOwner</text>
      <path fill="none" d="M764.4952 -107.3795 L790.4882 -107.3795 L790.4882 -227.3795 L772.4789 -227.3795" clip-path="url(#clipPath2)"/>
      <path d="M764.4789 -227.3795 L776.4789 -222.3795 L773.4789 -227.3795 L776.4789 -232.3795 Z" clip-path="url(#clipPath2)" stroke="none"/>
      <rect x="757.1347" y="-137.3207" clip-path="url(#clipPath2)" fill="white" width="66.707" height="18.7012" stroke="none"/>
      <text x="759.1346" xml:space="preserve" y="-123.2563" clip-path="url(#clipPath2)" font-family="sans-serif" stroke="none">boundaryOf</text>
      <path fill="none" d="M700.964 -257.4186 L700.964 -245.3828" clip-path="url(#clipPath2)"/>
      <path d="M700.964 -237.3828 L705.964 -249.3828 L700.964 -246.3828 L695.964 -249.3828 Z" clip-path="url(#clipPath2)" stroke="none"/>
      <text x="706.964" xml:space="preserve" y="-242.6657" clip-path="url(#clipPath2)" font-family="sans-serif" stroke="none">partOf</text>
      <path fill="none" d="M764.4525 -302.3795 L779.3392 -302.3795 L779.3392 -234.3795 L772.2994 -234.3795" clip-path="url(#clipPath2)"/>
      <path d="M764.2994 -234.3795 L776.2994 -229.3795 L773.2994 -234.3795 L776.2994 -239.3795 Z" clip-path="url(#clipPath2)" stroke="none"/>
      <text x="713.0573" xml:space="preserve" y="-285.0809" clip-path="url(#clipPath2)" font-family="sans-serif" stroke="none">hasMember</text>
      <path fill="none" d="M652.4364 -187.3795 L644.964 -187.3795 L644.964 -202.4186" clip-path="url(#clipPath2)"/>
      <path fill="white" d="M644.964 -217.4186 L638.964 -201.4186 L650.964 -201.4186 Z" clip-path="url(#clipPath2)" stroke="none"/>
      <path fill="none" d="M644.964 -217.4186 L638.964 -201.4186 L650.964 -201.4186 Z" clip-path="url(#clipPath2)"/>
      <path fill="none" d="M292.844 -237.4186 L292.844 -249.4023" clip-path="url(#clipPath2)"/>
      <path d="M292.844 -257.4023 L287.844 -245.4023 L292.844 -248.4023 L297.844 -245.4023 Z" clip-path="url(#clipPath2)" stroke="none"/>
      <text x="298.844" xml:space="preserve" y="-242.6657" clip-path="url(#clipPath2)" font-family="sans-serif" stroke="none">roleIn</text>
      <path fill="none" d="M415.7123 -352.3795 L327.8139 -352.3795" clip-path="url(#clipPath2)"/>
      <path d="M319.8139 -352.3795 L331.8139 -347.3795 L328.8139 -352.3795 L331.8139 -357.3795 Z" clip-path="url(#clipPath2)" stroke="none"/>
      <text x="323.7624" xml:space="preserve" y="-357.0163" clip-path="url(#clipPath2)" font-family="sans-serif" stroke="none">hasSituationPart</text>
      <path fill="none" d="M265.8572 -227.3795 L258.344 -227.3795 L258.344 -322.3893" clip-path="url(#clipPath2)"/>
      <path fill="white" d="M258.344 -337.3893 L252.344 -321.3893 L264.344 -321.3893 Z" clip-path="url(#clipPath2)" stroke="none"/>
      <path fill="none" d="M258.344 -337.3893 L252.344 -321.3893 L264.344 -321.3893 Z" clip-path="url(#clipPath2)"/>
      <path fill="none" d="M265.8572 -307.3795 L258.344 -307.3795 L258.344 -322.4186" clip-path="url(#clipPath2)"/>
      <path fill="white" d="M258.344 -337.4186 L252.344 -321.4186 L264.344 -321.4186 Z" clip-path="url(#clipPath2)" stroke="none"/>
      <path fill="none" d="M258.344 -337.4186 L252.344 -321.4186 L264.344 -321.4186 Z" clip-path="url(#clipPath2)"/>
      <path fill="none" d="M265.8572 -267.3795 L258.344 -267.3795 L258.344 -322.4186" clip-path="url(#clipPath2)"/>
      <path fill="white" d="M258.344 -337.4186 L252.344 -321.4186 L264.344 -321.4186 Z" clip-path="url(#clipPath2)" stroke="none"/>
      <path fill="none" d="M258.344 -337.4186 L252.344 -321.4186 L264.344 -321.4186 Z" clip-path="url(#clipPath2)"/>
    </g>
    <g fill="rgb(150,150,150)" text-rendering="geometricPrecision" shape-rendering="geometricPrecision" transform="matrix(2,0,0,2,-494,1030)" stroke="rgb(150,150,150)">
      <rect x="255.344" y="-481.7408" clip-path="url(#clipPath2)" width="60" rx="4" ry="4" height="20" stroke="none"/>
    </g>
    <g stroke-linecap="butt" transform="matrix(2,0,0,2,-494,1030)" fill="white" text-rendering="geometricPrecision" font-family="sans-serif" shape-rendering="geometricPrecision" stroke="white" font-weight="bold" stroke-miterlimit="1.45">
      <text x="259.3372" xml:space="preserve" y="-467.0269" clip-path="url(#clipPath2)" stroke="none">Category</text>
    </g>
    <g stroke-linecap="butt" transform="matrix(2,0,0,2,-494,1030)" fill="rgb(150,150,150)" text-rendering="geometricPrecision" shape-rendering="geometricPrecision" stroke="rgb(150,150,150)" stroke-miterlimit="1.45">
      <rect x="255.344" y="-481.7408" clip-path="url(#clipPath2)" fill="none" width="60" rx="4" ry="4" height="20"/>
      <rect stroke-linecap="square" x="361.2898" y="-481.7408" clip-path="url(#clipPath2)" width="42" rx="4" ry="4" height="20" stroke="none" stroke-miterlimit="10"/>
    </g>
    <g stroke-linecap="butt" transform="matrix(2,0,0,2,-494,1030)" fill="white" text-rendering="geometricPrecision" font-family="sans-serif" shape-rendering="geometricPrecision" stroke="white" font-weight="bold" stroke-miterlimit="1.45">
      <text x="365.6228" xml:space="preserve" y="-467.0269" clip-path="url(#clipPath2)" stroke="none">Entity</text>
    </g>
    <g stroke-linecap="butt" transform="matrix(2,0,0,2,-494,1030)" fill="rgb(150,150,150)" text-rendering="geometricPrecision" shape-rendering="geometricPrecision" stroke="rgb(150,150,150)" stroke-miterlimit="1.45">
      <rect x="361.2898" y="-481.7408" clip-path="url(#clipPath2)" fill="none" width="42" rx="4" ry="4" height="20"/>
      <rect stroke-linecap="square" x="415.7355" y="-414" clip-path="url(#clipPath2)" width="132" rx="4" ry="4" height="20" stroke="none" stroke-miterlimit="10"/>
    </g>
    <g stroke-linecap="butt" transform="matrix(2,0,0,2,-494,1030)" fill="white" text-rendering="geometricPrecision" font-family="sans-serif" shape-rendering="geometricPrecision" stroke="white" font-weight="bold" stroke-miterlimit="1.45">
      <text x="427.7267" xml:space="preserve" y="-399.2861" clip-path="url(#clipPath2)" stroke="none">ConcreteIndividual</text>
    </g>
    <g stroke-linecap="butt" transform="matrix(2,0,0,2,-494,1030)" fill="rgb(150,150,150)" text-rendering="geometricPrecision" shape-rendering="geometricPrecision" stroke="rgb(150,150,150)" stroke-miterlimit="1.45">
      <rect x="415.7355" y="-414" clip-path="url(#clipPath2)" fill="none" width="132" rx="4" ry="4" height="20"/>
    </g>
    <g fill="rgb(43,138,132)" text-rendering="geometricPrecision" shape-rendering="geometricPrecision" transform="matrix(2,0,0,2,-494,1030)" stroke="rgb(43,138,132)">
      <rect x="799.3392" y="-357.3795" clip-path="url(#clipPath2)" width="107" rx="4" ry="4" height="20" stroke="none"/>
    </g>
    <g stroke-linecap="butt" transform="matrix(2,0,0,2,-494,1030)" fill="white" text-rendering="geometricPrecision" font-family="sans-serif" shape-rendering="geometricPrecision" stroke="white" font-weight="bold" stroke-miterlimit="1.45">
      <text x="822.1683" xml:space="preserve" y="-342.6657" clip-path="url(#clipPath2)" stroke="none">TimeEntity</text>
    </g>
    <g stroke-linecap="butt" transform="matrix(2,0,0,2,-494,1030)" fill="rgb(43,138,132)" text-rendering="geometricPrecision" shape-rendering="geometricPrecision" stroke="rgb(43,138,132)" stroke-miterlimit="1.45">
      <rect x="799.3392" y="-357.3795" clip-path="url(#clipPath2)" fill="none" width="107" rx="4" ry="4" height="20"/>
    </g>
    <g fill="rgb(150,150,150)" text-rendering="geometricPrecision" shape-rendering="geometricPrecision" transform="matrix(2,0,0,2,-494,1030)" stroke="rgb(150,150,150)">
      <rect x="449.2355" y="-481.7408" clip-path="url(#clipPath2)" width="65" rx="4" ry="4" height="20" stroke="none"/>
    </g>
    <g stroke-linecap="butt" transform="matrix(2,0,0,2,-494,1030)" fill="white" text-rendering="geometricPrecision" font-family="sans-serif" shape-rendering="geometricPrecision" stroke="white" font-weight="bold" stroke-miterlimit="1.45">
      <text x="453.7336" xml:space="preserve" y="-467.0269" clip-path="url(#clipPath2)" stroke="none">Individual</text>
    </g>
    <g stroke-linecap="butt" transform="matrix(2,0,0,2,-494,1030)" fill="rgb(150,150,150)" text-rendering="geometricPrecision" shape-rendering="geometricPrecision" stroke="rgb(150,150,150)" stroke-miterlimit="1.45">
      <rect x="449.2355" y="-481.7408" clip-path="url(#clipPath2)" fill="none" width="65" rx="4" ry="4" height="20"/>
    </g>
    <g fill="rgb(43,138,132)" text-rendering="geometricPrecision" shape-rendering="geometricPrecision" transform="matrix(2,0,0,2,-494,1030)" stroke="rgb(43,138,132)">
      <rect x="814.3392" y="-317.3795" clip-path="url(#clipPath2)" width="92" rx="4" ry="4" height="20" stroke="none"/>
    </g>
    <g stroke-linecap="butt" transform="matrix(2,0,0,2,-494,1030)" fill="white" text-rendering="geometricPrecision" font-family="sans-serif" shape-rendering="geometricPrecision" stroke="white" font-weight="bold" stroke-miterlimit="1.45">
      <text x="818.3333" xml:space="preserve" y="-302.6657" clip-path="url(#clipPath2)" stroke="none">TimeBoundary</text>
    </g>
    <g stroke-linecap="butt" transform="matrix(2,0,0,2,-494,1030)" fill="rgb(43,138,132)" text-rendering="geometricPrecision" shape-rendering="geometricPrecision" stroke="rgb(43,138,132)" stroke-miterlimit="1.45">
      <rect x="814.3392" y="-317.3795" clip-path="url(#clipPath2)" fill="none" width="92" rx="4" ry="4" height="20"/>
      <rect stroke-linecap="square" x="814.3392" y="-277.3795" clip-path="url(#clipPath2)" width="92" rx="4" ry="4" height="20" stroke="none" stroke-miterlimit="10"/>
    </g>
    <g stroke-linecap="butt" transform="matrix(2,0,0,2,-494,1030)" fill="white" text-rendering="geometricPrecision" font-family="sans-serif" shape-rendering="geometricPrecision" stroke="white" font-weight="bold" stroke-miterlimit="1.45">
      <text x="833.679" xml:space="preserve" y="-262.6657" clip-path="url(#clipPath2)" stroke="none">Chronoid</text>
    </g>
    <g stroke-linecap="butt" transform="matrix(2,0,0,2,-494,1030)" fill="rgb(43,138,132)" text-rendering="geometricPrecision" shape-rendering="geometricPrecision" stroke="rgb(43,138,132)" stroke-miterlimit="1.45">
      <rect x="814.3392" y="-277.3795" clip-path="url(#clipPath2)" fill="none" width="92" rx="4" ry="4" height="20"/>
    </g>
    <g fill="rgb(157,64,95)" text-rendering="geometricPrecision" shape-rendering="geometricPrecision" transform="matrix(2,0,0,2,-494,1030)" stroke="rgb(157,64,95)">
      <rect x="415.7355" y="-357.3795" clip-path="url(#clipPath2)" width="132" rx="4" ry="4" height="20" stroke="none"/>
    </g>
    <g stroke-linecap="butt" transform="matrix(2,0,0,2,-494,1030)" fill="white" text-rendering="geometricPrecision" font-family="sans-serif" shape-rendering="geometricPrecision" stroke="white" font-weight="bold" stroke-miterlimit="1.45">
      <text x="456.0714" xml:space="preserve" y="-342.6657" clip-path="url(#clipPath2)" stroke="none">Situation</text>
    </g>
    <g stroke-linecap="butt" transform="matrix(2,0,0,2,-494,1030)" fill="rgb(157,64,95)" text-rendering="geometricPrecision" shape-rendering="geometricPrecision" stroke="rgb(157,64,95)" stroke-miterlimit="1.45">
      <rect x="415.7355" y="-357.3795" clip-path="url(#clipPath2)" fill="none" width="132" rx="4" ry="4" height="20"/>
    </g>
    <g stroke-linecap="butt" transform="matrix(2,0,0,2,-494,1030)" text-rendering="geometricPrecision" font-family="sans-serif" shape-rendering="geometricPrecision" font-weight="bold" stroke-miterlimit="1.45">
      <text x="696.13" xml:space="preserve" y="-62.6657" clip-path="url(#clipPath2)" stroke="none">Line</text>
    </g>
    <g stroke-linecap="butt" transform="matrix(2,0,0,2,-494,1030)" fill="rgb(243,101,35)" text-rendering="geometricPrecision" shape-rendering="geometricPrecision" stroke="rgb(243,101,35)" stroke-miterlimit="1.45">
      <rect x="652.464" y="-77.3795" clip-path="url(#clipPath2)" fill="none" width="112" rx="4" ry="4" height="20"/>
      <rect stroke-linecap="square" x="622.464" y="-357.3795" clip-path="url(#clipPath2)" width="142" rx="4" ry="4" height="20" stroke="none" stroke-miterlimit="10"/>
    </g>
    <g stroke-linecap="butt" transform="matrix(2,0,0,2,-494,1030)" fill="white" text-rendering="geometricPrecision" font-family="sans-serif" shape-rendering="geometricPrecision" stroke="white" font-weight="bold" stroke-miterlimit="1.45">
      <text x="661.8058" xml:space="preserve" y="-342.6657" clip-path="url(#clipPath2)" stroke="none">Continuant</text>
    </g>
    <g stroke-linecap="butt" transform="matrix(2,0,0,2,-494,1030)" fill="rgb(243,101,35)" text-rendering="geometricPrecision" shape-rendering="geometricPrecision" stroke="rgb(243,101,35)" stroke-miterlimit="1.45">
      <rect x="622.464" y="-357.3795" clip-path="url(#clipPath2)" fill="none" width="142" rx="4" ry="4" height="20"/>
    </g>
    <g stroke-linecap="butt" transform="matrix(2,0,0,2,-494,1030)" text-rendering="geometricPrecision" font-family="sans-serif" shape-rendering="geometricPrecision" font-weight="bold" stroke-miterlimit="1.45">
      <text x="654.2911" xml:space="preserve" y="-142.6657" clip-path="url(#clipPath2)" stroke="none">ObjectBoundary</text>
    </g>
    <g stroke-linecap="butt" transform="matrix(2,0,0,2,-494,1030)" fill="rgb(243,101,35)" text-rendering="geometricPrecision" shape-rendering="geometricPrecision" stroke="rgb(243,101,35)" stroke-miterlimit="1.45">
      <rect x="637.464" y="-157.3795" clip-path="url(#clipPath2)" fill="none" width="127" rx="4" ry="4" height="20"/>
    </g>
    <g stroke-linecap="butt" transform="matrix(2,0,0,2,-494,1030)" text-rendering="geometricPrecision" font-family="sans-serif" shape-rendering="geometricPrecision" font-weight="bold" stroke-miterlimit="1.45">
      <text x="652.6212" xml:space="preserve" y="-302.6657" clip-path="url(#clipPath2)" stroke="none">ObjectAggregate</text>
    </g>
    <g stroke-linecap="butt" transform="matrix(2,0,0,2,-494,1030)" fill="rgb(243,101,35)" text-rendering="geometricPrecision" shape-rendering="geometricPrecision" stroke="rgb(243,101,35)" stroke-miterlimit="1.45">
      <rect x="637.464" y="-317.3795" clip-path="url(#clipPath2)" fill="none" width="127" rx="4" ry="4" height="20"/>
    </g>
    <g stroke-linecap="butt" transform="matrix(2,0,0,2,-494,1030)" text-rendering="geometricPrecision" font-family="sans-serif" shape-rendering="geometricPrecision" font-weight="bold" stroke-miterlimit="1.45">
      <text x="693.4669" xml:space="preserve" y="-22.6657" clip-path="url(#clipPath2)" stroke="none">Point</text>
    </g>
    <g stroke-linecap="butt" transform="matrix(2,0,0,2,-494,1030)" fill="rgb(243,101,35)" text-rendering="geometricPrecision" shape-rendering="geometricPrecision" stroke="rgb(243,101,35)" stroke-miterlimit="1.45">
      <rect x="652.464" y="-37.3795" clip-path="url(#clipPath2)" fill="none" width="112" rx="4" ry="4" height="20"/>
    </g>
    <g stroke-linecap="butt" transform="matrix(2,0,0,2,-494,1030)" text-rendering="geometricPrecision" font-family="sans-serif" shape-rendering="geometricPrecision" font-weight="bold" stroke-miterlimit="1.45">
      <text x="682.2931" xml:space="preserve" y="-222.6657" clip-path="url(#clipPath2)" stroke="none">Object</text>
    </g>
    <g stroke-linecap="butt" transform="matrix(2,0,0,2,-494,1030)" fill="rgb(243,101,35)" text-rendering="geometricPrecision" shape-rendering="geometricPrecision" stroke="rgb(243,101,35)" stroke-miterlimit="1.45">
      <rect x="637.464" y="-237.3795" clip-path="url(#clipPath2)" fill="none" width="127" rx="4" ry="4" height="20"/>
    </g>
    <g stroke-linecap="butt" transform="matrix(2,0,0,2,-494,1030)" text-rendering="geometricPrecision" font-family="sans-serif" shape-rendering="geometricPrecision" font-weight="bold" stroke-miterlimit="1.45">
      <text x="686.4532" xml:space="preserve" y="-102.6657" clip-path="url(#clipPath2)" stroke="none">Surface</text>
    </g>
    <g stroke-linecap="butt" transform="matrix(2,0,0,2,-494,1030)" fill="rgb(243,101,35)" text-rendering="geometricPrecision" shape-rendering="geometricPrecision" stroke="rgb(243,101,35)" stroke-miterlimit="1.45">
      <rect x="652.464" y="-117.3795" clip-path="url(#clipPath2)" fill="none" width="112" rx="4" ry="4" height="20"/>
    </g>
    <g stroke-linecap="butt" transform="matrix(2,0,0,2,-494,1030)" text-rendering="geometricPrecision" font-family="sans-serif" shape-rendering="geometricPrecision" font-weight="bold" stroke-miterlimit="1.45">
      <text x="670.6212" xml:space="preserve" y="-262.6657" clip-path="url(#clipPath2)" stroke="none">ObjectPart</text>
    </g>
    <g stroke-linecap="butt" transform="matrix(2,0,0,2,-494,1030)" fill="rgb(243,101,35)" text-rendering="geometricPrecision" shape-rendering="geometricPrecision" stroke="rgb(243,101,35)" stroke-miterlimit="1.45">
      <rect x="637.464" y="-277.3795" clip-path="url(#clipPath2)" fill="none" width="127" rx="4" ry="4" height="20"/>
    </g>
    <g stroke-linecap="butt" transform="matrix(2,0,0,2,-494,1030)" text-rendering="geometricPrecision" font-family="sans-serif" shape-rendering="geometricPrecision" font-weight="bold" stroke-miterlimit="1.45">
      <text x="656.796" xml:space="preserve" y="-182.6657" clip-path="url(#clipPath2)" stroke="none">InformationObject</text>
    </g>
    <g stroke-linecap="butt" transform="matrix(2,0,0,2,-494,1030)" fill="rgb(243,101,35)" text-rendering="geometricPrecision" shape-rendering="geometricPrecision" stroke="rgb(243,101,35)" stroke-miterlimit="1.45">
      <rect x="652.464" y="-197.3795" clip-path="url(#clipPath2)" fill="none" width="112" rx="4" ry="4" height="20"/>
    </g>
    <g stroke-linecap="butt" transform="matrix(2,0,0,2,-494,1030)" text-rendering="geometricPrecision" font-family="sans-serif" shape-rendering="geometricPrecision" font-weight="bold" stroke-miterlimit="1.45">
      <text x="272.1721" xml:space="preserve" y="-262.6657" clip-path="url(#clipPath2)" stroke="none">Relator</text>
    </g>
    <g stroke-linecap="butt" transform="matrix(2,0,0,2,-494,1030)" fill="rgb(73,114,136)" text-rendering="geometricPrecision" shape-rendering="geometricPrecision" stroke="rgb(73,114,136)" stroke-miterlimit="1.45">
      <rect x="265.844" y="-277.3795" clip-path="url(#clipPath2)" fill="none" width="54" rx="4" ry="4" height="20"/>
    </g>
    <g stroke-linecap="butt" transform="matrix(2,0,0,2,-494,1030)" text-rendering="geometricPrecision" font-family="sans-serif" shape-rendering="geometricPrecision" font-weight="bold" stroke-miterlimit="1.45">
      <text x="279.842" xml:space="preserve" y="-222.6657" clip-path="url(#clipPath2)" stroke="none">Role</text>
    </g>
    <g stroke-linecap="butt" transform="matrix(2,0,0,2,-494,1030)" fill="rgb(73,114,136)" text-rendering="geometricPrecision" shape-rendering="geometricPrecision" stroke="rgb(73,114,136)" stroke-miterlimit="1.45">
      <rect x="265.844" y="-237.3795" clip-path="url(#clipPath2)" fill="none" width="54" rx="4" ry="4" height="20"/>
    </g>
    <g stroke-linecap="butt" transform="matrix(2,0,0,2,-494,1030)" text-rendering="geometricPrecision" font-family="sans-serif" shape-rendering="geometricPrecision" font-weight="bold" stroke-miterlimit="1.45">
      <text x="272.5061" xml:space="preserve" y="-302.6657" clip-path="url(#clipPath2)" stroke="none">Quality</text>
    </g>
    <g stroke-linecap="butt" transform="matrix(2,0,0,2,-494,1030)" fill="rgb(73,114,136)" text-rendering="geometricPrecision" shape-rendering="geometricPrecision" stroke="rgb(73,114,136)" stroke-miterlimit="1.45">
      <rect x="265.844" y="-317.3795" clip-path="url(#clipPath2)" fill="none" width="54" rx="4" ry="4" height="20"/>
      <rect stroke-linecap="square" x="250.844" y="-357.3795" clip-path="url(#clipPath2)" width="69" rx="4" ry="4" height="20" stroke="none" stroke-miterlimit="10"/>
    </g>
    <g stroke-linecap="butt" transform="matrix(2,0,0,2,-494,1030)" fill="white" text-rendering="geometricPrecision" font-family="sans-serif" shape-rendering="geometricPrecision" stroke="white" font-weight="bold" stroke-miterlimit="1.45">
      <text x="255.344" xml:space="preserve" y="-342.6657" clip-path="url(#clipPath2)" stroke="none">Attributive</text>
    </g>
    <g stroke-linecap="butt" transform="matrix(2,0,0,2,-494,1030)" fill="rgb(73,114,136)" text-rendering="geometricPrecision" shape-rendering="geometricPrecision" stroke="rgb(73,114,136)" stroke-miterlimit="1.45">
      <rect x="250.844" y="-357.3795" clip-path="url(#clipPath2)" fill="none" width="69" rx="4" ry="4" height="20"/>
    </g>
    <g stroke-linecap="butt" transform="matrix(2,0,0,2,-494,1030)" text-rendering="geometricPrecision" font-family="sans-serif" shape-rendering="geometricPrecision" font-weight="bold" stroke-miterlimit="1.45">
      <text x="433.8996" xml:space="preserve" y="-302.6657" clip-path="url(#clipPath2)" stroke="none">SituationAggregate</text>
    </g>
    <g stroke-linecap="butt" transform="matrix(2,0,0,2,-494,1030)" fill="rgb(157,64,95)" text-rendering="geometricPrecision" shape-rendering="geometricPrecision" stroke="rgb(157,64,95)" stroke-miterlimit="1.45">
      <rect x="430.7355" y="-317.3795" clip-path="url(#clipPath2)" fill="none" width="117" rx="4" ry="4" height="20"/>
      <rect stroke-linecap="square" x="430.7355" y="-277.3795" clip-path="url(#clipPath2)" width="117" rx="4" ry="4" height="20" stroke="none" stroke-miterlimit="10"/>
    </g>
    <g stroke-linecap="butt" transform="matrix(2,0,0,2,-494,1030)" fill="white" text-rendering="geometricPrecision" font-family="sans-serif" shape-rendering="geometricPrecision" stroke="white" font-weight="bold" stroke-miterlimit="1.45">
      <text x="474.5636" xml:space="preserve" y="-262.6657" clip-path="url(#clipPath2)" stroke="none">State</text>
    </g>
    <g stroke-linecap="butt" transform="matrix(2,0,0,2,-494,1030)" fill="rgb(157,64,95)" text-rendering="geometricPrecision" shape-rendering="geometricPrecision" stroke="rgb(157,64,95)" stroke-miterlimit="1.45">
      <rect x="430.7355" y="-277.3795" clip-path="url(#clipPath2)" fill="none" width="117" rx="4" ry="4" height="20"/>
      <rect stroke-linecap="square" x="430.7355" y="-237.3795" clip-path="url(#clipPath2)" width="117" rx="4" ry="4" height="20" stroke="none" stroke-miterlimit="10"/>
    </g>
    <g stroke-linecap="butt" transform="matrix(2,0,0,2,-494,1030)" fill="white" text-rendering="geometricPrecision" font-family="sans-serif" shape-rendering="geometricPrecision" stroke="white" font-weight="bold" stroke-miterlimit="1.45">
      <text x="465.8859" xml:space="preserve" y="-222.6657" clip-path="url(#clipPath2)" stroke="none">Process</text>
    </g>
    <g stroke-linecap="butt" transform="matrix(2,0,0,2,-494,1030)" fill="rgb(157,64,95)" text-rendering="geometricPrecision" shape-rendering="geometricPrecision" stroke="rgb(157,64,95)" stroke-miterlimit="1.45">
      <rect x="430.7355" y="-237.3795" clip-path="url(#clipPath2)" fill="none" width="117" rx="4" ry="4" height="20"/>
    </g>
  </g>
</svg>
